<svg width="576" height="430" viewBox="0 0 576 430" fill="none" xmlns="http://www.w3.org/2000/svg">
<g clip-path="url(#clip0)">
<path d="M576 377.165H0V377.453H576V377.165Z" fill="#EBEBEB"/>
<path d="M363.652 385.01H334.322V385.298H363.652V385.01Z" fill="#EBEBEB"/>
<path d="M524.667 391.242H455.167V391.53H524.667V391.242Z" fill="#EBEBEB"/>
<path d="M328.078 385.148H256.274V385.436H328.078V385.148Z" fill="#EBEBEB"/>
<path d="M209.71 393.765H194.688V394.053H209.71V393.765Z" fill="#EBEBEB"/>
<path d="M292.712 393.765H224.306V394.053H292.712V393.765Z" fill="#EBEBEB"/>
<path d="M104.728 388.904H60.4339V389.192H104.728V388.904Z" fill="#EBEBEB"/>
<path d="M273.024 325.786H50.5843C48.8418 325.783 47.1716 325.088 45.9405 323.855C44.7094 322.622 44.0179 320.95 44.0179 319.208V6.52032C44.0331 4.78774 44.7313 3.13111 45.9607 1.91027C47.1902 0.689424 48.8517 0.002968 50.5843 0H273.024C274.769 0 276.442 0.693029 277.675 1.92663C278.909 3.16023 279.602 4.83335 279.602 6.57792V319.208C279.602 320.952 278.909 322.625 277.675 323.859C276.442 325.093 274.769 325.786 273.024 325.786ZM50.5843 0.230401C48.9182 0.233453 47.3212 0.897483 46.1441 2.07674C44.967 3.256 44.3059 4.85412 44.3059 6.52032V319.208C44.3059 320.874 44.967 322.472 46.1441 323.651C47.3212 324.831 48.9182 325.495 50.5843 325.498H273.024C274.691 325.495 276.289 324.831 277.468 323.652C278.647 322.473 279.311 320.875 279.314 319.208V6.52032C279.311 4.85307 278.647 3.25497 277.468 2.07604C276.289 0.897109 274.691 0.233446 273.024 0.230401H50.5843Z" fill="#EBEBEB"/>
<path d="M522.213 325.786H299.762C298.018 325.783 296.347 325.089 295.114 323.856C293.881 322.623 293.187 320.951 293.184 319.208V6.52032C293.202 4.78669 293.903 3.13007 295.134 1.90955C296.365 0.689021 298.028 0.00293563 299.762 0H522.213C523.944 0.00599558 525.602 0.693791 526.829 1.91431C528.056 3.13483 528.753 4.78973 528.768 6.52032V319.208C528.768 320.948 528.078 322.618 526.85 323.851C525.621 325.084 523.954 325.78 522.213 325.786ZM299.762 0.230401C298.095 0.233446 296.497 0.897109 295.318 2.07604C294.139 3.25497 293.475 4.85307 293.472 6.52032V319.208C293.475 320.875 294.139 322.473 295.318 323.652C296.497 324.831 298.095 325.495 299.762 325.498H522.213C523.88 325.495 525.478 324.831 526.657 323.652C527.836 322.473 528.5 320.875 528.503 319.208V6.52032C528.5 4.85307 527.836 3.25497 526.657 2.07604C525.478 0.897109 523.88 0.233446 522.213 0.230401H299.762Z" fill="#EBEBEB"/>
<path d="M225.746 277.252H149.253L144.611 223.684H221.103L225.746 277.252Z" fill="#E6E6E6"/>
<path d="M229.709 277.252H153.216L148.573 223.684H225.066L229.709 277.252Z" fill="#F0F0F0"/>
<path d="M163.676 265.743L161.119 235.181H214.606L217.163 265.743H163.676Z" fill="white"/>
<path d="M242.945 277.252H233.971V377.165H242.945V277.252Z" fill="#E6E6E6"/>
<path d="M245.779 277.252H239.547V377.165H245.779V277.252Z" fill="#F0F0F0"/>
<path d="M158.907 288.276H245.779V277.252H158.907V288.276Z" fill="#F0F0F0"/>
<path d="M161.971 288.276H152.997V377.165H161.971V288.276Z" fill="#E6E6E6"/>
<path d="M164.805 288.276H158.573V377.165H164.805V288.276Z" fill="#F0F0F0"/>
<path d="M98.0928 288.276H89.1187V377.165H98.0928V288.276Z" fill="#E6E6E6"/>
<path d="M100.927 288.276H94.6944V377.165H100.927V288.276Z" fill="#F0F0F0"/>
<path d="M186.152 288.276H177.178V377.165H186.152V288.276Z" fill="#E6E6E6"/>
<path d="M188.974 288.276H182.742V377.165H188.974V288.276Z" fill="#F0F0F0"/>
<path d="M158.907 277.252H89.1187V288.277H158.907V277.252Z" fill="#E6E6E6"/>
<path d="M419.144 28.1201H149.196V178.41H419.144V28.1201Z" fill="#E0E0E0"/>
<path d="M433.97 28.1201H150.555V178.41H433.97V28.1201Z" fill="#F5F5F5"/>
<path d="M429.339 173.779V32.7515L155.186 32.7515V173.779L429.339 173.779Z" fill="white"/>
<path d="M266.193 173.779L317.952 32.7515H232.531L180.772 173.779H266.193Z" fill="#F5F5F5"/>
<path d="M348.411 173.779L400.17 32.7515H335.727L283.968 173.779H348.411Z" fill="#F5F5F5"/>
<path d="M504.703 233.625H481.755V377.165H504.703V233.625Z" fill="#E6E6E6"/>
<path d="M498.666 377.165H504.703V366.117H492.342L498.666 377.165Z" fill="#FAFAFA"/>
<path d="M293.126 233.625H270.179V377.165H293.126V233.625Z" fill="#E6E6E6"/>
<path d="M504.703 233.625H287.862V374.181H504.703V233.625Z" fill="#FAFAFA"/>
<path d="M500.602 278.98H291.974V239.282H500.602V278.98ZM293.126 277.828H499.45V240.434H293.126V277.828Z" fill="#E6E6E6"/>
<path d="M463.876 258.555H332.744C326.661 258.555 320.797 253.647 316.616 245.076L316.224 244.259H480.384L479.992 245.076C475.776 253.647 470.016 258.555 463.876 258.555ZM318.113 245.376C322.007 253.014 327.329 257.368 332.744 257.368H463.876C469.313 257.368 474.612 253.014 478.506 245.376H318.113Z" fill="#E6E6E6"/>
<path d="M293.898 377.165H287.862V366.117H300.223L293.898 377.165Z" fill="#FAFAFA"/>
<path d="M500.602 323.712H291.974V284.06H500.602V323.712ZM293.126 322.56H499.45V285.212H293.126V322.56Z" fill="#E6E6E6"/>
<path d="M463.876 303.333H332.744C326.661 303.333 320.797 298.414 316.616 289.855L316.224 289.025H480.384L479.992 289.855C475.776 298.368 470.016 303.333 463.876 303.333ZM318.113 290.177C322.007 297.815 327.329 302.181 332.744 302.181H463.876C469.313 302.181 474.612 297.815 478.506 290.177H318.113Z" fill="#E6E6E6"/>
<path d="M500.602 368.525H291.974V328.827H500.602V368.525ZM293.126 367.373H499.45V329.979H293.126V367.373Z" fill="#E6E6E6"/>
<path d="M463.876 348.1H332.744C326.661 348.1 320.797 343.192 316.616 334.633L316.224 333.803H480.384L479.992 334.633C475.776 343.192 470.016 348.1 463.876 348.1ZM318.113 334.955C322.007 342.593 327.329 346.948 332.744 346.948H463.876C469.313 346.948 474.612 342.593 478.506 334.955H318.113Z" fill="#E6E6E6"/>
<path d="M139.369 252.611V255.398H137.595L136.12 277.252H114.417L112.954 255.398H111.168V252.611H139.369Z" fill="#E6E6E6"/>
<path d="M132.227 198.386C130.452 185.368 112.884 181.659 90.5933 181.175C69.3849 180.726 62.5881 173.226 62.5881 173.226C62.5881 173.226 62.6572 203.605 93.2198 214.618C122.239 225.055 134.012 211.427 132.227 198.386Z" fill="#E6E6E6"/>
<path d="M121.398 227.889C121.766 222.543 130.314 212.705 150.877 217.175C165.738 220.412 171.268 212.705 171.268 212.705C171.268 212.705 169.885 234.455 147.537 240.987C126.305 247.196 120.741 237.312 121.398 227.889Z" fill="#E6E6E6"/>
<path d="M126.086 260.813C126.202 260.814 126.317 260.79 126.422 260.742C126.528 260.694 126.621 260.624 126.697 260.536C128.183 258.774 126.962 254.557 125.28 248.717C123.114 241.229 120.419 231.898 122.7 225.135C123.964 221.563 125.441 218.07 127.123 214.675C130.349 207.855 133.137 202.003 130.81 195.805C130.773 195.707 130.718 195.616 130.646 195.539C130.575 195.462 130.489 195.4 130.393 195.357C130.298 195.313 130.194 195.289 130.089 195.286C129.984 195.282 129.88 195.3 129.781 195.337C129.683 195.374 129.593 195.431 129.517 195.503C129.441 195.575 129.38 195.662 129.337 195.758C129.294 195.854 129.271 195.957 129.269 196.063C129.267 196.168 129.285 196.272 129.324 196.37C131.409 201.888 128.886 207.233 125.683 214.007C123.98 217.457 122.479 221.003 121.19 224.628C118.76 231.863 121.524 241.459 123.748 249.155C125.061 253.763 126.42 258.371 125.487 259.523C125.413 259.602 125.357 259.696 125.321 259.799C125.285 259.901 125.271 260.01 125.28 260.119C125.288 260.227 125.32 260.333 125.371 260.428C125.423 260.524 125.494 260.608 125.58 260.675C125.727 260.779 125.906 260.828 126.086 260.813Z" fill="#E6E6E6"/>
<path d="M288 429.189C411.359 429.189 511.361 423.351 511.361 416.149C511.361 408.946 411.359 403.108 288 403.108C164.641 403.108 64.6387 408.946 64.6387 416.149C64.6387 423.351 164.641 429.189 288 429.189Z" fill="#F5F5F5"/>
<path d="M287.954 352.57H124.37L115.419 89.4873H279.003L287.954 352.57Z" fill="#5243AC"/>
<path d="M296.122 344.402H132.538L123.575 81.3198H287.159L296.122 344.402Z" fill="#5243AC"/>
<path opacity="0.3" d="M296.122 344.402H132.538L123.575 81.3198H287.159L296.122 344.402Z" fill="white"/>
<path d="M241.312 189.578C258.828 171.76 258.083 142.626 239.648 124.504C221.214 106.382 192.071 106.136 174.555 123.953C157.04 141.77 157.785 170.905 176.22 189.027C194.654 207.148 223.797 207.395 241.312 189.578Z" fill="#5243AC"/>
<path d="M245.917 156.776C246.153 163.045 244.785 169.27 241.943 174.862C238.876 180.889 234.19 185.942 228.411 189.454C222.632 192.966 215.989 194.799 209.226 194.746C202.305 194.708 195.515 192.852 189.538 189.362C183.562 185.872 178.607 180.871 175.173 174.862C171.971 169.356 170.182 163.142 169.966 156.776C169.754 151.84 170.547 146.912 172.298 142.291C174.049 137.671 176.721 133.455 180.151 129.9C183.582 126.344 187.7 123.523 192.254 121.608C196.809 119.693 201.705 118.724 206.646 118.76C216.824 118.832 226.583 122.822 233.897 129.901C241.21 136.981 245.515 146.605 245.917 156.776Z" fill="white"/>
<path opacity="0.6" d="M241.92 174.862C238.853 180.889 234.167 185.942 228.388 189.454C222.609 192.966 215.965 194.799 209.203 194.746C202.282 194.709 195.492 192.852 189.515 189.362C183.538 185.872 178.584 180.872 175.15 174.862C184.893 168.22 196.421 164.689 208.212 164.736C220.194 164.762 231.908 168.281 241.92 174.862Z" fill="#5243AC"/>
<path opacity="0.6" d="M219.769 155.829C226.21 149.277 225.936 138.564 219.157 131.9C212.379 125.237 201.663 125.146 195.222 131.698C188.782 138.249 189.056 148.962 195.834 155.626C202.613 162.289 213.329 162.38 219.769 155.829Z" fill="#5243AC"/>
<path d="M263.255 249.132H158.907L158.204 228.396H262.552L263.255 249.132Z" fill="white"/>
<path d="M264.522 286.192H160.163L159.46 265.456H263.82L264.522 286.192Z" fill="white"/>
<path d="M224.248 268.313L199.1 271.769C198.86 271.796 198.629 271.873 198.42 271.994C198.211 272.115 198.029 272.278 197.886 272.473C197.744 272.668 197.643 272.89 197.59 273.125C197.537 273.361 197.533 273.605 197.58 273.842L200.886 290.696C200.994 291.19 201.283 291.627 201.697 291.919C202.11 292.211 202.618 292.338 203.121 292.274L228.269 288.818C228.508 288.788 228.739 288.709 228.946 288.586C229.154 288.463 229.334 288.298 229.476 288.103C229.617 287.907 229.717 287.685 229.769 287.449C229.821 287.214 229.824 286.97 229.778 286.733L226.483 269.879C226.375 269.385 226.085 268.95 225.671 268.66C225.257 268.37 224.749 268.246 224.248 268.313ZM217.025 285.385L212.417 285.996L211.968 280.558C211.493 280.353 211.075 280.036 210.748 279.635C210.421 279.234 210.196 278.761 210.09 278.254C210.006 277.862 210.004 277.456 210.086 277.063C210.168 276.67 210.332 276.299 210.566 275.973C210.801 275.648 211.101 275.375 211.448 275.172C211.794 274.97 212.18 274.842 212.579 274.798C213.397 274.693 214.225 274.898 214.899 275.374C215.573 275.85 216.044 276.561 216.219 277.367C216.319 277.854 216.288 278.359 216.13 278.83C215.973 279.301 215.693 279.723 215.32 280.051L217.025 285.385Z" fill="#5243AC"/>
<path d="M221.76 267.402C221.315 267.459 220.866 267.347 220.499 267.09C220.133 266.832 219.876 266.446 219.779 266.009L219.456 264.361C218.996 262.113 217.736 260.108 215.909 258.719C214.083 257.329 211.815 256.649 209.526 256.804C208.37 256.87 207.243 257.184 206.22 257.724C205.196 258.264 204.301 259.018 203.595 259.935C202.889 260.852 202.389 261.91 202.128 263.038C201.867 264.165 201.852 265.336 202.084 266.469L202.453 268.37C202.495 268.581 202.494 268.798 202.448 269.008C202.402 269.218 202.313 269.416 202.186 269.59C202.059 269.763 201.897 269.908 201.711 270.016C201.525 270.123 201.318 270.19 201.105 270.213C200.659 270.275 200.207 270.166 199.839 269.907C199.471 269.648 199.215 269.26 199.123 268.819L198.812 267.218C198.496 265.722 198.485 264.177 198.781 262.676C199.077 261.175 199.674 259.75 200.535 258.485C201.395 257.221 202.503 256.144 203.791 255.318C205.078 254.493 206.52 253.936 208.028 253.682C211.299 253.133 214.655 253.864 217.401 255.724C220.146 257.584 222.07 260.429 222.774 263.67L223.142 265.559C223.185 265.772 223.183 265.992 223.135 266.205C223.087 266.417 222.995 266.617 222.864 266.791C222.734 266.965 222.568 267.109 222.377 267.214C222.187 267.32 221.977 267.384 221.76 267.402Z" fill="#5243AC"/>
<path d="M247.3 315.233H179.366L178.917 301.732H246.839L247.3 315.233Z" fill="#5243AC"/>
<path d="M214.525 238.764C214.546 239.256 214.466 239.747 214.291 240.208C214.115 240.669 213.848 241.089 213.506 241.443C213.163 241.798 212.752 242.079 212.298 242.27C211.843 242.461 211.355 242.557 210.862 242.554C209.846 242.546 208.872 242.148 208.141 241.443C207.41 240.738 206.978 239.778 206.934 238.764C206.913 238.271 206.993 237.78 207.169 237.319C207.344 236.858 207.611 236.438 207.953 236.084C208.296 235.729 208.707 235.448 209.161 235.257C209.616 235.067 210.104 234.97 210.597 234.973C211.614 234.979 212.589 235.375 213.321 236.081C214.053 236.787 214.484 237.748 214.525 238.764Z" fill="#263238"/>
<path d="M198.144 238.764C198.166 239.256 198.087 239.749 197.913 240.21C197.738 240.671 197.471 241.092 197.128 241.447C196.785 241.802 196.374 242.083 195.918 242.273C195.463 242.463 194.974 242.559 194.481 242.554C193.466 242.546 192.493 242.148 191.764 241.442C191.035 240.736 190.605 239.777 190.564 238.764C190.544 238.271 190.623 237.78 190.799 237.319C190.974 236.858 191.241 236.438 191.584 236.084C191.926 235.729 192.337 235.448 192.791 235.257C193.246 235.067 193.734 234.97 194.227 234.973C195.243 234.979 196.217 235.376 196.947 236.082C197.677 236.788 198.105 237.749 198.144 238.764Z" fill="#263238"/>
<path d="M181.866 238.764C181.887 239.256 181.807 239.747 181.631 240.208C181.456 240.669 181.189 241.089 180.846 241.443C180.504 241.798 180.093 242.079 179.639 242.27C179.184 242.461 178.696 242.557 178.203 242.554C177.187 242.548 176.213 242.151 175.483 241.445C174.754 240.739 174.325 239.778 174.286 238.764C174.266 238.271 174.346 237.78 174.521 237.319C174.696 236.858 174.963 236.438 175.306 236.084C175.648 235.729 176.059 235.448 176.514 235.257C176.968 235.067 177.457 234.97 177.949 234.973C178.965 234.979 179.939 235.376 180.669 236.082C181.399 236.788 181.828 237.749 181.866 238.764Z" fill="#263238"/>
<path d="M230.849 238.764C230.87 239.256 230.79 239.748 230.614 240.208C230.439 240.669 230.172 241.089 229.83 241.443C229.487 241.798 229.076 242.079 228.622 242.27C228.167 242.461 227.679 242.557 227.186 242.554C226.17 242.549 225.196 242.151 224.466 241.445C223.737 240.739 223.308 239.778 223.269 238.764C223.252 238.273 223.335 237.783 223.512 237.325C223.69 236.867 223.958 236.45 224.302 236.099C224.646 235.747 225.057 235.47 225.511 235.282C225.965 235.095 226.453 235.002 226.944 235.008C227.952 235.016 228.918 235.41 229.645 236.108C230.371 236.807 230.802 237.757 230.849 238.764Z" fill="#263238"/>
<path d="M247.173 238.764C247.195 239.256 247.116 239.749 246.942 240.21C246.767 240.671 246.5 241.092 246.157 241.447C245.814 241.802 245.403 242.083 244.947 242.273C244.492 242.463 244.003 242.559 243.51 242.554C242.495 242.546 241.522 242.148 240.793 241.442C240.064 240.736 239.634 239.777 239.593 238.764C239.573 238.271 239.653 237.78 239.828 237.319C240.003 236.858 240.27 236.438 240.613 236.084C240.955 235.729 241.366 235.448 241.821 235.257C242.275 235.067 242.763 234.97 243.256 234.973C244.272 234.979 245.246 235.376 245.976 236.082C246.706 236.788 247.135 237.749 247.173 238.764Z" fill="#263238"/>
<path d="M384.664 137.411C386.196 139.876 387.475 142.226 388.788 144.68C390.102 147.134 391.288 149.599 392.452 152.122C394.826 157.23 396.79 162.519 398.327 167.939C398.534 168.618 398.684 169.344 398.857 170.047L399.11 171.118L399.237 171.648L399.387 172.524C399.647 174.51 399.525 176.527 399.03 178.468C398.234 181.481 397.025 184.37 395.436 187.05C392.593 191.922 389.156 196.422 385.206 200.448L380.356 196.785C382.79 192.31 384.956 187.693 386.842 182.961C387.682 180.875 388.273 178.699 388.604 176.475C388.71 175.796 388.679 175.103 388.512 174.436L388.051 173.03C387.867 172.454 387.694 171.878 387.475 171.291C385.723 166.538 383.696 161.892 381.404 157.375C379.1 152.767 376.623 148.159 374.147 143.758L384.664 137.411Z" fill="#FF8B7B"/>
<path d="M381.588 195.183L376.289 197.983L382.372 205.102C382.372 205.102 386.173 202.533 386.346 198.616L381.588 195.183Z" fill="#FF8B7B"/>
<path d="M369.181 202.372L375.69 207.544L382.372 205.102L376.289 197.983L369.181 202.372Z" fill="#FF8B7B"/>
<path d="M346.925 99.7171C346.798 100.362 346.349 100.812 345.934 100.731C345.519 100.65 345.277 100.051 345.404 99.4176C345.531 98.784 345.98 98.2656 346.406 98.4039C346.833 98.5421 347.052 99.072 346.925 99.7171Z" fill="#263238"/>
<path d="M346.406 100.823C345.246 102.628 343.843 104.264 342.236 105.685C342.616 106.078 343.076 106.385 343.585 106.583C344.094 106.782 344.64 106.869 345.185 106.837L346.406 100.823Z" fill="#FF5652"/>
<path d="M344.333 123.425V115.868L354.332 117.02C354.332 117.02 354.171 123.517 348.572 125.43L344.333 123.425Z" fill="#FF8B7B"/>
<path d="M347.213 110.431L354.252 112.458L354.378 117.078L344.379 115.868L347.213 110.431Z" fill="#FF8B7B"/>
<path opacity="0.2" d="M354.252 112.458L347.213 110.431L345.842 113.057C345.917 115.127 346.563 117.135 347.71 118.86C348.857 120.584 350.459 121.957 352.339 122.826C353.549 121.137 354.255 119.14 354.378 117.066L354.252 112.458Z" fill="black"/>
<path d="M349.989 96.6412C350.063 96.6392 350.135 96.6164 350.196 96.5754C350.258 96.5344 350.306 96.4768 350.336 96.4093C350.366 96.3419 350.377 96.2673 350.366 96.1942C350.356 96.1211 350.325 96.0524 350.277 95.9961C349.872 95.5391 349.364 95.1857 348.795 94.9652C348.226 94.7448 347.612 94.6637 347.005 94.7289C346.906 94.7458 346.818 94.8014 346.759 94.8835C346.701 94.9655 346.678 95.0674 346.694 95.1667C346.711 95.2666 346.767 95.3561 346.848 95.4163C346.93 95.4764 347.032 95.5026 347.132 95.4892C347.613 95.442 348.098 95.5105 348.547 95.6888C348.996 95.8672 349.395 96.1503 349.713 96.5145C349.748 96.553 349.791 96.584 349.838 96.6058C349.886 96.6276 349.937 96.6396 349.989 96.6412Z" fill="#263238"/>
<path d="M364.712 111.375C363.56 117.308 362.845 125.522 367.016 129.473C367.016 129.473 365.403 135.487 354.344 135.487C342.236 135.487 348.526 130.211 348.526 130.211C353.56 128.644 353.514 122.919 352.362 118.311L364.712 111.375Z" fill="#FF8B7B"/>
<path d="M369.262 133.436C370.345 131.915 370.299 127.089 369.147 126.236C367.292 124.865 359.332 124.543 348.63 127.008C349.782 131.685 347.305 134.127 347.305 134.127L369.262 133.436Z" fill="#5243AC"/>
<path d="M405.274 406.932C404.945 407.048 404.596 407.098 404.248 407.078C403.9 407.058 403.56 406.969 403.246 406.817C403.127 406.707 403.046 406.562 403.013 406.403C402.98 406.244 402.997 406.079 403.062 405.93C403.098 405.806 403.161 405.691 403.247 405.593C403.332 405.495 403.438 405.418 403.557 405.366C404.652 404.836 407.163 405.861 407.278 405.907C407.312 405.921 407.342 405.945 407.362 405.976C407.383 406.007 407.394 406.043 407.393 406.08C407.393 406.117 407.383 406.153 407.365 406.185C407.347 406.218 407.321 406.245 407.29 406.264C406.64 406.55 405.965 406.773 405.274 406.932ZM403.949 405.631C403.873 405.649 403.799 405.676 403.73 405.711C403.658 405.738 403.593 405.781 403.541 405.837C403.489 405.893 403.451 405.96 403.43 406.034C403.327 406.38 403.43 406.495 403.5 406.529C403.937 406.898 405.55 406.529 406.691 406.103C405.823 405.744 404.886 405.583 403.949 405.631Z" fill="#5243AC"/>
<path d="M407.244 406.276H407.151C406.23 406.011 404.271 404.617 404.248 403.707C404.247 403.562 404.296 403.422 404.386 403.308C404.476 403.195 404.603 403.116 404.744 403.085C404.88 403.034 405.027 403.013 405.172 403.025C405.317 403.037 405.458 403.081 405.585 403.154C406.668 403.707 407.359 405.942 407.382 406.045C407.398 406.073 407.406 406.105 407.406 406.138C407.406 406.17 407.398 406.202 407.382 406.23C407.364 406.248 407.342 406.261 407.318 406.269C407.294 406.277 407.269 406.28 407.244 406.276ZM404.94 403.407H404.847C404.617 403.488 404.617 403.603 404.617 403.661C404.617 404.202 405.93 405.297 406.921 405.734C406.679 405.089 406.149 403.811 405.446 403.43C405.29 403.359 405.113 403.351 404.951 403.407H404.94Z" fill="#5243AC"/>
<path d="M345.439 408.292C344.402 408.292 343.4 408.142 343.066 407.681C342.978 407.559 342.931 407.412 342.931 407.261C342.931 407.11 342.978 406.963 343.066 406.84C343.131 406.728 343.219 406.63 343.324 406.553C343.429 406.475 343.549 406.42 343.676 406.391C345.024 406.022 347.858 407.635 347.973 407.704C348.008 407.722 348.037 407.75 348.054 407.786C348.07 407.822 348.075 407.862 348.065 407.9C348.061 407.94 348.044 407.977 348.017 408.006C347.99 408.035 347.955 408.054 347.916 408.062C347.098 408.211 346.269 408.288 345.439 408.292ZM344.16 406.714C344.038 406.694 343.913 406.694 343.791 406.714C343.713 406.73 343.639 406.762 343.574 406.807C343.509 406.853 343.453 406.911 343.411 406.979C343.273 407.221 343.331 407.336 343.411 407.405C343.791 407.935 345.83 407.946 347.34 407.727C346.354 407.189 345.275 406.845 344.16 406.714Z" fill="#5243AC"/>
<path d="M347.904 408.061H347.823C346.844 407.624 344.909 405.873 345.059 404.951C345.059 404.732 345.243 404.467 345.773 404.421C345.962 404.399 346.154 404.416 346.336 404.472C346.519 404.527 346.688 404.62 346.833 404.744C347.571 405.626 348.014 406.718 348.1 407.866C348.1 407.898 348.092 407.931 348.078 407.961C348.064 407.99 348.044 408.017 348.019 408.038C347.984 408.056 347.944 408.064 347.904 408.061ZM345.923 404.778H345.807C345.462 404.778 345.439 404.939 345.439 404.986C345.347 405.538 346.66 406.921 347.662 407.52C347.574 406.595 347.199 405.721 346.591 405.02C346.401 404.859 346.16 404.773 345.911 404.778H345.923Z" fill="#5243AC"/>
<path d="M356.797 407.877H348.699L347.892 389.111H355.991L356.797 407.877Z" fill="#FF8B7B"/>
<path d="M416.275 404.122L408.361 405.838L400.401 388.362L408.326 386.646L416.275 404.122Z" fill="#FF8B7B"/>
<path d="M407.589 405.043L416.494 403.119C416.65 403.086 416.812 403.107 416.954 403.178C417.097 403.249 417.21 403.367 417.277 403.511L420.365 410.216C420.447 410.378 420.49 410.557 420.489 410.739C420.488 410.921 420.445 411.101 420.362 411.262C420.278 411.424 420.158 411.564 420.01 411.671C419.863 411.777 419.692 411.847 419.512 411.875C416.402 412.485 414.847 412.635 410.941 413.476C408.534 414.006 403.096 415.331 399.767 416.045C396.438 416.759 395.297 413.568 396.599 412.98C402.417 410.319 404.836 407.981 406.414 405.803C406.699 405.415 407.118 405.144 407.589 405.043Z" fill="#263238"/>
<path d="M348.756 406.933H357.604C357.764 406.934 357.92 406.989 358.045 407.089C358.171 407.189 358.259 407.329 358.295 407.486L359.896 414.686C359.943 414.86 359.949 415.042 359.912 415.219C359.876 415.395 359.799 415.561 359.686 415.702C359.574 415.843 359.431 415.956 359.267 416.032C359.104 416.107 358.924 416.143 358.744 416.137C355.553 416.08 350.945 415.895 346.936 415.895C342.236 415.895 338.193 416.149 332.686 416.149C329.357 416.149 328.435 412.785 329.829 412.474C336.165 411.091 341.349 410.942 346.821 407.566C347.396 407.181 348.065 406.962 348.756 406.933Z" fill="#263238"/>
<path d="M381.508 131.328C389.1 133.068 395.332 152.456 395.332 152.456L380.16 164.056C376.222 159.846 373.443 154.686 372.096 149.08C369.412 138.92 373.743 129.531 381.508 131.328Z" fill="#5243AC"/>
<path opacity="0.4" d="M381.508 131.328C389.1 133.068 395.332 152.456 395.332 152.456L380.16 164.056C376.222 159.846 373.443 154.686 372.096 149.08C369.412 138.92 373.743 129.531 381.508 131.328Z" fill="black"/>
<path d="M341.568 154.449C339.679 156.488 337.789 158.308 335.808 160.209C334.829 161.13 333.838 162.052 332.824 162.939L331.292 164.287L330.912 164.621L330.255 165.151C329.58 165.691 328.831 166.133 328.032 166.464C327.143 166.842 326.187 167.037 325.221 167.04C324.396 167.044 323.576 166.899 322.802 166.614C321.943 166.287 321.159 165.789 320.498 165.151C319.654 164.326 319.035 163.299 318.701 162.167C318.526 161.609 318.414 161.034 318.367 160.451C318.306 159.769 318.306 159.082 318.367 158.4C318.424 157.847 318.493 157.363 318.586 156.914C318.901 155.343 319.348 153.802 319.922 152.306C320.44 150.884 321.036 149.492 321.708 148.136C322.445 146.673 323.148 145.601 323.85 144.38C326.704 139.705 329.962 135.287 333.585 131.178C337.171 127.094 341.124 123.346 345.393 119.981L349.632 124.347C346.66 128.333 343.734 132.607 341.027 136.812C338.332 140.993 335.871 145.319 333.654 149.772C333.158 150.855 332.502 152.076 332.191 152.951C331.779 153.968 331.421 155.007 331.119 156.062C330.829 157.012 330.61 157.982 330.463 158.965C330.455 159.118 330.455 159.272 330.463 159.425C330.463 159.518 330.463 159.564 330.463 159.322C330.444 159.063 330.393 158.808 330.313 158.561C330.064 157.745 329.607 157.007 328.988 156.419C328.437 155.913 327.791 155.521 327.087 155.267C326.469 155.032 325.813 154.911 325.152 154.91C324.516 154.902 323.885 155.023 323.297 155.267C323.098 155.348 322.906 155.444 322.721 155.555L323.159 155.152L324.553 153.884L327.306 151.304C329.126 149.587 330.958 147.756 332.686 146.051L341.568 154.449Z" fill="#FF8B7B"/>
<path opacity="0.2" d="M374.999 145.567C379.123 149.645 380.471 157.087 380.759 163.538L380.091 164.056C376.153 159.846 373.374 154.686 372.027 149.08C371.877 148.481 371.739 147.928 371.635 147.272L374.999 145.567Z" fill="black"/>
<path d="M333.516 139.392C331.857 148.147 330.82 166.13 335.624 201.727H379.008C379.308 195.08 375.126 162.616 381.542 131.271C376.748 130.35 371.9 129.738 367.027 129.439C360.888 129.087 354.734 129.087 348.595 129.439C346.568 129.623 344.563 129.923 342.835 130.234C340.537 130.637 338.415 131.728 336.751 133.364C335.087 134.999 333.959 137.101 333.516 139.392Z" fill="#5243AC"/>
<path opacity="0.4" d="M333.516 139.392C331.857 148.147 330.82 166.13 335.624 201.727H379.008C379.308 195.08 375.126 162.616 381.542 131.271C376.748 130.35 371.9 129.738 367.027 129.439C360.888 129.087 354.734 129.087 348.595 129.439C346.568 129.623 344.563 129.923 342.835 130.234C340.537 130.637 338.415 131.728 336.751 133.364C335.087 134.999 333.959 137.101 333.516 139.392Z" fill="black"/>
<path opacity="0.2" d="M340.151 152.375L332.317 150.497C332.076 155.244 332.053 161.119 332.398 168.388C336.004 164.287 340.612 157.882 340.151 152.375Z" fill="black"/>
<path opacity="0.2" d="M347.892 389.111L348.307 398.788H356.417L356.003 389.111H347.892Z" fill="black"/>
<path opacity="0.2" d="M408.326 386.646L400.401 388.362L404.502 397.371L412.428 395.654L408.326 386.646Z" fill="black"/>
<path d="M368.559 102.712C366.486 110.477 365.656 115.131 360.864 118.357C353.664 123.264 344.678 117.642 344.448 109.44C344.195 102.033 347.639 90.5703 355.968 89.0036C357.798 88.6601 359.686 88.7883 361.453 89.3762C363.22 89.9641 364.808 90.9922 366.068 92.3638C367.328 93.7353 368.217 95.405 368.653 97.2156C369.089 99.0261 369.057 100.918 368.559 102.712Z" fill="#FF8B7B"/>
<path d="M350.381 103C349.989 101.964 348.204 93.9342 349.885 91.8491C351.567 89.7639 370.748 91.2731 373.582 94.0609C378.294 98.6689 375.022 102.816 369.873 108.15C366.002 112.159 365.852 116.675 363.894 117.366C360.438 118.518 355.162 117.435 354.102 113.783C353.042 110.131 350.381 103 350.381 103Z" fill="#263238"/>
<path d="M371.255 84.9255C364.481 82.0455 351.775 85.2365 344.909 83.5776C344.821 86.1307 345.661 88.629 347.272 90.6111C348.884 92.5932 351.158 93.925 353.676 94.3604C359.371 95.4458 365.158 95.982 370.956 95.9616C378.49 95.616 377.015 87.3792 371.255 84.9255Z" fill="#263238"/>
<path d="M372.315 94.3025C374.789 94.546 377.281 94.07 379.492 92.9316C380.759 95.996 373.789 96.8369 372.315 94.3025Z" fill="#263238"/>
<path d="M354.067 103.323C353.912 105.321 353.102 107.212 351.763 108.703C349.989 110.65 348.146 109.428 347.835 107.067C347.558 104.924 348.134 101.307 350.3 100.27C352.466 99.2333 354.217 100.915 354.067 103.323Z" fill="#FF8B7B"/>
<path d="M351.003 201.761C351.003 201.761 360.219 263.681 365.253 286.883C370.771 312.284 400.424 396.323 400.424 396.323L414.927 393.178C414.927 393.178 394.191 324.68 389.583 289.164C386.012 261.884 378.996 201.738 378.996 201.738L351.003 201.761Z" fill="#5243AC"/>
<path d="M396.945 391.496C396.887 391.496 399.652 396.749 399.652 396.749L415.964 393.212L414.593 388.305L396.945 391.496Z" fill="#263238"/>
<path opacity="0.3" d="M356.82 223.822C367.453 225.907 366.324 265.559 365.046 285.961C361.981 271.538 357.489 243.798 354.424 224.11C355.167 223.744 356.012 223.642 356.82 223.822Z" fill="black"/>
<path d="M335.624 201.761C335.624 201.761 334.472 262.345 335.393 287.009C336.315 312.711 345.289 396.864 345.289 396.864H359.021C359.021 396.864 359.516 314.208 360.173 288.968C360.841 261.458 364.159 201.715 364.159 201.715L335.624 201.761Z" fill="#5243AC"/>
<path d="M342.651 391.45C342.582 391.45 343.423 397.141 343.423 397.141H360.115L360.576 392.06L342.651 391.45Z" fill="#263238"/>
<path d="M350.496 142.088C354.378 152.559 331.557 164.897 331.557 164.897L321.673 152.225C321.673 152.225 328.32 139.07 336.384 133.148C346.349 125.845 347.535 134.116 350.496 142.088Z" fill="#5243AC"/>
<path opacity="0.4" d="M350.496 142.088C354.378 152.559 331.557 164.897 331.557 164.897L321.673 152.225C321.673 152.225 328.32 139.07 336.384 133.148C346.349 125.845 347.535 134.116 350.496 142.088Z" fill="black"/>
<path d="M439.914 62.5882C462.876 62.5882 481.49 50.7255 481.49 36.0922C481.49 21.4589 462.876 9.59619 439.914 9.59619C416.953 9.59619 398.339 21.4589 398.339 36.0922C398.339 50.7255 416.953 62.5882 439.914 62.5882Z" fill="#5243AC"/>
<path d="M424.915 49.4325C422.176 49.4237 419.528 48.4499 417.436 46.6822C415.344 44.9146 413.942 42.4662 413.476 39.7672C413.018 36.8438 413.677 33.8549 415.323 31.3957C416.969 28.9365 419.48 27.1873 422.358 26.4962C424.719 25.9521 427.191 26.1618 429.427 27.0958C431.663 28.0298 433.55 29.6412 434.822 31.7032L461.514 26.1967C462.54 25.972 463.613 26.1426 464.518 26.6744C465.424 27.2061 466.095 28.0599 466.399 29.0652C466.538 29.5937 466.569 30.1451 466.488 30.6858C466.408 31.2265 466.217 31.745 465.93 32.2098C465.642 32.6745 465.262 33.0756 464.814 33.3886C464.366 33.7016 463.858 33.92 463.323 34.0303L462.632 34.1685C462.529 34.1869 462.432 34.2287 462.348 34.2906C462.264 34.3526 462.196 34.433 462.148 34.5256C462.105 34.6197 462.083 34.7218 462.083 34.8252C462.083 34.9285 462.105 35.0306 462.148 35.1247L462.62 36.3458C462.778 36.7416 462.794 37.1802 462.663 37.5861C462.533 37.9919 462.265 38.3396 461.906 38.5692C461.623 38.7441 461.383 38.9814 461.206 39.2628C461.028 39.5443 460.917 39.8626 460.881 40.1935C460.847 40.5732 460.694 40.9326 460.443 41.2201C460.193 41.5077 459.858 41.7088 459.487 41.7947L458.945 41.9099C458.57 41.9793 458.182 41.9274 457.839 41.7617C457.495 41.596 457.213 41.3251 457.033 40.9884C456.794 40.5865 456.435 40.2694 456.007 40.081C455.579 39.8927 455.103 39.8426 454.646 39.9377C454.188 40.0328 453.771 40.2684 453.454 40.6116C453.136 40.9548 452.934 41.3886 452.874 41.8524C452.842 42.2297 452.691 42.5871 452.442 42.8728C452.194 43.1586 451.861 43.358 451.492 43.4421L450.95 43.5573C450.575 43.6248 450.188 43.5721 449.845 43.4066C449.501 43.2411 449.219 42.9713 449.038 42.6357C448.866 42.35 448.633 42.1052 448.357 41.9182C448.08 41.7312 447.766 41.6066 447.437 41.5528C446.994 41.4995 446.586 41.2863 446.289 40.9533C445.992 40.6203 445.826 40.1904 445.824 39.7442V38.4309C445.819 38.3282 445.793 38.2277 445.745 38.1362C445.698 38.0448 445.632 37.9646 445.551 37.9012C445.47 37.8378 445.376 37.7925 445.276 37.7686C445.176 37.7448 445.072 37.7427 444.972 37.7627L436.458 39.5138C436.111 41.8723 435.046 44.0666 433.407 45.7981C431.768 47.5296 429.636 48.7141 427.3 49.1906C426.515 49.351 425.716 49.4321 424.915 49.4325ZM422.611 27.5445C419.998 28.1548 417.714 29.7325 416.217 31.9598C414.721 34.1871 414.124 36.8986 414.547 39.5484C415 42.0135 416.321 44.2351 418.269 45.8112C420.218 47.3874 422.667 48.2141 425.172 48.1417C427.677 48.0693 430.074 47.1027 431.929 45.4166C433.783 43.7306 434.973 41.4365 435.283 38.9493V38.5346L444.672 36.6338C444.941 36.5686 445.222 36.5643 445.493 36.621C445.764 36.6778 446.019 36.7942 446.24 36.9619C446.461 37.1295 446.641 37.3442 446.768 37.5904C446.896 37.8365 446.967 38.1079 446.976 38.3848V39.6981C446.979 39.8545 447.035 40.0052 447.136 40.1248C447.236 40.2444 447.375 40.3256 447.529 40.3547C448.033 40.4269 448.513 40.6127 448.934 40.8981C449.355 41.1835 449.706 41.5611 449.96 42.0021C450.021 42.1264 450.119 42.2287 450.241 42.2947C450.363 42.3608 450.502 42.3873 450.639 42.3707L451.169 42.2556C451.304 42.221 451.423 42.144 451.51 42.0361C451.598 41.9282 451.648 41.7951 451.653 41.6565C451.726 40.9394 452.024 40.2639 452.506 39.7277C452.988 39.1915 453.628 38.8223 454.333 38.6736C455.038 38.5248 455.773 38.6042 456.43 38.9002C457.087 39.1962 457.633 39.6935 457.989 40.3202C458.048 40.4436 458.144 40.5454 458.264 40.6115C458.384 40.6776 458.521 40.7046 458.657 40.6888L459.21 40.5736C459.342 40.537 459.459 40.4591 459.544 40.3514C459.629 40.2437 459.678 40.1117 459.683 39.9746C459.74 39.4688 459.911 38.9827 460.185 38.5535C460.458 38.1242 460.826 37.7631 461.261 37.4978C461.388 37.4062 461.48 37.2749 461.524 37.1246C461.568 36.9744 461.561 36.8138 461.503 36.6684L461.03 35.4472C460.933 35.1955 460.891 34.9255 460.909 34.656C460.926 34.3865 461.002 34.1242 461.132 33.8872C461.261 33.6502 461.441 33.4444 461.658 33.284C461.876 33.1237 462.125 33.0127 462.39 32.9589L463.092 32.8092C463.473 32.7281 463.833 32.5711 464.151 32.3476C464.469 32.1242 464.739 31.8388 464.945 31.5087C465.15 31.1785 465.287 30.8103 465.347 30.4261C465.406 30.0418 465.388 29.6495 465.293 29.2725C465.068 28.5475 464.577 27.9344 463.919 27.5562C463.261 27.178 462.484 27.0627 461.745 27.2335L434.304 32.9359L434.097 32.5787C432.994 30.6161 431.283 29.0655 429.221 28.1615C427.159 27.2574 424.859 27.0489 422.669 27.5675L422.611 27.5445ZM424.915 45.1471C423.484 45.163 422.079 44.7628 420.872 43.9951C419.443 43.0572 418.384 41.6529 417.875 40.0216C417.366 38.3903 417.439 36.633 418.08 35.0492C418.722 33.4654 419.893 32.1532 421.394 31.3362C422.895 30.5193 424.633 30.2483 426.311 30.5693C427.99 30.8904 429.505 31.7836 430.599 33.0968C431.692 34.4099 432.296 36.0617 432.308 37.7705C432.32 39.4794 431.739 41.1395 430.664 42.4678C429.589 43.7961 428.087 44.7104 426.413 45.0549C425.923 45.1437 425.425 45.1822 424.927 45.1701L424.915 45.1471ZM424.915 31.5419C424.486 31.5444 424.058 31.5868 423.636 31.6687C422.834 31.8396 422.073 32.167 421.397 32.632C420.721 33.0971 420.143 33.6908 419.696 34.3791C419.25 35.0675 418.943 35.8371 418.794 36.644C418.645 37.4509 418.656 38.2792 418.827 39.0818C418.998 39.8843 419.325 40.6454 419.79 41.3214C420.255 41.9975 420.849 42.5753 421.537 43.0219C422.226 43.4685 422.995 43.7752 423.802 43.9244C424.609 44.0735 425.437 44.0623 426.24 43.8914C427.445 43.6406 428.548 43.0387 429.412 42.1616C430.275 41.2845 430.859 40.1715 431.091 38.9629C431.322 37.7543 431.191 36.5041 430.713 35.37C430.235 34.236 429.432 33.2687 428.406 32.5903C427.386 31.912 426.186 31.5549 424.961 31.565L424.915 31.5419Z" fill="white"/>
<path opacity="0.6" d="M406.08 78.1287C413.626 78.1287 419.743 74.2295 419.743 69.4196C419.743 64.6097 413.626 60.7104 406.08 60.7104C398.534 60.7104 392.417 64.6097 392.417 69.4196C392.417 74.2295 398.534 78.1287 406.08 78.1287Z" fill="#5243AC"/>
<path opacity="0.3" d="M384.342 81.7C387.44 81.7 389.952 80.1011 389.952 78.1288C389.952 76.1565 387.44 74.5576 384.342 74.5576C381.243 74.5576 378.732 76.1565 378.732 78.1288C378.732 80.1011 381.243 81.7 384.342 81.7Z" fill="#5243AC"/>
</g>
<defs>
<clipPath id="clip0">
<rect width="576" height="429.696" fill="white"/>
</clipPath>
</defs>
</svg>
