<svg xmlns="http://www.w3.org/2000/svg" width="617" height="473" viewBox="0 0 617 473" fill="none">
<g clip-path="url(#clip0)">
<path d="M515.46 463.851C530.592 459.634 670.871 382.875 594.26 240.62C571.003 197.434 546.104 177.152 545.36 124.421C544.926 93.9412 531.177 66.7439 507.024 48.2781C461.125 13.1777 395.155 13.5957 339.323 17.722C241.659 27.7452 146.595 62.5568 64.7242 116.511C37.7127 134.331 10.306 156.55 2.40169 187.942C-7.71431 228.081 15.5198 274.398 46.2174 299.741C53.3161 305.607 61.2584 310.889 66.0922 318.739C75.4482 333.937 70.4928 353.041 63.2193 367.958C57.3139 380.048 48.4367 390.983 45.2446 404.061C39.7268 426.699 56.645 438.258 67.7491 445.652C100.438 467.453 474.19 475.341 515.46 463.851Z" fill="#D3D4F4"/>
<path fill-rule="evenodd" clip-rule="evenodd" d="M478.348 149.019H425.906C425.569 149.019 425.247 148.886 425.008 148.648C424.77 148.41 424.637 148.087 424.637 147.75V141.937C424.637 141.6 424.77 141.278 425.008 141.04C425.247 140.802 425.569 140.668 425.906 140.668H478.348C478.685 140.668 479.007 140.802 479.245 141.04C479.484 141.278 479.617 141.6 479.617 141.937V147.75C479.617 148.087 479.484 148.41 479.245 148.648C479.007 148.886 478.685 149.019 478.348 149.019Z" fill="#4D6D9A"/>
<path fill-rule="evenodd" clip-rule="evenodd" d="M476.432 132.416H432.237C431.886 132.399 431.543 132.521 431.283 132.756C431.023 132.991 430.865 133.319 430.846 133.669V139.414C430.865 139.764 431.023 140.093 431.283 140.327C431.543 140.562 431.886 140.685 432.237 140.668H476.432C476.783 140.685 477.125 140.562 477.386 140.327C477.646 140.093 477.804 139.764 477.823 139.414V133.669C477.804 133.319 477.646 132.991 477.386 132.756C477.125 132.521 476.783 132.399 476.432 132.416Z" fill="#B2C0D3"/>
<path fill-rule="evenodd" clip-rule="evenodd" d="M434.205 110.051L414.216 144.611C414.051 144.9 414.008 145.242 414.094 145.562C414.181 145.883 414.392 146.156 414.68 146.321L419.651 149.194C419.793 149.277 419.951 149.331 420.115 149.353C420.278 149.375 420.445 149.365 420.604 149.322C420.764 149.28 420.913 149.207 421.045 149.106C421.176 149.006 421.286 148.881 421.368 148.738L441.319 114.177C441.402 114.034 441.456 113.877 441.479 113.713C441.501 113.549 441.49 113.383 441.448 113.223C441.405 113.064 441.332 112.914 441.232 112.783C441.131 112.652 441.006 112.542 440.863 112.459L435.892 109.587C435.603 109.422 435.26 109.378 434.938 109.464C434.616 109.551 434.342 109.762 434.175 110.051H434.205Z" fill="#8097B7"/>
<path fill-rule="evenodd" clip-rule="evenodd" d="M424.56 110.4L404.602 144.969C404.444 145.259 404.408 145.6 404.5 145.918C404.593 146.235 404.807 146.503 405.096 146.664L410.074 149.536C410.361 149.699 410.7 149.743 411.019 149.657C411.338 149.572 411.61 149.365 411.777 149.08L431.697 114.527C431.862 114.239 431.906 113.897 431.819 113.576C431.732 113.255 431.522 112.983 431.234 112.817L426.263 109.945C425.974 109.781 425.632 109.737 425.311 109.822C424.99 109.907 424.715 110.115 424.545 110.4H424.56Z" fill="#002558"/>
<path fill-rule="evenodd" clip-rule="evenodd" d="M496.094 156.953H501.825C502.004 156.953 502.177 157.024 502.303 157.151C502.43 157.278 502.501 157.45 502.501 157.629V162.797C502.501 162.976 502.43 163.148 502.303 163.275C502.177 163.402 502.004 163.473 501.825 163.473H496.094C495.915 163.473 495.743 163.402 495.616 163.275C495.489 163.148 495.418 162.976 495.418 162.797V157.629C495.418 157.45 495.489 157.278 495.616 157.151C495.743 157.024 495.915 156.953 496.094 156.953Z" fill="#BF9A04"/>
<path fill-rule="evenodd" clip-rule="evenodd" d="M503.657 148.783H364.571C363.563 148.783 362.597 149.184 361.884 149.896C361.171 150.609 360.771 151.575 360.771 152.583V154.665C360.781 155.666 361.186 156.623 361.897 157.327C362.609 158.031 363.57 158.427 364.571 158.427H366.517V162.826C366.517 163.004 366.587 163.175 366.712 163.302C366.837 163.429 367.008 163.501 367.186 163.503H372.924C373.012 163.503 373.1 163.485 373.182 163.451C373.263 163.417 373.337 163.367 373.4 163.304C373.462 163.241 373.511 163.167 373.544 163.085C373.577 163.003 373.594 162.915 373.593 162.826V158.427H503.657C504.658 158.427 505.619 158.031 506.33 157.327C507.042 156.623 507.447 155.666 507.457 154.665V152.583C507.457 151.575 507.056 150.609 506.344 149.896C505.631 149.184 504.665 148.783 503.657 148.783Z" fill="#BF9A04"/>
<path d="M384.439 134.148C384.406 134.148 384.375 134.135 384.353 134.112C384.33 134.089 384.317 134.058 384.317 134.026V132.506C384.317 132.49 384.32 132.475 384.326 132.46C384.332 132.445 384.341 132.432 384.353 132.42C384.364 132.409 384.377 132.4 384.392 132.394C384.407 132.388 384.423 132.385 384.439 132.385C384.455 132.385 384.47 132.388 384.485 132.394C384.5 132.4 384.513 132.409 384.525 132.42C384.536 132.432 384.545 132.445 384.551 132.46C384.557 132.475 384.56 132.49 384.56 132.506V134.026C384.56 134.058 384.547 134.089 384.525 134.112C384.502 134.135 384.471 134.148 384.439 134.148Z" fill="#002354"/>
<path fill-rule="evenodd" clip-rule="evenodd" d="M384.438 146.663C383.937 146.661 383.457 146.461 383.102 146.107C382.748 145.752 382.548 145.272 382.546 144.771V135.523C382.548 135.022 382.748 134.542 383.102 134.187C383.457 133.833 383.937 133.633 384.438 133.631C384.94 133.633 385.42 133.833 385.774 134.187C386.129 134.542 386.329 135.022 386.331 135.523V144.733C386.335 144.985 386.289 145.234 386.196 145.468C386.103 145.701 385.964 145.914 385.788 146.093C385.612 146.273 385.402 146.416 385.17 146.514C384.939 146.611 384.69 146.662 384.438 146.663Z" fill="#002E6E"/>
<path fill-rule="evenodd" clip-rule="evenodd" d="M389.204 144.604C389.204 145.46 388.973 146.3 388.536 147.035C388.098 147.771 387.47 148.375 386.719 148.784H382.158C381.408 148.373 380.783 147.769 380.347 147.033C379.911 146.298 379.681 145.459 379.681 144.604C379.681 144.481 379.73 144.363 379.816 144.276C379.903 144.189 380.021 144.141 380.144 144.141H388.74C388.863 144.141 388.981 144.189 389.068 144.276C389.155 144.363 389.204 144.481 389.204 144.604Z" fill="#4D6D9A"/>
<path fill-rule="evenodd" clip-rule="evenodd" d="M505.139 148.783H366.053C365.045 148.783 364.079 149.184 363.366 149.896C362.653 150.609 362.253 151.575 362.253 152.583V154.665C362.263 155.666 362.668 156.623 363.379 157.327C364.091 158.031 365.052 158.427 366.053 158.427H367.999V162.826C367.999 163.004 368.069 163.175 368.194 163.302C368.319 163.429 368.49 163.501 368.668 163.503H374.406C374.494 163.503 374.582 163.485 374.664 163.451C374.745 163.417 374.819 163.367 374.881 163.304C374.944 163.241 374.993 163.167 375.026 163.085C375.059 163.003 375.076 162.915 375.075 162.826V158.427H505.139C506.14 158.427 507.101 158.031 507.812 157.327C508.524 156.623 508.929 155.666 508.939 154.665V152.583C508.939 151.575 508.538 150.609 507.826 149.896C507.113 149.184 506.146 148.783 505.139 148.783Z" fill="#FFCB05"/>
<path d="M336.163 78.7402C357.824 76.1232 373.262 56.4445 370.645 34.7866C368.027 13.1288 348.346 -2.30682 326.684 0.310235C305.023 2.92729 289.585 22.606 292.203 44.2638C294.82 65.9217 314.502 81.3573 336.163 78.7402Z" fill="#4D6D9A"/>
<path d="M331.426 77.2224C352.263 77.2224 369.154 60.3337 369.154 39.5004C369.154 18.6671 352.263 1.77832 331.426 1.77832C310.59 1.77832 293.698 18.6671 293.698 39.5004C293.698 60.3337 310.59 77.2224 331.426 77.2224Z" fill="#8097B7"/>
<path d="M338.68 70.2462C355.654 66.2405 366.167 49.2349 362.161 32.2632C358.154 15.2915 341.146 4.78042 324.172 8.78611C307.197 12.7918 296.685 29.7974 300.691 46.7691C304.697 63.7408 321.706 74.2519 338.68 70.2462Z" fill="#B2C0D3"/>
<path d="M331.426 37.1908C331.239 37.1797 331.063 37.0999 330.931 36.9667C330.799 36.8334 330.721 36.6561 330.712 36.4689V14.249C330.701 14.1485 330.712 14.0469 330.744 13.9509C330.775 13.8548 330.826 13.7664 330.894 13.6914C330.962 13.6164 331.044 13.5564 331.137 13.5154C331.229 13.4743 331.329 13.4531 331.43 13.4531C331.531 13.4531 331.631 13.4743 331.723 13.5154C331.816 13.5564 331.898 13.6164 331.966 13.6914C332.034 13.7664 332.085 13.8548 332.116 13.9509C332.148 14.0469 332.159 14.1485 332.148 14.249V36.4765C332.137 36.6636 332.057 36.8401 331.924 36.9719C331.791 37.1038 331.614 37.1817 331.426 37.1908Z" fill="#8097B7"/>
<path d="M356.819 40.2145H334.596C334.495 40.2248 334.394 40.2139 334.298 40.1826C334.202 40.1512 334.113 40.1 334.038 40.0323C333.963 39.9646 333.903 39.882 333.862 39.7896C333.821 39.6973 333.8 39.5974 333.8 39.4963C333.8 39.3953 333.821 39.2954 333.862 39.203C333.903 39.1107 333.963 39.028 334.038 38.9603C334.113 38.8927 334.202 38.8415 334.298 38.8101C334.394 38.7787 334.495 38.7679 334.596 38.7782H356.819C356.92 38.7679 357.021 38.7787 357.117 38.8101C357.213 38.8415 357.302 38.8927 357.377 38.9603C357.452 39.028 357.512 39.1107 357.553 39.203C357.594 39.2954 357.615 39.3953 357.615 39.4963C357.615 39.5974 357.594 39.6973 357.553 39.7896C357.512 39.882 357.452 39.9646 357.377 40.0323C357.302 40.1 357.213 40.1512 357.117 40.1826C357.021 40.2139 356.92 40.2248 356.819 40.2145Z" fill="#8097B7"/>
<path fill-rule="evenodd" clip-rule="evenodd" d="M472.032 277.741C472.26 277.209 472.511 276.928 472.792 276.928H483.379C483.63 276.928 483.873 277.209 484.139 277.741C482.619 267.664 480.468 261.372 478.059 261.372C475.649 261.372 473.544 267.664 472.032 277.741Z" fill="#002E6E"/>
<path fill-rule="evenodd" clip-rule="evenodd" d="M479.883 276.912C479.998 278.154 480.399 279.353 481.053 280.415C481.456 281.061 482.102 281.76 482.839 281.692C483.19 281.634 483.516 281.473 483.774 281.228C484.156 280.899 484.505 280.532 484.815 280.134C484.397 278.09 483.911 276.912 483.394 276.912H479.883Z" fill="#4D6D9A"/>
<path fill-rule="evenodd" clip-rule="evenodd" d="M477.96 281.541C477.964 281.576 477.964 281.612 477.96 281.647C477.679 283.874 475.064 280.401 477.2 280.659C477.41 280.693 477.602 280.8 477.741 280.962C477.88 281.123 477.958 281.328 477.96 281.541Z" fill="#4D6D9A"/>
<path fill-rule="evenodd" clip-rule="evenodd" d="M396.842 325.645H453.669C454.034 325.645 454.384 325.501 454.642 325.243C454.9 324.985 455.045 324.635 455.045 324.27V317.978C455.045 317.613 454.9 317.263 454.642 317.005C454.384 316.747 454.034 316.603 453.669 316.603H396.842C396.477 316.603 396.127 316.747 395.869 317.005C395.611 317.263 395.466 317.613 395.466 317.978V324.27C395.466 324.635 395.611 324.985 395.869 325.243C396.127 325.501 396.477 325.645 396.842 325.645Z" fill="#BF9A04"/>
<path fill-rule="evenodd" clip-rule="evenodd" d="M403.143 307.666H451.025C451.406 307.645 451.781 307.777 452.066 308.032C452.351 308.287 452.523 308.645 452.545 309.026V315.242C452.535 315.432 452.488 315.617 452.406 315.788C452.324 315.96 452.209 316.113 452.068 316.239C451.927 316.366 451.762 316.463 451.583 316.525C451.404 316.588 451.214 316.614 451.025 316.603H403.143C402.953 316.614 402.764 316.588 402.585 316.525C402.405 316.463 402.24 316.366 402.099 316.239C401.958 316.113 401.843 315.96 401.761 315.788C401.679 315.617 401.632 315.432 401.623 315.242V309.026C401.644 308.645 401.816 308.287 402.101 308.032C402.386 307.777 402.761 307.645 403.143 307.666Z" fill="#FFCB05"/>
<path fill-rule="evenodd" clip-rule="evenodd" d="M495.684 425.506H459.058V329.939H495.684V425.506Z" fill="#4D6D9A"/>
<path fill-rule="evenodd" clip-rule="evenodd" d="M463.991 425.506H386.513V332.827H463.991V425.506Z" fill="#8097B7"/>
<path fill-rule="evenodd" clip-rule="evenodd" d="M470.223 334.491H380.281C379.109 334.487 377.986 334.02 377.157 333.191C376.329 332.363 375.861 331.24 375.857 330.068C375.861 328.896 376.329 327.774 377.157 326.945C377.986 326.117 379.109 325.65 380.281 325.646H470.223C471.395 325.65 472.518 326.117 473.346 326.945C474.175 327.774 474.642 328.896 474.646 330.068C474.642 331.24 474.175 332.363 473.346 333.191C472.518 334.02 471.395 334.487 470.223 334.491Z" fill="#8097B7"/>
<path fill-rule="evenodd" clip-rule="evenodd" d="M497.591 334.491H459.59C458.418 334.487 457.295 334.02 456.466 333.191C455.638 332.363 455.171 331.24 455.167 330.068C455.171 328.896 455.638 327.774 456.466 326.945C457.295 326.117 458.418 325.65 459.59 325.646H497.591C498.763 325.65 499.886 326.117 500.715 326.945C501.543 327.774 502.011 328.896 502.015 330.068C502.011 331.24 501.543 332.363 500.715 333.191C499.886 334.02 498.763 334.487 497.591 334.491Z" fill="#4D6D9A"/>
<path fill-rule="evenodd" clip-rule="evenodd" d="M394.539 343.481C394.249 343.482 393.963 343.54 393.695 343.652C393.428 343.764 393.185 343.928 392.981 344.135C392.574 344.536 392.342 345.083 392.335 345.654V372.836C392.342 373.408 392.574 373.954 392.981 374.356V374.394C393.39 374.788 393.934 375.009 394.501 375.01H455.935C456.506 375 457.051 374.768 457.455 374.364C457.86 373.961 458.092 373.416 458.101 372.844V345.654C458.093 345.072 457.858 344.516 457.447 344.105C457.035 343.693 456.479 343.459 455.897 343.451L394.539 343.481ZM455.973 342.106C456.922 342.106 457.833 342.483 458.504 343.154C459.175 343.825 459.552 344.736 459.552 345.685V372.867C459.551 373.814 459.174 374.721 458.504 375.39C457.835 376.06 456.927 376.437 455.98 376.438H394.539C393.609 376.438 392.715 376.075 392.047 375.428L392.009 375.39C391.674 375.059 391.409 374.664 391.227 374.23C391.046 373.796 390.952 373.33 390.952 372.859V345.654C390.956 344.705 391.336 343.796 392.008 343.125C392.68 342.455 393.59 342.077 394.539 342.075L455.973 342.106Z" fill="#002E6E"/>
<path fill-rule="evenodd" clip-rule="evenodd" d="M394.539 386.142C393.955 386.142 393.394 386.374 392.981 386.788C392.568 387.201 392.335 387.761 392.335 388.346V415.528C392.342 416.1 392.574 416.646 392.981 417.048C393.39 417.442 393.934 417.662 394.501 417.663H455.935C456.506 417.653 457.051 417.422 457.455 417.017C457.859 416.614 458.091 416.069 458.101 415.498V388.316C458.097 387.732 457.863 387.174 457.451 386.762C457.038 386.349 456.48 386.116 455.897 386.112L394.539 386.142ZM455.973 384.767C456.922 384.767 457.833 385.144 458.504 385.815C459.175 386.486 459.552 387.397 459.552 388.346V415.528C459.551 416.475 459.174 417.382 458.504 418.051C457.835 418.721 456.927 419.098 455.98 419.1H394.539C393.609 419.099 392.715 418.736 392.047 418.089L392.009 418.051C391.674 417.72 391.409 417.325 391.228 416.891C391.046 416.457 390.953 415.991 390.952 415.52V388.316C390.956 387.366 391.336 386.457 392.008 385.786C392.68 385.116 393.59 384.738 394.539 384.736L455.973 384.767Z" fill="#002E6E"/>
<path fill-rule="evenodd" clip-rule="evenodd" d="M457.029 391.842H431.446C430.329 391.842 429.417 392.412 429.417 393.118V395.307C429.417 396.006 430.329 396.584 431.446 396.584H457.029C458.146 396.584 459.058 396.006 459.058 395.307V393.118C459.058 392.412 458.146 391.842 457.029 391.842Z" fill="#002E6E"/>
<path fill-rule="evenodd" clip-rule="evenodd" d="M422.904 350.981H393.308C392.016 350.981 390.952 351.551 390.952 352.258V354.447C390.952 355.146 392.016 355.723 393.308 355.723H422.904C424.196 355.723 425.252 355.146 425.252 354.447V352.258C425.252 351.551 424.196 350.981 422.904 350.981Z" fill="#002E6E"/>
<path fill-rule="evenodd" clip-rule="evenodd" d="M473.301 290.066C473.126 291.113 473.126 292.181 473.301 293.228C473.59 295.127 474.266 296.921 474.677 298.79C474.925 299.699 474.961 300.653 474.783 301.579C474.494 302.932 474.13 304.847 474.89 306.085C475.916 307.757 478.561 306.67 479.655 305.629C481.251 304.109 481.806 301.617 482.292 299.436C482.992 296.336 483.052 292.726 481.829 289.785C481.213 288.311 480.309 286.115 478.789 285.598C477.269 285.081 475.361 286.358 474.342 287.688C473.818 288.391 473.462 289.204 473.301 290.066Z" fill="#4D6D9A"/>
<path fill-rule="evenodd" clip-rule="evenodd" d="M470.656 315.303C471.173 320.296 471.941 323.464 472.792 323.464H481.152C481.152 323.29 481.152 323.122 481.152 322.948C481.266 321.755 481.289 320.501 479.913 320.668C479.56 320.76 479.192 320.781 478.83 320.729C478.468 320.677 478.121 320.553 477.808 320.364C476.539 319.422 477.284 317.415 477.512 316.101C477.755 314.665 477.975 313.061 477.078 311.876C475.961 310.356 474.578 310.303 473.278 311.541C472.166 312.611 471.275 313.889 470.656 315.303Z" fill="#8097B7"/>
<path fill-rule="evenodd" clip-rule="evenodd" d="M485.53 315.25C485.697 313.608 485.842 311.762 485.948 309.771H485.872C479.982 309.201 482.695 314.057 485.53 315.25Z" fill="#8097B7"/>
<path fill-rule="evenodd" clip-rule="evenodd" d="M517.58 396.584H505.42C505.017 396.584 504.63 396.744 504.345 397.029C504.06 397.314 503.9 397.701 503.9 398.104V410.262C503.9 410.665 504.06 411.052 504.345 411.337C504.63 411.622 505.017 411.782 505.42 411.782H517.58C517.984 411.782 518.37 411.622 518.655 411.337C518.94 411.052 519.101 410.665 519.101 410.262V398.104C519.101 397.701 518.94 397.314 518.655 397.029C518.37 396.744 517.984 396.584 517.58 396.584Z" fill="#002E6E"/>
<path fill-rule="evenodd" clip-rule="evenodd" d="M515.513 399.175H507.457C507.187 399.175 506.928 399.282 506.737 399.473C506.546 399.664 506.438 399.923 506.438 400.193V408.241C506.438 408.511 506.546 408.771 506.736 408.963C506.927 409.155 507.186 409.264 507.457 409.266H515.513C515.784 409.264 516.043 409.155 516.234 408.963C516.425 408.771 516.532 408.511 516.532 408.241V400.193C516.532 399.923 516.424 399.664 516.233 399.473C516.042 399.282 515.783 399.175 515.513 399.175Z" fill="#8097B7"/>
<path opacity="0.11" fill-rule="evenodd" clip-rule="evenodd" d="M469.98 300.166C469.98 305.919 470.238 311.2 470.656 315.273C471.173 320.266 471.941 323.435 472.792 323.435H483.379C484.23 323.435 484.998 320.235 485.515 315.22C485.682 313.578 485.827 311.732 485.933 309.741C486.1 306.823 486.184 303.578 486.184 300.166C486.184 291.663 485.629 284.208 484.8 280.119C484.382 278.075 483.896 276.897 483.379 276.897H472.792C471.219 276.913 469.98 287.384 469.98 300.166Z" fill="#A8A1E2"/>
<path fill-rule="evenodd" clip-rule="evenodd" d="M510.74 406.88H512.26C512.915 406.878 513.542 406.617 514.005 406.154C514.467 405.692 514.728 405.065 514.73 404.41C514.728 403.757 514.467 403.13 514.004 402.669C513.541 402.207 512.914 401.948 512.26 401.948H510.74C510.086 401.948 509.459 402.207 508.996 402.669C508.533 403.13 508.272 403.757 508.27 404.41C508.272 405.065 508.533 405.692 508.996 406.154C509.459 406.617 510.086 406.878 510.74 406.88Z" fill="#002E6E"/>
<path d="M482.794 324.483C483.795 324.577 484.789 324.727 485.773 324.932C486.769 325.129 487.75 325.372 488.722 325.653C490.663 326.213 492.544 326.961 494.339 327.888C496.126 328.811 497.782 329.969 499.264 331.33C500.735 332.687 501.966 334.282 502.905 336.049C503.835 337.821 504.469 339.733 504.782 341.71C504.942 342.716 505.036 343.732 505.063 344.75V346.27C505.063 346.779 505.063 347.288 505.063 347.79C504.962 351.868 504.553 355.932 503.839 359.948C503.148 363.976 502.19 367.958 501.187 371.932C500.685 373.923 500.168 375.914 499.667 377.92C499.181 379.925 498.803 381.954 498.534 384C498.405 385.035 498.344 386.079 498.352 387.123C498.352 387.389 498.352 387.647 498.352 387.883C498.352 388.118 498.352 388.407 498.413 388.643C498.472 389.168 498.559 389.691 498.671 390.208C499.155 392.258 499.975 394.215 501.096 395.999C502.205 397.765 503.496 399.411 504.949 400.908C505.671 401.667 506.423 402.374 507.229 403.058C508.011 403.75 508.828 404.402 509.676 405.011C509.777 405.081 509.901 405.107 510.022 405.085C510.142 405.063 510.249 404.994 510.319 404.893C510.388 404.793 510.415 404.668 510.393 404.548C510.371 404.427 510.302 404.321 510.201 404.251C509.381 403.665 508.592 403.036 507.837 402.367C507.077 401.698 506.317 400.999 505.633 400.269C504.219 398.822 502.966 397.227 501.894 395.512C500.817 393.818 500.031 391.956 499.568 390.003C499.178 388.032 499.129 386.009 499.424 384.022C499.693 382.005 500.071 380.003 500.556 378.027C501.02 376.036 501.536 374.045 502.076 372.054C503.095 368.079 504.067 364.075 504.774 360.009C505.506 355.943 505.928 351.828 506.036 347.698C506.036 347.182 506.036 346.665 506.036 346.179V344.659C506.008 343.61 505.912 342.564 505.747 341.528C505.427 339.44 504.764 337.42 503.786 335.547C502.795 333.683 501.497 331.998 499.948 330.562C498.403 329.137 496.675 327.923 494.81 326.953C492.959 325.987 491.017 325.208 489.011 324.628C488.016 324.331 486.997 324.08 485.971 323.868C484.944 323.655 483.906 323.498 482.863 323.397C482.723 323.384 482.585 323.428 482.478 323.518C482.371 323.608 482.305 323.736 482.293 323.875C482.28 324.014 482.324 324.152 482.414 324.259C482.504 324.366 482.632 324.433 482.771 324.445L482.794 324.483Z" fill="#002E6E"/>
<path fill-rule="evenodd" clip-rule="evenodd" d="M472.283 325.623H484.139C484.557 325.623 484.899 325.098 484.899 324.452V323.799C484.899 323.145 484.565 322.621 484.139 322.621L483.288 322.287C480.04 320.98 476.413 320.98 473.165 322.287L472.313 322.621C471.895 322.621 471.553 323.145 471.553 323.799V324.483C471.531 325.098 471.865 325.623 472.283 325.623Z" fill="#002E6E"/>
<path d="M258.213 473.008C335.464 473.008 398.089 465.074 398.089 455.287C398.089 445.499 335.464 437.565 258.213 437.565C180.961 437.565 118.337 445.499 118.337 455.287C118.337 465.074 180.961 473.008 258.213 473.008Z" fill="#4D6D9A"/>
<path d="M258.213 468.882C317.482 468.882 365.529 462.795 365.529 455.287C365.529 447.779 317.482 441.692 258.213 441.692C198.944 441.692 150.896 447.779 150.896 455.287C150.896 462.795 198.944 468.882 258.213 468.882Z" fill="#8097B7"/>
<path d="M135.969 318.371L131.695 381.542L132.438 381.592L136.712 318.421L135.969 318.371Z" fill="#33588B"/>
<path d="M152.814 208.898L142.453 380.234L143.196 380.279L153.557 208.943L152.814 208.898Z" fill="#33588B"/>
<path d="M138.508 184.043H137.763V383.923H138.508V184.043Z" fill="#33588B"/>
<path d="M128.972 262.806L128.227 262.822L130.86 382.502L131.604 382.486L128.972 262.806Z" fill="#33588B"/>
<path d="M138.569 224.934C138.569 224.934 159.356 207.213 153.184 189.53C147.013 171.846 116.566 181.414 126.241 213.323C127.426 215.977 129.125 218.37 131.242 220.363C133.358 222.356 135.848 223.91 138.569 224.934Z" fill="#002558"/>
<path d="M132.223 216.021L132.967 215.953L131.356 196.985L130.368 194.166L132.223 216.021Z" fill="#33588B"/>
<path d="M142.452 216.469L143.197 216.454L142.589 186.476L141.936 191.248L142.452 216.469Z" fill="#33588B"/>
<path d="M146.291 211.583L149.916 191.012L148.601 194.165L145.561 211.453L146.291 211.583Z" fill="#33588B"/>
<path d="M151.702 254.016C151.702 254.016 169.715 230.702 160.336 214.235C150.957 197.767 90.6259 211.378 117.903 270.818C145.181 330.258 166.256 290.287 166.256 290.287L151.702 254.016Z" fill="#002E6E"/>
<path d="M135.931 296.465L136.646 296.275L120.282 234.714L118.329 230.276L135.931 296.465Z" fill="#33588B"/>
<path d="M141.099 290.606L141.844 290.576L138.698 221.196L137.771 217.282L141.099 290.606Z" fill="#33588B"/>
<path d="M148.373 267.854L151.466 218.239L150.463 222.404L147.636 267.808L148.373 267.854Z" fill="#33588B"/>
<path d="M138.136 274.967C138.136 274.967 140.849 234.98 163.794 249.707C186.74 264.435 192.409 322.203 138.136 339.734V274.967Z" fill="#002558"/>
<path d="M134.54 313.411L157.774 257.276L158.93 252.526L133.849 313.122L134.54 313.411Z" fill="#33588B"/>
<path d="M130.725 317.371C132.808 317.295 136.235 314.703 141.214 309.437C145.09 305.341 149.863 299.649 155.403 292.529C164.835 280.37 170.604 272.011 170.695 271.89L172.793 267.619C172.709 267.741 164.227 279.968 154.818 292.073C139.154 312.211 133.059 316.542 130.695 316.626L130.725 317.371Z" fill="#33588B"/>
<path d="M127.282 324.909C132.063 324.909 141.844 319.589 156.361 309.118C167.138 301.336 176.646 293.456 176.737 293.38L173.758 294.847C170.14 297.78 138.356 324.164 127.282 324.164V324.909Z" fill="#33588B"/>
<path d="M159.728 322.355C159.158 322.667 155.685 323.237 146.732 324.779C141.746 325.638 129.578 327.652 124.349 327.781V328.541C129.669 328.412 142.095 326.352 147.15 325.501C151.284 324.787 155.472 323.981 158.641 323.366C163.718 322.347 163.893 322.158 164.015 322.028L159.728 322.355Z" fill="#33588B"/>
<path d="M130.771 362.699C130.771 362.699 149.726 342.721 145.288 312.036C140.849 281.351 106.306 281.381 106.526 311.192C106.746 341.004 113.055 349.302 130.771 362.699Z" fill="#8097B7"/>
<path d="M129.281 360.283L129.934 360.1L120.472 297.362L119.134 293.145L128.589 356.164L110.402 304.368L110.257 306.276L129.281 360.283Z" fill="#33588B"/>
<path d="M130.961 360.754L141.122 312.203L141.206 308.464L131.136 356.255L133.826 295.743L132.732 301.929L130.277 360.556L130.961 360.754Z" fill="#33588B"/>
<path d="M273.406 166.497C388.413 166.497 355.937 320.881 355.937 320.881H190.874C190.874 320.881 158.398 166.497 273.406 166.497Z" fill="#FFCB05"/>
<path d="M355.937 412.222L350.374 426.06H337.537V412.747C343.565 411.276 349.836 411.097 355.937 412.222Z" fill="#BA947D"/>
<path d="M195.639 412.222L201.18 426.06H214.032V412.747C208.007 411.276 201.738 411.097 195.639 412.222Z" fill="#BA947D"/>
<path d="M199.44 360.708H347.379V312.598H199.44V360.708Z" fill="#BF9A04"/>
<path d="M155.343 266.289C169.411 243.492 198.794 257.17 202.275 284.922C205.756 312.674 202.275 365.625 202.275 365.625H344.537C344.537 365.625 341.056 312.674 344.537 284.922C348.018 257.17 377.393 243.484 391.461 266.289C405.529 289.094 366.958 298.76 369.109 326.467C371.26 354.173 359.069 413.226 359.069 413.226C323.347 417.155 273.406 418.545 273.406 418.545C273.406 418.545 223.449 417.193 187.728 413.226C187.728 413.226 175.567 354.181 177.688 326.467C179.808 298.753 141.282 289.094 155.343 266.289Z" fill="#E6B905"/>
<path d="M206.987 372.677H339.832C344 372.677 347.379 369.298 347.379 365.131V332.113C347.379 327.945 344 324.567 339.832 324.567H206.987C202.819 324.567 199.44 327.945 199.44 332.113V365.131C199.44 369.298 202.819 372.677 206.987 372.677Z" fill="#BF9A04"/>
<path d="M379.527 279.862C381.272 275.688 379.303 270.889 375.128 269.144C370.953 267.399 366.154 269.368 364.409 273.542C362.663 277.716 364.632 282.514 368.807 284.26C372.982 286.005 377.781 284.036 379.527 279.862Z" fill="#BF9A04"/>
<path d="M177.675 282.351C180.795 279.075 180.668 273.889 177.39 270.77C174.113 267.65 168.927 267.778 165.807 271.055C162.687 274.332 162.815 279.517 166.092 282.637C169.369 285.756 174.555 285.628 177.675 282.351Z" fill="#BF9A04"/>
<path d="M275.169 313.654C276.033 313.961 276.923 314.19 277.829 314.338L316.294 320.516C320.177 321.138 324.148 320.194 327.335 317.89C330.522 315.585 332.663 312.111 333.288 308.229L340.813 261.304C341.123 259.382 341.051 257.417 340.602 255.523C340.152 253.629 339.334 251.841 338.193 250.263C337.053 248.685 335.612 247.348 333.954 246.326C332.296 245.305 330.453 244.621 328.53 244.312L323.066 243.431L290.065 238.111C288.143 237.803 286.178 237.876 284.284 238.327C282.39 238.778 280.603 239.597 279.026 240.739C277.449 241.881 276.113 243.323 275.094 244.982C274.074 246.641 273.392 248.484 273.086 250.407L265.547 297.331C264.992 300.747 265.65 304.25 267.408 307.231C269.165 310.213 271.911 312.485 275.169 313.654Z" fill="#FFE375"/>
<path d="M275.169 313.654C276.033 313.961 276.924 314.19 277.829 314.338L316.294 320.516C320.177 321.138 324.149 320.193 327.335 317.889C330.522 315.585 332.663 312.11 333.288 308.228L340.813 261.304C341.123 259.382 341.051 257.417 340.602 255.523C340.152 253.628 339.334 251.841 338.193 250.263C337.053 248.685 335.612 247.347 333.954 246.326C332.296 245.305 330.453 244.621 328.531 244.312L323.066 243.431C323.066 243.431 321.189 307.195 275.169 313.654Z" fill="#BF9A04"/>
<path d="M321.196 433.151C324.264 435.987 326.986 439.175 329.306 442.65C333.144 448.41 343.336 448.729 343.746 456.571C344.157 464.414 329.899 464.672 322.397 462.111C314.896 459.55 313.756 451.883 309.226 449.952C304.696 448.022 302.332 446.48 302.682 442.733C303.031 438.987 305.532 432.885 305.532 432.885C306.995 433.358 308.491 433.722 310.009 433.971C313.758 434.265 317.53 433.988 321.196 433.151Z" fill="#B2C0D3"/>
<path d="M269.811 220.254C269.811 220.254 272.683 237.344 275.002 248.637C275.944 253.196 276.788 256.844 277.282 257.983C277.943 259.42 283.362 265.21 289.944 272.011C301.527 283.934 316.841 298.958 316.841 298.958L322.823 287.559C322.823 287.559 309.226 271.601 300.022 260.962C295.758 256.038 292.421 252.254 291.821 251.707C289.891 249.982 287.656 232.998 284.51 219.03C281.363 205.063 275.062 197.297 275.062 197.297L269.811 220.254Z" fill="#002E6E"/>
<path d="M289.952 272.049C301.535 283.972 316.849 298.996 316.849 298.996L322.831 287.597C322.831 287.597 309.234 271.639 300.03 261C297.172 262.406 292.004 265.711 289.952 272.049Z" fill="#EEA886"/>
<path d="M215.636 428.439C215.636 428.439 211.699 432.793 209.373 435.43C207.047 438.067 198.132 442.778 198.079 450.628C198.026 459.124 204.661 458.379 210.551 458.068C216.441 457.756 221.245 453.691 223.73 448.88C226.215 444.07 232.812 442.801 233.284 438.926C233.755 435.05 230.243 428.066 230.243 428.066L215.636 428.439Z" fill="#B2C0D3"/>
<path d="M229.461 420.817L230.221 428.052C230.221 428.052 217.908 433.409 215.636 428.439L216.16 422.003L229.461 420.817Z" fill="#EEA886"/>
<path d="M320.527 427.885L321.196 433.121C316.086 434.662 310.624 434.579 305.562 432.885L305.395 428.234L320.527 427.885Z" fill="#EEA886"/>
<path d="M214.936 296.648C214.511 298.168 293.721 296.648 293.721 296.648C293.721 296.648 271.809 280.69 270.388 276.442C268.967 272.194 275.967 246.623 276.879 238.302C277.639 231.653 279.44 201.879 275.055 197.327C270.495 192.578 253.956 187.593 253.956 187.593L229.879 188.459C227.536 188.955 225.245 189.673 223.038 190.602C220.196 191.924 203.954 197.707 201.317 205.8C198.679 213.893 217.52 239.996 217.52 239.996C217.52 239.996 217.558 241.167 217.619 243.089C217.688 245.65 217.794 249.541 217.893 253.728C218.022 259.199 218.128 265.225 218.128 269.618C218.128 280.067 215.362 295.128 214.936 296.648Z" fill="#002E6E"/>
<path d="M214.936 296.647C214.936 296.647 204.167 312.469 204.015 323.244C203.863 334.02 208.005 363.998 208.309 369.933C208.613 375.868 214.192 425.308 214.192 425.308C214.192 425.308 218.501 429.313 231.437 424.297C231.437 424.297 234.287 377.403 234.591 372.388C234.895 367.372 234.902 344.271 237.791 340.889C240.679 337.508 258.182 327.051 260.462 325.068C262.742 323.084 302.5 332.583 306.672 333.662C317.457 336.459 312.539 355.229 310.153 363.641C306.163 377.715 302.667 428.553 302.667 428.553C302.667 428.553 310.358 431.828 323.188 429.062C323.188 429.062 348.459 337.272 349.272 328.146C350.085 319.019 350.518 303.965 288.241 292.566L214.936 296.647Z" fill="#4D6D9A"/>
<path d="M247.352 135.265C247.352 135.265 268.245 130.546 263.472 156.846C258.699 183.147 253.675 185.206 241.066 179.765C228.457 174.324 229.59 157.477 228.952 149.217C228.313 140.956 240.686 135.584 247.352 135.265Z" fill="#EEA886"/>
<path d="M252.877 194.34C252.877 194.34 243.628 204.151 228.997 195.237C228.997 195.237 232.265 173.959 230.517 163.617C228.769 153.274 249.602 179.666 249.602 179.666C249.328 179.811 249.145 180.798 249.107 182.204C249.073 183.611 249.144 185.018 249.32 186.414C249.784 189.857 250.856 193.497 252.877 194.34Z" fill="#EEA886"/>
<path d="M236.142 153.389C235.868 151.109 231.277 150.22 230.913 153.7C230.548 157.181 232.995 163.283 234.713 162.682C236.43 162.082 236.522 156.588 236.142 153.389Z" fill="#EEA886"/>
<path d="M229.97 162.736C229.97 162.736 230.51 154.453 233.535 154.194C236.56 153.936 237.031 157.272 237.031 157.272L240.071 157.849C240.071 157.849 239.106 150.592 242.131 149.323C245.155 148.054 261.709 153.32 264.133 151.185C266.558 149.05 265.418 134.322 261.033 132.309C256.647 130.295 244.525 125.773 235.648 131.784C235.648 131.784 228.731 131.024 227.705 136.579C226.679 142.134 228.093 158.586 229.97 162.736Z" fill="#2C2F35"/>
<path d="M249.351 186.415C234.264 181.764 233.124 172.683 233.109 172.539C238.079 181.073 249.138 182.205 249.138 182.205C249.103 183.612 249.174 185.019 249.351 186.415Z" fill="#A77860"/>
<path d="M222.818 190.738C222.818 190.738 233.869 212.738 251.699 211.317C269.529 209.896 254.739 187.76 253.934 187.585C253.128 187.41 235.647 183.025 222.818 190.738Z" fill="#EEA886"/>
<path d="M302.781 295.531C302.781 295.531 248.059 302.279 214.937 296.648L278.262 288.768C278.262 288.768 278.635 290.348 302.781 295.531Z" fill="#6659B8"/>
<path d="M261.868 286.244L265.942 288.311C265.942 288.311 265.015 294.778 262.78 296.739L258.22 295.576C258.22 295.576 259.17 288.478 261.868 286.244Z" fill="#EEA886"/>
<path d="M198.566 272.991C199.386 273.933 210.141 278.257 222.286 282.938C238.885 289.329 257.605 295.378 257.605 295.378L261.868 286.259C261.868 286.259 242.26 275.62 229.012 268.135C222.757 264.609 217.916 261.79 217.232 261.144C215.104 259.115 214.549 255.862 216.115 250.186C217.68 244.509 221.29 218.437 221.701 215.397C222.111 212.357 220.682 204.242 213.075 203.831C205.467 203.421 201.598 205.579 201.598 205.579C201.598 205.579 199.683 206.339 198.262 224.828C196.84 243.316 196.643 270.757 198.566 272.991Z" fill="#002E6E"/>
<path d="M217.65 243.172C217.718 245.733 217.825 249.624 217.924 253.811C225.349 235.611 221.062 221.089 220.964 220.846C221.792 225.8 217.703 242.906 217.65 243.172Z" fill="#002354"/>
<path d="M274.971 248.636C275.914 253.195 276.757 256.843 277.251 257.983C279.782 245.71 277.502 229.995 277.502 229.995C277.19 237.503 274.971 248.636 274.971 248.636Z" fill="#002354"/>
<path d="M222.286 282.938C238.885 289.329 258.213 295.576 258.213 295.576L261.868 286.244C261.868 286.244 242.26 275.605 229.012 268.12C229.012 268.12 224.209 270.468 222.286 282.938Z" fill="#EEA886"/>
<path d="M263.046 296.115L340.797 294.976L301.542 314.901L263.046 296.115Z" fill="#263238"/>
<path d="M301.542 314.9L263.046 299.991V296.115L304.582 311.101L301.542 314.9Z" fill="#455A64"/>
<path d="M265.061 288.448C265.061 288.448 269.917 287.689 273.277 286.929C275.876 286.321 282.336 287.157 283.978 288.821C285.619 290.485 290.856 302.104 291.844 302.811C292.832 303.518 291.335 305.167 289.602 304.331C289.602 304.331 288.006 309.414 284.069 307.515C280.132 305.615 277.457 301.435 275.397 300.721C273.337 300.007 261.321 296.298 261.321 296.298C261.321 296.298 261.967 287.248 265.061 288.448Z" fill="#EEA886"/>
<path d="M282.792 288.045C284.152 288.682 285.467 289.411 286.729 290.226C287.542 290.895 290.841 293.364 291.639 293.949C292.437 294.535 290.438 296.184 284.532 293.63C278.627 291.077 282.792 288.045 282.792 288.045Z" fill="#EEA886"/>
<path d="M301.542 314.9L324.67 251.767L399.221 252.982L377.18 311.161L301.542 314.9Z" fill="#455A64"/>
<path d="M348.527 279.701C346.247 284.26 346.938 289.2 350.047 290.758C353.155 292.315 357.541 289.899 359.821 285.355C362.101 280.81 361.402 275.856 358.301 274.29C355.2 272.725 350.799 275.149 348.527 279.701Z" fill="#63818F"/>
<path d="M112.72 380.283L124.721 418.522H151.543L163.543 380.283H112.72Z" fill="#DFE2FE"/>
<path d="M112.72 380.283C112.72 380.283 139.146 384.448 139.146 418.522H151.543L163.543 380.283H112.72Z" fill="#ACAEAF"/>
<path d="M149.787 429.959C149.452 428.659 151.679 427.215 153.055 426.76C158.512 425.088 154.734 420.916 156.254 415.619C157.911 409.092 163.368 405.056 168.271 403.347C162.312 405.148 156.764 410.125 155.707 415.885C155.334 417.767 155.272 419.698 155.525 421.6C155.798 422.968 155.616 424.807 154.438 425.62C153.678 426.19 150.729 426.456 149.475 428.766C148.768 430.285 149.627 431.19 151.216 431.669C155.183 432.824 171.736 431.919 174.465 429.48C171.98 431.501 150.585 433.15 149.787 429.959Z" fill="#454342"/>
<path d="M164.965 393.202C164.965 393.202 156.05 389.866 151.368 389.532C146.686 389.197 145.288 386.492 145.288 386.492L129.798 388.316C130.267 389.846 130.267 391.482 129.798 393.012C128.962 395.163 125.808 397.693 130.361 405.718C134.913 413.743 136.608 415.665 136.578 423.614C136.578 429.632 131.972 429.632 132.42 430.97C132.869 432.307 139.215 432.307 140.332 430.97C141.449 429.632 155.936 430.111 159.052 430.111C162.168 430.111 172.983 431.449 175.324 428.888C177.665 426.327 183.593 402.032 164.965 393.202Z" fill="#63818F"/>
<path d="M141.898 370.457C140.679 370.03 139.382 369.877 138.097 370.009C134.297 370.382 124.09 372.205 126.188 381.058C128.749 391.872 137.223 393.095 141.791 390.177C146.359 387.259 147.697 381.37 147.111 377.692C146.686 374.675 145.371 371.704 141.898 370.457Z" fill="#63818F"/>
<path d="M145.234 363.307C142.338 364.864 139.8 370.001 139.8 370.001L145.88 373.748C145.88 373.748 148.13 361.718 145.234 363.307Z" fill="#63818F"/>
<path d="M121.985 368.459C118.344 368.657 125.968 377.761 125.968 377.761L130.361 372.122C130.361 372.122 125.626 368.262 121.985 368.459Z" fill="#63818F"/>
<path d="M155.806 421.547C155.806 421.547 156.703 425.574 153.526 426.342C150.349 427.109 147.21 430.605 151.968 431.57C156.726 432.535 172.086 431.623 174.51 429.48L168.316 403.347C168.316 403.347 153.929 407.655 155.806 421.547Z" fill="#63818F"/>
<path d="M143.258 427.87C137.862 432.855 145.09 432.315 146.701 431.958C148.312 431.601 147.993 430.051 148.981 427.231C149.969 424.412 152.143 399.783 152.143 399.783L141.289 400.224C140.909 402.975 148.654 422.885 143.258 427.87Z" fill="#63818F"/>
<path d="M148.327 428.432C147.757 430.537 147.818 431.388 146.648 431.684C145.477 431.981 143.228 432.049 142.156 431.54C140.818 430.917 142.057 429.412 143.106 428.379C149.255 422.239 140.925 403.446 141.289 400.224C140.864 403.036 147.871 421.638 143.486 427.224C142.901 427.915 140.742 429.602 141.046 431.023C141.449 432.855 145.827 432.543 147.073 432.102C148.32 431.662 148.244 430.697 149.353 426.943C150.478 421.768 151.778 405.065 152.158 399.753C149.034 428.158 149.262 424.99 148.327 428.432Z" fill="#454342"/>
<path d="M141.472 375.792C141.125 375.875 140.825 376.092 140.637 376.395C140.449 376.698 140.389 377.063 140.469 377.411C140.566 377.697 140.759 377.942 141.015 378.103C141.271 378.265 141.575 378.334 141.876 378.298C142.177 378.262 142.456 378.125 142.668 377.908C142.879 377.691 143.01 377.408 143.037 377.107C143.07 376.903 143.049 376.695 142.976 376.503C142.904 376.31 142.784 376.139 142.626 376.007C142.469 375.875 142.28 375.785 142.077 375.748C141.875 375.71 141.666 375.725 141.472 375.792Z" fill="#263238"/>
<path d="M131.553 378.361C131.379 378.393 131.214 378.46 131.067 378.559C130.921 378.658 130.797 378.787 130.702 378.936C130.608 379.086 130.546 379.254 130.52 379.429C130.494 379.603 130.504 379.782 130.551 379.952C130.597 380.123 130.679 380.282 130.79 380.42C130.901 380.557 131.04 380.67 131.197 380.751C131.354 380.832 131.526 380.88 131.703 380.891C131.879 380.902 132.056 380.876 132.222 380.816C132.468 380.733 132.684 380.58 132.843 380.376C133.002 380.172 133.098 379.926 133.119 379.668C133.15 379.465 133.128 379.258 133.055 379.067C132.982 378.875 132.861 378.705 132.704 378.574C132.547 378.443 132.358 378.354 132.157 378.317C131.955 378.28 131.747 378.295 131.553 378.361Z" fill="#263238"/>
<path d="M139.146 381.34C138.243 381.395 137.359 381.619 136.539 382.001C136.466 382.027 136.4 382.069 136.346 382.123C136.291 382.178 136.25 382.244 136.224 382.317C136.199 382.39 136.19 382.468 136.198 382.545C136.207 382.621 136.232 382.695 136.273 382.761C136.699 383.521 138.47 384.121 138.553 384.083C138.637 384.045 140.035 381.477 139.146 381.34Z" fill="#263238"/>
</g>
<defs>
<clipPath id="clip0">
<rect width="617" height="473" fill="white"/>
</clipPath>
</defs>
</svg>