<svg width="576" height="430" viewBox="0 0 576 430" fill="none" xmlns="http://www.w3.org/2000/svg">
<path d="M576 377.525H0V377.813H576V377.525Z" fill="#EBEBEB"/>
<path d="M273.024 326.146H50.5842C48.8416 326.143 47.1715 325.448 45.9404 324.215C44.7093 322.982 44.0178 321.31 44.0178 319.568V6.88043C44.033 5.14785 44.7311 3.49122 45.9606 2.27037C47.1901 1.04953 48.8516 0.363075 50.5842 0.360107H273.024C274.768 0.360107 276.442 1.05314 277.675 2.28674C278.909 3.52033 279.602 5.19345 279.602 6.93803V319.568C279.602 321.312 278.909 322.985 277.675 324.219C276.442 325.453 274.768 326.146 273.024 326.146ZM50.5842 0.590508C48.918 0.59356 47.3211 1.25759 46.144 2.43685C44.9669 3.61611 44.3058 5.21423 44.3058 6.88043V319.568C44.3058 321.234 44.9669 322.832 46.144 324.011C47.3211 325.191 48.918 325.855 50.5842 325.858H273.024C274.691 325.855 276.289 325.191 277.468 324.012C278.647 322.833 279.311 321.235 279.314 319.568V6.88043C279.311 5.21317 278.647 3.61507 277.468 2.43615C276.289 1.25722 274.691 0.593554 273.024 0.590508H50.5842Z" fill="#EBEBEB"/>
<path d="M522.213 326.146H299.762C298.018 326.143 296.347 325.449 295.114 324.216C293.881 322.983 293.187 321.311 293.184 319.568V6.88043C293.202 5.1468 293.903 3.49018 295.134 2.26965C296.366 1.04913 298.028 0.363043 299.762 0.360107H522.213C523.944 0.366103 525.602 1.0539 526.829 2.27442C528.056 3.49494 528.753 5.14984 528.768 6.88043V319.568C528.768 321.308 528.078 322.978 526.85 324.211C525.621 325.444 523.954 326.14 522.213 326.146ZM299.762 0.590508C298.095 0.593554 296.497 1.25722 295.318 2.43615C294.139 3.61507 293.475 5.21317 293.472 6.88043V319.568C293.475 321.235 294.139 322.833 295.318 324.012C296.497 325.191 298.095 325.855 299.762 325.858H522.213C523.88 325.855 525.479 325.191 526.657 324.012C527.836 322.833 528.5 321.235 528.503 319.568V6.88043C528.5 5.21317 527.836 3.61507 526.657 2.43615C525.479 1.25722 523.88 0.593554 522.213 0.590508H299.762Z" fill="#EBEBEB"/>
<path d="M518.285 388.492H481.916V388.78H518.285V388.492Z" fill="#EBEBEB"/>
<path d="M386.312 385.37H347.823V385.658H386.312V385.37Z" fill="#EBEBEB"/>
<path d="M528.791 399.194H456.872V399.482H528.791V399.194Z" fill="#EBEBEB"/>
<path d="M82.5868 397.259H60.4338V397.547H82.5868V397.259Z" fill="#EBEBEB"/>
<path d="M127.745 397.259H92.8513V397.547H127.745V397.259Z" fill="#EBEBEB"/>
<path d="M281.249 392.397H218.396V392.685H281.249V392.397Z" fill="#EBEBEB"/>
<path d="M319.392 222.5L490.326 222.5V42.1201L319.392 42.1201V222.5Z" fill="#E6E6E6"/>
<path d="M301.075 36.2795H501.396C501.62 36.2795 501.841 36.3237 502.047 36.4095C502.253 36.4954 502.44 36.6211 502.598 36.7796C502.755 36.9381 502.88 37.1261 502.964 37.3329C503.049 37.5397 503.091 37.7612 503.09 37.9845C503.09 38.4336 502.911 38.8644 502.594 39.1819C502.276 39.4995 501.845 39.6779 501.396 39.6779H301.075C300.852 39.6795 300.63 39.6368 300.424 39.5524C300.217 39.4679 300.029 39.3434 299.87 39.186C299.712 39.0286 299.586 38.8414 299.5 38.6352C299.414 38.429 299.37 38.2079 299.37 37.9845C299.37 37.5323 299.55 37.0987 299.869 36.7789C300.189 36.4592 300.623 36.2795 301.075 36.2795Z" fill="#E6E6E6"/>
<path d="M312.134 222.5L486.939 222.5V42.1201L312.134 42.1201V222.5Z" fill="#F0F0F0"/>
<path d="M319.392 229.24L490.326 229.24V222.5L319.392 222.5V229.24Z" fill="#E6E6E6"/>
<path d="M300.05 229.24L474.854 229.24V222.5L300.05 222.5V229.24Z" fill="#F0F0F0"/>
<path d="M476.778 212.351V52.2808L322.284 52.2808V212.351H476.778Z" fill="#FAFAFA"/>
<path d="M441.711 212.351L382.118 52.2693H353.975L413.58 212.351H441.711Z" fill="white"/>
<path d="M407.531 212.351L347.938 52.2693H336.971L396.564 212.351H407.531Z" fill="white"/>
<path d="M323.585 212.351V52.2808H322.295V212.351H323.585Z" fill="#E6E6E6"/>
<g opacity="0.6">
<path opacity="0.6" d="M362.442 196.407H304.266L307.573 33.0188H365.749L362.442 196.407Z" fill="#F0F0F0"/>
<path opacity="0.6" d="M385.102 196.407H339.782L343.089 33.0193H388.408L385.102 196.407Z" fill="#E6E6E6"/>
<path opacity="0.6" d="M420.618 196.407H362.442L365.749 33.0193H423.925L420.618 196.407Z" fill="#F0F0F0"/>
<path opacity="0.6" d="M443.278 196.408H397.958L401.265 33.0193L446.584 33.0078L443.278 196.408Z" fill="#E6E6E6"/>
<path opacity="0.6" d="M478.794 196.408H420.618L423.925 33.0193L482.101 33.0078L478.794 196.408Z" fill="#F0F0F0"/>
</g>
<path d="M254.166 197.398V23.8264L98.6458 23.8264V197.398H254.166Z" fill="#EBEBEB"/>
<path d="M255.571 197.398V23.8264H254.166V197.398H255.571Z" fill="#E0E0E0"/>
<path d="M110.177 185.867L242.657 185.867L242.657 35.3349L110.177 35.3349L110.177 185.867Z" fill="#F5F5F5"/>
<path d="M181.302 190.866H218.615V138.646H181.302V190.866Z" fill="white"/>
<path d="M136.42 195.428H173.722L176.406 143.197H139.104L136.42 195.428Z" fill="white"/>
<path d="M103.922 130.755H141.224L143.908 78.5234H106.606L103.922 130.755Z" fill="white"/>
<path d="M218.083 83.158L246.775 84.4158L248.535 44.261L219.844 43.0033L218.083 83.158Z" fill="white"/>
<path d="M103.922 67.0265L132.614 68.2842L134.374 28.1295L105.682 26.8717L103.922 67.0265Z" fill="white"/>
<path d="M247.938 90.7115L219.221 90.3306L218.688 130.52L247.404 130.901L247.938 90.7115Z" fill="white"/>
<path d="M152.133 128.73L212.956 126.968L210.488 41.8246L149.665 43.5873L152.133 128.73Z" fill="white"/>
<path d="M135.901 377.525V218.088H71.9538V377.525H135.901Z" fill="#F0F0F0"/>
<path d="M132.388 269.018V222.085H75.4561V269.018H132.388Z" fill="#E6E6E6"/>
<path d="M132.388 320.167V273.234H75.4561V320.167H132.388Z" fill="#E6E6E6"/>
<path d="M132.388 371.316V324.383H75.4559V371.316H132.388Z" fill="#E6E6E6"/>
<path d="M97.8508 269.018V222.085H75.4559V269.018H97.8508Z" fill="#E0E0E0"/>
<path d="M97.8508 320.167V273.234H75.4559V320.167H97.8508Z" fill="#E0E0E0"/>
<path d="M97.8394 371.316V324.383H75.4445V371.316H97.8394Z" fill="#E0E0E0"/>
<path d="M153.262 377.525V218.088H135.902V377.525H153.262Z" fill="#F5F5F5"/>
<path d="M204.273 377.525V218.088H140.325V377.525H204.273Z" fill="#F0F0F0"/>
<path d="M200.759 269.018V222.085H143.827V269.018H200.759Z" fill="#E6E6E6"/>
<path d="M200.759 320.167V273.234H143.827V320.167H200.759Z" fill="#E6E6E6"/>
<path d="M200.771 371.304V324.372H143.839V371.304H200.771Z" fill="#E6E6E6"/>
<path d="M166.222 269.018V222.085H143.827V269.018H166.222Z" fill="#E0E0E0"/>
<path d="M166.222 320.167V273.234H143.827V320.167H166.222Z" fill="#E0E0E0"/>
<path d="M166.21 371.316V324.383H143.816V371.316H166.21Z" fill="#E0E0E0"/>
<path d="M221.633 377.525V218.088H204.273V377.525H221.633Z" fill="#F5F5F5"/>
<path d="M122.112 310.939C122.112 316.031 115.523 320.155 107.401 320.155C99.2794 320.155 92.7361 316.008 92.7361 310.939H122.112Z" fill="#F0F0F0"/>
<path d="M122.112 304.05C122.112 309.142 115.523 313.266 107.401 313.266C99.2793 313.266 92.7014 309.142 92.7014 304.05H122.112Z" fill="#F0F0F0"/>
<path d="M192.384 259.802C192.384 264.894 184.147 269.018 173.952 269.018C163.757 269.018 155.52 264.894 155.52 259.802H192.384Z" fill="#FAFAFA"/>
<path d="M192.384 252.902C192.384 257.993 184.147 262.118 173.952 262.118C163.757 262.118 155.52 257.982 155.52 252.902H192.384Z" fill="#FAFAFA"/>
<path d="M147.698 371.304H193.928V331.134H147.698V371.304Z" fill="#F0F0F0"/>
<path d="M200.759 331.146H193.916V371.316H200.759V331.146Z" fill="#E0E0E0"/>
<path d="M79.3266 269.018H125.556V228.848H79.3266V269.018Z" fill="#F0F0F0"/>
<path d="M132.388 228.848H125.545V269.018H132.388V228.848Z" fill="#E0E0E0"/>
<path d="M308.298 377.525H317.272V293.129H308.298V377.525Z" fill="#E6E6E6"/>
<path d="M305.891 377.525H311.178V293.129H305.891V377.525Z" fill="#F0F0F0"/>
<path d="M431.643 293.129H304.266V302.472H431.643V293.129Z" fill="#F0F0F0"/>
<path d="M488.598 377.525H497.572V293.129H488.598V377.525Z" fill="#E6E6E6"/>
<path d="M486.916 377.525H492.204V293.129H486.916V377.525Z" fill="#F0F0F0"/>
<path d="M499.173 293.129H435.479V302.472H499.173V293.129Z" fill="#E6E6E6"/>
<path d="M432.403 377.525H441.377V293.129H432.403V377.525Z" fill="#E6E6E6"/>
<path d="M430.007 377.525H435.295V293.129H430.007V377.525Z" fill="#F0F0F0"/>
<path d="M288 429.549C411.359 429.549 511.361 423.711 511.361 416.508C511.361 409.306 411.359 403.468 288 403.468C164.641 403.468 64.6387 409.306 64.6387 416.508C64.6387 423.711 164.641 429.549 288 429.549Z" fill="#F5F5F5"/>
<path d="M344.229 404.297L327.94 402.408V308.969H313.978V402.408L297.688 404.297L296.271 408.928H345.646L344.229 404.297Z" fill="#263238"/>
<path opacity="0.4" d="M344.229 404.297L327.94 402.408V308.969H313.978V402.408L297.688 404.297L296.271 408.928H345.646L344.229 404.297Z" fill="#5243AC"/>
<path d="M316.8 183.24H389.376C377.087 221.645 370.769 261.71 370.644 302.034H298.068C298.193 261.71 304.511 221.645 316.8 183.24Z" fill="#5243AC"/>
<path opacity="0.3" d="M316.8 183.24H389.376C377.087 221.645 370.769 261.71 370.644 302.034H298.068C298.193 261.71 304.511 221.645 316.8 183.24Z" fill="black"/>
<path d="M312.388 183.24H384.964C372.671 221.645 366.35 261.71 366.221 302.034H293.645C293.768 261.709 300.09 221.643 312.388 183.24Z" fill="#5243AC"/>
<path d="M353.975 313.185H251.24C255.56 303.785 263.416 298.025 271.895 298.025H347.017L353.975 313.185Z" fill="#5243AC"/>
<path d="M374.849 313.185H325.244C329.553 303.785 337.409 298.025 345.9 298.025H363.456C371.935 298.025 376.128 302.921 374.849 313.185Z" fill="#5243AC"/>
<path opacity="0.3" d="M374.849 313.185H325.244C329.553 303.785 337.409 298.025 345.9 298.025H363.456C371.935 298.025 376.128 302.921 374.849 313.185Z" fill="black"/>
<path d="M400.147 414.953H404.352V254.526H400.147V414.953Z" fill="#5243AC"/>
<path d="M424.984 414.953H429.189V254.526H424.984V414.953Z" fill="#5243AC"/>
<path opacity="0.2" d="M424.984 414.953H429.189V254.526H424.984V414.953Z" fill="black"/>
<path d="M161.222 414.953H165.427L165.427 254.526H161.222L161.222 414.953Z" fill="#5243AC"/>
<path opacity="0.2" d="M161.222 254.526H165.427V362.318L161.222 352.906V254.526Z" fill="black"/>
<path d="M136.397 414.953H140.602L140.602 254.526H136.397L136.397 414.953Z" fill="#5243AC"/>
<path d="M136.397 348.368L404.364 348.368V254.526L136.397 254.526V348.368Z" fill="#5243AC"/>
<path d="M133.713 254.526L404.364 254.526V247.671L133.713 247.671V254.526Z" fill="#5243AC"/>
<path d="M429.178 254.526H404.352V348.368H429.178V254.526Z" fill="#5243AC"/>
<path opacity="0.2" d="M429.178 254.526H404.352V348.368H429.178V254.526Z" fill="black"/>
<path d="M431.862 247.683H404.352V254.537H431.862V247.683Z" fill="#5243AC"/>
<path opacity="0.2" d="M431.862 247.683H404.352V254.537H431.862V247.683Z" fill="black"/>
<path opacity="0.2" d="M136.397 259.306L429.189 259.306V254.537L136.397 254.537V259.306Z" fill="black"/>
<path d="M303.99 229.262H204.399C202.545 229.239 200.769 228.512 199.43 227.229C198.091 225.946 197.29 224.202 197.188 222.35L194.561 164.474C194.513 163.582 194.647 162.689 194.956 161.85C195.265 161.012 195.742 160.245 196.358 159.598C196.974 158.95 197.716 158.436 198.538 158.086C199.36 157.736 200.246 157.557 201.139 157.562H300.73C302.582 157.588 304.355 158.316 305.691 159.599C307.028 160.882 307.828 162.624 307.93 164.474L310.568 222.35C310.618 223.243 310.485 224.137 310.177 224.976C309.868 225.815 309.391 226.582 308.775 227.23C308.158 227.878 307.416 228.392 306.593 228.742C305.77 229.091 304.884 229.269 303.99 229.262Z" fill="#5243AC"/>
<path d="M302.653 229.262H203.063C201.209 229.239 199.432 228.512 198.094 227.229C196.755 225.946 195.953 224.202 195.851 222.35L193.225 164.474C193.176 163.582 193.31 162.689 193.619 161.85C193.928 161.012 194.406 160.245 195.022 159.598C195.638 158.95 196.38 158.436 197.202 158.086C198.024 157.736 198.909 157.557 199.803 157.562H299.393C301.245 157.588 303.019 158.316 304.355 159.599C305.691 160.882 306.491 162.624 306.593 164.474L309.231 222.35C309.282 223.243 309.149 224.137 308.84 224.976C308.532 225.815 308.055 226.582 307.438 227.23C306.822 227.878 306.079 228.392 305.256 228.742C304.433 229.091 303.547 229.269 302.653 229.262Z" fill="#5243AC"/>
<path opacity="0.2" d="M302.653 229.262H203.063C201.209 229.239 199.432 228.512 198.094 227.229C196.755 225.946 195.953 224.202 195.851 222.35L193.225 164.474C193.176 163.582 193.31 162.689 193.619 161.85C193.928 161.012 194.406 160.245 195.022 159.598C195.638 158.95 196.38 158.436 197.202 158.086C198.024 157.736 198.909 157.557 199.803 157.562H299.393C301.245 157.588 303.019 158.316 304.355 159.599C305.691 160.882 306.491 162.624 306.593 164.474L309.231 222.35C309.282 223.243 309.149 224.137 308.84 224.976C308.532 225.815 308.055 226.582 307.438 227.23C306.822 227.878 306.079 228.392 305.256 228.742C304.433 229.091 303.547 229.269 302.653 229.262Z" fill="white"/>
<path d="M261.803 194.288H242.784V229.262H261.803V194.288Z" fill="#5243AC"/>
<path d="M242.185 190.555L233.787 247.66H254.362L262.76 190.555H242.185ZM254.269 208.699L252.91 217.915C252.811 218.599 252.468 219.225 251.946 219.677C251.424 220.13 250.756 220.379 250.065 220.38H246.966C246.551 220.38 246.142 220.29 245.765 220.117C245.389 219.945 245.053 219.693 244.783 219.379C244.512 219.066 244.311 218.698 244.195 218.3C244.079 217.902 244.049 217.484 244.109 217.074L245.468 207.858C245.568 207.174 245.91 206.549 246.432 206.096C246.955 205.644 247.622 205.394 248.314 205.393H251.412C251.827 205.394 252.236 205.483 252.613 205.656C252.99 205.829 253.325 206.08 253.596 206.394C253.867 206.707 254.067 207.076 254.183 207.473C254.299 207.871 254.329 208.289 254.269 208.699Z" fill="#5243AC"/>
<path opacity="0.2" d="M242.185 190.555L233.787 247.66H254.362L262.76 190.555H242.185ZM254.269 208.699L252.91 217.915C252.811 218.599 252.468 219.225 251.946 219.677C251.424 220.13 250.756 220.379 250.065 220.38H246.966C246.551 220.38 246.142 220.29 245.765 220.117C245.389 219.945 245.053 219.693 244.783 219.379C244.512 219.066 244.311 218.698 244.195 218.3C244.079 217.902 244.049 217.484 244.109 217.074L245.468 207.858C245.568 207.174 245.91 206.549 246.432 206.096C246.955 205.644 247.622 205.394 248.314 205.393H251.412C251.827 205.394 252.236 205.483 252.613 205.656C252.99 205.829 253.325 206.08 253.596 206.394C253.867 206.707 254.067 207.076 254.183 207.473C254.299 207.871 254.329 208.289 254.269 208.699Z" fill="white"/>
<path d="M266.089 243.49H230.077L225.654 247.683H275.662L266.089 243.49Z" fill="#5243AC"/>
<path opacity="0.2" d="M266.089 243.49H230.077L225.654 247.683H275.662L266.089 243.49Z" fill="white"/>
<path d="M159.736 234.873C157.709 233.721 158.4 222.638 159.287 216.302C160.37 208.642 163.595 195.083 173.848 187.572C178.733 183.989 183.398 180.948 184.216 177.088C185.714 180.544 194.227 205.013 182.085 216.014C171.809 225.311 164.194 223.238 159.736 234.873Z" fill="#5243AC"/>
<g opacity="0.2">
<path opacity="0.2" d="M159.736 234.873C157.709 233.721 158.4 222.638 159.287 216.302C160.37 208.642 163.595 195.083 173.848 187.572C178.733 183.989 183.398 180.948 184.216 177.088C185.714 180.544 194.227 205.013 182.085 216.014C171.809 225.311 164.194 223.238 159.736 234.873Z" fill="black"/>
</g>
<path d="M162.432 228.583C164.794 227.258 162.086 214.344 159.921 206.994C157.306 198.101 151.016 182.388 136.881 173.794C130.176 169.704 123.805 166.248 122.112 161.744C120.799 165.741 116.582 197.225 133.632 209.851C148.113 220.53 154.886 215.127 162.432 228.583Z" fill="#5243AC"/>
<path d="M161.28 225.703C161.211 225.701 161.144 225.678 161.088 225.637C161.032 225.596 160.991 225.538 160.969 225.472C157.472 214.588 153.048 204.023 147.744 193.896C139.104 176.904 127.48 174.139 127.365 174.116C127.325 174.107 127.287 174.089 127.253 174.065C127.22 174.041 127.192 174.01 127.17 173.974C127.149 173.939 127.134 173.9 127.128 173.859C127.122 173.818 127.124 173.776 127.135 173.736C127.143 173.696 127.159 173.658 127.182 173.624C127.205 173.59 127.235 173.561 127.269 173.538C127.303 173.516 127.341 173.5 127.382 173.493C127.422 173.485 127.463 173.486 127.503 173.494C127.63 173.494 139.519 176.328 148.309 193.619C153.613 203.785 158.034 214.388 161.522 225.311C161.543 225.392 161.533 225.478 161.492 225.551C161.451 225.624 161.383 225.678 161.303 225.703H161.28Z" fill="white"/>
<path d="M124.531 185.267C124.491 185.269 124.451 185.263 124.414 185.249C124.376 185.236 124.342 185.214 124.312 185.187C124.254 185.127 124.221 185.046 124.221 184.962C124.221 184.878 124.254 184.798 124.312 184.738C126.444 182.698 129.159 181.375 132.079 180.952C134.999 180.528 137.978 181.026 140.602 182.376C140.639 182.393 140.672 182.418 140.699 182.448C140.727 182.479 140.748 182.514 140.761 182.553C140.774 182.592 140.778 182.633 140.775 182.674C140.771 182.715 140.759 182.755 140.74 182.791C140.724 182.829 140.7 182.863 140.67 182.892C140.64 182.92 140.604 182.943 140.565 182.957C140.526 182.971 140.485 182.976 140.443 182.974C140.402 182.971 140.362 182.96 140.325 182.94C137.814 181.657 134.965 181.189 132.175 181.602C129.385 182.015 126.793 183.288 124.762 185.244C124.69 185.278 124.608 185.287 124.531 185.267Z" fill="white"/>
<path d="M136.708 206.291C136.655 206.307 136.599 206.307 136.547 206.291C136.511 206.271 136.48 206.244 136.454 206.211C136.429 206.179 136.411 206.142 136.4 206.102C136.389 206.063 136.387 206.021 136.392 205.981C136.397 205.94 136.411 205.901 136.431 205.865C136.431 205.761 142.191 196.257 150.635 198.585C150.716 198.609 150.783 198.663 150.824 198.736C150.865 198.809 150.876 198.895 150.854 198.976C150.83 199.056 150.776 199.124 150.703 199.165C150.63 199.206 150.544 199.217 150.463 199.195C142.502 196.995 137.03 206.107 136.984 206.188C136.949 206.225 136.906 206.254 136.858 206.272C136.81 206.29 136.759 206.296 136.708 206.291Z" fill="white"/>
<path d="M145.843 190.14C145.774 190.139 145.707 190.116 145.651 190.075C145.595 190.034 145.554 189.976 145.532 189.91C145.24 188.819 145.346 187.659 145.832 186.638C146.015 186.349 146.258 186.102 146.544 185.914C146.83 185.725 147.152 185.599 147.49 185.544C147.531 185.534 147.572 185.532 147.613 185.539C147.654 185.546 147.693 185.561 147.728 185.584C147.762 185.607 147.792 185.636 147.815 185.671C147.837 185.706 147.852 185.745 147.859 185.786C147.876 185.868 147.861 185.954 147.815 186.025C147.77 186.096 147.699 186.147 147.617 186.166C147.363 186.199 147.119 186.288 146.904 186.428C146.688 186.568 146.507 186.754 146.373 186.972C145.983 187.845 145.902 188.824 146.143 189.749C146.155 189.788 146.159 189.83 146.154 189.87C146.149 189.911 146.136 189.951 146.116 189.987C146.095 190.022 146.068 190.053 146.035 190.078C146.002 190.102 145.964 190.12 145.924 190.129L145.843 190.14Z" fill="white"/>
<path d="M177.903 222.685H148.746L151.431 247.648H175.219L177.903 222.685Z" fill="#5243AC"/>
<path opacity="0.7" d="M177.903 222.685H148.746L151.431 247.648H175.219L177.903 222.685Z" fill="white"/>
<path d="M408.96 225V223.445C408.96 223.112 408.828 222.792 408.592 222.557C408.357 222.321 408.037 222.189 407.704 222.189H392.21C391.877 222.189 391.557 222.321 391.322 222.557C391.086 222.792 390.954 223.112 390.954 223.445V247.637H408.96V244.826C412.877 244.826 415.953 240.471 415.953 234.907C415.953 229.343 412.888 225 408.96 225ZM408.96 242.28V227.557C411.379 227.557 413.43 230.944 413.43 234.953C413.43 238.962 411.391 242.349 408.96 242.349V242.28Z" fill="#5243AC"/>
<path opacity="0.2" d="M408.96 225V223.445C408.96 223.112 408.828 222.792 408.592 222.557C408.357 222.321 408.037 222.189 407.704 222.189H392.21C391.877 222.189 391.557 222.321 391.322 222.557C391.086 222.792 390.954 223.112 390.954 223.445V247.637H408.96V244.826C412.877 244.826 415.953 240.471 415.953 234.907C415.953 229.343 412.888 225 408.96 225ZM408.96 242.28V227.557C411.379 227.557 413.43 230.944 413.43 234.953C413.43 238.962 411.391 242.349 408.96 242.349V242.28Z" fill="white"/>
<path opacity="0.3" d="M408.971 227.557H406.921L408.971 233.237V227.557Z" fill="black"/>
<path opacity="0.3" d="M408.971 244.872H406.921L408.971 245.817V244.872Z" fill="black"/>
</svg>
