<svg xmlns="http://www.w3.org/2000/svg" viewBox="0 0 570.13 657.78"><defs><style>.cls-1{fill:#8097b7;}.cls-2{fill:#002e6e;}.cls-3{fill:#e6b905;}.cls-4{fill:#ffcb05;}.cls-5{fill:#002558;}.cls-6{fill:#b2c0d3;}.cls-7{fill:#4d6d9a;}.cls-8{fill:#eea886;}.cls-9{fill:#002354;}.cls-10{fill:#2c2f35;}.cls-11{fill:#e0855c;}.cls-12{fill:#a77860;}.cls-13{fill:#f5a784;}.cls-14{fill:#415c82;}</style></defs><g id="Layer_2" data-name="Layer 2"><g id="Layer_1-2" data-name="Layer 1"><path class="cls-1" d="M243.33,106c-1.16-.06-2.34-.09-3.52-.09h-.06a.36.36,0,1,0,0,.71h.06c1.17,0,2.34,0,3.48.09h0a.34.34,0,0,0,.35-.33A.35.35,0,0,0,243.33,106Zm-7.16,0c-1.18.06-2.38.15-3.57.27a.37.37,0,0,0-.32.4.34.34,0,0,0,.35.31h0c1.18-.11,2.37-.21,3.54-.26a.36.36,0,0,0,.33-.38A.36.36,0,0,0,236.17,106Zm14.28.81c-1.16-.21-2.36-.38-3.55-.51a.35.35,0,0,0-.4.31.37.37,0,0,0,.32.4c1.18.13,2.36.3,3.5.5h.06a.36.36,0,0,0,.35-.3A.35.35,0,0,0,250.45,106.81Zm-21.41-.1c-1.16.17-2.35.37-3.53.59a.36.36,0,0,0,.07.71h.06c1.17-.22,2.35-.42,3.5-.58a.37.37,0,0,0,.31-.41A.36.36,0,0,0,229,106.71Zm28.36,1.83c-1.12-.37-2.28-.7-3.45-1a.36.36,0,0,0-.43.26.35.35,0,0,0,.26.43c1.15.29,2.29.61,3.4,1l.11,0a.36.36,0,0,0,.34-.25A.34.34,0,0,0,257.4,108.54Zm-35-.24A.36.36,0,0,0,222,108c-1.16.27-2.33.56-3.47.88a.36.36,0,0,0-.25.44.36.36,0,0,0,.34.26h.1c1.13-.32,2.29-.61,3.44-.88A.36.36,0,0,0,222.44,108.3Zm-6.88,1.88a.35.35,0,0,0-.45-.23c-2.13.69-3.34,1.19-3.39,1.21a.36.36,0,0,0-.19.47.35.35,0,0,0,.33.22.31.31,0,0,0,.13,0s1.24-.51,3.34-1.19A.35.35,0,0,0,215.56,110.18ZM264,111.26l-.18-.09c-1-.5-2-1-3.09-1.4a.37.37,0,0,0-.47.19.36.36,0,0,0,.2.47c1,.42,2.05.89,3,1.38l.17.09a.47.47,0,0,0,.16,0,.35.35,0,0,0,.32-.2A.36.36,0,0,0,264,111.26Zm5.28,4.93a11.19,11.19,0,0,0-2.28-2.87.35.35,0,0,0-.5,0,.36.36,0,0,0,0,.5,10.57,10.57,0,0,1,2.14,2.69.35.35,0,0,0,.31.18.26.26,0,0,0,.17,0A.35.35,0,0,0,269.32,116.19Zm1.23,3.45a.36.36,0,1,0-.7.13,13.37,13.37,0,0,1,.24,2.58c0,.29,0,.59,0,.88a.36.36,0,0,0,.34.38h0a.38.38,0,0,0,.36-.34c0-.31,0-.62,0-.92A14.76,14.76,0,0,0,270.55,119.64Zm-.57,6.78a.37.37,0,0,0-.43.27,27.07,27.07,0,0,1-1,3.36.36.36,0,0,0,.21.46.32.32,0,0,0,.13,0,.36.36,0,0,0,.33-.23,28.56,28.56,0,0,0,1.05-3.45A.37.37,0,0,0,270,126.42Zm-1,5h0c-1.17,0-2.38.05-3.58.13a.36.36,0,0,0,0,.71h0c1.19-.08,2.38-.12,3.54-.13a.36.36,0,0,0,0-.71Zm7.15.4c-1.17-.14-2.37-.25-3.57-.32a.37.37,0,0,0-.38.34.36.36,0,0,0,.34.37c1.19.07,2.37.17,3.52.32h.05a.36.36,0,0,0,0-.71Zm-14.31.07c-1.16.15-2.36.33-3.54.54a.35.35,0,0,0,.06.7h.06c1.18-.21,2.36-.38,3.51-.53a.35.35,0,0,0,.31-.39A.36.36,0,0,0,261.86,131.92Zm21.34,1.36c-1.13-.32-2.31-.61-3.49-.85a.36.36,0,0,0-.14.7c1.17.24,2.32.52,3.43.84h.1a.36.36,0,0,0,.1-.7Zm-28,.15a.37.37,0,0,0-.43-.27c-1.15.26-2.32.55-3.47.87a.36.36,0,0,0-.25.44.35.35,0,0,0,.35.26h.09c1.14-.31,2.3-.6,3.44-.86A.37.37,0,0,0,255.24,133.43Zm34.66,2.41c-1.06-.52-2.17-1-3.29-1.42a.35.35,0,0,0-.46.2.37.37,0,0,0,.2.47c1.1.41,2.19.88,3.24,1.39a.29.29,0,0,0,.16,0,.35.35,0,0,0,.32-.2A.37.37,0,0,0,289.9,135.84Zm-41.54-.55a.35.35,0,0,0-.45-.23c-1.13.36-2.27.76-3.38,1.17a.35.35,0,0,0-.21.46.34.34,0,0,0,.33.23.25.25,0,0,0,.12,0c1.11-.41,2.24-.8,3.36-1.16A.36.36,0,0,0,248.36,135.29Zm19.26-2.16a.36.36,0,0,0-.48.16c-.49,1-1.06,2.08-1.67,3.12a.36.36,0,0,0,.13.49.37.37,0,0,0,.18,0,.36.36,0,0,0,.31-.18c.62-1.06,1.19-2.12,1.69-3.16A.35.35,0,0,0,267.62,133.13Zm-26,4.61a.35.35,0,0,0-.46-.19c-1.1.46-2.2.95-3.28,1.45a.36.36,0,0,0,.16.68l.15,0c1.06-.5,2.15-1,3.24-1.44A.36.36,0,0,0,241.66,137.74ZM296,139.56c-1-.71-2-1.38-3-2a.36.36,0,1,0-.37.61c1,.61,2,1.27,2.93,2a.35.35,0,0,0,.21.07.37.37,0,0,0,.29-.14A.36.36,0,0,0,296,139.56Zm-32-.25a.36.36,0,0,0-.49.1c-.65,1-1.35,1.92-2.08,2.87a.35.35,0,0,0,.07.5.35.35,0,0,0,.5-.06c.73-1,1.44-1.94,2.1-2.91A.36.36,0,0,0,264.07,139.31Zm-28.87,1.44a.36.36,0,0,0-.48-.16c-1.07.56-2.12,1.15-3.14,1.74a.35.35,0,0,0,.18.66.31.31,0,0,0,.18-.05c1-.58,2.05-1.16,3.11-1.72A.35.35,0,0,0,235.2,140.75Zm66.22,3.57c-.83-.87-1.7-1.71-2.58-2.5a.35.35,0,0,0-.5,0,.36.36,0,0,0,0,.51c.87.77,1.73,1.59,2.54,2.45a.33.33,0,0,0,.26.11.36.36,0,0,0,.24-.09A.37.37,0,0,0,301.42,144.32Zm-72.39,0a.37.37,0,0,0-.5-.1c-1,.66-2,1.35-2.95,2a.37.37,0,0,0-.08.5.35.35,0,0,0,.29.15.4.4,0,0,0,.21-.07c.93-.68,1.91-1.36,2.92-2A.38.38,0,0,0,229,144.31Zm30.74.69a.35.35,0,0,0-.5,0c-.75.89-1.55,1.78-2.36,2.65a.36.36,0,0,0,.26.6.4.4,0,0,0,.26-.11c.82-.88,1.62-1.78,2.39-2.67A.36.36,0,0,0,259.77,145Zm-36.51,3.5a.36.36,0,0,0-.51,0c-1,.81-1.85,1.62-2.65,2.42a.36.36,0,0,0,0,.51.35.35,0,0,0,.25.1.39.39,0,0,0,.26-.1c.78-.79,1.66-1.59,2.61-2.38A.37.37,0,0,0,223.26,148.5Zm31.66,1.72a.36.36,0,0,0-.51,0c-.84.82-1.72,1.63-2.61,2.4a.36.36,0,0,0,0,.51.36.36,0,0,0,.27.12.35.35,0,0,0,.23-.09c.89-.78,1.78-1.6,2.64-2.43A.35.35,0,0,0,254.92,150.22Zm-36.72,3.3a.35.35,0,0,0-.5.06,16.81,16.81,0,0,0-1.94,3.07.37.37,0,0,0,.17.48.4.4,0,0,0,.15,0,.35.35,0,0,0,.32-.21,16.44,16.44,0,0,1,1.86-2.93A.35.35,0,0,0,218.2,153.52ZM249.58,155a.35.35,0,0,0-.5-.06c-.94.74-1.89,1.46-2.84,2.13a.35.35,0,0,0-.08.5.38.38,0,0,0,.29.15.37.37,0,0,0,.2-.07c1-.68,1.93-1.41,2.87-2.15A.36.36,0,0,0,249.58,155Zm-5.79,4.15a.38.38,0,0,0-.5-.11c-1,.64-2,1.25-3,1.79a.36.36,0,0,0-.15.48.37.37,0,0,0,.32.19.33.33,0,0,0,.17,0c1-.56,2.07-1.17,3.1-1.82A.36.36,0,0,0,243.79,159.1Zm-26.77,4a3.91,3.91,0,0,1-1.4-2.86.36.36,0,0,0-.37-.34.36.36,0,0,0-.34.38,4.59,4.59,0,0,0,1.64,3.35.3.3,0,0,0,.23.1.36.36,0,0,0,.27-.12A.36.36,0,0,0,217,163.06Zm20.52-.52a.36.36,0,0,0-.47-.18c-1.1.5-2.21.94-3.28,1.31a.35.35,0,0,0,.12.69H234c1.09-.39,2.21-.83,3.33-1.34A.36.36,0,0,0,237.54,162.54Zm-6.71,2.38a.34.34,0,0,0-.42-.26,26.3,26.3,0,0,1-3.47.56.36.36,0,0,0,0,.71h0a25.83,25.83,0,0,0,3.56-.58A.35.35,0,0,0,230.83,164.92Zm-7.38.33a16.3,16.3,0,0,1-3.42-.64.36.36,0,1,0-.21.68,17.21,17.21,0,0,0,3.57.67h0a.35.35,0,0,0,.35-.33A.36.36,0,0,0,223.45,165.25Z"/><path class="cls-1" d="M103.17,47.79a.36.36,0,0,0-.44-.24l-.76.23a.36.36,0,0,0,.11.7.2.2,0,0,0,.1,0l.75-.22A.36.36,0,0,0,103.17,47.79ZM99,49.15a.35.35,0,0,0-.46-.2c-1.12.42-2.23.88-3.31,1.37a.36.36,0,0,0-.18.47.35.35,0,0,0,.33.21.4.4,0,0,0,.15,0c1.06-.48,2.16-.94,3.26-1.36A.35.35,0,0,0,99,49.15Zm-6.5,2.91a.36.36,0,0,0-.48-.15c-1,.57-2.1,1.18-3.1,1.81a.36.36,0,0,0-.11.49.35.35,0,0,0,.3.17.41.41,0,0,0,.19-.05c1-.63,2-1.23,3-1.79A.35.35,0,0,0,92.54,52.06Zm-6,3.76a.35.35,0,0,0-.5-.07c-1,.71-1.91,1.46-2.8,2.23a.34.34,0,0,0,0,.5.32.32,0,0,0,.27.13.35.35,0,0,0,.23-.09c.88-.76,1.82-1.5,2.77-2.2A.36.36,0,0,0,86.5,55.82Zm-5.44,4.6a.35.35,0,0,0-.5,0c-.84.84-1.67,1.72-2.44,2.63a.35.35,0,0,0,0,.5.33.33,0,0,0,.23.09.37.37,0,0,0,.27-.13c.76-.89,1.57-1.76,2.4-2.59A.35.35,0,0,0,81.06,60.42Zm-4.68,5.36a.35.35,0,0,0-.49.07c-.71,1-1.39,2-2,3a.36.36,0,0,0,.12.49.32.32,0,0,0,.19.05.35.35,0,0,0,.3-.17c.62-1,1.29-2,2-2.92A.36.36,0,0,0,76.38,65.78Zm-3.8,6a.35.35,0,0,0-.47.15C71.55,73,71,74.11,70.58,75.21a.36.36,0,0,0,.19.46l.14,0a.36.36,0,0,0,.33-.22c.46-1.08,1-2.16,1.5-3.2A.35.35,0,0,0,72.58,71.8Zm-2.8,6.54a.35.35,0,0,0-.45.23c-.37,1.13-.7,2.3-1,3.45a.35.35,0,0,0,.26.43h.09a.35.35,0,0,0,.34-.27c.27-1.14.6-2.28,1-3.4A.35.35,0,0,0,69.78,78.34Zm-1.72,6.91a.35.35,0,0,0-.4.3c-.18,1.18-.31,2.38-.39,3.57a.35.35,0,0,0,.33.38h0a.35.35,0,0,0,.35-.33c.08-1.17.21-2.35.38-3.52A.35.35,0,0,0,68.06,85.25Zm-.16,7.44a.34.34,0,0,0-.36-.34.36.36,0,0,0-.35.36c0,1.2.11,2.41.24,3.59a.36.36,0,0,0,.36.31h0a.35.35,0,0,0,.31-.39C68,95.06,67.93,93.88,67.9,92.69Zm1.71,10.41c-.35-1.11-.65-2.25-.9-3.4a.36.36,0,0,0-.7.14c.25,1.18.56,2.35.92,3.48a.35.35,0,0,0,.34.24h.11A.35.35,0,0,0,69.61,103.1Zm55.3,1.08a8.17,8.17,0,0,0-3.54,1.07.36.36,0,0,0,.17.67.47.47,0,0,0,.17,0,7.55,7.55,0,0,1,3.22-1,.35.35,0,0,0,.35-.37A.36.36,0,0,0,124.91,104.18Zm5.7,4.14a6.48,6.48,0,0,0-2.14-3,.36.36,0,0,0-.43.57,5.85,5.85,0,0,1,1.9,2.71.36.36,0,0,0,.33.23.25.25,0,0,0,.12,0A.35.35,0,0,0,130.61,108.32Zm-58.16,1.22a32,32,0,0,1-1.59-3.15.36.36,0,0,0-.47-.18.36.36,0,0,0-.18.47,33.24,33.24,0,0,0,1.62,3.21.33.33,0,0,0,.31.18.41.41,0,0,0,.18,0A.35.35,0,0,0,72.45,109.54Zm46.49-2.12a.37.37,0,0,0-.51,0,23.47,23.47,0,0,0-2.44,2.67.36.36,0,0,0,.06.5.37.37,0,0,0,.22.08.35.35,0,0,0,.28-.14,21.16,21.16,0,0,1,2.36-2.58A.36.36,0,0,0,118.94,107.42Zm11.82,4.17a.36.36,0,0,0-.38.33,10.58,10.58,0,0,1-.77,3.35.37.37,0,0,0,.34.49.35.35,0,0,0,.33-.23,11.34,11.34,0,0,0,.81-3.56A.35.35,0,0,0,130.76,111.59Zm-54.14,3.6a29.39,29.39,0,0,1-2.25-2.71.36.36,0,0,0-.5-.07.35.35,0,0,0-.07.5,30.43,30.43,0,0,0,2.3,2.77.31.31,0,0,0,.26.11.38.38,0,0,0,.24-.09A.37.37,0,0,0,76.62,115.19Zm37.83-2.26a.35.35,0,0,0-.49.12c-.59,1-1.15,2.07-1.67,3.19a.36.36,0,0,0,.18.47.33.33,0,0,0,.15,0,.35.35,0,0,0,.32-.2c.51-1.1,1.06-2.15,1.64-3.13A.36.36,0,0,0,114.45,112.93ZM82,119.76a29.47,29.47,0,0,1-2.8-2.13.36.36,0,0,0-.51,0,.37.37,0,0,0,0,.5,30.51,30.51,0,0,0,2.87,2.18.3.3,0,0,0,.2.06.34.34,0,0,0,.29-.15A.36.36,0,0,0,82,119.76Zm46.44-1.56a.35.35,0,0,0-.5.07,15.36,15.36,0,0,1-2.43,2.48.35.35,0,0,0,0,.5.34.34,0,0,0,.27.13.34.34,0,0,0,.23-.08,15.5,15.5,0,0,0,2.53-2.6A.36.36,0,0,0,128.4,118.2Zm-17,1.15a.36.36,0,0,0-.46.22c-.39,1.1-.75,2.25-1.07,3.42a.36.36,0,0,0,.24.44h.1a.35.35,0,0,0,.34-.26c.32-1.15.68-2.29,1.06-3.38A.34.34,0,0,0,111.39,119.35Zm-23.21,3.7a33.34,33.34,0,0,1-3.2-1.48.36.36,0,0,0-.48.15.35.35,0,0,0,.15.48,34.62,34.62,0,0,0,3.26,1.51.31.31,0,0,0,.13,0,.36.36,0,0,0,.14-.69Zm34.88-.21a.34.34,0,0,0-.48-.14,24,24,0,0,1-3.2,1.43.36.36,0,0,0,.13.69.25.25,0,0,0,.12,0,24.11,24.11,0,0,0,3.29-1.48A.35.35,0,0,0,123.06,122.84Zm-28.13,2.22c-1.17-.24-2.32-.53-3.42-.85a.36.36,0,0,0-.45.24.36.36,0,0,0,.24.44c1.13.33,2.3.62,3.49.86h.07a.36.36,0,0,0,.35-.29A.35.35,0,0,0,94.93,125.06Zm21.51.33a.36.36,0,0,0-.43-.26c-1.1.25-2.27.46-3.47.62a.36.36,0,0,0,0,.71h0c1.23-.16,2.42-.38,3.54-.64A.37.37,0,0,0,116.44,125.39ZM102,126c-1.15-.09-2.34-.2-3.53-.35a.37.37,0,0,0-.4.31.36.36,0,0,0,.31.4c1.21.15,2.41.26,3.56.35h0a.36.36,0,0,0,0-.71Zm7.5.24a.28.28,0,0,0-.13,0,.37.37,0,0,0-.3-.14c-1.14.06-2.32.08-3.53.06a.36.36,0,0,0-.37.35.36.36,0,0,0,.36.36c1.2,0,2.36,0,3.49,0-.21,1.06-.38,2.15-.53,3.23a.36.36,0,0,0,.3.41h.05a.35.35,0,0,0,.35-.31c.16-1.18.36-2.35.59-3.49A.36.36,0,0,0,109.45,126.2Zm-1,7a.36.36,0,0,0-.38.33c-.09,1.18-.14,2.38-.16,3.58a.35.35,0,0,0,.35.36h0a.35.35,0,0,0,.35-.35c0-1.18.07-2.37.16-3.54A.36.36,0,0,0,108.45,133.25Zm.21,7.46a.35.35,0,0,0-.36-.34.37.37,0,0,0-.35.37c0,1.18.13,2.39.24,3.58a.36.36,0,0,0,.36.32h0a.35.35,0,0,0,.32-.39C108.79,143.07,108.71,141.88,108.66,140.71Zm1.27,10.55c-.23-1.16-.44-2.33-.61-3.49a.34.34,0,0,0-.4-.3.36.36,0,0,0-.3.4c.17,1.17.38,2.36.61,3.53a.37.37,0,0,0,.35.29h.07A.35.35,0,0,0,109.93,151.26Zm1.74,6.87c-.35-1.12-.67-2.27-1-3.41a.35.35,0,0,0-.43-.26.36.36,0,0,0-.26.43c.29,1.15.62,2.31,1,3.45a.35.35,0,0,0,.35.25h.1A.37.37,0,0,0,111.67,158.13Zm2.4,6.67c-.45-1.09-.89-2.2-1.28-3.3a.36.36,0,0,0-.46-.22.35.35,0,0,0-.21.46c.4,1.11.83,2.24,1.29,3.34a.36.36,0,0,0,.33.21.34.34,0,0,0,.14,0A.37.37,0,0,0,114.07,164.8Zm3,6.42c-.55-1.05-1.09-2.12-1.59-3.17a.34.34,0,0,0-.47-.17.35.35,0,0,0-.17.47c.5,1.07,1,2.15,1.6,3.2a.36.36,0,0,0,.32.19.47.47,0,0,0,.16,0A.35.35,0,0,0,117.09,171.22Zm3.59,6.11c-.64-1-1.27-2-1.86-3a.36.36,0,0,0-.62.36c.61,1,1.24,2.05,1.89,3.05a.35.35,0,0,0,.49.1A.34.34,0,0,0,120.68,177.33Zm4.12,5.78c-.73-.94-1.44-1.89-2.12-2.85a.36.36,0,0,0-.5-.08.34.34,0,0,0-.08.49c.69,1,1.4,1.94,2.14,2.87a.33.33,0,0,0,.27.14.34.34,0,0,0,.22-.07A.35.35,0,0,0,124.8,183.11Zm4.57,5.42-.09-.1c-.76-.84-1.52-1.7-2.25-2.57a.35.35,0,1,0-.54.46c.73.87,1.49,1.74,2.27,2.59l.09.1a.34.34,0,0,0,.26.12.37.37,0,0,0,.24-.1A.35.35,0,0,0,129.37,188.53Zm123.3,1.58a.36.36,0,0,0-.45-.22s-1.23.41-3.4,1.08a.35.35,0,0,0-.24.44.37.37,0,0,0,.34.26l.1,0c2.18-.67,3.42-1.08,3.43-1.08A.36.36,0,0,0,252.67,190.11Zm-6.83,2.12a.35.35,0,0,0-.44-.24L242,193a.36.36,0,0,0,.1.7h.09c1.16-.32,2.31-.65,3.44-1A.35.35,0,0,0,245.84,192.23Zm-111.19,1c-1-.69-1.89-1.43-2.76-2.19a.36.36,0,0,0-.5,0,.35.35,0,0,0,0,.5,33,33,0,0,0,2.82,2.24.31.31,0,0,0,.2.07.35.35,0,0,0,.29-.15A.36.36,0,0,0,134.65,193.18Zm104.32,1a.36.36,0,0,0-.44-.25l-3.44.9a.35.35,0,0,0-.26.43.34.34,0,0,0,.34.27h.09c1.2-.3,2.36-.61,3.46-.9A.36.36,0,0,0,239,194.15Zm-6.91,1.77a.36.36,0,0,0-.43-.26l-3.47.83a.35.35,0,0,0,.08.7h.08c1.19-.27,2.35-.55,3.47-.82A.37.37,0,0,0,232.06,195.92Zm-91.34.86c-1.07-.52-2.12-1.08-3.11-1.67a.36.36,0,0,0-.36.62c1,.59,2.07,1.16,3.16,1.69a.41.41,0,0,0,.16,0,.37.37,0,0,0,.32-.19A.36.36,0,0,0,140.72,196.78Zm84.39.77a.36.36,0,0,0-.43-.27l-3.48.75a.35.35,0,0,0,.08.7h.07c1.18-.25,2.35-.5,3.49-.76A.35.35,0,0,0,225.11,197.55Zm-77.82,1.86c-1.14-.37-2.26-.78-3.33-1.2a.34.34,0,0,0-.46.19.35.35,0,0,0,.2.47c1.08.43,2.21.84,3.36,1.22l.11,0a.39.39,0,0,0,.35-.25A.38.38,0,0,0,147.29,199.41Zm70.42-.67-3.5.67a.35.35,0,0,0,.07.7h.06l3.51-.67a.36.36,0,0,0,.28-.42A.35.35,0,0,0,217.71,198.74Zm-7,1.29c-1.18.2-2.36.4-3.52.58a.38.38,0,0,0-.3.41.37.37,0,0,0,.36.31h.05c1.16-.18,2.35-.38,3.53-.59a.35.35,0,0,0,.29-.41A.37.37,0,0,0,210.71,200Zm-56.58,1.22c-1.17-.25-2.33-.53-3.45-.83a.35.35,0,0,0-.43.25.36.36,0,0,0,.25.44c1.12.3,2.3.58,3.48.83h.08a.35.35,0,0,0,.07-.7Zm49.54-.1-3.53.48a.36.36,0,0,0-.3.4.35.35,0,0,0,.35.31h.05c1.15-.15,2.34-.31,3.53-.49a.34.34,0,0,0,.3-.4A.35.35,0,0,0,203.67,201.15Zm-42.55,1.28c-1.18-.15-2.37-.33-3.51-.52a.37.37,0,0,0-.41.29.35.35,0,0,0,.3.41c1.15.2,2.33.37,3.53.53h.05a.35.35,0,0,0,.35-.31A.35.35,0,0,0,161.12,202.43Zm35.49-.37c-1.18.14-2.37.27-3.54.38a.36.36,0,0,0,0,.71h0c1.17-.11,2.37-.24,3.55-.37a.36.36,0,0,0-.08-.72Zm-7.08.69c-1.19.1-2.39.18-3.55.26a.35.35,0,0,0-.34.37.37.37,0,0,0,.36.34h0c1.17-.08,2.37-.16,3.57-.26a.34.34,0,0,0,.32-.38A.35.35,0,0,0,189.53,202.75Zm-21.33.34c-1.2-.08-2.39-.17-3.54-.27a.36.36,0,0,0-.39.32.35.35,0,0,0,.32.39c1.16.1,2.36.19,3.56.27h0a.36.36,0,0,0,0-.71Zm14.22.1c-1.2.05-2.4.08-3.56.1a.36.36,0,0,0-.35.37.35.35,0,0,0,.35.34h0c1.17,0,2.38-.05,3.58-.1a.36.36,0,1,0,0-.71Zm-7.12.13c-1.2,0-2.4,0-3.56-.07a.35.35,0,0,0-.36.34.35.35,0,0,0,.34.37c1.17,0,2.37.06,3.58.07a.37.37,0,0,0,.36-.36A.36.36,0,0,0,175.3,203.32Z"/><path class="cls-1" d="M120.71,190a.36.36,0,0,0-.5-.08s-1.09.77-2.89,2.15a.36.36,0,0,0-.07.5.38.38,0,0,0,.29.14.33.33,0,0,0,.21-.07c1.79-1.37,2.86-2.13,2.87-2.14A.37.37,0,0,0,120.71,190ZM115,194.36a.35.35,0,0,0-.5-.06l-2.77,2.26a.37.37,0,0,0,0,.51.36.36,0,0,0,.28.12.3.3,0,0,0,.22-.08l2.77-2.25A.35.35,0,0,0,115,194.36Zm-5.5,4.55a.34.34,0,0,0-.5,0c-.9.77-1.81,1.56-2.69,2.35a.35.35,0,0,0,.23.62.36.36,0,0,0,.24-.09c.88-.79,1.78-1.57,2.68-2.34A.36.36,0,0,0,109.5,198.91Zm-5.34,4.74a.35.35,0,0,0-.5,0c-.88.81-1.76,1.63-2.61,2.45a.34.34,0,0,0,0,.5.36.36,0,0,0,.25.11.35.35,0,0,0,.25-.1c.85-.81,1.72-1.63,2.6-2.44A.36.36,0,0,0,104.16,203.65ZM99,208.57a.35.35,0,0,0-.5,0c-.85.84-1.7,1.7-2.52,2.54a.36.36,0,0,0,0,.51.39.39,0,0,0,.25.1.36.36,0,0,0,.25-.11c.82-.84,1.66-1.69,2.51-2.54A.35.35,0,0,0,99,208.57Zm-5,5.11a.36.36,0,0,0-.5,0c-.82.88-1.63,1.78-2.41,2.65a.35.35,0,0,0,0,.5.38.38,0,0,0,.24.09.37.37,0,0,0,.27-.12c.77-.87,1.58-1.75,2.39-2.63A.35.35,0,0,0,94,213.68ZM89.26,219a.35.35,0,0,0-.5,0c-.78.92-1.55,1.84-2.28,2.75a.36.36,0,0,0,0,.5.34.34,0,0,0,.23.08.32.32,0,0,0,.27-.13c.74-.91,1.5-1.83,2.27-2.74A.35.35,0,0,0,89.26,219Zm-4.48,5.54a.35.35,0,0,0-.5.07c-.73.95-1.45,1.92-2.12,2.87a.35.35,0,0,0,.08.5.31.31,0,0,0,.21.07.41.41,0,0,0,.29-.15c.67-.95,1.38-1.91,2.11-2.86A.37.37,0,0,0,84.78,224.55Zm-4.16,5.8a.36.36,0,0,0-.5.09c-.67,1-1.32,2-1.93,3a.36.36,0,0,0,.12.49.32.32,0,0,0,.19.05.36.36,0,0,0,.3-.17c.6-1,1.25-2,1.91-3A.35.35,0,0,0,80.62,230.35Zm-3.76,6.06a.34.34,0,0,0-.48.14c-.59,1.06-1.16,2.12-1.68,3.16a.35.35,0,0,0,.16.48.42.42,0,0,0,.16,0,.38.38,0,0,0,.32-.2c.51-1,1.07-2.09,1.66-3.13A.36.36,0,0,0,76.86,236.41Zm-3.22,6.36a.36.36,0,0,0-.47.18c-.49,1.11-.94,2.22-1.35,3.31a.35.35,0,0,0,.21.46.27.27,0,0,0,.12,0,.35.35,0,0,0,.33-.24c.41-1.08.86-2.18,1.34-3.28A.35.35,0,0,0,73.64,242.77Zm-2.54,6.65a.35.35,0,0,0-.44.24c-.35,1.16-.66,2.32-.93,3.46a.36.36,0,0,0,.27.43h.08a.36.36,0,0,0,.35-.28c.25-1.12.56-2.27.91-3.41A.36.36,0,0,0,71.1,249.42Zm-1.63,6.93a.36.36,0,0,0-.41.3c-.17,1.21-.29,2.41-.35,3.58a.35.35,0,0,0,.34.37h0a.35.35,0,0,0,.35-.33c.06-1.15.18-2.33.35-3.52A.35.35,0,0,0,69.47,256.35Zm0,7.44a.36.36,0,0,0-.38-.34.35.35,0,0,0-.33.38,29.75,29.75,0,0,0,.4,3.57.35.35,0,0,0,.35.3h.07a.36.36,0,0,0,.29-.41A28.44,28.44,0,0,1,69.43,263.79ZM71.92,274a26.49,26.49,0,0,1-1.27-3.28.35.35,0,0,0-.44-.23.35.35,0,0,0-.24.44,27.31,27.31,0,0,0,1.3,3.37.37.37,0,0,0,.32.2.45.45,0,0,0,.16,0A.37.37,0,0,0,71.92,274Zm3.8,5.88a24.44,24.44,0,0,1-2.1-2.81.36.36,0,0,0-.5-.11.36.36,0,0,0-.1.49,26.08,26.08,0,0,0,2.15,2.89.34.34,0,0,0,.27.13.36.36,0,0,0,.24-.09A.37.37,0,0,0,75.72,279.85Zm5.19,4.72a28.35,28.35,0,0,1-2.74-2.2.37.37,0,0,0-.51,0,.36.36,0,0,0,0,.51,31,31,0,0,0,2.8,2.25.35.35,0,0,0,.5-.08A.37.37,0,0,0,80.91,284.57Zm39.81,2.1a.36.36,0,0,0-.49-.12c-.74.46-1.52.88-2.33,1.28a.35.35,0,0,0,.16.67.45.45,0,0,0,.16,0c.82-.4,1.62-.84,2.38-1.31A.36.36,0,0,0,120.72,286.67ZM87.05,288a34.44,34.44,0,0,1-3.17-1.55.35.35,0,0,0-.34.62c1,.57,2.12,1.11,3.23,1.59a.32.32,0,0,0,.14,0,.33.33,0,0,0,.32-.22A.36.36,0,0,0,87.05,288Zm28.06,1.4a.37.37,0,0,0-.46-.23,34.92,34.92,0,0,1-3.38,1,.35.35,0,0,0-.26.43.34.34,0,0,0,.34.27h.08a33.83,33.83,0,0,0,3.46-1A.36.36,0,0,0,115.11,289.4Zm-21.35.76c-1.16-.25-2.3-.57-3.41-.92a.36.36,0,1,0-.22.68c1.13.36,2.3.68,3.47.94h.08a.36.36,0,0,0,.08-.71Zm7,.94c-1.17-.06-2.35-.16-3.52-.32a.36.36,0,0,0-.09.71c1.18.16,2.39.27,3.58.32h0a.36.36,0,0,0,0-.71Zm7-.31a33.9,33.9,0,0,1-3.51.31.37.37,0,0,0-.35.38.36.36,0,0,0,.36.34h0c1.2-.05,2.4-.16,3.58-.32a.35.35,0,0,0,.3-.4A.37.37,0,0,0,107.8,290.79Z"/><path class="cls-1" d="M75.8,107.38c-1.19-.11-2.39-.18-3.58-.2a.35.35,0,0,0-.36.35.34.34,0,0,0,.35.36c1.17,0,2.36.09,3.53.2h0a.34.34,0,0,0,.35-.32A.36.36,0,0,0,75.8,107.38Zm-7.17-.12c-1.19.07-2.39.19-3.57.35a.36.36,0,0,0-.31.4.37.37,0,0,0,.36.31h0c1.17-.15,2.36-.27,3.52-.34a.36.36,0,1,0,0-.71Zm14.24,1.34c-1.16-.3-2.34-.54-3.51-.75a.36.36,0,0,0-.41.29.36.36,0,0,0,.29.42c1.15.2,2.31.44,3.46.73h.09a.36.36,0,0,0,.08-.7ZM62,108.5a.37.37,0,0,0-.43-.28c-1.15.25-2.32.54-3.48.87a.36.36,0,0,0-.24.44.35.35,0,0,0,.34.26h.1c1.14-.33,2.29-.62,3.43-.86A.36.36,0,0,0,62,108.5Zm27.73,2.34c-1.1-.45-2.23-.87-3.36-1.25a.36.36,0,1,0-.22.68c1.11.37,2.22.78,3.31,1.23a.35.35,0,0,0,.14,0,.36.36,0,0,0,.13-.69Zm-34.59-.43a.36.36,0,0,0-.46-.21c-1.1.4-2.22.85-3.33,1.33a.36.36,0,0,0-.18.47.35.35,0,0,0,.32.21.4.4,0,0,0,.15,0c1.08-.47,2.19-.91,3.28-1.31A.36.36,0,0,0,55.09,110.41Zm41,3.62c-1-.6-2.08-1.17-3.16-1.71a.38.38,0,0,0-.48.16.37.37,0,0,0,.17.48c1,.53,2.1,1.09,3.11,1.69a.39.39,0,0,0,.18,0,.37.37,0,0,0,.31-.17A.36.36,0,0,0,96.11,114Zm-47.57-.82a.36.36,0,0,0-.48-.15c-.5.25-1,.52-1.51.79s-1.09.61-1.63.94a.36.36,0,0,0-.12.49.37.37,0,0,0,.31.17.41.41,0,0,0,.18,0c.53-.33,1.06-.63,1.6-.92l1.49-.79A.35.35,0,0,0,48.54,113.21Zm53.46,5a32.28,32.28,0,0,0-2.86-2.2.36.36,0,0,0-.5.09.35.35,0,0,0,.09.49,29.46,29.46,0,0,1,2.79,2.15.38.38,0,0,0,.24.09.35.35,0,0,0,.27-.11A.36.36,0,0,0,102,118.17Zm-59.55-1.29a.36.36,0,0,0-.5-.07c-.94.71-1.87,1.48-2.76,2.29a.36.36,0,0,0,0,.51.39.39,0,0,0,.27.11.29.29,0,0,0,.23-.09c.89-.8,1.8-1.55,2.72-2.25A.35.35,0,0,0,42.45,116.88Zm-5.32,4.73a.35.35,0,0,0-.5,0c-.81.85-1.6,1.76-2.36,2.7a.35.35,0,0,0,.28.58.34.34,0,0,0,.27-.13c.75-.92,1.53-1.82,2.32-2.66A.35.35,0,0,0,37.13,121.61ZM32.6,127.1a.36.36,0,0,0-.5.08c-.67,1-1.34,2-2,3a.35.35,0,0,0,.11.49.33.33,0,0,0,.19.06.35.35,0,0,0,.3-.17c.63-1,1.29-2,2-3A.35.35,0,0,0,32.6,127.1Zm-3.79,6a.36.36,0,0,0-.49.14c-.56,1-1.11,2.1-1.64,3.18a.37.37,0,0,0,.17.48.42.42,0,0,0,.15,0,.37.37,0,0,0,.33-.21c.51-1.07,1.06-2.13,1.62-3.15A.36.36,0,0,0,28.81,133.13Zm-3.14,6.39a.37.37,0,0,0-.47.19c-.46,1.08-.91,2.2-1.34,3.32a.36.36,0,0,0,.21.46l.13,0a.36.36,0,0,0,.33-.23c.42-1.11.87-2.22,1.32-3.29A.36.36,0,0,0,25.67,139.52Zm-2.56,6.65a.36.36,0,0,0-.45.23c-.37,1.11-.73,2.26-1.07,3.41a.37.37,0,0,0,.25.45h.1a.36.36,0,0,0,.34-.26c.33-1.14.69-2.28,1.06-3.38A.37.37,0,0,0,23.11,146.17Zm-2,6.84a.35.35,0,0,0-.43.26c-.29,1.14-.57,2.32-.82,3.49a.35.35,0,0,0,.27.42h.08a.36.36,0,0,0,.35-.28c.25-1.16.52-2.33.81-3.47A.36.36,0,0,0,21.09,153Zm-1.53,7a.35.35,0,0,0-.41.29c-.21,1.16-.4,2.35-.57,3.53a.36.36,0,0,0,.3.4h.05a.36.36,0,0,0,.36-.3c.16-1.17.35-2.35.56-3.51A.35.35,0,0,0,19.56,160Zm-1,7.05a.37.37,0,0,0-.4.32c-.12,1.19-.23,2.38-.32,3.56a.36.36,0,0,0,.33.38h0a.37.37,0,0,0,.36-.33c.08-1.16.19-2.36.31-3.53A.36.36,0,0,0,18.53,167Zm-3.42,9.21a17,17,0,0,0-3.63.13.36.36,0,0,0,0,.71h.05a16.85,16.85,0,0,1,3.47-.12.34.34,0,0,0,.38-.33A.36.36,0,0,0,15.11,176.24ZM22,178.33a18.1,18.1,0,0,0-3.35-1.42.37.37,0,0,0-.37.11c0-.82,0-1.67,0-2.51a.35.35,0,0,0-.34-.37.36.36,0,0,0-.37.35c0,.93,0,1.86,0,2.77v.8a.36.36,0,0,0,.36.36h0a.36.36,0,0,0,.35-.36v-.58a.43.43,0,0,0,.17.12,17.08,17.08,0,0,1,3.2,1.36.36.36,0,0,0,.48-.14A.36.36,0,0,0,22,178.33Zm-13.57-.76a.35.35,0,0,0-.48-.16,11,11,0,0,0-3,2.14.35.35,0,0,0,0,.51.33.33,0,0,0,.25.1.35.35,0,0,0,.25-.1,10.15,10.15,0,0,1,2.78-2A.37.37,0,0,0,8.45,177.57Zm19.18,5.29a24.56,24.56,0,0,0-2.62-2.5.35.35,0,0,0-.5.06.36.36,0,0,0,0,.5,21.28,21.28,0,0,1,2.53,2.42.37.37,0,0,0,.27.12.38.38,0,0,0,.24-.09A.37.37,0,0,0,27.63,182.86Zm-9.21-1.26a.36.36,0,0,0-.71,0c.06,1.22.17,2.42.29,3.57a.36.36,0,0,0,.35.32h0a.37.37,0,0,0,.32-.4C18.58,184,18.49,182.81,18.42,181.6Zm-15.13.73a.35.35,0,0,0-.48.13,18.56,18.56,0,0,0-1.49,3.31.36.36,0,0,0,.22.45l.12,0A.35.35,0,0,0,2,186a17.48,17.48,0,0,1,1.42-3.18A.36.36,0,0,0,3.29,182.33Zm28.36,6.51a27.06,27.06,0,0,0-1.81-3.13.36.36,0,0,0-.5-.09.35.35,0,0,0-.09.49,27.9,27.9,0,0,1,1.76,3,.35.35,0,0,0,.32.2.45.45,0,0,0,.16,0A.36.36,0,0,0,31.65,188.84ZM20,192.09c-.29-1.08-.55-2.24-.77-3.45a.34.34,0,0,0-.41-.29.36.36,0,0,0-.29.41c.23,1.24.49,2.42.78,3.51a.36.36,0,0,0,.35.27l.09,0A.35.35,0,0,0,20,192.09ZM.84,189a.37.37,0,0,0-.42.29A31.33,31.33,0,0,0,0,192.85a.35.35,0,0,0,.33.37h0a.35.35,0,0,0,.35-.33,27.55,27.55,0,0,1,.41-3.49A.37.37,0,0,0,.84,189ZM33,192.19a.36.36,0,1,0-.68.22,18.29,18.29,0,0,1,.77,3.4.36.36,0,0,0,.35.31h0a.36.36,0,0,0,.31-.39A19.62,19.62,0,0,0,33,192.19Zm-10.32,6.33a17.92,17.92,0,0,1-1.6-3.1.35.35,0,0,0-.46-.19.35.35,0,0,0-.2.46,19.09,19.09,0,0,0,1.66,3.23.37.37,0,0,0,.3.15.3.3,0,0,0,.19,0A.37.37,0,0,0,22.69,198.52Zm-22-2.11a.35.35,0,0,0-.37-.33.35.35,0,0,0-.34.37c.06,1.18.18,2.39.36,3.58a.35.35,0,0,0,.35.31H.76a.36.36,0,0,0,.3-.4C.88,198.75.77,197.57.71,196.41ZM33.44,199a.36.36,0,0,0-.43.27,4,4,0,0,1-1.69,2.69.35.35,0,0,0-.12.49.34.34,0,0,0,.3.17.32.32,0,0,0,.19-.05,4.65,4.65,0,0,0,2-3.15A.35.35,0,0,0,33.44,199Zm-5.32,3.35a10.17,10.17,0,0,1-1.59-.45A6.08,6.08,0,0,1,25,201a.34.34,0,0,0-.49.08.35.35,0,0,0,.07.5,7.34,7.34,0,0,0,1.72.92A10.39,10.39,0,0,0,28,203h.07a.36.36,0,0,0,.07-.71ZM2.73,206.78c-.38-1.11-.72-2.25-1-3.39a.36.36,0,0,0-.7.17c.28,1.16.62,2.32,1,3.45a.35.35,0,0,0,.34.24l.11,0A.36.36,0,0,0,2.73,206.78Zm2.89,6.43c-.58-1-1.11-2.07-1.6-3.15a.36.36,0,1,0-.65.29A35.77,35.77,0,0,0,5,213.56a.37.37,0,0,0,.31.18.34.34,0,0,0,.17-.05A.34.34,0,0,0,5.62,213.21Zm52.67,1.55a.37.37,0,0,0-.46.21,14.81,14.81,0,0,1-1.57,3.1.37.37,0,0,0,.11.5.32.32,0,0,0,.19.05.36.36,0,0,0,.3-.15,16.52,16.52,0,0,0,1.64-3.25A.36.36,0,0,0,58.29,214.76ZM9.72,218.93a33.27,33.27,0,0,1-2.2-2.76.37.37,0,0,0-.5-.08.36.36,0,0,0-.08.5,34.49,34.49,0,0,0,2.24,2.81.39.39,0,0,0,.27.12.36.36,0,0,0,.24-.09A.35.35,0,0,0,9.72,218.93Zm44.86,1.85a.36.36,0,0,0-.5,0,22.05,22.05,0,0,1-2.64,2.31.35.35,0,0,0-.07.5.34.34,0,0,0,.28.14.38.38,0,0,0,.22-.07,24.39,24.39,0,0,0,2.72-2.38A.36.36,0,0,0,54.58,220.78ZM15,223.59a28.71,28.71,0,0,1-2.76-2.18.36.36,0,0,0-.51,0,.35.35,0,0,0,0,.5,27.16,27.16,0,0,0,2.83,2.23.32.32,0,0,0,.2.07.37.37,0,0,0,.3-.16A.35.35,0,0,0,15,223.59Zm34,1.57a.34.34,0,0,0-.48-.14,30.08,30.08,0,0,1-3.17,1.56.36.36,0,0,0,.15.68l.13,0a33.63,33.63,0,0,0,3.24-1.6A.35.35,0,0,0,49,225.16Zm-27.79,1.7A28.1,28.1,0,0,1,18,225.41a.36.36,0,0,0-.33.63,28.37,28.37,0,0,0,3.28,1.48.3.3,0,0,0,.13,0,.35.35,0,0,0,.33-.22A.35.35,0,0,0,21.18,226.86ZM42.44,228a.35.35,0,0,0-.43-.26c-1.17.26-2.33.47-3.47.65a.34.34,0,0,0-.3.4.36.36,0,0,0,.35.31h0c1.16-.17,2.35-.39,3.53-.66A.36.36,0,0,0,42.44,228ZM28,228.55a30.18,30.18,0,0,1-3.46-.65.36.36,0,0,0-.17.69,31.86,31.86,0,0,0,3.53.67h.05a.37.37,0,0,0,.36-.31A.37.37,0,0,0,28,228.55Zm7,.21c-1.2.08-2.39.1-3.53.07a.36.36,0,1,0,0,.71l1.05,0c.83,0,1.69,0,2.54-.09a.34.34,0,0,0,.33-.37A.36.36,0,0,0,35,228.76Z"/><path class="cls-1" d="M297.92,13.47c-1.2-.06-2.42-.07-3.6,0a.36.36,0,0,0-.34.37.35.35,0,0,0,.38.34c1.16-.05,2.35-.05,3.52,0h0a.36.36,0,0,0,.36-.34A.35.35,0,0,0,297.92,13.47Zm7.11,1c-1.16-.27-2.35-.5-3.53-.66a.36.36,0,0,0-.41.3.35.35,0,0,0,.31.4c1.16.17,2.32.39,3.47.66H305a.35.35,0,0,0,.34-.28A.36.36,0,0,0,305,14.47Zm-14.29-.68a33.71,33.71,0,0,0-3.52.7.35.35,0,0,0-.26.43.34.34,0,0,0,.34.27h.09a35.07,35.07,0,0,1,3.45-.68.37.37,0,0,0,.31-.41A.36.36,0,0,0,290.74,13.79Zm-6.5,2a.35.35,0,0,0-.46-.21A30.47,30.47,0,0,0,280.49,17a.36.36,0,0,0-.15.48.37.37,0,0,0,.49.15,30.8,30.8,0,0,1,3.2-1.43A.35.35,0,0,0,284.24,15.78ZM277.91,19a.35.35,0,0,0-.49-.1,27.05,27.05,0,0,0-2.81,2.27.35.35,0,0,0,0,.51.36.36,0,0,0,.26.11.36.36,0,0,0,.24-.09,25.34,25.34,0,0,1,2.73-2.21A.35.35,0,0,0,277.91,19Zm-5.27,4.75a.36.36,0,0,0-.51,0,27.79,27.79,0,0,0-2.08,2.94.36.36,0,0,0,.12.49.29.29,0,0,0,.18.05.37.37,0,0,0,.31-.17,25,25,0,0,1,2-2.86A.36.36,0,0,0,272.64,23.76Zm-3.8,6a.36.36,0,0,0-.47.18,30.75,30.75,0,0,0-1.26,3.37.35.35,0,0,0,.23.45h.11a.35.35,0,0,0,.34-.25A29.31,29.31,0,0,1,269,30.23.36.36,0,0,0,268.84,29.76Zm-2.19,6.76a.37.37,0,0,0-.42.28c-.22,1.15-.39,2.35-.51,3.56a.36.36,0,0,0,.32.39h0a.36.36,0,0,0,.36-.32c.12-1.19.29-2.37.5-3.49A.35.35,0,0,0,266.65,36.52Zm-.39,7.42a.37.37,0,0,0-.36-.35.36.36,0,0,0-.35.36,28.48,28.48,0,0,0,.26,3.59.35.35,0,0,0,.35.31h.06a.36.36,0,0,0,.3-.4A27.23,27.23,0,0,1,266.26,43.94Zm48.87,5.44a7.59,7.59,0,0,0-3.53-1.1.35.35,0,0,0-.38.33.36.36,0,0,0,.33.38,6.76,6.76,0,0,1,3.2,1,.34.34,0,0,0,.49-.11A.36.36,0,0,0,315.13,49.38ZM308.41,49a.36.36,0,0,0-.45-.24,16.91,16.91,0,0,0-3.32,1.47.35.35,0,0,0-.14.48.36.36,0,0,0,.31.18.58.58,0,0,0,.18,0,15.84,15.84,0,0,1,3.18-1.41A.35.35,0,0,0,308.41,49Zm-40.06,5.22a27.2,27.2,0,0,1-1.13-3.33.36.36,0,0,0-.44-.25.35.35,0,0,0-.25.43,28.69,28.69,0,0,0,1.16,3.42.35.35,0,0,0,.33.22.31.31,0,0,0,.13,0A.36.36,0,0,0,268.35,54.22Zm33.78-1.93a.36.36,0,0,0-.5-.07c-.89.69-1.82,1.47-2.74,2.32a.35.35,0,0,0,0,.51.36.36,0,0,0,.26.11.36.36,0,0,0,.24-.09c.91-.84,1.82-1.61,2.69-2.28A.35.35,0,0,0,302.13,52.29Zm17.1,3A12.42,12.42,0,0,0,317.74,52a.37.37,0,0,0-.5-.1.35.35,0,0,0-.1.49,11.55,11.55,0,0,1,1.41,3.14.35.35,0,0,0,.34.27l.09,0A.35.35,0,0,0,319.23,55.32Zm-22.38,1.73a.37.37,0,0,0-.51,0c-.54.58-1.09,1.18-1.64,1.81l-.74.87a.37.37,0,0,0,.05.51.39.39,0,0,0,.23.07.35.35,0,0,0,.28-.13l.71-.85c.55-.62,1.09-1.22,1.63-1.79A.37.37,0,0,0,296.85,57.05Zm-25.11,3.32a32.2,32.2,0,0,1-1.87-3,.36.36,0,0,0-.63.35,31.57,31.57,0,0,0,1.92,3,.35.35,0,0,0,.29.15.42.42,0,0,0,.21-.06A.35.35,0,0,0,271.74,60.37Zm48.08-1.46a.36.36,0,1,0-.71,0c0,.32,0,.65,0,1a17.52,17.52,0,0,1-.18,2.5.37.37,0,0,0,.31.41h.05a.36.36,0,0,0,.35-.31,19,19,0,0,0,.18-2.6C319.85,59.59,319.84,59.24,319.82,58.91Zm-43.45,6.77c-.86-.81-1.68-1.67-2.45-2.54a.35.35,0,1,0-.53.47,33.76,33.76,0,0,0,2.5,2.59.34.34,0,0,0,.24.09.38.38,0,0,0,.26-.11A.35.35,0,0,0,276.37,65.68Zm16-3.1a.36.36,0,0,0-.49.12,31.17,31.17,0,0,0-1.69,3.18.35.35,0,0,0,.18.47.28.28,0,0,0,.15,0,.36.36,0,0,0,.32-.21,28.82,28.82,0,0,1,1.65-3.11A.36.36,0,0,0,292.37,62.58Zm26.25,3a.34.34,0,0,0-.45.22A17.54,17.54,0,0,1,316.73,69a.35.35,0,0,0,.12.49.41.41,0,0,0,.18.05.36.36,0,0,0,.31-.18,17.34,17.34,0,0,0,1.5-3.3A.35.35,0,0,0,318.62,65.61ZM281.92,70c-1-.64-1.95-1.33-2.87-2a.35.35,0,0,0-.5.06.36.36,0,0,0,.06.5c.94.73,1.92,1.44,2.93,2.09a.31.31,0,0,0,.19.06.36.36,0,0,0,.3-.17A.36.36,0,0,0,281.92,70Zm7.44-1a.35.35,0,0,0-.45.23,32.38,32.38,0,0,0-.88,3.49.35.35,0,0,0,.28.42h.07a.36.36,0,0,0,.35-.29,33.52,33.52,0,0,1,.86-3.42A.35.35,0,0,0,289.36,69Zm-1.22,4.34c-1.07-.46-2.14-1-3.18-1.53a.36.36,0,1,0-.33.63c1.05.56,2.14,1.09,3.23,1.56a.4.4,0,0,0,.15,0,.35.35,0,0,0,.32-.22A.36.36,0,0,0,288.14,73.36Zm27-1.6a.34.34,0,0,0-.5,0,13.51,13.51,0,0,1-2.71,2.14.36.36,0,0,0-.13.49.38.38,0,0,0,.31.18.32.32,0,0,0,.18-.06,13.43,13.43,0,0,0,2.86-2.26A.35.35,0,0,0,315.13,71.76Zm-20.28,3.8c-1.13-.26-2.27-.57-3.4-1a.36.36,0,0,0-.23.68,35.26,35.26,0,0,0,3.47,1h.08a.36.36,0,0,0,.35-.28A.35.35,0,0,0,294.85,75.56Zm14.34,0a.36.36,0,0,0-.45-.22,20,20,0,0,1-3.41.79.36.36,0,0,0-.3.4.36.36,0,0,0,.35.31h.06A22.62,22.62,0,0,0,309,76,.37.37,0,0,0,309.19,75.55Zm-7.35.82h-.07a29.15,29.15,0,0,1-3.45-.21.36.36,0,0,0-.39.31.35.35,0,0,0,.31.4,30.36,30.36,0,0,0,3.53.21h.07a.36.36,0,0,0,0-.71ZM287.9,76a.36.36,0,0,0-.39.32c-.11,1.16-.17,2.37-.19,3.59a.36.36,0,0,0,.36.36h0a.36.36,0,0,0,.36-.35c0-1.2.07-2.39.18-3.53A.35.35,0,0,0,287.9,76Zm.24,7.45a.36.36,0,0,0-.38-.33.34.34,0,0,0-.33.38c.07,1.16.19,2.36.34,3.57a.37.37,0,0,0,.36.31h0a.34.34,0,0,0,.31-.39C288.33,85.76,288.21,84.58,288.14,83.43Zm1.64,10.5c-.28-1.17-.53-2.34-.74-3.47a.36.36,0,0,0-.42-.29.36.36,0,0,0-.28.42c.21,1.14.46,2.32.75,3.5a.34.34,0,0,0,.34.27h.09A.34.34,0,0,0,289.78,93.93Zm1.94,6.82c-.37-1.13-.72-2.28-1-3.39a.35.35,0,0,0-.44-.24.34.34,0,0,0-.24.43c.31,1.13.67,2.28,1.05,3.43a.34.34,0,0,0,.33.24.25.25,0,0,0,.12,0A.36.36,0,0,0,291.72,100.75Zm2.44,6.68c-.44-1.1-.87-2.22-1.27-3.31a.36.36,0,1,0-.67.24c.4,1.1.83,2.23,1.28,3.34a.36.36,0,0,0,.33.22.27.27,0,0,0,.13,0A.35.35,0,0,0,294.16,107.43ZM297,114c-.5-1.08-1-2.17-1.46-3.24a.34.34,0,0,0-.46-.18.35.35,0,0,0-.19.47c.47,1.07,1,2.16,1.47,3.26a.35.35,0,0,0,.32.2.4.4,0,0,0,.15,0A.35.35,0,0,0,297,114Zm3.16,6.39c-.55-1.06-1.1-2.13-1.62-3.17a.35.35,0,1,0-.63.31c.52,1,1.06,2.12,1.62,3.19a.36.36,0,0,0,.32.19.47.47,0,0,0,.16,0A.36.36,0,0,0,300.15,120.34Zm3.43,6.24c-.6-1-1.19-2.08-1.75-3.1a.35.35,0,0,0-.48-.15.36.36,0,0,0-.14.49c.56,1,1.15,2.08,1.75,3.11a.34.34,0,0,0,.31.18.39.39,0,0,0,.18,0A.36.36,0,0,0,303.58,126.58Zm3.66,6.11c-.63-1-1.25-2-1.86-3a.35.35,0,0,0-.48-.12.36.36,0,0,0-.13.49c.61,1,1.24,2,1.87,3a.37.37,0,0,0,.3.16.32.32,0,0,0,.19,0A.35.35,0,0,0,307.24,132.69Zm3.89,6c-.65-1-1.32-2-2-3a.35.35,0,0,0-.49-.1.36.36,0,0,0-.1.49c.65,1,1.32,2,2,3a.35.35,0,0,0,.29.16.36.36,0,0,0,.2-.06A.35.35,0,0,0,311.13,138.66Zm4.14,5.82s-.81-1.06-2.11-2.89a.36.36,0,0,0-.58.41c1.31,1.85,2.12,2.9,2.12,2.91a.35.35,0,0,0,.29.14.33.33,0,0,0,.21-.07A.35.35,0,0,0,315.27,144.48Z"/><path class="cls-1" d="M434.11,31a12.7,12.7,0,0,0-3.56-.78.37.37,0,0,0-.38.33.36.36,0,0,0,.33.38,12.21,12.21,0,0,1,3.37.74.27.27,0,0,0,.12,0,.34.34,0,0,0,.33-.24A.35.35,0,0,0,434.11,31Zm-6.77-.22a.36.36,0,0,0-.44-.25,5.81,5.81,0,0,0-3.15,2,.35.35,0,0,0,.28.57.35.35,0,0,0,.28-.14,5.18,5.18,0,0,1,2.78-1.73A.36.36,0,0,0,427.34,30.8ZM440.12,35a18.59,18.59,0,0,0-2.78-2.32.36.36,0,0,0-.5.09.36.36,0,0,0,.1.5,18.86,18.86,0,0,1,2.68,2.23.35.35,0,0,0,.25.1.37.37,0,0,0,.26-.1A.36.36,0,0,0,440.12,35ZM424,39.43a9.5,9.5,0,0,1-.65-3.28v-.06a.37.37,0,0,0-.35-.37.35.35,0,0,0-.36.36v.07a10,10,0,0,0,.7,3.53.33.33,0,0,0,.33.23.25.25,0,0,0,.12,0A.35.35,0,0,0,424,39.43Zm20.49,1.35a30.22,30.22,0,0,0-2-3,.35.35,0,0,0-.5-.07.36.36,0,0,0-.08.5,28.15,28.15,0,0,1,1.93,2.94.38.38,0,0,0,.31.18.31.31,0,0,0,.18-.05A.35.35,0,0,0,444.46,40.78Zm-16.72,4.48a21,21,0,0,1-2.17-2.74.36.36,0,0,0-.5-.1.36.36,0,0,0-.1.49,21.71,21.71,0,0,0,2.25,2.84.38.38,0,0,0,.26.11.36.36,0,0,0,.26-.6Zm19.62,2.09c-.38-1.14-.81-2.27-1.28-3.36a.36.36,0,0,0-.65.29c.46,1.06.88,2.17,1.25,3.3a.35.35,0,0,0,.34.24.2.2,0,0,0,.11,0A.35.35,0,0,0,447.36,47.35Zm-14.17,2.34a27.82,27.82,0,0,1-2.87-2,.36.36,0,0,0-.5.05.34.34,0,0,0,.05.5,28.3,28.3,0,0,0,2.94,2.09.33.33,0,0,0,.19.06.39.39,0,0,0,.3-.17A.36.36,0,0,0,433.19,49.69Zm6.35,3a30.07,30.07,0,0,1-3.26-1.33.38.38,0,0,0-.48.17A.37.37,0,0,0,436,52a32.37,32.37,0,0,0,3.34,1.35l.11,0a.36.36,0,0,0,.34-.25A.35.35,0,0,0,439.54,52.69Zm26,.23a.36.36,0,0,0-.45-.24l-1.17.32a.36.36,0,0,0-.26.43.37.37,0,0,0,.35.27h.09l1.19-.33A.36.36,0,0,0,465.53,52.92Zm-17.21-2.1a.37.37,0,0,0-.43-.27.36.36,0,0,0-.27.43c.26,1.15.47,2.32.62,3.48a.35.35,0,0,0,.35.3h.05a.36.36,0,0,0,.31-.4C448.79,53.18,448.58,52,448.32,50.82Zm-1.93,3.49c-1.17-.16-2.33-.38-3.46-.64a.35.35,0,1,0-.16.69c1.14.27,2.33.49,3.53.65h.05a.36.36,0,0,0,.35-.31A.35.35,0,0,0,446.39,54.31Zm14.07-.52c-1.17.23-2.34.41-3.5.55a.36.36,0,0,0,.05.71h0c1.17-.14,2.36-.33,3.54-.56a.36.36,0,1,0-.13-.7Zm-7,.83c-.58,0-1.16,0-1.73,0s-1.21,0-1.8,0a.36.36,0,0,0,0,.71c.6,0,1.21,0,1.82,0h0l1.76,0a.36.36,0,0,0,.34-.38A.36.36,0,0,0,453.44,54.62ZM449.23,58a.36.36,0,0,0-.37-.34.35.35,0,0,0-.35.36c0,.32,0,.63,0,.94,0,.87,0,1.74-.1,2.58a.36.36,0,0,0,.32.39h0a.38.38,0,0,0,.36-.33c.07-.86.1-1.75.1-2.64C449.24,58.59,449.24,58.27,449.23,58Zm-.87,6.75a.35.35,0,0,0-.42.28,25.25,25.25,0,0,1-.92,3.39.37.37,0,0,0,.22.45l.12,0a.34.34,0,0,0,.33-.24,26.2,26.2,0,0,0,.95-3.48A.35.35,0,0,0,448.36,64.7Zm-2.25,6.74a.35.35,0,0,0-.48.14,20.86,20.86,0,0,1-1.87,3,.35.35,0,0,0,.07.5.33.33,0,0,0,.21.07.37.37,0,0,0,.29-.14,21.35,21.35,0,0,0,1.93-3.06A.33.33,0,0,0,446.11,71.44Zm-4.19,5.72a.34.34,0,0,0-.5,0,21.63,21.63,0,0,1-2.75,2.16.34.34,0,0,0-.1.49.33.33,0,0,0,.3.16.35.35,0,0,0,.19-.06,21.39,21.39,0,0,0,2.85-2.23A.35.35,0,0,0,441.92,77.16ZM387,81c-2.11-.68-3.33-1.17-3.35-1.18a.36.36,0,0,0-.46.2.34.34,0,0,0,.2.46s1.26.51,3.39,1.2l.11,0A.36.36,0,0,0,387,81Zm49,.13a.36.36,0,0,0-.47-.18c-1.06.49-2.16.94-3.27,1.34a.36.36,0,0,0-.22.46.38.38,0,0,0,.34.23.25.25,0,0,0,.12,0c1.13-.41,2.25-.87,3.32-1.36A.36.36,0,0,0,436.07,81.16Zm-42.19,1.78c-1.15-.27-2.31-.57-3.44-.89a.36.36,0,0,0-.19.69c1.14.32,2.3.62,3.46.9h.09a.36.36,0,0,0,.08-.7Zm35.52.71a.35.35,0,0,0-.44-.25c-1.11.31-2.27.59-3.44.83a.35.35,0,0,0,.08.7h.07c1.18-.24,2.35-.52,3.49-.83A.37.37,0,0,0,429.4,83.65Zm-28.56.69c-1.15-.19-2.33-.4-3.49-.64a.36.36,0,0,0-.42.28.35.35,0,0,0,.28.42c1.17.24,2.36.45,3.52.64h.06a.35.35,0,0,0,.35-.3A.34.34,0,0,0,400.84,84.34Zm7.05.83c-1.16-.09-2.35-.2-3.53-.35a.36.36,0,0,0-.4.32.36.36,0,0,0,.31.39c1.2.15,2.4.26,3.57.35h0a.36.36,0,0,0,.36-.33A.35.35,0,0,0,407.89,85.17ZM422,84.82c-1.15.16-2.33.28-3.53.37a.36.36,0,0,0,0,.72h0c1.21-.1,2.4-.23,3.56-.39a.35.35,0,0,0,.31-.4A.36.36,0,0,0,422,84.82Zm-7.06.55c-1.18,0-2.36,0-3.55,0a.36.36,0,0,0-.36.35.35.35,0,0,0,.34.37c.69,0,1.39,0,2.07,0l1.51,0a.36.36,0,1,0,0-.71Z"/><path class="cls-1" d="M377.78,150.06c-1.2,0-2.41.07-3.58.15a.36.36,0,0,0,0,.72h0c1.16-.08,2.35-.13,3.54-.15a.36.36,0,0,0,.35-.36A.35.35,0,0,0,377.78,150.06Zm7.16.28c-1.18-.13-2.38-.22-3.58-.26a.35.35,0,0,0-.37.34.36.36,0,0,0,.34.37c1.19,0,2.37.13,3.52.26h0a.35.35,0,0,0,.36-.31A.37.37,0,0,0,384.94,150.34Zm-14.3.21c-1.19.15-2.38.33-3.54.54a.35.35,0,0,0,.06.7h.06c1.15-.21,2.33-.38,3.5-.53a.34.34,0,0,0,.31-.39A.36.36,0,0,0,370.64,150.55ZM392,151.82c-1.13-.35-2.3-.65-3.48-.9a.35.35,0,0,0-.42.28.36.36,0,0,0,.28.42c1.15.24,2.3.53,3.41.88h.11a.36.36,0,0,0,.34-.25A.35.35,0,0,0,392,151.82Zm-27.94.27a.35.35,0,0,0-.43-.26c-1.16.28-2.33.6-3.45.95a.35.35,0,0,0-.24.44.36.36,0,0,0,.34.25l.11,0c1.11-.34,2.26-.65,3.41-.93A.36.36,0,0,0,364,152.09Zm34.56,2.53a33.39,33.39,0,0,0-3.24-1.57.35.35,0,0,0-.46.19.34.34,0,0,0,.18.46,34.55,34.55,0,0,1,3.18,1.54.33.33,0,0,0,.17,0,.34.34,0,0,0,.31-.18A.35.35,0,0,0,398.58,154.62Zm-41.37-.47a.35.35,0,0,0-.46-.21c-1.12.43-2.23.9-3.31,1.39a.36.36,0,0,0-.17.48.35.35,0,0,0,.32.2.4.4,0,0,0,.15,0c1.06-.49,2.16-.95,3.26-1.37A.35.35,0,0,0,357.21,154.15Zm47.24,4.62a29.58,29.58,0,0,0-2.82-2.25.36.36,0,0,0-.41.59A27.92,27.92,0,0,1,404,159.3a.33.33,0,0,0,.23.09.36.36,0,0,0,.27-.12A.35.35,0,0,0,404.45,158.77Zm-53.72-1.68a.36.36,0,0,0-.49-.14c-1.05.58-2.09,1.2-3.08,1.84a.36.36,0,0,0,.2.66.35.35,0,0,0,.19-.06c1-.63,2-1.25,3-1.82A.36.36,0,0,0,350.73,157.09Zm-6,3.84a.36.36,0,0,0-.5-.07c-1,.74-1.89,1.51-2.76,2.3a.35.35,0,0,0,.23.62.34.34,0,0,0,.24-.09c.86-.78,1.78-1.54,2.72-2.26A.35.35,0,0,0,344.73,160.93Zm64.44,3.27a28.28,28.28,0,0,0-2.19-2.87.35.35,0,0,0-.5,0,.34.34,0,0,0,0,.5,25.74,25.74,0,0,1,2.12,2.8.36.36,0,0,0,.3.15.37.37,0,0,0,.2-.05A.37.37,0,0,0,409.17,164.2Zm105.91,3a23.18,23.18,0,0,0-3.61.19.36.36,0,0,0,0,.71h0a21.87,21.87,0,0,1,3.5-.19.37.37,0,0,0,.37-.35A.35.35,0,0,0,515.08,167.15Zm-175.67-1.48a.35.35,0,0,0-.51,0,23.53,23.53,0,0,0-2.28,2.82.35.35,0,1,0,.59.39,24.45,24.45,0,0,1,2.22-2.73A.36.36,0,0,0,339.41,165.67Zm182.74,2.9a19.87,19.87,0,0,0-3.47-1,.36.36,0,1,0-.14.7,18.52,18.52,0,0,1,3.35,1,.28.28,0,0,0,.13,0,.37.37,0,0,0,.33-.23A.35.35,0,0,0,522.15,168.57Zm-13.77-.26a.37.37,0,0,0-.45-.25,27.54,27.54,0,0,0-3.4,1.2.35.35,0,0,0,.14.68.32.32,0,0,0,.14,0,27.84,27.84,0,0,1,3.32-1.16A.37.37,0,0,0,508.38,168.31Zm-96.18,2.43a22.12,22.12,0,0,0-1.27-3.39.36.36,0,0,0-.47-.17.35.35,0,0,0-.17.47,23.33,23.33,0,0,1,1.23,3.28.34.34,0,0,0,.34.26h.1A.36.36,0,0,0,412.2,170.74Zm89.59.25a.35.35,0,0,0-.49-.13,34.48,34.48,0,0,0-3,2,.36.36,0,0,0-.07.5.37.37,0,0,0,.28.14.36.36,0,0,0,.22-.07,33.64,33.64,0,0,1,3-1.91A.36.36,0,0,0,501.79,171Zm-5.8,4.12a.35.35,0,0,0-.5,0c-.88.78-1.74,1.63-2.57,2.52a.36.36,0,0,0,0,.5.38.38,0,0,0,.51,0c.8-.87,1.65-1.7,2.51-2.47A.35.35,0,0,0,496,175.11Zm-83.1-.82a.36.36,0,0,0-.71.07c.06.61.09,1.21.09,1.81s0,1.13-.08,1.68a.35.35,0,0,0,.32.39h0a.37.37,0,0,0,.36-.32c.05-.58.08-1.16.08-1.75S413,174.92,412.89,174.29Zm78.2,6a.35.35,0,0,0-.5.07c-.72.92-1.43,1.9-2.1,2.91a.36.36,0,0,0,.1.49.36.36,0,0,0,.2.06.38.38,0,0,0,.3-.16c.66-1,1.35-2,2.07-2.87A.36.36,0,0,0,491.09,180.26Zm-79.15.77a.35.35,0,0,0-.45.23,16.44,16.44,0,0,1-1.4,3.19.34.34,0,0,0,.14.48.34.34,0,0,0,.17,0,.35.35,0,0,0,.31-.18,16.43,16.43,0,0,0,1.46-3.33A.35.35,0,0,0,411.94,181Zm75.16,5.13a.36.36,0,0,0-.49.13c-.58,1-1.13,2.09-1.66,3.17a.36.36,0,0,0,.16.48.41.41,0,0,0,.16,0,.35.35,0,0,0,.32-.2c.52-1.07,1.07-2.12,1.64-3.13A.35.35,0,0,0,487.1,186.16Zm-78.54,1.08a.35.35,0,0,0-.5,0,19.34,19.34,0,0,1-2.54,2.4.36.36,0,0,0,.22.64.37.37,0,0,0,.22-.08,19.5,19.5,0,0,0,2.63-2.49A.35.35,0,0,0,408.56,187.24Zm-5.47,4.51a.35.35,0,0,0-.48-.13,26.54,26.54,0,0,1-3.17,1.52.36.36,0,0,0-.19.47.35.35,0,0,0,.33.22.31.31,0,0,0,.13,0,27.9,27.9,0,0,0,3.25-1.56A.36.36,0,0,0,403.09,191.75Zm80.86.79a.36.36,0,0,0-.47.19c-.45,1.09-.87,2.21-1.27,3.35a.35.35,0,0,0,.21.45l.12,0a.35.35,0,0,0,.34-.24c.39-1.12.82-2.23,1.26-3.31A.35.35,0,0,0,484,192.54Zm-87.37,2.07a.35.35,0,0,0-.47-.19,25.52,25.52,0,0,0-3.22,1.62.35.35,0,0,0-.13.48.36.36,0,0,0,.31.18.41.41,0,0,0,.18,0,27.11,27.11,0,0,1,3.14-1.58A.35.35,0,0,0,396.58,194.61Zm-6.17,3.52a.35.35,0,0,0-.5-.06,26.74,26.74,0,0,0-2.69,2.41.36.36,0,0,0,.51.5,26.48,26.48,0,0,1,2.62-2.35A.36.36,0,0,0,390.41,198.13Zm91.14,1.11a.36.36,0,0,0-.44.24c-.33,1.13-.65,2.29-.93,3.46a.36.36,0,0,0,.26.43h.08a.36.36,0,0,0,.35-.27c.28-1.16.59-2.31.92-3.43A.35.35,0,0,0,481.55,199.24Zm-96.17,3.91a.35.35,0,0,0-.5.07,28,28,0,0,0-2,3,.35.35,0,0,0,.13.48.41.41,0,0,0,.18.05.35.35,0,0,0,.31-.18,28.75,28.75,0,0,1,1.93-3A.36.36,0,0,0,385.38,203.15Zm94.43,3a.35.35,0,0,0-.42.27c-.27,1.17-.55,2.33-.84,3.45a.35.35,0,0,0,.25.43h.09a.34.34,0,0,0,.34-.26c.3-1.13.58-2.29.85-3.48A.35.35,0,0,0,479.81,206.15Zm-98,3.13a.35.35,0,0,0-.46.19,28.6,28.6,0,0,0-1.18,3.41.34.34,0,0,0,.24.43.18.18,0,0,0,.1,0,.34.34,0,0,0,.34-.26,31.91,31.91,0,0,1,1.15-3.33A.34.34,0,0,0,381.78,209.28ZM478,213.05a.35.35,0,0,0-.44.24c-.35,1.15-.71,2.29-1.08,3.37a.36.36,0,0,0,.22.46l.11,0a.37.37,0,0,0,.34-.24c.38-1.1.75-2.25,1.09-3.41A.35.35,0,0,0,478,213.05Zm-98.25,3a.35.35,0,0,0-.41.3A28.55,28.55,0,0,0,379,220a.35.35,0,0,0,.34.37h0a.35.35,0,0,0,.36-.34,31.41,31.41,0,0,1,.34-3.5A.35.35,0,0,0,379.78,216.1Zm96,3.69a.36.36,0,0,0-.47.2c-.44,1.11-.91,2.2-1.39,3.26a.36.36,0,0,0,.18.47.4.4,0,0,0,.15,0,.36.36,0,0,0,.32-.21c.49-1.06,1-2.17,1.41-3.29A.36.36,0,0,0,475.74,219.79ZM380.29,227a30.85,30.85,0,0,1-.49-3.49.35.35,0,0,0-.38-.32.36.36,0,0,0-.33.38,30.38,30.38,0,0,0,.51,3.57.35.35,0,0,0,.34.29H380A.35.35,0,0,0,380.29,227Zm92.51-.74a.35.35,0,0,0-.48.15c-.56,1.05-1.15,2.08-1.76,3.07a.36.36,0,0,0,.12.49.32.32,0,0,0,.19.05.35.35,0,0,0,.3-.17c.61-1,1.21-2,1.78-3.11A.36.36,0,0,0,472.8,226.27Zm-90.29,7.4a28.22,28.22,0,0,1-1.31-3.27.37.37,0,0,0-.46-.22.36.36,0,0,0-.22.45,28.44,28.44,0,0,0,1.35,3.34.35.35,0,0,0,.32.2.4.4,0,0,0,.15,0A.36.36,0,0,0,382.51,233.67Zm86.59-1.32a.36.36,0,0,0-.5.08c-.68,1-1.41,1.9-2.16,2.79a.36.36,0,0,0,0,.5.35.35,0,0,0,.23.09.39.39,0,0,0,.28-.13c.76-.9,1.49-1.85,2.19-2.83A.36.36,0,0,0,469.1,232.35Zm-82.81,7.23a27.08,27.08,0,0,1-2.07-2.84.36.36,0,0,0-.61.38,28.93,28.93,0,0,0,2.13,2.91.34.34,0,0,0,.27.13.38.38,0,0,0,.23-.08A.35.35,0,0,0,386.29,239.58Zm78.28-1.75a.35.35,0,0,0-.5,0c-.83.84-1.7,1.65-2.58,2.41a.35.35,0,0,0,0,.5.34.34,0,0,0,.27.13.35.35,0,0,0,.23-.09c.9-.77,1.79-1.59,2.62-2.45A.35.35,0,0,0,464.57,237.83Zm-5.36,4.68a.35.35,0,0,0-.5-.08c-.94.68-1.93,1.33-2.94,1.94a.36.36,0,0,0-.12.49.38.38,0,0,0,.3.18.33.33,0,0,0,.19-.06c1-.62,2-1.28,3-2A.36.36,0,0,0,459.21,242.51Zm-67.82,1.89a28,28,0,0,1-2.69-2.26.37.37,0,0,0-.51,0,.36.36,0,0,0,0,.51A30.81,30.81,0,0,0,391,245a.37.37,0,0,0,.22.08.35.35,0,0,0,.28-.15A.35.35,0,0,0,391.39,244.4Zm61.77,1.84a.35.35,0,0,0-.48-.16c-1,.51-2.12,1-3.22,1.46a.35.35,0,0,0,.14.68l.14,0c1.11-.45,2.21-.95,3.26-1.48A.36.36,0,0,0,453.16,246.24ZM397.45,248c-1.08-.5-2.13-1-3.13-1.63a.35.35,0,0,0-.36.61,34.33,34.33,0,0,0,3.19,1.66.28.28,0,0,0,.15,0,.36.36,0,0,0,.32-.21A.34.34,0,0,0,397.45,248Zm49.15,1a.35.35,0,0,0-.45-.23c-1.09.36-2.24.71-3.39,1a.36.36,0,0,0-.26.43.37.37,0,0,0,.35.27h.09c1.17-.31,2.33-.65,3.44-1A.36.36,0,0,0,446.6,249Zm-42.5,1.33c-1.16-.3-2.29-.64-3.38-1a.36.36,0,0,0-.24.68c1.11.39,2.26.74,3.44,1H404a.36.36,0,0,0,.09-.7Zm35.63.53a.36.36,0,0,0-.42-.28c-1.13.23-2.3.44-3.49.62a.36.36,0,0,0,.06.71h.05c1.2-.18,2.38-.38,3.53-.62A.35.35,0,0,0,439.73,250.85Zm-28.68.73c-1.19-.13-2.37-.3-3.5-.51a.36.36,0,0,0-.13.71c1.15.2,2.35.37,3.55.51h0a.36.36,0,0,0,.35-.32A.35.35,0,0,0,411.05,251.58Zm21.26.06c-1.15.12-2.34.22-3.53.29a.36.36,0,0,0,0,.72h0c1.21-.07,2.41-.17,3.57-.29a.36.36,0,0,0,.31-.39A.35.35,0,0,0,432.31,251.64Zm-14.18.41c-1.15,0-2.34-.11-3.55-.18a.35.35,0,0,0-.37.33.34.34,0,0,0,.33.38c1.21.08,2.41.14,3.56.18h0a.35.35,0,0,0,.35-.34A.35.35,0,0,0,418.13,252.05Zm7.1,0c-.92,0-1.87,0-2.83,0h-.72a.36.36,0,0,0-.36.35.36.36,0,0,0,.36.36h.76c.94,0,1.89,0,2.81,0a.35.35,0,0,0,.35-.36A.37.37,0,0,0,425.23,252.09Z"/><path class="cls-1" d="M482.4,225.53c-1.25-1.8-2.12-2.9-2.13-2.91a.36.36,0,1,0-.55.45s.86,1.08,2.1,2.87a.33.33,0,0,0,.29.15.36.36,0,0,0,.2-.06A.37.37,0,0,0,482.4,225.53Zm3.81,6.07c-.57-1-1.19-2-1.84-3.08a.36.36,0,0,0-.49-.11.37.37,0,0,0-.11.49c.64,1,1.25,2,1.82,3a.36.36,0,0,0,.31.18.39.39,0,0,0,.18,0A.36.36,0,0,0,486.21,231.6ZM489.4,238c-.45-1.06-1-2.15-1.5-3.25a.35.35,0,0,0-.48-.16.34.34,0,0,0-.16.47c.54,1.09,1,2.17,1.49,3.22a.36.36,0,0,0,.33.22l.14,0A.36.36,0,0,0,489.4,238Zm2.29,6.81c-.26-1.11-.6-2.27-1-3.45a.36.36,0,0,0-.45-.23.37.37,0,0,0-.23.46c.4,1.16.73,2.3,1,3.39a.35.35,0,0,0,.34.27h.08A.35.35,0,0,0,491.69,244.83Zm-2.51,2a13.32,13.32,0,0,0-3.5,1,.36.36,0,0,0-.18.47.34.34,0,0,0,.32.21l.15,0a12.77,12.77,0,0,1,3.31-1,.35.35,0,0,0,.3-.4A.36.36,0,0,0,489.18,246.84Zm7.13,1.13a13,13,0,0,0-3.48-1.1.37.37,0,0,0-.41.29.36.36,0,0,0,.3.41,12.43,12.43,0,0,1,3.29,1,.28.28,0,0,0,.15,0,.36.36,0,0,0,.32-.21A.35.35,0,0,0,496.31,248Zm-4,.41a.35.35,0,0,0-.39-.31.36.36,0,0,0-.32.39,22.5,22.5,0,0,1,.14,2.41c0,.37,0,.74,0,1.09a.36.36,0,0,0,.33.38h0a.36.36,0,0,0,.36-.34c0-.37,0-.75,0-1.13A24,24,0,0,0,492.31,248.38Zm-9.26,1.42a.35.35,0,0,0-.5-.07,19.62,19.62,0,0,0-2.68,2.43.35.35,0,0,0,0,.5.39.39,0,0,0,.25.1.35.35,0,0,0,.26-.12A19.49,19.49,0,0,1,483,250.3.35.35,0,0,0,483.05,249.8Zm19.14,2.36a19.9,19.9,0,0,0-2.76-2.34.36.36,0,1,0-.42.58,19.93,19.93,0,0,1,2.67,2.25.32.32,0,0,0,.25.11.36.36,0,0,0,.26-.6Zm-24.07,2.74a.35.35,0,0,0-.49.1,21.23,21.23,0,0,0-1.75,3.18.36.36,0,0,0,.19.47.32.32,0,0,0,.14,0,.32.32,0,0,0,.32-.21,21.17,21.17,0,0,1,1.69-3.07A.35.35,0,0,0,478.12,254.9Zm27.78,3.45a14.52,14.52,0,0,0-1.48-3.32.36.36,0,0,0-.49-.12.35.35,0,0,0-.12.49,14.19,14.19,0,0,1,1.41,3.16.36.36,0,0,0,.34.25h.11A.35.35,0,0,0,505.9,258.35Zm-14.31-3.2a.36.36,0,0,0-.44.25,13.43,13.43,0,0,1-1.33,3.19.36.36,0,0,0,.12.49.41.41,0,0,0,.18.05.35.35,0,0,0,.31-.18,14.05,14.05,0,0,0,1.41-3.36A.36.36,0,0,0,491.59,255.15Zm-3.38,6.18a.34.34,0,0,0-.5,0,16.9,16.9,0,0,1-2.71,2.18.35.35,0,0,0,.19.65.46.46,0,0,0,.2-.05,17.34,17.34,0,0,0,2.82-2.28A.36.36,0,0,0,488.21,261.33ZM475.87,265a3.92,3.92,0,0,1-.46-2,7.91,7.91,0,0,1,.11-1.24.35.35,0,0,0-.7-.11,8.14,8.14,0,0,0-.12,1.35,4.58,4.58,0,0,0,.56,2.36.33.33,0,0,0,.3.18.37.37,0,0,0,.18-.05A.36.36,0,0,0,475.87,265Zm30.68-3.08a.35.35,0,0,0-.37-.33.36.36,0,0,0-.34.38c0,.38,0,.77,0,1.16a20.78,20.78,0,0,1-.14,2.33.36.36,0,0,0,.3.4h0a.35.35,0,0,0,.35-.31,20.33,20.33,0,0,0,.16-2.42C506.6,262.73,506.58,262.33,506.55,261.93Zm-24.16,3.44a.36.36,0,0,0-.47-.18,10.6,10.6,0,0,1-3.29,1,.36.36,0,0,0,0,.71h0a11.5,11.5,0,0,0,3.52-1A.36.36,0,0,0,482.39,265.37Zm23.09,3.29a.36.36,0,0,0-.44.25,30.56,30.56,0,0,1-1.16,3.32.35.35,0,0,0,.19.46.22.22,0,0,0,.14,0,.37.37,0,0,0,.33-.21,30.71,30.71,0,0,0,1.18-3.41A.35.35,0,0,0,505.48,268.66Zm-2.65,6.6a.37.37,0,0,0-.49.15c-.64,1.17-1.13,1.87-1.13,1.88a.34.34,0,0,0,.08.49.32.32,0,0,0,.21.06.35.35,0,0,0,.29-.15s.51-.73,1.18-1.94A.37.37,0,0,0,502.83,275.26Z"/><path class="cls-1" d="M525.85,54.61c-1.18,0-2.39,0-3.59.06a.36.36,0,0,0-.34.38.35.35,0,0,0,.35.33h0c1.18-.07,2.37-.09,3.53-.05a.35.35,0,0,0,.36-.35A.36.36,0,0,0,525.85,54.61Zm7.12.88c-1.16-.26-2.36-.46-3.54-.61a.37.37,0,0,0-.4.31.37.37,0,0,0,.31.4c1.17.14,2.34.34,3.48.59h.07a.35.35,0,0,0,.08-.7Zm6.84,2.18c-1.1-.47-2.24-.89-3.37-1.25a.35.35,0,0,0-.45.23.37.37,0,0,0,.24.45c1.11.35,2.22.77,3.3,1.23a.32.32,0,0,0,.14,0,.36.36,0,0,0,.33-.22A.37.37,0,0,0,539.81,57.67Zm6.32,3.41c-1-.66-2-1.29-3.08-1.85a.36.36,0,1,0-.34.63c1,.55,2,1.16,3,1.81a.36.36,0,0,0,.2.06.34.34,0,0,0,.29-.16A.36.36,0,0,0,546.13,61.08Zm5.63,4.46c-.87-.82-1.79-1.61-2.72-2.35a.34.34,0,0,0-.5.06.35.35,0,0,0,.06.5c.92.72,1.81,1.5,2.67,2.3a.35.35,0,0,0,.5,0A.36.36,0,0,0,551.76,65.54Zm4.79,5.35c-.72-1-1.49-1.89-2.29-2.78a.35.35,0,0,0-.5,0,.36.36,0,0,0,0,.5c.79.88,1.54,1.8,2.25,2.73a.32.32,0,0,0,.28.14.43.43,0,0,0,.22-.06A.37.37,0,0,0,556.55,70.89Zm3.8,6.08c-.53-1-1.13-2.1-1.77-3.12a.36.36,0,0,0-.49-.12.35.35,0,0,0-.11.49c.63,1,1.21,2,1.74,3.08a.34.34,0,0,0,.31.19.41.41,0,0,0,.16,0A.36.36,0,0,0,560.35,77Zm-12.51,6a4.77,4.77,0,0,0-3.37-1.61.34.34,0,0,0-.37.33.36.36,0,0,0,.33.38,4.06,4.06,0,0,1,2.88,1.38.36.36,0,0,0,.27.12.38.38,0,0,0,.24-.09A.36.36,0,0,0,547.84,82.94Zm15.1.74a33.24,33.24,0,0,0-1.12-3.42.36.36,0,0,0-.46-.2.35.35,0,0,0-.21.46,29.75,29.75,0,0,1,1.1,3.35.34.34,0,0,0,.34.26h.09A.35.35,0,0,0,562.94,83.68Zm-21.6-1.37a.36.36,0,0,0-.48-.16,13.18,13.18,0,0,0-3,2,.35.35,0,0,0,0,.5.37.37,0,0,0,.27.12.38.38,0,0,0,.24-.09,12.32,12.32,0,0,1,2.85-1.94A.36.36,0,0,0,541.34,82.31Zm8.19,3.91a.36.36,0,0,0-.44-.24.35.35,0,0,0-.24.44,16.55,16.55,0,0,1,.54,3.44.36.36,0,0,0,.35.33h0a.36.36,0,0,0,.33-.38A16.66,16.66,0,0,0,549.53,86.22Zm-13.64.58a.35.35,0,0,0-.49.08A19.22,19.22,0,0,0,533.51,90a.36.36,0,0,0,.16.48.32.32,0,0,0,.16,0,.36.36,0,0,0,.32-.21,19.73,19.73,0,0,1,1.81-3A.35.35,0,0,0,535.89,86.8Zm27.75.42a.34.34,0,0,0-.39-.3.34.34,0,0,0-.31.39,23.67,23.67,0,0,1,.2,3c0,.17,0,.35,0,.52a.37.37,0,0,0,.35.37h0a.35.35,0,0,0,.35-.35c0-.18,0-.36,0-.54A23.18,23.18,0,0,0,563.64,87.22ZM549.76,93a.35.35,0,0,0-.38.34c-.06,1.09-.18,2.27-.35,3.51a.36.36,0,0,0,.3.4h0a.37.37,0,0,0,.36-.31c.17-1.26.29-2.46.35-3.58A.35.35,0,0,0,549.76,93Zm-17.07.08a.35.35,0,0,0-.43.26,15.58,15.58,0,0,0-.49,3.6.37.37,0,0,0,.35.37h0a.35.35,0,0,0,.35-.35,15.15,15.15,0,0,1,.47-3.44A.36.36,0,0,0,532.69,93.12Zm30.45.89a.36.36,0,0,0-.43.26c-.08.36-.17.71-.27,1-.24.79-.5,1.57-.77,2.32a.35.35,0,0,0,.21.46l.12,0a.36.36,0,0,0,.33-.23c.28-.77.55-1.56.79-2.36.11-.35.21-.72.29-1.09A.35.35,0,0,0,563.14,94Zm-28.94,9.61a12.62,12.62,0,0,1-1.31-3.19.36.36,0,1,0-.69.18,13.67,13.67,0,0,0,1.38,3.37.36.36,0,0,0,.31.18.31.31,0,0,0,.18,0A.35.35,0,0,0,534.2,103.62Zm14.66-3.52a.36.36,0,0,0-.42.28c-.23,1.13-.5,2.29-.81,3.45a.35.35,0,0,0,.26.43l.09,0a.35.35,0,0,0,.34-.27c.31-1.17.59-2.34.82-3.49A.36.36,0,0,0,548.86,100.1Zm11.91.61a.35.35,0,0,0-.47.17,32.56,32.56,0,0,1-1.69,3.1.36.36,0,0,0,.12.49.32.32,0,0,0,.19,0,.36.36,0,0,0,.3-.17,33.82,33.82,0,0,0,1.72-3.16A.37.37,0,0,0,560.77,100.71ZM538.63,109a22.79,22.79,0,0,1-2.4-2.55.36.36,0,1,0-.55.45,24.21,24.21,0,0,0,2.47,2.63.38.38,0,0,0,.24.09.39.39,0,0,0,.27-.11A.36.36,0,0,0,538.63,109Zm18.45-2.23a.34.34,0,0,0-.5,0,21.58,21.58,0,0,1-2.42,2.52.35.35,0,0,0,0,.5.36.36,0,0,0,.27.12.43.43,0,0,0,.24-.08,21.53,21.53,0,0,0,2.5-2.61A.34.34,0,0,0,557.08,106.8Zm-10,.2a.35.35,0,0,0-.45.23c-.36,1.1-.75,2.22-1.18,3.34a.35.35,0,0,0,.21.46l.12,0a.36.36,0,0,0,.34-.23c.43-1.14.83-2.28,1.19-3.38A.35.35,0,0,0,547.08,107Zm-2.44,5.33a11,11,0,0,1-3.21-1.24.36.36,0,0,0-.35.62,11.78,11.78,0,0,0,3.41,1.32h.08a.34.34,0,0,0,.34-.28A.36.36,0,0,0,544.64,112.33Zm7.14-.84a.35.35,0,0,0-.48-.16,10.77,10.77,0,0,1-3.25,1.1.34.34,0,0,0-.3.4.35.35,0,0,0,.35.3h.06a11.36,11.36,0,0,0,3.47-1.16A.36.36,0,0,0,551.78,111.49Zm-7.19,2.19a.36.36,0,0,0-.47.18c-.46,1.07-1,2.16-1.47,3.24a.37.37,0,0,0,.17.48.4.4,0,0,0,.15,0,.34.34,0,0,0,.32-.2c.52-1.09,1-2.19,1.49-3.27A.35.35,0,0,0,544.59,113.68Zm-3.05,6.45a.36.36,0,0,0-.48.15c-.54,1-1.11,2.09-1.7,3.12a.36.36,0,0,0,.14.49.34.34,0,0,0,.17,0,.35.35,0,0,0,.31-.18c.59-1.05,1.17-2.11,1.71-3.15A.35.35,0,0,0,541.54,120.13Zm-3.48,6.22a.36.36,0,0,0-.49.12c-.61,1-1.24,2-1.89,3a.34.34,0,0,0,.11.48.33.33,0,0,0,.19.06.37.37,0,0,0,.3-.16c.65-1,1.29-2,1.9-3A.36.36,0,0,0,538.06,126.35Zm-3.85,6a.36.36,0,0,0-.5.09c-.66,1-1.34,2-2,2.91a.37.37,0,0,0,.09.5.37.37,0,0,0,.2.07.34.34,0,0,0,.29-.15c.7-1,1.39-2,2-2.93A.35.35,0,0,0,534.21,132.36Zm-4.15,5.8a.35.35,0,0,0-.5.07c-.7.94-1.43,1.89-2.17,2.82a.36.36,0,0,0,.06.5.4.4,0,0,0,.22.08.35.35,0,0,0,.28-.14c.74-.94,1.48-1.89,2.19-2.83A.36.36,0,0,0,530.06,138.16Zm-4.4,5.62a.34.34,0,0,0-.5.05c-.74.91-1.51,1.82-2.28,2.73a.35.35,0,0,0,0,.5.32.32,0,0,0,.23.09.37.37,0,0,0,.27-.13c.77-.91,1.54-1.83,2.29-2.74A.34.34,0,0,0,525.66,143.78ZM521,149.21a.35.35,0,0,0-.5,0c-.78.88-1.59,1.76-2.39,2.64a.35.35,0,0,0,0,.5.37.37,0,0,0,.24.1.34.34,0,0,0,.26-.12c.81-.88,1.62-1.77,2.4-2.65A.36.36,0,0,0,521,149.21Zm-4.83,5.27a.35.35,0,0,0-.5,0c-.83.87-1.67,1.73-2.49,2.55a.36.36,0,0,0,0,.51.39.39,0,0,0,.25.1.36.36,0,0,0,.26-.11l2.5-2.56A.35.35,0,0,0,516.21,154.48Zm-5,5.07a.37.37,0,0,0-.51,0c-1.62,1.56-2.59,2.43-2.61,2.44a.36.36,0,0,0,0,.51.35.35,0,0,0,.26.12.33.33,0,0,0,.24-.1s1-.88,2.63-2.46A.35.35,0,0,0,511.19,159.55Z"/><path class="cls-2" d="M381.82,135.74a2.23,2.23,0,1,1,2.23,2.23A2.23,2.23,0,0,1,381.82,135.74Z"/><path class="cls-2" d="M307.61,61.53a2.23,2.23,0,1,1,2.23,2.23A2.23,2.23,0,0,1,307.61,61.53Z"/><path class="cls-2" d="M207.4,123.55a2.23,2.23,0,1,1,2.23,2.23A2.23,2.23,0,0,1,207.4,123.55Z"/><path class="cls-2" d="M254.94,188.34a2.23,2.23,0,1,1,2.23,2.23A2.23,2.23,0,0,1,254.94,188.34Z"/><path class="cls-2" d="M316.57,149.77A2.23,2.23,0,1,1,318.8,152,2.23,2.23,0,0,1,316.57,149.77Z"/><path class="cls-2" d="M331.7,172.83a2.23,2.23,0,1,1,2.23,2.23A2.23,2.23,0,0,1,331.7,172.83Z"/><path class="cls-2" d="M129.43,164a2.23,2.23,0,1,1,2.23,2.23A2.23,2.23,0,0,1,129.43,164Z"/><path class="cls-2" d="M518.38,174.08a.31.31,0,0,1-.22-.09.32.32,0,0,1,0-.45c2.13-2.23,6.25-2.66,7.57-2.74-1.1-3.58-5.2-6.31-5.24-6.33a.33.33,0,0,1-.1-.45.34.34,0,0,1,.45-.09c.18.13,4.64,3.09,5.61,7.1a.33.33,0,0,1-.06.27.3.3,0,0,1-.24.12s-5.21.14-7.53,2.56A.34.34,0,0,1,518.38,174.08Z"/><path class="cls-2" d="M522.36,60.13a.47.47,0,0,1-.16,0c-.19-.11-4.88-2.7-6.18-6.61a.29.29,0,0,1,0-.27.3.3,0,0,1,.23-.14c.05,0,5.18-.57,7.29-3.18a.33.33,0,0,1,.45,0,.32.32,0,0,1,.05.45c-2,2.39-6,3.16-7.32,3.35,1.39,3.47,5.7,5.85,5.75,5.88a.32.32,0,0,1,.13.43A.32.32,0,0,1,522.36,60.13Z"/><path class="cls-2" d="M383.55,84.16a.41.41,0,0,1-.17,0c-.19-.12-4.69-3-5.72-7a.3.3,0,0,1,0-.27.33.33,0,0,1,.24-.12c.05,0,5.21-.22,7.49-2.68a.32.32,0,1,1,.47.43c-2.1,2.26-6.21,2.76-7.53,2.86,1.16,3.56,5.3,6.22,5.35,6.25a.32.32,0,0,1,.09.44A.31.31,0,0,1,383.55,84.16Z"/><path class="cls-2" d="M105.68,53.43a.31.31,0,0,1-.31-.25c-.65-3,1.3-6.67,2-7.8-3.57-1.09-8.13.77-8.18.79a.32.32,0,0,1-.25-.59c.21-.09,5.16-2.11,9-.67a.29.29,0,0,1,.19.2.32.32,0,0,1,0,.27s-2.81,4.39-2.1,7.67a.3.3,0,0,1-.25.37Z"/><path class="cls-2" d="M62.34,216a.32.32,0,0,1-.32-.28c0-.06-.6-4.95-3.31-7.53-.66,1.13-2.89,4.62-5.84,5.53a.32.32,0,1,1-.18-.61c3.21-1,5.64-5.53,5.66-5.58a.36.36,0,0,1,.22-.16.33.33,0,0,1,.27.07c3.14,2.67,3.79,8,3.81,8.2a.32.32,0,0,1-.28.36Z"/><path class="cls-2" d="M124.19,290.28a.37.37,0,0,1-.17,0,.3.3,0,0,1-.1-.43c0-.05,2.54-4.29,2-8-1.22.5-5.12,1.9-8,.81a.32.32,0,1,1,.23-.59c3.14,1.18,7.84-.93,7.89-.95a.31.31,0,0,1,.28,0,.35.35,0,0,1,.17.22c.85,4-1.88,8.63-2,8.82A.32.32,0,0,1,124.19,290.28Z"/><path class="cls-3" d="M171.11,131.57a8.28,8.28,0,0,1-8.89-8.24c0-1.24,0-2.44.06-3.59a51.87,51.87,0,0,1,1.34-10.31,38.38,38.38,0,0,1,3.37-9,51.64,51.64,0,0,1,5.63-8.41q2.55-3.3,4.7-6.42A45.72,45.72,0,0,0,181,79.39,31.42,31.42,0,0,0,183.16,73a23.5,23.5,0,0,0,.45-7q-1.31-17.22-12.44-16.38a9.33,9.33,0,0,0-3.94,1.29,10.73,10.73,0,0,0-3.53,3.43A18,18,0,0,0,161.33,60v.07a11.47,11.47,0,0,1-10.25,8.7l-7,.53a11.12,11.12,0,0,1-11.83-13,39.85,39.85,0,0,1,1.25-5.09,36.08,36.08,0,0,1,7.72-13.76,35.52,35.52,0,0,1,12.3-8.65,49,49,0,0,1,15.84-3.74,50.19,50.19,0,0,1,17.17,1.39,33.26,33.26,0,0,1,22.22,19,49.72,49.72,0,0,1,4.1,17.11,37.79,37.79,0,0,1-.93,12.31,49.11,49.11,0,0,1-4.07,10.62,71.84,71.84,0,0,1-6.21,9.81c-2.38,3.19-4.87,6.4-7.35,9.73a32.06,32.06,0,0,0-3.35,5.65,27.49,27.49,0,0,0-1.95,5.8,37.43,37.43,0,0,0-.81,6.38v.07a8.3,8.3,0,0,1-7.63,7.93Zm-8.8,32.4a17.16,17.16,0,0,1,.66-6.38,14.83,14.83,0,0,1,2.82-5.24,15,15,0,0,1,4.74-3.73,16.81,16.81,0,0,1,6.46-1.74,17.1,17.1,0,0,1,6.74.74,15,15,0,0,1,5.25,3,14.78,14.78,0,0,1,3.58,4.76,18,18,0,0,1,.95,12.58,15.56,15.56,0,0,1-2.81,5.29A14.15,14.15,0,0,1,186,177a17.7,17.7,0,0,1-6.56,1.69,17.44,17.44,0,0,1-6.63-.69,14.06,14.06,0,0,1-5.26-3,15.48,15.48,0,0,1-3.58-4.81A17.14,17.14,0,0,1,162.31,164Z"/><path class="cls-4" d="M167.87,131.57a8.27,8.27,0,0,1-8.88-8.24c0-1.24,0-2.44,0-3.59a51.87,51.87,0,0,1,1.34-10.31,38.83,38.83,0,0,1,3.37-9,51.09,51.09,0,0,1,5.64-8.41c1.69-2.2,3.26-4.34,4.69-6.42a44.71,44.71,0,0,0,3.63-6.24A30.83,30.83,0,0,0,179.92,73a23.83,23.83,0,0,0,.46-7q-1.31-17.22-12.44-16.38A9.32,9.32,0,0,0,164,50.93a10.73,10.73,0,0,0-3.53,3.43A18,18,0,0,0,158.09,60v.07a11.46,11.46,0,0,1-10.25,8.7l-7,.53a11.12,11.12,0,0,1-11.83-13,39.85,39.85,0,0,1,1.25-5.09,36.08,36.08,0,0,1,7.72-13.76,35.62,35.62,0,0,1,12.3-8.65,49,49,0,0,1,15.85-3.74,50.15,50.15,0,0,1,17.16,1.39,33.31,33.31,0,0,1,22.23,19,50,50,0,0,1,4.09,17.11,37.79,37.79,0,0,1-.93,12.31,49.11,49.11,0,0,1-4.07,10.62,72.74,72.74,0,0,1-6.2,9.81c-2.39,3.19-4.88,6.4-7.36,9.73a32.06,32.06,0,0,0-3.35,5.65,28.07,28.07,0,0,0-2,5.8,38.46,38.46,0,0,0-.81,6.38v.07a8.3,8.3,0,0,1-7.63,7.93Zm-8.8,32.4a17.16,17.16,0,0,1,.66-6.38,14.83,14.83,0,0,1,2.82-5.24,15.16,15.16,0,0,1,4.74-3.73,16.81,16.81,0,0,1,6.46-1.74,17.1,17.1,0,0,1,6.74.74,15.18,15.18,0,0,1,5.26,3,14.9,14.9,0,0,1,3.57,4.76,18,18,0,0,1,1,12.58,15.39,15.39,0,0,1-2.81,5.29,14.15,14.15,0,0,1-4.75,3.73,17.64,17.64,0,0,1-6.56,1.69,17.47,17.47,0,0,1-6.63-.69,14.14,14.14,0,0,1-5.26-3,15.48,15.48,0,0,1-3.58-4.81A17.35,17.35,0,0,1,159.07,164Z"/><path class="cls-3" d="M159.05,292.74a5.67,5.67,0,0,1-7.6-3.34c-.28-.8-.53-1.58-.76-2.34a34.63,34.63,0,0,1-1.44-7,26,26,0,0,1,.16-6.55,35,35,0,0,1,1.77-6.71c.6-1.8,1.14-3.54,1.6-5.2a30.71,30.71,0,0,0,.95-4.85,21.08,21.08,0,0,0,0-4.63,16.31,16.31,0,0,0-1.27-4.62q-4.71-10.84-11.72-7.8a6.31,6.31,0,0,0-2.26,1.71,7.3,7.3,0,0,0-1.51,3,12,12,0,0,0-.27,4.2v0a7.84,7.84,0,0,1-4.69,7.92l-4.43,1.92A7.62,7.62,0,0,1,117,252.79a27.88,27.88,0,0,1-.33-3.57,24.89,24.89,0,0,1,1.91-10.63,24.42,24.42,0,0,1,6-8.36,33.52,33.52,0,0,1,9.41-6,34.08,34.08,0,0,1,11.41-2.94,22.7,22.7,0,0,1,18.62,7.28,34.29,34.29,0,0,1,6.49,10.15,26.3,26.3,0,0,1,2.15,8.17,33.75,33.75,0,0,1-.26,7.79,50.45,50.45,0,0,1-1.81,7.73c-.83,2.59-1.73,5.23-2.58,7.94a22.07,22.07,0,0,0-.91,4.41,19.47,19.47,0,0,0,0,4.18,26.48,26.48,0,0,0,.91,4.32v0a5.67,5.67,0,0,1-3.16,6.84Zm1.56,22.93a11.75,11.75,0,0,1-1-4.28,10.06,10.06,0,0,1,.65-4,10.24,10.24,0,0,1,2.23-3.47,11.43,11.43,0,0,1,3.79-2.57,11.7,11.7,0,0,1,4.53-1,10.47,10.47,0,0,1,4.06.75,10.1,10.1,0,0,1,3.38,2.28,12.34,12.34,0,0,1,3.43,7.92,10.64,10.64,0,0,1-.63,4.06,9.76,9.76,0,0,1-2.24,3.47,12.15,12.15,0,0,1-3.86,2.56,11.75,11.75,0,0,1-4.45,1,9.7,9.7,0,0,1-4.07-.74,10.75,10.75,0,0,1-3.39-2.31A11.89,11.89,0,0,1,160.61,315.67Z"/><path class="cls-4" d="M157,293.46a5.66,5.66,0,0,1-7.59-3.34c-.28-.8-.54-1.58-.77-2.33a36.16,36.16,0,0,1-1.44-7,26,26,0,0,1,.17-6.55,35.59,35.59,0,0,1,1.76-6.7c.61-1.81,1.14-3.54,1.6-5.21a30.6,30.6,0,0,0,.95-4.84,21.08,21.08,0,0,0,0-4.63,16,16,0,0,0-1.27-4.62q-4.7-10.84-11.71-7.81a6.58,6.58,0,0,0-2.27,1.71,7.3,7.3,0,0,0-1.51,3,12.1,12.1,0,0,0-.26,4.21v0a7.83,7.83,0,0,1-4.68,7.92l-4.43,1.92a7.61,7.61,0,0,1-10.56-5.74,27.91,27.91,0,0,1-.34-3.58,24.72,24.72,0,0,1,1.92-10.62,24.3,24.3,0,0,1,6-8.36,33.91,33.91,0,0,1,9.41-6,34.62,34.62,0,0,1,11.42-2.94A22.81,22.81,0,0,1,162,229.33a34.13,34.13,0,0,1,6.48,10.16,25.69,25.69,0,0,1,2.15,8.17,33.67,33.67,0,0,1-.25,7.78,48.83,48.83,0,0,1-1.82,7.73c-.83,2.6-1.72,5.24-2.57,7.95a21.3,21.3,0,0,0-.91,4.4,18.94,18.94,0,0,0,0,4.19A26.31,26.31,0,0,0,166,284l0,.05a5.68,5.68,0,0,1-3.16,6.83Zm1.56,22.93a11.9,11.9,0,0,1-1-4.27,10.17,10.17,0,0,1,.65-4,10.31,10.31,0,0,1,2.24-3.48,12.41,12.41,0,0,1,8.31-3.6,10.06,10.06,0,0,1,7.44,3,12.47,12.47,0,0,1,3.44,7.93,10.76,10.76,0,0,1-.64,4,9.77,9.77,0,0,1-2.23,3.48,12.26,12.26,0,0,1-3.87,2.56,11.94,11.94,0,0,1-4.45,1,9.51,9.51,0,0,1-4.06-.75A10.43,10.43,0,0,1,161,320,11.51,11.51,0,0,1,158.51,316.39Z"/><path class="cls-5" d="M72.91,189.39A4.39,4.39,0,0,1,67,186.8c-.22-.62-.42-1.22-.6-1.81a27.52,27.52,0,0,1-1.11-5.39,20,20,0,0,1,.13-5.08,27.34,27.34,0,0,1,1.36-5.19c.47-1.39.88-2.74,1.24-4a23.88,23.88,0,0,0,.74-3.75,16.48,16.48,0,0,0,0-3.58,12.41,12.41,0,0,0-1-3.57q-3.63-8.4-9.06-6.05A5.07,5.07,0,0,0,57,149.68,5.69,5.69,0,0,0,55.82,152a9.42,9.42,0,0,0-.2,3.25v0A6.06,6.06,0,0,1,52,161.43l-3.43,1.48a5.89,5.89,0,0,1-8.18-4.44,20.65,20.65,0,0,1-.25-2.77,19.12,19.12,0,0,1,1.48-8.23A18.76,18.76,0,0,1,46.28,141a26.16,26.16,0,0,1,7.28-4.62,26.52,26.52,0,0,1,8.84-2.28,17.56,17.56,0,0,1,14.41,5.64,26.24,26.24,0,0,1,5,7.86,20.13,20.13,0,0,1,1.67,6.32,26.36,26.36,0,0,1-.2,6,38.89,38.89,0,0,1-1.41,6c-.64,2-1.33,4.05-2,6.15a16,16,0,0,0-.7,3.41,14.63,14.63,0,0,0,0,3.24,20.33,20.33,0,0,0,.7,3.34v0a4.39,4.39,0,0,1-2.45,5.29Zm1.21,17.74a9,9,0,0,1-.77-3.3,7.93,7.93,0,0,1,.5-3.12A8.08,8.08,0,0,1,75.58,198a8.85,8.85,0,0,1,2.93-2,9.11,9.11,0,0,1,3.51-.81,7.82,7.82,0,0,1,5.76,2.34,9.26,9.26,0,0,1,1.88,2.83,8.91,8.91,0,0,1,.77,3.31,8.08,8.08,0,0,1-.49,3.14,7.43,7.43,0,0,1-1.73,2.69,9.28,9.28,0,0,1-3,2,9,9,0,0,1-3.44.8,7.52,7.52,0,0,1-3.15-.57A8.26,8.26,0,0,1,76,210,9,9,0,0,1,74.12,207.13Z"/><path class="cls-2" d="M71.29,190a4.37,4.37,0,0,1-5.87-2.59q-.33-.93-.6-1.8a27.47,27.47,0,0,1-1.11-5.4,20,20,0,0,1,.13-5.08,27.06,27.06,0,0,1,1.36-5.18c.47-1.4.88-2.75,1.24-4a23,23,0,0,0,.73-3.76,15.31,15.31,0,0,0,0-3.58,12.47,12.47,0,0,0-1-3.57q-3.63-8.4-9.07-6.05a5,5,0,0,0-1.75,1.33,5.75,5.75,0,0,0-1.17,2.33,9.19,9.19,0,0,0-.2,3.25v0A6.06,6.06,0,0,1,50.38,162l-3.44,1.49A5.9,5.9,0,0,1,38.77,159a22.49,22.49,0,0,1-.26-2.77A19,19,0,0,1,40,148a18.71,18.71,0,0,1,4.66-6.47A26.16,26.16,0,0,1,51.94,137a26.46,26.46,0,0,1,8.84-2.28,18.2,18.2,0,0,1,7.84,1.14,18.4,18.4,0,0,1,6.57,4.5,26.24,26.24,0,0,1,5,7.86,19.91,19.91,0,0,1,1.66,6.32,26.37,26.37,0,0,1-.19,6,38.89,38.89,0,0,1-1.41,6c-.64,2-1.33,4.05-2,6.15a16.74,16.74,0,0,0-.71,3.41,16,16,0,0,0,0,3.24,20.39,20.39,0,0,0,.71,3.34v0A4.39,4.39,0,0,1,75.87,188Zm1.21,17.74a8.81,8.81,0,0,1-.77-3.3,7.93,7.93,0,0,1,.5-3.12A8.08,8.08,0,0,1,74,198.58a9,9,0,0,1,2.93-2,8.86,8.86,0,0,1,3.5-.8,8,8,0,0,1,3.15.57,7.85,7.85,0,0,1,2.61,1.77,9.44,9.44,0,0,1,2.66,6.13,8.08,8.08,0,0,1-.49,3.14,7.56,7.56,0,0,1-1.73,2.69,9.39,9.39,0,0,1-3,2,9.21,9.21,0,0,1-3.44.81,7.49,7.49,0,0,1-3.15-.58,8.14,8.14,0,0,1-2.63-1.79A9.15,9.15,0,0,1,72.5,207.69Z"/><path class="cls-5" d="M346.3,82.75A6.47,6.47,0,0,1,340.82,75c.2-1,.4-1.86.62-2.74a41.29,41.29,0,0,1,2.69-7.69,30.07,30.07,0,0,1,4-6.33,40.89,40.89,0,0,1,5.67-5.53q2.49-2.13,4.63-4.17a35.5,35.5,0,0,0,3.78-4.19A23.74,23.74,0,0,0,365,39.82a18.5,18.5,0,0,0,1.48-5.28q1.77-13.39-6.9-14.54a7.2,7.2,0,0,0-3.23.35,8.21,8.21,0,0,0-3.25,2.06,14,14,0,0,0-2.73,4l0,.05a9,9,0,0,1-9.25,5l-5.48-.72a8.7,8.7,0,0,1-7-11.84,31,31,0,0,1,1.78-3.71,28.21,28.21,0,0,1,8.13-9.29,27.67,27.67,0,0,1,10.82-4.65A38.51,38.51,0,0,1,362.05.9,39.37,39.37,0,0,1,375,4.73a26,26,0,0,1,14,18.09,39.1,39.1,0,0,1,.38,13.77,29.52,29.52,0,0,1-2.69,9.28,38.6,38.6,0,0,1-4.83,7.48,56.23,56.23,0,0,1-6.33,6.52c-2.34,2.05-4.76,4.12-7.2,6.27a25.3,25.3,0,0,0-3.48,3.79,21.9,21.9,0,0,0-2.42,4.13,29.24,29.24,0,0,0-1.65,4.76v.05a6.48,6.48,0,0,1-7.12,4.84Zm-11.95,23.4a13.24,13.24,0,0,1,1.53-4.77,11.42,11.42,0,0,1,7.24-5.66,13.07,13.07,0,0,1,5.22-.29,13.3,13.3,0,0,1,5.05,1.64,12,12,0,0,1,3.55,3.13,11.7,11.7,0,0,1,2,4.22,13.44,13.44,0,0,1,.24,5,13.7,13.7,0,0,1-1.53,4.78,12.1,12.1,0,0,1-3,3.6,11,11,0,0,1-4.24,2.09,14.93,14.93,0,0,1-10.27-1.35,11.14,11.14,0,0,1-3.54-3.12,12,12,0,0,1-2-4.26A13.51,13.51,0,0,1,334.35,106.15Z"/><path class="cls-2" d="M343.82,82.23a6.48,6.48,0,0,1-5.48-7.74c.2-.95.4-1.87.62-2.74a40.58,40.58,0,0,1,2.69-7.69,30.07,30.07,0,0,1,4-6.33,40.35,40.35,0,0,1,5.67-5.53Q353.83,50.07,356,48a35.5,35.5,0,0,0,3.78-4.19,23.74,23.74,0,0,0,2.72-4.54A18.5,18.5,0,0,0,364,34q1.77-13.4-6.9-14.54a7.33,7.33,0,0,0-3.23.34,8.44,8.44,0,0,0-3.25,2.06,14,14,0,0,0-2.73,4l0,0a9,9,0,0,1-9.26,5l-5.47-.72a8.7,8.7,0,0,1-7-11.84,31,31,0,0,1,1.78-3.71A28.21,28.21,0,0,1,336,5.35,27.67,27.67,0,0,1,346.84.7,38.25,38.25,0,0,1,359.57.38,39.44,39.44,0,0,1,372.5,4.21a26,26,0,0,1,14,18.09,39.1,39.1,0,0,1,.38,13.77,29.79,29.79,0,0,1-2.69,9.28,38.6,38.6,0,0,1-4.83,7.48A56.23,56.23,0,0,1,373,59.35c-2.34,2-4.77,4.12-7.2,6.27a25.3,25.3,0,0,0-3.48,3.79,22.14,22.14,0,0,0-2.42,4.12,29.69,29.69,0,0,0-1.65,4.77v0a6.49,6.49,0,0,1-7.12,4.84Zm-11.95,23.4a13.29,13.29,0,0,1,1.53-4.78,11.45,11.45,0,0,1,7.24-5.65,13.07,13.07,0,0,1,5.22-.29,13.3,13.3,0,0,1,5.05,1.64,12,12,0,0,1,3.55,3.13,11.62,11.62,0,0,1,2,4.22,13.44,13.44,0,0,1,.24,5,13.7,13.7,0,0,1-1.53,4.78,12.1,12.1,0,0,1-3,3.6,11,11,0,0,1-4.24,2.09A14.93,14.93,0,0,1,337.62,118a11.19,11.19,0,0,1-3.55-3.13,12,12,0,0,1-2-4.26A13.24,13.24,0,0,1,331.87,105.63Z"/><path class="cls-3" d="M482.51,65.81a4.23,4.23,0,0,1-3.58-5.06c.13-.62.26-1.22.4-1.79a27.22,27.22,0,0,1,1.76-5,19.66,19.66,0,0,1,2.63-4.14,26.09,26.09,0,0,1,3.71-3.62c1.08-.92,2.09-1.83,3-2.72a23.13,23.13,0,0,0,2.47-2.75,15.72,15.72,0,0,0,1.78-3,12,12,0,0,0,1-3.45c.77-5.84-.73-9-4.51-9.51a4.74,4.74,0,0,0-2.11.22,5.54,5.54,0,0,0-2.13,1.35,9,9,0,0,0-1.78,2.6l0,0a5.84,5.84,0,0,1-6.05,3.27l-3.58-.47A5.69,5.69,0,0,1,470.93,24a21.7,21.7,0,0,1,1.16-2.42,18.4,18.4,0,0,1,5.32-6.08,18.12,18.12,0,0,1,7.07-3,25.1,25.1,0,0,1,8.33-.21,25.61,25.61,0,0,1,8.45,2.5,17,17,0,0,1,9.14,11.83,25.72,25.72,0,0,1,.26,9,19.17,19.17,0,0,1-1.77,6.06,25,25,0,0,1-3.15,4.9,37.67,37.67,0,0,1-4.14,4.26c-1.53,1.34-3.12,2.69-4.71,4.1a16.11,16.11,0,0,0-2.27,2.47,14.71,14.71,0,0,0-1.59,2.7A19.7,19.7,0,0,0,492,63.24v0a4.24,4.24,0,0,1-4.65,3.17Zm-7.81,15.3a8.6,8.6,0,0,1,1-3.12,7.54,7.54,0,0,1,2-2.33,7.65,7.65,0,0,1,2.77-1.37,8.59,8.59,0,0,1,3.42-.19,8.74,8.74,0,0,1,3.3,1.08,7.49,7.49,0,0,1,3.61,4.8,8.89,8.89,0,0,1,.15,3.27,8.79,8.79,0,0,1-1,3.13,7.75,7.75,0,0,1-2,2.35,7.07,7.07,0,0,1-2.77,1.37,9.71,9.71,0,0,1-6.71-.88,7.29,7.29,0,0,1-2.32-2,8.1,8.1,0,0,1-1.29-2.79A8.72,8.72,0,0,1,474.7,81.11Z"/><path class="cls-4" d="M480.89,65.47a4.23,4.23,0,0,1-3.58-5.06c.12-.62.26-1.22.4-1.8a26.65,26.65,0,0,1,1.76-5,19.26,19.26,0,0,1,2.63-4.14,25.57,25.57,0,0,1,3.71-3.62c1.08-.92,2.09-1.83,3-2.72a22.4,22.4,0,0,0,2.48-2.75,15.72,15.72,0,0,0,1.78-3,12.34,12.34,0,0,0,1-3.45c.77-5.84-.73-9-4.51-9.51a4.74,4.74,0,0,0-2.11.22A5.47,5.47,0,0,0,485.3,26a9.08,9.08,0,0,0-1.78,2.59l0,0a5.84,5.84,0,0,1-6.05,3.27l-3.58-.47a5.69,5.69,0,0,1-4.56-7.74,20.07,20.07,0,0,1,1.16-2.42,17.89,17.89,0,0,1,12.39-9.13,25.37,25.37,0,0,1,8.33-.2,25.68,25.68,0,0,1,8.45,2.5,17,17,0,0,1,9.14,11.83,25.5,25.5,0,0,1,.25,9,19.16,19.16,0,0,1-1.76,6.06,25.76,25.76,0,0,1-3.15,4.9A37.67,37.67,0,0,1,500,50.51c-1.53,1.34-3.12,2.69-4.71,4.1A16.72,16.72,0,0,0,493,57.08a15.25,15.25,0,0,0-1.58,2.7,19.7,19.7,0,0,0-1.08,3.12v0a4.24,4.24,0,0,1-4.65,3.17Zm-7.81,15.3a8.6,8.6,0,0,1,1-3.12,7.41,7.41,0,0,1,2-2.33A7.65,7.65,0,0,1,478.81,74a8.55,8.55,0,0,1,3.41-.19,8.46,8.46,0,0,1,3.3,1.08,7.54,7.54,0,0,1,2.32,2,7.46,7.46,0,0,1,1.29,2.76,8.67,8.67,0,0,1,.16,3.27,8.79,8.79,0,0,1-1,3.13,7.89,7.89,0,0,1-2,2.35,7.07,7.07,0,0,1-2.77,1.37,9,9,0,0,1-3.46.16,8.88,8.88,0,0,1-3.25-1,7.2,7.2,0,0,1-2.32-2,7.62,7.62,0,0,1-1.29-2.78A8.52,8.52,0,0,1,473.08,80.77Z"/><ellipse class="cls-6" cx="324.25" cy="644.06" rx="108.29" ry="13.72"/><path class="cls-7" d="M435.13,191.76a6.55,6.55,0,0,1-4.88-8.26c.28-.94.56-1.84.86-2.71a40.28,40.28,0,0,1,3.35-7.52,30.27,30.27,0,0,1,4.57-6,40.6,40.6,0,0,1,6.18-5.11c1.78-1.28,3.45-2.56,5-3.81a35.57,35.57,0,0,0,4.16-3.91,25.13,25.13,0,0,0,3.12-4.35,18.52,18.52,0,0,0,1.92-5.19q2.9-13.37-5.74-15.23a7.47,7.47,0,0,0-3.28.08,8.45,8.45,0,0,0-3.45,1.8,14.1,14.1,0,0,0-3.08,3.78l0,0a9,9,0,0,1-9.74,4.28l-5.45-1.18a8.81,8.81,0,0,1-6-12.52,32,32,0,0,1,2.1-3.58,28.54,28.54,0,0,1,9-8.69A28.15,28.15,0,0,1,445,109.85a39,39,0,0,1,12.86.74,39.78,39.78,0,0,1,12.71,4.94,26.27,26.27,0,0,1,12.58,19.39,39.4,39.4,0,0,1-.76,13.91,29.86,29.86,0,0,1-3.48,9.12,39.38,39.38,0,0,1-5.49,7.14,57.16,57.16,0,0,1-6.92,6c-2.53,1.88-5.15,3.75-7.77,5.72a25.77,25.77,0,0,0-3.83,3.53,22.22,22.22,0,0,0-2.78,4A29.66,29.66,0,0,0,450,189l0,.05a6.56,6.56,0,0,1-7.57,4.29Zm-14,22.59a13.75,13.75,0,0,1,1.94-4.69,11.87,11.87,0,0,1,3.32-3.34,12,12,0,0,1,4.45-1.76,13.32,13.32,0,0,1,5.28.14,13.53,13.53,0,0,1,4.95,2.08,11.65,11.65,0,0,1,5,7.86,14.3,14.3,0,0,1-2.12,9.76,12.18,12.18,0,0,1-3.33,3.38,11.26,11.26,0,0,1-4.44,1.76,14.21,14.21,0,0,1-5.36-.2,13.84,13.84,0,0,1-4.88-2,11.24,11.24,0,0,1-3.32-3.45,12.4,12.4,0,0,1-1.63-4.45A13.63,13.63,0,0,1,421.14,214.35Z"/><path class="cls-1" d="M432.68,191a6.55,6.55,0,0,1-4.88-8.26c.27-.94.56-1.84.85-2.71a40.94,40.94,0,0,1,3.35-7.52,30,30,0,0,1,4.58-6,40,40,0,0,1,6.17-5.11q2.69-1.94,5-3.81a34.8,34.8,0,0,0,4.16-3.91,24.11,24.11,0,0,0,3.12-4.35,18.53,18.53,0,0,0,1.93-5.19q2.89-13.37-5.74-15.24a7.37,7.37,0,0,0-3.29.09,8.45,8.45,0,0,0-3.45,1.8,14.2,14.2,0,0,0-3.08,3.77l0,0a9.05,9.05,0,0,1-9.74,4.28l-5.46-1.18a8.81,8.81,0,0,1-6.05-12.52,34.36,34.36,0,0,1,2.1-3.58,28.57,28.57,0,0,1,9-8.69,28.1,28.1,0,0,1,11.29-3.79,39,39,0,0,1,12.86.74,39.72,39.72,0,0,1,12.7,4.94,26.91,26.91,0,0,1,8.52,8.21,27.22,27.22,0,0,1,4.06,11.18,39.38,39.38,0,0,1-.75,13.91,30.23,30.23,0,0,1-3.49,9.12,38.5,38.5,0,0,1-5.49,7.14,56.41,56.41,0,0,1-6.92,6c-2.53,1.88-5.14,3.75-7.77,5.72a25.19,25.19,0,0,0-3.82,3.53,21.77,21.77,0,0,0-2.79,4,30.62,30.62,0,0,0-2.06,4.66v0a6.57,6.57,0,0,1-7.58,4.29Zm-14,22.59a13.36,13.36,0,0,1,1.94-4.69,11.61,11.61,0,0,1,3.32-3.34,11.92,11.92,0,0,1,4.44-1.76,13.37,13.37,0,0,1,5.29.14,13.53,13.53,0,0,1,4.95,2.08,12,12,0,0,1,3.31,3.44,11.78,11.78,0,0,1,1.64,4.42,14.3,14.3,0,0,1-2.12,9.76,12.32,12.32,0,0,1-3.33,3.38,11.26,11.26,0,0,1-4.44,1.76,14.22,14.22,0,0,1-5.36-.2,13.75,13.75,0,0,1-4.88-2,11.06,11.06,0,0,1-3.31-3.44,12,12,0,0,1-1.63-4.45A13.42,13.42,0,0,1,418.69,213.62Z"/><path class="cls-3" d="M507.6,315.64a4,4,0,0,1-.51-5.9c.41-.46.81-.88,1.2-1.29a25,25,0,0,1,3.88-3.29,18.46,18.46,0,0,1,4.16-2.15,24.71,24.71,0,0,1,4.81-1.19c1.34-.24,2.61-.5,3.81-.79a20.65,20.65,0,0,0,3.36-1.07,15.28,15.28,0,0,0,2.9-1.58,11.5,11.5,0,0,0,2.46-2.38q5.19-6.67.87-10a4.57,4.57,0,0,0-1.85-.84,5.19,5.19,0,0,0-2.4.09,8.58,8.58,0,0,0-2.73,1.28l0,0a5.62,5.62,0,0,1-6.58-.22l-2.72-2.12a5.44,5.44,0,0,1,0-8.59,18.77,18.77,0,0,1,2.12-1.43,17.6,17.6,0,0,1,7.32-2.45,17.41,17.41,0,0,1,7.3.91,24.16,24.16,0,0,1,7,3.84,24.65,24.65,0,0,1,5.76,6.15,16.28,16.28,0,0,1,1.83,14.17,24.31,24.31,0,0,1-4.14,7.54,18.37,18.37,0,0,1-4.38,4.16,24.67,24.67,0,0,1-5,2.51,34.76,34.76,0,0,1-5.46,1.51c-1.92.37-3.87.72-5.87,1.11a15.78,15.78,0,0,0-3.07.95A13.93,13.93,0,0,0,519,316a18.49,18.49,0,0,0-2.39,2.05l0,0a4.05,4.05,0,0,1-5.37.37Zm-13.83,8.85a8.42,8.42,0,0,1,2.34-2.1,7.16,7.16,0,0,1,5.68-.76,8.07,8.07,0,0,1,2.91,1.49,8.4,8.4,0,0,1,2.21,2.48,7.39,7.39,0,0,1,.92,2.8,7.19,7.19,0,0,1-.27,2.9,8.78,8.78,0,0,1-3.78,4.87,7.59,7.59,0,0,1-2.76,1,7.07,7.07,0,0,1-2.95-.21,8.92,8.92,0,0,1-2.93-1.54A8.69,8.69,0,0,1,493,333a6.8,6.8,0,0,1-.92-2.81,7.48,7.48,0,0,1,.28-2.92A8.48,8.48,0,0,1,493.77,324.49Z"/><path class="cls-4" d="M506.43,314.57a4,4,0,0,1-.51-5.9c.4-.45.8-.88,1.2-1.28a25.64,25.64,0,0,1,3.87-3.3,18.7,18.7,0,0,1,4.17-2.14,25.52,25.52,0,0,1,4.8-1.2c1.34-.24,2.61-.5,3.82-.78a21.67,21.67,0,0,0,3.36-1.07,15.07,15.07,0,0,0,2.9-1.59,11.73,11.73,0,0,0,2.46-2.38q5.18-6.66.87-10a4.62,4.62,0,0,0-1.85-.83,5.24,5.24,0,0,0-2.41.09,8.59,8.59,0,0,0-2.72,1.27l0,0a5.6,5.6,0,0,1-6.57-.21l-2.72-2.12a5.44,5.44,0,0,1,0-8.59,19.94,19.94,0,0,1,2.13-1.44,17.58,17.58,0,0,1,7.32-2.44,17.26,17.26,0,0,1,7.3.9,24.2,24.2,0,0,1,7,3.85,24.45,24.45,0,0,1,5.76,6.14,16.29,16.29,0,0,1,1.83,14.17,24.66,24.66,0,0,1-4.14,7.55,18.7,18.7,0,0,1-4.38,4.15,23.67,23.67,0,0,1-5,2.51,34.9,34.9,0,0,1-5.47,1.52c-1.91.37-3.87.72-5.86,1.11a15.36,15.36,0,0,0-3.07.94,14.52,14.52,0,0,0-2.61,1.46,19.43,19.43,0,0,0-2.39,2.05l0,0a4.05,4.05,0,0,1-5.36.36Zm-13.83,8.85a8.5,8.5,0,0,1,2.33-2.09,7.25,7.25,0,0,1,5.69-.77,8.09,8.09,0,0,1,2.91,1.5,8.22,8.22,0,0,1,2.2,2.48,7.41,7.41,0,0,1,.93,2.8,7.19,7.19,0,0,1-.27,2.9,8.74,8.74,0,0,1-3.79,4.87,7.41,7.41,0,0,1-2.75,1,6.9,6.9,0,0,1-3-.2,8.68,8.68,0,0,1-2.93-1.55,8.42,8.42,0,0,1-2.18-2.43,6.92,6.92,0,0,1-.93-2.8,7.47,7.47,0,0,1,.29-2.92A8.34,8.34,0,0,1,492.6,323.42Z"/><path class="cls-7" d="M526.21,199.35a4.06,4.06,0,0,1-.22-5.93c.43-.43.85-.83,1.26-1.22a25.73,25.73,0,0,1,4-3.1,18.84,18.84,0,0,1,4.27-1.94,25,25,0,0,1,4.85-1c1.35-.17,2.63-.37,3.85-.6a21.51,21.51,0,0,0,3.41-.9,14.6,14.6,0,0,0,3-1.45,11.49,11.49,0,0,0,2.58-2.25q5.49-6.41,1.36-10a4.62,4.62,0,0,0-1.81-.92,5.13,5.13,0,0,0-2.41,0,8.53,8.53,0,0,0-2.78,1.14l0,0a5.59,5.59,0,0,1-6.55-.54l-2.62-2.25a5.44,5.44,0,0,1,.39-8.58,22.2,22.2,0,0,1,2.2-1.33,17.55,17.55,0,0,1,7.42-2.08,17.18,17.18,0,0,1,7.25,1.26,23.91,23.91,0,0,1,6.78,4.18,24.48,24.48,0,0,1,5.45,6.42A16.23,16.23,0,0,1,569,182.56a24.68,24.68,0,0,1-4.5,7.33,18.47,18.47,0,0,1-4.58,3.94,24.75,24.75,0,0,1-5.08,2.27,36,36,0,0,1-5.54,1.24c-1.93.28-3.9.53-5.91.83a14.89,14.89,0,0,0-3.11.79,13.94,13.94,0,0,0-2.68,1.33,19.44,19.44,0,0,0-2.49,1.93l0,0a4.06,4.06,0,0,1-5.38.11ZM512,207.51a8.41,8.41,0,0,1,2.43-2,7.18,7.18,0,0,1,5.72-.49,8.19,8.19,0,0,1,2.83,1.64,8.42,8.42,0,0,1,2.08,2.58,7.26,7.26,0,0,1,.79,2.85,7.38,7.38,0,0,1-.41,2.88,8.14,8.14,0,0,1-1.59,2.7,8.25,8.25,0,0,1-2.43,2,7.71,7.71,0,0,1-2.8.86,7,7,0,0,1-2.93-.35,8.76,8.76,0,0,1-2.86-1.69,8.47,8.47,0,0,1-2-2.53,6.85,6.85,0,0,1-.79-2.85,7.46,7.46,0,0,1,.42-2.9A8.14,8.14,0,0,1,512,207.51Z"/><path class="cls-1" d="M525.09,198.23a4.06,4.06,0,0,1-.22-5.93c.43-.43.85-.83,1.26-1.22a25.73,25.73,0,0,1,4-3.1,18.84,18.84,0,0,1,4.27-1.94,25,25,0,0,1,4.85-1c1.35-.17,2.63-.37,3.85-.6a21.51,21.51,0,0,0,3.41-.9,14.6,14.6,0,0,0,3-1.45,11.49,11.49,0,0,0,2.58-2.25q5.49-6.4,1.35-10a4.51,4.51,0,0,0-1.8-.92,5.13,5.13,0,0,0-2.41,0,8.53,8.53,0,0,0-2.78,1.14l0,0a5.59,5.59,0,0,1-6.55-.54l-2.62-2.25a5.44,5.44,0,0,1,.39-8.58,22.2,22.2,0,0,1,2.2-1.33,17.55,17.55,0,0,1,7.42-2.08,17.18,17.18,0,0,1,7.25,1.26,23.91,23.91,0,0,1,6.78,4.18,24.48,24.48,0,0,1,5.45,6.42,16.23,16.23,0,0,1,1.14,14.24,24.68,24.68,0,0,1-4.5,7.33,18.47,18.47,0,0,1-4.58,3.94,24.75,24.75,0,0,1-5.08,2.27,36,36,0,0,1-5.54,1.24c-1.93.28-3.9.53-5.91.83a14.89,14.89,0,0,0-3.11.79,13.94,13.94,0,0,0-2.68,1.33A19.44,19.44,0,0,0,534,201.1l0,0a4.06,4.06,0,0,1-5.38.11Zm-14.24,8.16a8.41,8.41,0,0,1,2.43-2,7.18,7.18,0,0,1,5.72-.49,8.19,8.19,0,0,1,2.83,1.64,8.42,8.42,0,0,1,2.08,2.58,7.26,7.26,0,0,1,.79,2.85,7.38,7.38,0,0,1-.41,2.88,8.14,8.14,0,0,1-1.59,2.7,8.25,8.25,0,0,1-2.43,2,7.71,7.71,0,0,1-2.8.86,6.88,6.88,0,0,1-2.93-.35,8.76,8.76,0,0,1-2.86-1.69,8.47,8.47,0,0,1-2.05-2.53,6.85,6.85,0,0,1-.79-2.85,7.46,7.46,0,0,1,.42-2.9A8.14,8.14,0,0,1,510.85,206.39Z"/><path class="cls-8" d="M371.07,628.61a55.62,55.62,0,0,1,2.29,8.8c.1.48.19,1,.28,1.51.3,1.63.6,3.48.87,5.55.28,1.9,27.73,3.85,30.73,1.78s-.48-3-.48-3c-3.89-.12-12.33-2.59-15.17-4.45C381.59,633.56,381,603,381,603,372,579.38,355.09,556.22,371.07,628.61Z"/><path class="cls-8" d="M248.29,645.89c3,2.11,31.1.12,31.37-1.85s.67-4,.89-5.64c0-.16.05-.3.07-.44,1.1-8.15,2.77-22.86,2.77-22.86s-7.46-8.1-13.1-.28c0,0,.69,20.17-6,23.42-.27.14-.57.27-.94.44-3.6,1.58-10.93,4-14.58,4.12C248.74,642.8,245.24,643.79,248.29,645.89Z"/><path class="cls-2" d="M385.46,619.53s-8.18,6.08-21,1.23c0,0-12.13-54.79-22.44-103-1.21-5.63-19.82-54.91-27.74-76.22-1.8-4.8-3-8.18-3.4-9.34a5.46,5.46,0,0,0-3.36-3.52c-1.89-.64-4.24-.15-5.23,5.27-.16.94-.47,3.47-.85,7.23-3.57,34.91-15.23,177.3-15.23,177.3s-10.73,2-18.44-1.68c0,0-8.38-108.08-9.39-178.64-.1-4.71-.12-9.27-.12-13.6,0-12.91.33-23.53,1-30.51l88.16-3.5S370,502.24,371.89,513.45C375.46,534.73,385.46,619.53,385.46,619.53Z"/><path class="cls-2" d="M373.36,637.41c.1.48.19,1,.28,1.51.3,1.63.6,3.48.87,5.55.28,1.9,27.73,3.85,30.73,1.78s-.48-3-.48-3c-3.89-.12-12.33-2.59-15.17-4.45A33.94,33.94,0,0,1,373.36,637.41Z"/><path class="cls-2" d="M248.29,645.89c3,2.11,31.1.12,31.37-1.85s.67-4,.89-5.64c0-.16.05-.3.07-.44a55.61,55.61,0,0,1-17.3.72c-3.6,1.58-10.93,4-14.58,4.12C248.74,642.8,245.24,643.79,248.29,645.89Z"/><path class="cls-9" d="M357.44,439.57c-13.1,1.73-28.33,2.15-43.16,1.94-1.8-4.8-3-8.18-3.4-9.34a5.46,5.46,0,0,0-3.36-3.52c-1.89-.64-4.24-.15-5.23,5.27-.16.94-.47,3.47-.85,7.23-17.5-.66-33.34-2-43.06-3-.1-4.71-.12-9.27-.12-13.6,0-12.91.33-23.53,1-30.51l87.47-3.47,2.08,6.71C350.63,406,353.89,422,357.44,439.57Z"/><path class="cls-8" d="M326.84,291.55c-5-9.68,131.34-63,64-91.92-21.95-9.43-65-18-65-18s-6.73,7.63-1.42,14.91c0,0,45.53,15.35,53.07,20.75S335.22,242,313.16,246.15C299.5,248.7,328.45,294.68,326.84,291.55Z"/><path class="cls-8" d="M329.91,182.67s-4.13-1.42-9.06-3.73-15.71-7.48-19.7-7.18a9.85,9.85,0,0,0-1.73.83,3.32,3.32,0,0,0-.44.29,10,10,0,0,0-2.67,2.66,2.43,2.43,0,0,0-.19.29,9.59,9.59,0,0,0-1.35,3.24c0,.11,0,.22-.07.33a14.19,14.19,0,0,0-.28,3.32s11.1,5,14,7.91c0,0-7.41-1.25-8.87.6l-.19,1.6s7.82,2.25,11.21,3.57c8.24,3.22,16.58-1,16.58-1S333.63,187.85,329.91,182.67Z"/><path class="cls-10" d="M271.53,210.17a4.86,4.86,0,0,1-.5-1.88,50.15,50.15,0,0,1,.12-12.24,23.05,23.05,0,0,1,1.58-6.88c1.79-3.91,5.59-6.5,9.46-8.39A49.73,49.73,0,0,1,308.54,176a15.39,15.39,0,0,1,6,1.54,6.63,6.63,0,0,1,3.56,4.82,11.26,11.26,0,0,1-.58,3.93c-2.24,8.77.34,17.43-2.69,25.84-.93,2.58-1.1,3-2.61,2.88q-12.06-.73-24.11-1.87a109.5,109.5,0,0,1-14-1.79C272.65,211,271.93,210.83,271.53,210.17Z"/><path class="cls-11" d="M313.05,207.59s3.67-4.39,7.33,0-2.56,12.82-7.33,13.19C313.05,220.78,312.5,209.49,313.05,207.59Z"/><path class="cls-8" d="M248.55,257.14c2.22,5.27,10.45,25.55,13.11,42,1.42,8.78,6.83,38.92,6.83,38.92,31.05,8.52,65.18,0,65.18,0s18.75-78.66,4.33-87.94c-2.47-1.58-6.83-2.61-11.5-3.28a148.18,148.18,0,0,0-18.66-1.21l-.41-4.54c0-.05-1.06-11.21-1.06-11.21-15,3.05-25.72-6.28-25.72-6.28A84.62,84.62,0,0,1,281.71,234c.14,2.29.23,4.53.3,6.48.09,3.39.12,5.85.12,5.85a72,72,0,0,0-12.08,1.23,66.06,66.06,0,0,0-20.81,7.54A1.7,1.7,0,0,0,248.55,257.14Z"/><path class="cls-12" d="M280.65,223.63c4,18.11,22.21,16.86,26.49,14.47l-.77-8.19C291.36,233,280.65,223.63,280.65,223.63Z"/><path class="cls-8" d="M312.21,194.88c2.44,2.53,2.64,8.21,2.84,14.5.62,19-5.08,25-14.79,26s-19.88-2.69-22-20.33c-1-8.81-2.16-17,1-20.77C284.12,188.6,304.74,187.11,312.21,194.88Z"/><path class="cls-8" d="M279.64,212.51s-3-7.88-7.66-3.7,1.79,16.07,9,15.19C281,224,281.93,215.2,279.64,212.51Z"/><path class="cls-13" d="M254.34,255a12.14,12.14,0,0,0-8.5,5.48c-6,9.07-18.67,76.17-18.7,89.65,0,23.89,11.23,66.42,11.23,66.42s9.95,2.14,13.7-6.05c0,0-3.09-52-2.06-61.22s9.92-45.73,14-61.09C267.58,274.77,266.72,253.49,254.34,255Z"/><path class="cls-7" d="M359.33,431c2.29,13.41-107.17-4.71-106.56-10.74,4-39.63,7.45-103.93,7.45-103.93s0-3.34,0-8.8c-.07.5-.11.76-.11.76l-4.66,20.27c-17.81,1-28.33-7.71-28.33-7.71s5.72-25,12.34-48.22c4.68-16.41,13.43-22.09,17.43-23.86a9.42,9.42,0,0,1,1.42-.55L259,248c5.69-1.49,18-2.15,18-2.15s-3.1,16.79,17,18.4c22.68,1.82,21.45-19.35,21.45-19.35s44.36-14.24,51.72-19.11c0,0,11.42,14.62,16,31.41,0,0-27.48,13.76-40.58,30.79-.07,2.53-.17,4.09-.17,4.09S344.88,346.77,359.33,431Z"/><path class="cls-8" d="M237.91,412s.59,4.33.76,9.77.41,17.4,2.47,20.83a9.55,9.55,0,0,0,1.52,1.16,3.3,3.3,0,0,0,.45.26,9.9,9.9,0,0,0,3.58,1.18l.35.05a9.76,9.76,0,0,0,3.5-.26l.32-.09a14.2,14.2,0,0,0,3.1-1.24s-.55-12.17.74-16.07c0,0,2.23,7.18,4.54,7.65l1.51-.55s-1.51-8-1.86-11.62c-.85-8.81-8.33-14.37-8.33-14.37S240.85,406.36,237.91,412Z"/><path class="cls-11" d="M250.54,445l.32-.09c-.68-5.41-.45-10.8-.41-16.32a.1.1,0,0,0-.19,0C249,434,249.47,439.57,250.54,445Z"/><path class="cls-11" d="M246.69,445.21l.35.05c-.68-5.43-.45-10.8-.42-16.32,0-.11-.17-.14-.19,0C245.19,434.31,245.63,439.83,246.69,445.21Z"/><path class="cls-11" d="M242.66,443.77a2.79,2.79,0,0,0,.45.26,132.22,132.22,0,0,1-.33-15.44c0-.11-.16-.14-.18,0C241.3,433.57,241.75,438.74,242.66,443.77Z"/><path class="cls-14" d="M383.22,257.22S355.74,271,342.64,288l-2.58-18.12Z"/></g></g></svg>