<svg width="31" height="30" viewBox="0 0 31 30" fill="none" xmlns="http://www.w3.org/2000/svg">
<path d="M1.88395 16.3369H11.884C12.8006 16.3369 13.5506 15.6057 13.5506 14.7119V1.71191C13.5506 0.818164 12.8006 0.0869141 11.884 0.0869141H1.88395C0.967285 0.0869141 0.217285 0.818164 0.217285 1.71191V14.7119C0.217285 15.6057 0.967285 16.3369 1.88395 16.3369ZM1.88395 29.3369H11.884C12.8006 29.3369 13.5506 28.6057 13.5506 27.7119V21.2119C13.5506 20.3182 12.8006 19.5869 11.884 19.5869H1.88395C0.967285 19.5869 0.217285 20.3182 0.217285 21.2119V27.7119C0.217285 28.6057 0.967285 29.3369 1.88395 29.3369ZM18.5506 29.3369H28.5506C29.4673 29.3369 30.2173 28.6057 30.2173 27.7119V14.7119C30.2173 13.8182 29.4673 13.0869 28.5506 13.0869H18.5506C17.634 13.0869 16.884 13.8182 16.884 14.7119V27.7119C16.884 28.6057 17.634 29.3369 18.5506 29.3369ZM16.884 1.71191V8.21191C16.884 9.10566 17.634 9.83691 18.5506 9.83691H28.5506C29.4673 9.83691 30.2173 9.10566 30.2173 8.21191V1.71191C30.2173 0.818164 29.4673 0.0869141 28.5506 0.0869141H18.5506C17.634 0.0869141 16.884 0.818164 16.884 1.71191Z" fill="#ddacf5"/>
</svg>
