<svg width="23" height="23" viewBox="0 0 23 23" fill="none" xmlns="http://www.w3.org/2000/svg">
<path d="M3.83333 12.4583C4.8875 12.4583 5.75 11.5958 5.75 10.5417C5.75 9.4875 4.8875 8.625 3.83333 8.625C2.77917 8.625 1.91667 9.4875 1.91667 10.5417C1.91667 11.5958 2.77917 12.4583 3.83333 12.4583ZM4.91625 13.5125C4.56167 13.455 4.20708 13.4167 3.83333 13.4167C2.88458 13.4167 1.98375 13.6179 1.16917 13.9725C0.46 14.2792 0 14.9692 0 15.7454V17.25H4.3125V15.7071C4.3125 14.9117 4.53292 14.1642 4.91625 13.5125ZM19.1667 12.4583C20.2208 12.4583 21.0833 11.5958 21.0833 10.5417C21.0833 9.4875 20.2208 8.625 19.1667 8.625C18.1125 8.625 17.25 9.4875 17.25 10.5417C17.25 11.5958 18.1125 12.4583 19.1667 12.4583ZM23 15.7454C23 14.9692 22.54 14.2792 21.8308 13.9725C21.0163 13.6179 20.1154 13.4167 19.1667 13.4167C18.7929 13.4167 18.4383 13.455 18.0837 13.5125C18.4671 14.1642 18.6875 14.9117 18.6875 15.7071V17.25H23V15.7454ZM15.5633 13.0812C14.4421 12.5829 13.0621 12.2188 11.5 12.2188C9.93792 12.2188 8.55792 12.5925 7.43667 13.0812C6.40167 13.5412 5.75 14.5762 5.75 15.7071V17.25H17.25V15.7071C17.25 14.5762 16.5983 13.5412 15.5633 13.0812ZM7.73375 15.3333C7.82 15.1129 7.85833 14.9596 8.60583 14.6721C9.53542 14.3079 10.5129 14.1354 11.5 14.1354C12.4871 14.1354 13.4646 14.3079 14.3942 14.6721C15.1321 14.9596 15.1704 15.1129 15.2662 15.3333H7.73375ZM11.5 7.66667C12.0271 7.66667 12.4583 8.09792 12.4583 8.625C12.4583 9.15208 12.0271 9.58333 11.5 9.58333C10.9729 9.58333 10.5417 9.15208 10.5417 8.625C10.5417 8.09792 10.9729 7.66667 11.5 7.66667ZM11.5 5.75C9.90917 5.75 8.625 7.03417 8.625 8.625C8.625 10.2158 9.90917 11.5 11.5 11.5C13.0908 11.5 14.375 10.2158 14.375 8.625C14.375 7.03417 13.0908 5.75 11.5 5.75Z" fill="#ddacf5"/>
</svg>
