<svg xmlns="http://www.w3.org/2000/svg" width="15" height="17" viewBox="0 0 15 17" fill="none">
<path d="M3.54167 7.70834H5.125V9.29167H3.54167V7.70834ZM14.625 3.75V14.8333C14.625 15.7042 13.9125 16.4167 13.0417 16.4167H1.95833C1.07958 16.4167 0.375 15.7042 0.375 14.8333L0.382917 3.75C0.382917 2.87917 1.07958 2.16667 1.95833 2.16667H2.75V0.583336H4.33333V2.16667H10.6667V0.583336H12.25V2.16667H13.0417C13.9125 2.16667 14.625 2.87917 14.625 3.75ZM1.95833 5.33334H13.0417V3.75H1.95833V5.33334ZM13.0417 14.8333V6.91667H1.95833V14.8333H13.0417ZM9.875 9.29167H11.4583V7.70834H9.875V9.29167ZM6.70833 9.29167H8.29167V7.70834H6.70833V9.29167Z" fill="#909599"/>
</svg>