<svg width="36" height="36" viewBox="0 0 36 36" fill="none" xmlns="http://www.w3.org/2000/svg">
<path d="M6 15.75C4.755 15.75 3.75 16.755 3.75 18C3.75 19.245 4.755 20.25 6 20.25C7.245 20.25 8.25 19.245 8.25 18C8.25 16.755 7.245 15.75 6 15.75ZM6 6.75C4.755 6.75 3.75 7.755 3.75 9C3.75 10.245 4.755 11.25 6 11.25C7.245 11.25 8.25 10.245 8.25 9C8.25 7.755 7.245 6.75 6 6.75ZM6 24.75C4.755 24.75 3.75 25.77 3.75 27C3.75 28.23 4.77 29.25 6 29.25C7.23 29.25 8.25 28.23 8.25 27C8.25 25.77 7.245 24.75 6 24.75ZM12 28.5H30C30.825 28.5 31.5 27.825 31.5 27C31.5 26.175 30.825 25.5 30 25.5H12C11.175 25.5 10.5 26.175 10.5 27C10.5 27.825 11.175 28.5 12 28.5ZM12 19.5H30C30.825 19.5 31.5 18.825 31.5 18C31.5 17.175 30.825 16.5 30 16.5H12C11.175 16.5 10.5 17.175 10.5 18C10.5 18.825 11.175 19.5 12 19.5ZM10.5 9C10.5 9.825 11.175 10.5 12 10.5H30C30.825 10.5 31.5 9.825 31.5 9C31.5 8.175 30.825 7.5 30 7.5H12C11.175 7.5 10.5 8.175 10.5 9Z" fill="#ddacf5"/>
</svg>
