<svg width="29" height="29" viewBox="0 0 29 29" fill="none" xmlns="http://www.w3.org/2000/svg">
<g clip-path="url(#clip0)">
<path d="M21.4478 8.45842L16.9166 3.92717L5.0145 15.8293C4.89367 15.9501 4.83325 16.0951 4.83325 16.2643V19.9376C4.83325 20.2759 5.09909 20.5418 5.43742 20.5418H9.11075C9.26784 20.5418 9.42492 20.4813 9.53367 20.3605L21.4478 8.45842ZM25.0245 4.88176C25.4957 4.41051 25.4957 3.64926 25.0245 3.17801L22.197 0.350508C21.7258 -0.120742 20.9645 -0.120742 20.4932 0.350508L18.1249 2.71884L22.6562 7.25009L25.0245 4.88176Z" fill="#ddacf5"/>
<path d="M2.41667 24.1666H26.5833C27.9125 24.1666 29 25.2541 29 26.5833C29 27.9125 27.9125 29 26.5833 29H2.41667C1.0875 29 0 27.9125 0 26.5833C0 25.2541 1.0875 24.1666 2.41667 24.1666Z" fill="#ddacf5"/>
</g>
<defs>
<clipPath id="clip0">
<rect width="29" height="29" fill="white"/>
</clipPath>
</defs>
</svg>
