<svg xmlns="http://www.w3.org/2000/svg" width="24" height="28" viewBox="0 0 24 28" fill="none">
<path d="M16.9587 14.5C13.3937 14.5 10.5003 17.3933 10.5003 20.9583C10.5003 24.5233 13.3937 27.4167 16.9587 27.4167C20.5237 27.4167 23.417 24.5233 23.417 20.9583C23.417 17.3933 20.5237 14.5 16.9587 14.5ZM19.0899 23.9938L16.3128 21.2167V17.0833H17.6045V20.6871L19.9941 23.0767L19.0899 23.9938ZM18.2503 2.875H14.1428C13.6003 1.37667 12.1795 0.291667 10.5003 0.291667C8.82116 0.291667 7.40033 1.37667 6.85783 2.875H2.75033C1.32949 2.875 0.166992 4.0375 0.166992 5.45833V24.8333C0.166992 26.2542 1.32949 27.4167 2.75033 27.4167H10.6424C9.88032 26.6804 9.26032 25.8021 8.80824 24.8333H2.75033V5.45833H5.33366V9.33333H15.667V5.45833H18.2503V12.02C19.1674 12.1492 20.0328 12.4204 20.8337 12.795V5.45833C20.8337 4.0375 19.6712 2.875 18.2503 2.875ZM10.5003 5.45833C9.78991 5.45833 9.20866 4.87708 9.20866 4.16667C9.20866 3.45625 9.78991 2.875 10.5003 2.875C11.2107 2.875 11.792 3.45625 11.792 4.16667C11.792 4.87708 11.2107 5.45833 10.5003 5.45833Z" fill="#FDB05E"/>
</svg>