<svg width="21" height="23" viewBox="0 0 21 23" fill="none" xmlns="http://www.w3.org/2000/svg">
<path d="M5.77528 3.78838C5.63426 3.78845 5.49584 3.82689 5.37449 3.89968C5.25314 3.97246 5.15331 4.07692 5.08543 4.20214L2.19793 9.5205C2.12184 9.66078 2.08915 9.821 2.10413 9.98035C2.11911 10.1397 2.18107 10.2908 2.28193 10.414L9.89444 19.7211C9.96833 19.8115 10.061 19.8842 10.1658 19.9341C10.2706 19.984 10.385 20.0099 10.5008 20.0099C10.6166 20.0099 10.731 19.984 10.8358 19.9341C10.9406 19.8842 11.0333 19.8115 11.1072 19.7211L18.7197 10.414C18.8206 10.2908 18.8825 10.1397 18.8975 9.98035C18.9125 9.821 18.8798 9.66078 18.8037 9.5205L15.9162 4.20214C15.8482 4.07676 15.7482 3.9722 15.6267 3.89941C15.5051 3.82661 15.3665 3.78826 15.2253 3.78838H5.77528ZM4.36408 8.84082L6.24043 5.38388H7.81543L6.62053 8.84082H4.36408ZM6.45148 10.4363L8.47693 15.4866L4.34518 10.4363H6.45148ZM10.4887 16.2663L8.15143 10.4363H12.7567L10.4887 16.2663ZM8.29003 8.84082L9.48388 5.38388H11.5261L12.783 8.84082H8.28898H8.29003ZM14.4619 8.84082L13.2051 5.38388H14.7591L16.6365 8.84082H14.4619ZM14.4493 10.4363H16.6543L12.4491 15.5781L14.4493 10.4363Z" fill="#DDACF5"/>
</svg>
