<svg xmlns="http://www.w3.org/2000/svg" width="25" height="25" viewBox="0 0 25 25" fill="none">
<path d="M21.5417 3.45833V21.5417H3.45833V3.45833H21.5417ZM21.5417 0.875H3.45833C2.02458 0.875 0.875 2.0375 0.875 3.45833V21.5417C0.875 22.9625 2.02458 24.125 3.45833 24.125H21.5417C22.9625 24.125 24.125 22.9625 24.125 21.5417V3.45833C24.125 2.0375 22.9625 0.875 21.5417 0.875ZM12.5 12.5C10.3687 12.5 8.625 10.7562 8.625 8.625C8.625 6.49375 10.3687 4.75 12.5 4.75C14.6312 4.75 16.375 6.49375 16.375 8.625C16.375 10.7562 14.6312 12.5 12.5 12.5ZM12.5 7.33333C11.7896 7.33333 11.2083 7.91458 11.2083 8.625C11.2083 9.33542 11.7896 9.91667 12.5 9.91667C13.2104 9.91667 13.7917 9.33542 13.7917 8.625C13.7917 7.91458 13.2104 7.33333 12.5 7.33333ZM20.25 20.25H4.75V18.2737C4.75 15.0446 9.87792 13.6496 12.5 13.6496C15.1221 13.6496 20.25 15.0446 20.25 18.2737V20.25ZM7.73375 17.6667H17.2662C16.375 16.9433 14.1921 16.22 12.5 16.22C10.8079 16.22 8.61208 16.9433 7.73375 17.6667Z" fill="#002E6E"/>
</svg>