<svg xmlns="http://www.w3.org/2000/svg" width="31" height="31" viewBox="0 0 31 31" fill="none">
<path d="M18.0837 2.58333H7.75033C6.32949 2.58333 5.17991 3.74583 5.17991 5.16667L5.16699 25.8333C5.16699 27.2542 6.31657 28.4167 7.73741 28.4167H23.2503C24.6712 28.4167 25.8337 27.2542 25.8337 25.8333V10.3333L18.0837 2.58333ZM23.2503 25.8333H7.75033V5.16667H16.792V11.625H23.2503V25.8333Z" fill="#002E6E"/>
<path d="M12.9295 15.2375L15.5837 12.5833V14.3742C17.882 14.66 19.667 16.62 19.667 19C19.667 21.38 17.8878 23.34 15.5837 23.6258V22.4475C17.2403 22.1675 18.5003 20.7325 18.5003 19C18.5003 17.2675 17.2403 15.8325 15.5837 15.5525V17.8333L12.9295 15.2375ZM10.3745 18.4167C10.4737 17.6058 10.7945 16.8242 11.3195 16.1475L12.1478 16.9758C11.8328 17.4133 11.6345 17.9092 11.5528 18.4167H10.3745ZM14.417 22.4417V23.62C13.6062 23.5208 12.8187 23.2058 12.142 22.6808L12.982 21.8408C13.4195 22.1558 13.9095 22.36 14.417 22.4417ZM12.1478 21.03L11.3195 21.8525C10.7945 21.1758 10.4737 20.3942 10.3745 19.5833H11.5528C11.6345 20.0908 11.8328 20.5867 12.1478 21.03Z" fill="#002E6E"/>
</svg>