<svg width="41" height="37" viewBox="0 0 41 37" fill="none" xmlns="http://www.w3.org/2000/svg">
<path d="M22.1667 27.75H6.33333C5.4625 27.75 4.75 27.0562 4.75 26.2083C4.75 25.3604 5.4625 24.6667 6.33333 24.6667H22.1667C23.0375 24.6667 23.75 25.3604 23.75 26.2083C23.75 27.0562 23.0375 27.75 22.1667 27.75ZM33.25 10.7917C33.25 11.6396 32.5375 12.3333 31.6667 12.3333H6.33333C5.4625 12.3333 4.75 11.6396 4.75 10.7917C4.75 9.94375 5.4625 9.25 6.33333 9.25H31.6667C32.5375 9.25 33.25 9.94375 33.25 10.7917ZM22.1667 20.0417H6.33333C5.4625 20.0417 4.75 19.3479 4.75 18.5C4.75 17.6521 5.4625 16.9583 6.33333 16.9583H22.1667C23.0375 16.9583 23.75 17.6521 23.75 18.5C23.75 19.3479 23.0375 20.0417 22.1667 20.0417Z" fill="#ddacf5"/>
<path d="M38.8467 22.8447C38.8467 22.6738 38.8388 22.5104 38.8231 22.3396L40.2825 21.2922C40.5963 21.0694 40.6826 20.6534 40.4865 20.3266L39.0193 17.9273C38.8231 17.6005 38.3995 17.4668 38.0386 17.6153L36.3517 18.2913C36.0614 18.0981 35.7554 17.9273 35.4337 17.7862L35.2062 16.0703C35.1591 15.6989 34.8218 15.4166 34.4295 15.4166H31.5029C31.1028 15.4166 30.7654 15.6989 30.7184 16.0703L30.4908 17.7862C30.1691 17.9273 29.8632 18.0981 29.5729 18.2913L27.886 17.6153C27.5251 17.4668 27.1014 17.6005 26.9053 17.9273L25.4381 20.334C25.2419 20.6608 25.3282 21.0694 25.6421 21.2996L27.1014 22.347C27.0857 22.5104 27.0779 22.6738 27.0779 22.8447C27.0779 23.0155 27.0857 23.1789 27.1014 23.3498L25.6421 24.3971C25.3282 24.62 25.2419 25.0359 25.4381 25.3628L26.9053 27.762C27.1014 28.0888 27.5251 28.2226 27.886 28.074L29.5729 27.398C29.8632 27.5912 30.1691 27.762 30.4908 27.9031L30.7184 29.619C30.7654 29.9904 31.1028 30.2727 31.4951 30.2727H34.4216C34.8139 30.2727 35.1513 29.9904 35.1984 29.619L35.4259 27.9031C35.7476 27.762 36.0536 27.5912 36.3439 27.398L38.0307 28.074C38.3916 28.2226 38.8153 28.0888 39.0114 27.762L40.4786 25.3628C40.6748 25.0359 40.5885 24.6274 40.2746 24.3971L38.8153 23.3498C38.8388 23.1789 38.8467 23.0155 38.8467 22.8447ZM32.9937 25.4445C31.4794 25.4445 30.2476 24.2783 30.2476 22.8447C30.2476 21.411 31.4794 20.2448 32.9937 20.2448C34.5079 20.2448 35.7397 21.411 35.7397 22.8447C35.7397 24.2783 34.5079 25.4445 32.9937 25.4445Z" fill="#ddacf5"/>
</svg>
