<svg width="36" height="36" viewBox="0 0 36 36" fill="none" xmlns="http://www.w3.org/2000/svg">
<path d="M31.5 18.33C31.5 10.095 25.11 4.5 18 4.5C10.965 4.5 4.5 9.975 4.5 18.42C3.6 18.93 3 19.89 3 21V24C3 25.65 4.35 27 6 27C6.825 27 7.5 26.325 7.5 25.5V18.285C7.5 12.54 11.925 7.515 17.67 7.35C23.61 7.17 28.5 11.94 28.5 17.85V28.5H18C17.175 28.5 16.5 29.175 16.5 30C16.5 30.825 17.175 31.5 18 31.5H28.5C30.15 31.5 31.5 30.15 31.5 28.5V26.67C32.385 26.205 33 25.29 33 24.21V20.76C33 19.71 32.385 18.795 31.5 18.33Z" fill="#ddacf5"/>
</svg>
