<svg xmlns="http://www.w3.org/2000/svg" width="291" height="195" viewBox="0 0 291 195" fill="none">
<g opacity="0.15">
<path d="M57.0183 156.628L47.2046 179.974L81.8453 194.535L91.6589 171.189L57.0183 156.628Z" fill="#F5F5F5"/>
<path d="M91.6505 171.552C91.5063 171.627 91.3545 171.686 91.1976 171.729L89.8818 172.164L84.9858 173.724L68.8229 178.755L68.6883 178.798L68.6209 178.675C68.572 178.577 68.5169 178.48 68.4557 178.375L60.2916 163.29L57.8436 158.694L57.1949 157.439C57.1139 157.296 57.0443 157.146 56.9868 156.992C57.0917 157.121 57.182 157.26 57.2561 157.408L57.9599 158.632C58.5719 159.734 59.4409 161.276 60.4936 163.173L68.7495 178.21C68.8045 178.314 68.8596 178.418 68.9147 178.51L68.7127 178.431L84.9063 173.498L89.8023 172.041L91.1426 171.662C91.3072 171.606 91.4776 171.569 91.6505 171.552Z" fill="#E0E0E0"/>
<path d="M47.201 180.309C47.1582 180.224 51.1056 178.118 56.0199 175.603C60.9343 173.088 64.9857 171.123 64.9857 171.209C64.9857 171.295 61.0812 173.394 56.1668 175.909C51.2525 178.424 47.2377 180.389 47.201 180.309Z" fill="#E0E0E0"/>
<path d="M76.6138 175.756C76.6995 175.756 77.9419 179.991 79.374 185.267C80.806 190.542 81.9015 194.844 81.822 194.869C81.7424 194.893 80.4878 190.634 79.0557 185.358C77.6236 180.083 76.5465 175.781 76.6138 175.756Z" fill="#E0E0E0"/>
<path d="M41.084 80L0.000488281 96.2827L15.7555 136.035L56.839 119.752L41.084 80Z" fill="#F5F5F5"/>
<path d="M17.5806 131.368L20.8425 106.41L35.3224 115.798L38.2172 106.618L52.2993 117.616L17.5806 131.368Z" fill="#E0E0E0"/>
<path d="M32.55 97.1814C32.7817 97.7666 32.8347 98.4073 32.7022 99.0226C32.5698 99.6379 32.2579 100.2 31.806 100.638C31.354 101.076 30.7823 101.37 30.1632 101.484C29.544 101.597 28.9052 101.524 28.3276 101.274C27.7499 101.024 27.2593 100.608 26.9178 100.08C26.5763 99.5509 26.3993 98.9329 26.4091 98.3035C26.4189 97.6742 26.615 97.0619 26.9728 96.5441C27.3305 96.0263 27.8338 95.6262 28.419 95.3943C28.8075 95.2396 29.2227 95.163 29.6408 95.1691C30.059 95.1752 30.4718 95.2638 30.8556 95.4299C31.2394 95.5959 31.5867 95.8361 31.8775 96.1367C32.1682 96.4372 32.3968 96.7923 32.55 97.1814Z" fill="#E0E0E0"/>
<g opacity="0.3">
<path opacity="0.3" d="M52.3419 117.726C52.3131 117.675 52.2885 117.622 52.2685 117.567C52.2195 117.445 52.1522 117.298 52.0726 117.108L51.3444 115.321C50.7324 113.754 49.796 111.478 48.6271 108.589C46.3076 102.793 42.9967 94.5131 39.0309 84.6231L39.2635 84.7272L4.56307 98.5094C4.53247 98.5706 4.78339 97.9953 4.67935 98.2401V98.2707V98.3075V98.3748L4.73443 98.5155L4.84459 98.8032L5.07103 99.3662L5.51779 100.498C5.81767 101.245 6.12979 101.998 6.40519 102.738L8.16163 107.169L11.5521 115.737L17.7394 131.417L17.5069 131.319L42.6356 121.459L49.7348 118.693L51.6198 117.971L52.1094 117.787C52.1668 117.764 52.2262 117.746 52.2868 117.732L52.1399 117.8L51.6748 117.995L49.8388 118.748L42.8131 121.582L17.6966 131.649L17.5252 131.723L17.4579 131.551C15.5301 126.71 13.4371 121.447 11.2278 115.884C10.1221 113.102 8.98783 110.246 7.82503 107.316C7.24975 105.853 6.66223 104.378 6.07471 102.891C5.77483 102.145 5.46271 101.398 5.18119 100.645L4.73443 99.5131L4.50799 98.95L4.39783 98.6685L4.34275 98.5217V98.4543V98.4176C4.23871 98.6563 4.48351 98.0749 4.46515 98.1361L39.1839 84.4089L39.3553 84.3416L39.4226 84.5069L48.8902 108.65L51.5035 115.382L52.1828 117.145C52.2501 117.335 52.3052 117.481 52.348 117.592C52.3504 117.637 52.3483 117.682 52.3419 117.726Z" fill="#E0E0E0"/>
</g>
<path d="M214.383 144.652L212.161 143.049C210.899 142.135 210.01 140.797 209.658 139.279L208.091 132.547C207.589 130.432 206.348 128.566 204.592 127.285C202.836 126.004 200.681 125.391 198.513 125.558L197.901 122.951C197.865 122.793 197.799 122.645 197.705 122.513C197.611 122.382 197.492 122.27 197.355 122.185C197.218 122.1 197.065 122.042 196.906 122.016C196.747 121.99 196.584 121.996 196.426 122.033C196.269 122.069 196.12 122.136 195.989 122.23C195.857 122.323 195.746 122.442 195.66 122.579C195.575 122.716 195.518 122.869 195.492 123.028C195.466 123.188 195.471 123.351 195.508 123.508L196.12 126.066C194.017 126.822 192.265 128.325 191.197 130.288C190.128 132.251 189.818 134.538 190.325 136.715L191.824 143.177C192.155 144.586 192.002 146.065 191.39 147.376L190 150.356L199.04 148.202C199.388 148.726 199.86 149.156 200.413 149.455C200.967 149.754 201.585 149.912 202.214 149.916C202.843 149.921 203.463 149.77 204.021 149.479C204.578 149.188 205.055 148.764 205.411 148.245C205.743 147.746 205.953 147.176 206.023 146.58L214.383 144.652Z" fill="#EBEBEB"/>
<path d="M246.449 63.5533L285.604 89.1349L269.105 116.351L229 89.19L246.449 63.5533Z" fill="#F5F5F5"/>
<path d="M246.448 63.5533L274.796 60.8728C275.377 60.8173 275.96 60.9642 276.447 61.2886C276.933 61.613 277.292 62.0952 277.464 62.6537L285.604 89.1349" fill="#5243AC"/>
<path d="M246.448 63.5533L274.796 60.8728C275.377 60.8173 275.96 60.9642 276.447 61.2886C276.933 61.613 277.292 62.0952 277.464 62.6537L285.604 89.1349" fill="#E0E0E0"/>
<path d="M229 89.2022C229 89.1227 234.362 87.7885 241.02 86.2218C247.679 84.6551 253.113 83.4311 253.113 83.5106C253.113 83.5902 247.752 84.9182 241.1 86.4911C234.447 88.0639 229.019 89.2695 229 89.2022Z" fill="#E0E0E0"/>
<path d="M269.105 116.351C269.025 116.351 268.199 111.008 267.269 104.392C266.339 97.7764 265.641 92.403 265.721 92.3969C265.8 92.3908 266.62 97.7335 267.557 104.355C268.493 110.977 269.184 116.338 269.105 116.351Z" fill="#E0E0E0"/>
<path d="M246.448 63.5533L255.658 91.7788L285.604 89.1349L246.448 63.5533Z" fill="#E0E0E0"/>
<path d="M247.452 66.3012L255.469 54.0918L289.857 76.338L281.742 89.3981L255.793 91.5707L247.452 66.3012Z" fill="#FAFAFA"/>
<path d="M247.452 66.3012C247.452 66.3012 247.513 66.4603 247.617 66.7602L248.082 68.0944C248.48 69.2816 249.055 70.9952 249.796 73.1862C251.264 77.5865 253.37 83.8901 255.916 91.5462L255.781 91.4544L281.73 89.2512L281.607 89.3246L286.43 81.5584C287.544 79.7713 288.641 78.0067 289.723 76.2646L289.771 76.4849L255.414 54.1897H255.555L249.618 63.1372C248.927 64.1714 248.394 64.9732 248.021 65.524L247.599 66.136C247.507 66.2767 247.452 66.344 247.452 66.344C247.452 66.344 247.488 66.2706 247.574 66.1298C247.66 65.9891 247.794 65.7749 247.966 65.5178L249.508 63.1127L255.383 54.0857L255.438 54L255.524 54.0551L289.943 76.2523L290.071 76.338L289.992 76.4726L286.699 81.7664L281.877 89.4838L281.834 89.5511H281.754L255.805 91.6992H255.701L255.671 91.6013L249.649 73.174C248.939 70.983 248.382 69.2633 248.002 68.076L247.58 66.7418C247.488 66.4542 247.452 66.3012 247.452 66.3012Z" fill="#E0E0E0"/>
<path d="M280.396 78.8839C280.347 78.9573 275.072 75.5852 268.609 71.3502C262.146 67.1151 256.944 63.6267 256.981 63.5533C257.018 63.4799 262.306 66.852 268.768 71.087C275.231 75.3221 280.445 78.7982 280.396 78.8839Z" fill="#E0E0E0"/>
<path d="M278.113 82.3233C278.064 82.3968 272.789 79.0247 266.326 74.7896C259.863 70.5546 254.661 67.0662 254.698 66.9928C254.735 66.9193 260.022 70.2914 266.491 74.5265C272.96 78.7615 278.162 82.2499 278.113 82.3233Z" fill="#E0E0E0"/>
<path d="M275.481 86.283C275.438 86.3564 270.157 82.9843 263.694 78.7554C257.231 74.5265 252.029 71.0258 252.066 70.9524C252.103 70.8789 257.397 74.2511 263.859 78.4861C270.322 82.7211 275.53 86.2095 275.481 86.283Z" fill="#E0E0E0"/>
<path d="M272.856 90.2488C272.807 90.3222 267.77 87.1092 261.602 83.07C255.433 79.0308 250.475 75.726 250.524 75.6219C250.573 75.5179 255.61 78.7615 261.779 82.8007C267.948 86.8399 272.905 90.1753 272.856 90.2488Z" fill="#E0E0E0"/>
<path d="M266.179 90.8302C265.98 90.7528 265.791 90.6521 265.616 90.5303L264.129 89.6306L259.313 86.5706C257.434 85.3466 255.751 84.2512 254.539 83.4311C253.927 83.021 253.45 82.6783 253.119 82.4396C252.937 82.3291 252.771 82.1954 252.624 82.0418C252.824 82.1135 253.013 82.2123 253.187 82.3356L254.662 83.2414L259.484 86.3014C261.363 87.5254 263.046 88.6147 264.252 89.4409C264.864 89.851 265.341 90.1876 265.671 90.4324C265.857 90.542 266.028 90.6757 266.179 90.8302Z" fill="#E0E0E0"/>
<path d="M259.57 91.2586C258.661 90.8455 257.8 90.3367 256.999 89.7408C256.137 89.2335 255.333 88.6344 254.6 87.9538C255.508 88.3669 256.37 88.8757 257.17 89.4715C258.032 89.9788 258.837 90.578 259.57 91.2586Z" fill="#E0E0E0"/>
<path d="M191.553 72.9322L185.537 81.8918L183.193 80.9249L165.745 91.9409L162.342 82.7058C162.342 82.7058 172.22 79.7866 174.362 76.6409C176.504 73.4952 174.582 72.4976 174.582 72.4976L179.607 68.0056L191.553 72.9322Z" fill="#EBEBEB"/>
<path d="M187.55 52.6811C187.55 52.6811 180.61 50.2331 171.736 39.4068C162.862 28.5805 159.679 15.1838 158.443 15.0859C157.207 14.988 152.146 11.8729 139.294 32.8339C126.442 53.7949 129.838 59.4253 131.876 59.6273C133.914 59.8292 148.143 57.6383 156.631 59.6273C165.12 61.6163 175.646 67.4425 175.646 67.4425L187.55 52.6811Z" fill="#EBEBEB"/>
<path d="M201.215 67.4303L198.229 71.7632L196.895 73.7033C196.011 74.9867 194.668 75.8819 193.143 76.2041C191.618 76.5264 190.028 76.2512 188.7 75.4352L174.061 68.2809L185.389 49.0335L199.716 58.9969C201.029 59.9199 201.923 61.3246 202.204 62.9045C202.485 64.4845 202.13 66.1114 201.215 67.4303Z" fill="#E0E0E0"/>
<path d="M140.071 33.348C133.204 44.7128 129.667 55.1474 132.157 56.6591C134.648 58.1707 142.249 50.178 149.11 38.8132C155.97 27.4483 159.514 17.0076 157.023 15.5021C154.532 13.9966 146.931 21.9832 140.071 33.348Z" fill="#E0E0E0"/>
<path d="M197.929 67.8464C197.856 67.9688 195.885 66.9223 193.529 65.4963C191.173 64.0704 189.331 62.8158 189.404 62.6934C189.477 62.571 191.454 63.6175 193.804 65.0373C196.154 66.4572 198.009 67.7179 197.929 67.8464Z" fill="#EBEBEB"/>
<path d="M199.552 65.0924C199.472 65.221 197.716 64.205 195.586 62.8342C193.456 61.4633 191.828 60.2515 191.914 60.123C192 59.9945 193.75 61.0104 195.88 62.3874C198.009 63.7644 199.631 64.97 199.552 65.0924Z" fill="#EBEBEB"/>
<path d="M195.959 70.6984C195.929 70.7657 195.451 70.5943 194.699 70.2577C194.319 70.0864 193.872 69.8783 193.377 69.6457C192.881 69.4132 192.391 69.0704 191.859 68.74C189.717 67.418 188.107 66.1818 188.187 66.0655C188.266 65.9492 190.023 66.9774 192.14 68.2871C192.673 68.6053 193.162 68.9542 193.628 69.2173C194.093 69.4805 194.521 69.713 194.852 69.9211C195.568 70.3373 195.99 70.631 195.959 70.6984Z" fill="#EBEBEB"/>
<path d="M151.454 32.0016C151.454 32.0016 145.714 27.4177 141.326 35.3798C136.938 43.3419 143.284 45.5023 143.284 45.5023C146.628 41.4079 149.378 36.8631 151.454 32.0016Z" fill="#FAFAFA"/>
<path d="M159.232 22.8155C159.136 23.35 158.991 23.8745 158.798 24.3822C158.48 25.3797 158.027 26.8302 157.415 28.6111C157.041 29.474 156.638 30.4471 156.191 31.4385L155.511 33.0114C155.395 33.2807 155.279 33.5561 155.156 33.8315C155.034 34.1069 154.875 34.3761 154.734 34.6515C154.147 35.7491 153.535 36.8976 152.898 38.0971C152.739 38.3909 152.58 38.6907 152.421 38.9967C152.262 39.3027 152.054 39.6087 151.87 39.878L150.756 41.6712L149.6 43.4582C149.41 43.7459 149.238 44.0702 149.024 44.3211L148.412 45.1351L146.038 48.2318C145.842 48.4766 145.664 48.7275 145.469 48.9601L144.857 49.6211L143.7 50.894L141.631 53.1707C140.273 54.462 139.14 55.4779 138.369 56.1817C137.982 56.5659 137.562 56.916 137.115 57.2282C137.45 56.7908 137.821 56.3814 138.222 56.0042L141.368 52.8708L143.376 50.5697L144.495 49.2906C144.691 49.0764 144.887 48.8499 145.107 48.6235C145.328 48.3971 145.475 48.1461 145.664 47.9013L147.996 44.8046L148.608 43.9907C148.816 43.7214 148.981 43.4215 149.177 43.1339L150.316 41.3529L151.46 39.5781C151.637 39.2844 151.846 39.009 152.005 38.703L152.488 37.8095C153.1 36.6283 153.743 35.49 154.324 34.4067C154.465 34.1313 154.624 33.8682 154.753 33.5989C154.881 33.3296 154.997 33.0542 155.114 32.7849L155.811 31.2305L157.072 28.4459L158.614 24.2965C158.781 23.7874 158.988 23.2922 159.232 22.8155Z" fill="#E0E0E0"/>
<path d="M126.068 39.3089C126.068 39.4007 121.57 39.2477 116.025 38.9784C110.48 38.7091 105.994 38.4154 106 38.3297C106.007 38.244 110.499 38.3909 116.043 38.6602C121.588 38.9294 126.074 39.2232 126.068 39.3089Z" fill="#EBEBEB"/>
<path d="M130.444 26.1937C130.407 26.2733 125.193 23.7457 118.816 20.5021C112.439 17.2585 107.262 14.6024 107.304 14.529C107.347 14.4556 112.555 16.977 118.932 20.2145C125.31 23.452 130.487 26.1019 130.444 26.1937Z" fill="#EBEBEB"/>
<path d="M138.303 17.742C138.217 17.742 137.079 13.813 135.781 8.91695C134.484 4.02095 133.486 0.0245929 133.572 0.0001129C133.658 -0.0243671 134.796 3.93527 136.093 8.83127C137.391 13.7273 138.388 17.7175 138.303 17.742Z" fill="#EBEBEB"/>
<path d="M262.882 157.165C262.847 156.086 262.726 155.012 262.521 153.952C262.256 152.715 261.806 151.524 261.187 150.42C259.726 147.768 257.387 145.706 254.572 144.589C251.757 143.473 248.641 143.37 245.759 144.3C244.562 144.672 243.431 145.228 242.405 145.947C241.875 146.313 241.368 146.711 240.887 147.14C240.413 147.596 239.97 148.083 239.559 148.597C237.833 150.753 236.842 153.405 236.732 156.164C236.622 158.924 237.398 161.647 238.947 163.933C239.319 164.479 239.728 164.998 240.171 165.488C240.618 165.957 241.094 166.396 241.597 166.804C242.566 167.595 243.649 168.234 244.81 168.701C246.964 169.581 249.313 169.87 251.616 169.539C253.622 169.255 255.532 168.5 257.191 167.336C258.567 166.383 259.748 165.174 260.667 163.774C261.372 162.724 261.912 161.572 262.27 160.359C262.558 159.318 262.762 158.256 262.882 157.183C262.882 157.183 262.882 157.256 262.882 157.397C262.882 157.538 262.882 157.771 262.846 158.009C262.831 158.351 262.79 158.69 262.723 159.025C262.654 159.487 262.552 159.943 262.417 160.39C262.077 161.628 261.549 162.807 260.851 163.884C259.83 165.473 258.484 166.827 256.902 167.856C255.319 168.886 253.536 169.568 251.671 169.858C249.306 170.209 246.891 169.921 244.675 169.025C243.478 168.55 242.36 167.896 241.358 167.085C240.843 166.666 240.352 166.216 239.89 165.739C239.448 165.233 239.04 164.699 238.666 164.141C237.061 161.789 236.254 158.983 236.364 156.137C236.474 153.291 237.495 150.555 239.278 148.334C239.701 147.804 240.159 147.303 240.648 146.834C241.146 146.393 241.671 145.984 242.221 145.61C243.279 144.873 244.446 144.305 245.679 143.927C247.955 143.204 250.384 143.106 252.711 143.646C254.552 144.075 256.28 144.891 257.78 146.041C259.281 147.19 260.519 148.645 261.414 150.31C262.028 151.438 262.463 152.654 262.705 153.915C262.804 154.371 262.87 154.833 262.901 155.298C262.946 155.637 262.961 155.979 262.944 156.32C262.944 156.577 262.944 156.785 262.944 156.932C262.944 157.079 262.895 157.165 262.882 157.165Z" fill="#E0E0E0"/>
<path d="M249.651 170.298C247.902 170.31 246.169 169.973 244.553 169.307C243.328 168.823 242.184 168.155 241.162 167.324C240.729 166.986 240.32 166.618 239.938 166.222L239.669 165.959L239.43 165.684C239.044 165.248 238.688 164.785 238.365 164.301C236.726 161.895 235.9 159.027 236.01 156.118C236.12 153.209 237.16 150.412 238.977 148.138C239.336 147.684 239.724 147.254 240.14 146.852L240.373 146.62L240.679 146.357C241.095 145.992 241.534 145.654 241.995 145.347C243.077 144.599 244.268 144.021 245.526 143.633C247.855 142.901 250.337 142.802 252.717 143.346C254.602 143.783 256.371 144.618 257.907 145.795C259.443 146.972 260.709 148.463 261.622 150.17C262.249 151.318 262.695 152.557 262.944 153.842C263.04 154.26 263.104 154.686 263.133 155.114V155.249C263.179 155.6 263.193 155.954 263.176 156.308V156.92C263.18 156.999 263.18 157.079 263.176 157.159V157.354L263.139 157.966C263.122 158.322 263.079 158.676 263.011 159.025V159.154C262.944 159.582 262.848 160.005 262.723 160.421C262.374 161.683 261.833 162.884 261.12 163.982C260.078 165.613 258.699 167.003 257.077 168.058C255.455 169.113 253.626 169.81 251.713 170.102C251.031 170.214 250.342 170.279 249.651 170.298ZM249.651 143.982C248.355 143.976 247.067 144.183 245.838 144.594C244.67 144.954 243.565 145.495 242.564 146.198C242.134 146.476 241.725 146.785 241.34 147.122L240.82 147.599C240.461 147.964 240.128 148.352 239.822 148.762C238.133 150.866 237.163 153.456 237.053 156.152C236.943 158.848 237.699 161.509 239.21 163.744C239.508 164.189 239.835 164.615 240.189 165.017L240.41 165.274L240.661 165.525C241.01 165.879 241.385 166.208 241.78 166.51C242.728 167.281 243.789 167.901 244.926 168.346C247.032 169.205 249.327 169.49 251.579 169.172C253.364 168.908 255.074 168.271 256.596 167.3C258.118 166.33 259.417 165.049 260.41 163.542C261.096 162.517 261.624 161.395 261.977 160.212C262.251 159.292 262.435 158.347 262.527 157.391C262.527 157.269 262.527 157.177 262.564 157.103C262.601 157.03 262.564 156.938 262.564 156.816C262.546 155.857 262.435 154.902 262.234 153.964C261.972 152.757 261.532 151.596 260.93 150.518C260.138 149.089 259.081 147.824 257.815 146.791C256.285 145.536 254.482 144.656 252.552 144.221C251.602 144.036 250.636 143.95 249.669 143.964L249.651 143.982Z" fill="#E0E0E0"/>
<path d="M258.36 166.602C258.439 166.528 261.205 169.38 264.535 172.979C267.864 176.577 270.496 179.552 270.41 179.631C270.324 179.711 267.564 176.853 264.235 173.254C260.906 169.656 258.28 166.681 258.36 166.602Z" fill="#E0E0E0"/>
<path d="M270.527 179.937H270.423C270.301 179.937 270.013 179.937 264.04 173.462C258.067 166.987 258.073 166.73 258.079 166.596V166.467L258.171 166.381C258.428 166.137 258.452 166.118 260.472 168.217C261.635 169.441 263.165 171.045 264.756 172.789C266.347 174.533 267.865 176.179 268.979 177.44C270.894 179.613 270.876 179.631 270.613 179.888L270.527 179.937Z" fill="#E0E0E0"/>
<path d="M59.9932 25.5778L57.4473 26.5998L48.7691 21.0918L46.7311 16C46.7311 16 42.6919 17.3403 45.8254 23.8214C48.9588 30.3024 47.7777 28.803 47.7777 28.803C47.7777 28.803 39.4239 32.1874 39.0199 33.1972C38.7262 33.9255 41.829 42.3344 43.5487 46.8754C44.4117 49.1643 46.6516 50.7188 48.9772 50.4066C49.3024 50.3685 49.6213 50.2882 49.9258 50.168C52.0127 49.3295 62.0005 43.3625 62.0005 43.3625L66.4069 41.5938L59.9932 25.5778Z" fill="#EBEBEB"/>
<path d="M66.7375 21.2571L72.1599 39.3294L67.7902 41.0798L60.9419 23.9866L66.7375 21.2571Z" fill="#EBEBEB"/>
<path d="M148.26 165.257C149.755 165.097 151.171 164.502 152.332 163.546C153.493 162.59 154.347 161.314 154.79 159.877C156.1 155.844 154.092 151.572 150.31 150.336C146.528 149.1 142.391 151.382 141.081 155.422C140.588 156.86 140.532 158.412 140.921 159.881C141.309 161.351 142.126 162.672 143.266 163.678C132.195 161.891 129 173.525 129 173.525L153.958 181.615C153.958 181.615 158.242 170.189 148.26 165.257Z" fill="#EBEBEB"/>
<path d="M108.205 121.288C109.128 123.001 109.731 124.867 109.986 126.796H113.254L127.042 126.557L126.938 126.802C126.938 126.802 129.191 116.227 129.601 113.081C129.937 110.486 131.541 104.281 129.601 101.539C129.251 101.057 128.759 100.696 128.193 100.507C127.628 100.319 127.018 100.311 126.449 100.486C126.051 100.601 125.692 100.823 125.412 101.129C125.132 101.434 124.942 101.811 124.864 102.218C124.864 102.218 124.699 98.5461 122.067 98.4971C119.435 98.4482 119.344 100.498 119.344 100.498C119.344 100.498 118.621 96.3061 115.672 96.3429C115.105 96.3956 114.569 96.6186 114.132 96.9823C113.695 97.3461 113.378 97.8337 113.224 98.3808V90.4248C113.225 89.6481 112.932 88.8997 112.402 88.3314C111.872 87.7632 111.147 87.4177 110.372 87.3648C109.978 87.3526 109.585 87.4189 109.217 87.5599C108.849 87.7009 108.513 87.9138 108.228 88.1861C107.944 88.4584 107.716 88.7847 107.558 89.1459C107.401 89.5072 107.317 89.8962 107.312 90.2902L107.134 108.699L102.66 102.959C101.491 101.471 98.7008 102.206 98.3764 103.485C98.3764 103.485 97.5686 105.168 99.2393 107.647C100.402 109.501 108.205 121.288 108.205 121.288Z" fill="#EBEBEB"/>
<path d="M108.205 121.288C108.205 121.288 108.126 121.19 107.991 120.994L107.379 120.113L105.084 116.692L101.455 111.257L99.1906 107.855C98.7476 107.24 98.4105 106.555 98.1931 105.829C97.9363 105.052 97.9363 104.213 98.1931 103.436C98.3759 102.974 98.7284 102.6 99.1784 102.389C99.6271 102.163 100.12 102.037 100.623 102.022C101.144 101.992 101.662 102.113 102.116 102.371C102.229 102.441 102.338 102.519 102.44 102.604C102.538 102.695 102.63 102.799 102.716 102.897L103.193 103.509L107.189 108.62L106.951 108.699C107.012 103.558 107.079 97.9218 107.147 91.9242V90.7982C107.131 90.4088 107.158 90.019 107.226 89.6354C107.404 88.8391 107.885 88.1433 108.566 87.6953C108.91 87.472 109.295 87.32 109.699 87.2483C110.102 87.1766 110.516 87.1867 110.916 87.278C111.315 87.3694 111.692 87.5401 112.025 87.7799C112.357 88.0198 112.638 88.324 112.85 88.6745C113.072 89.0278 113.224 89.4205 113.297 89.8312C113.354 90.2366 113.374 90.6462 113.358 91.0552V98.3564L113.046 98.3135C113.262 97.5796 113.744 96.9529 114.399 96.5571C114.677 96.3964 114.979 96.2788 115.292 96.2082C115.453 96.1717 115.618 96.1593 115.782 96.1715C115.942 96.1805 116.101 96.1989 116.259 96.2266C116.885 96.3634 117.454 96.6905 117.887 97.163C118.683 98.0995 119.214 99.2323 119.423 100.443H119.111C119.149 100.037 119.296 99.6475 119.534 99.3162C119.773 98.9848 120.096 98.7232 120.47 98.5583C120.833 98.4043 121.22 98.3172 121.614 98.3013C121.818 98.2808 122.023 98.2808 122.226 98.3013L122.52 98.338L122.802 98.4237C123.168 98.5582 123.503 98.7675 123.784 99.0383C124.065 99.309 124.287 99.6354 124.436 99.9965C124.744 100.679 124.928 101.41 124.98 102.157L124.674 102.126C124.757 101.732 124.935 101.365 125.193 101.057C125.452 100.748 125.782 100.508 126.155 100.358C126.895 100.07 127.718 100.088 128.444 100.407C128.803 100.559 129.128 100.782 129.399 101.061C129.644 101.347 129.85 101.664 130.011 102.004C130.303 102.684 130.491 103.404 130.568 104.14C130.831 107.047 130.207 109.807 129.785 112.42C129.362 115.033 128.891 117.579 128.42 119.972C127.948 122.365 127.453 124.63 127.006 126.772L126.786 126.704L126.884 126.459L126.994 126.619L113.205 126.82L113.279 126.741V126.82H113.254H109.968H109.913V126.765C109.725 125.349 109.355 123.962 108.811 122.641C108.628 122.188 108.469 121.851 108.352 121.625C108.236 121.398 108.193 121.282 108.193 121.282C108.451 121.71 108.678 122.156 108.872 122.616C109.445 123.936 109.837 125.328 110.035 126.753L109.974 126.698H113.261L113.181 126.778V126.704H113.254L127.037 126.423H127.214L127.147 126.588L127.049 126.833L126.829 126.765C127.265 124.623 127.726 122.355 128.212 119.96C128.677 117.567 129.191 115.064 129.552 112.42C129.913 109.776 130.58 107.047 130.317 104.213C130.244 103.511 130.064 102.824 129.785 102.175C129.622 101.86 129.416 101.57 129.172 101.312C128.929 101.058 128.641 100.85 128.322 100.7C127.668 100.419 126.929 100.406 126.266 100.664C125.935 100.792 125.643 101.002 125.416 101.274C125.189 101.545 125.035 101.87 124.968 102.218L124.748 103.277L124.662 102.187C124.611 101.483 124.437 100.794 124.148 100.15C124.016 99.8268 123.82 99.5347 123.57 99.2914C123.321 99.0482 123.024 98.859 122.698 98.7358C122.011 98.5466 121.282 98.5896 120.623 98.8582C120.303 98.9992 120.027 99.2225 119.821 99.5052C119.616 99.788 119.489 100.12 119.454 100.468L119.356 101.502L119.136 100.486C118.933 99.3377 118.43 98.2632 117.679 97.3711C117.31 96.9316 116.799 96.6357 116.234 96.535C115.669 96.4344 115.087 96.5353 114.589 96.8202C113.997 97.1715 113.56 97.7333 113.365 98.3931L113.052 99.3601V91.043C113.071 90.6547 113.054 90.2656 113.003 89.8802C112.933 89.509 112.794 89.1542 112.593 88.8336C112.398 88.5161 112.141 88.2402 111.839 88.0218C111.536 87.8034 111.194 87.6467 110.831 87.5607C110.107 87.4076 109.353 87.5459 108.73 87.9458C108.108 88.3457 107.669 88.9748 107.508 89.6966C107.442 90.0578 107.418 90.4253 107.434 90.7921V91.9242C107.355 97.9157 107.275 103.552 107.202 108.699V109.085L106.969 108.779L103.022 103.675C102.759 103.255 102.418 102.889 102.018 102.598C101.603 102.363 101.13 102.251 100.653 102.273C100.188 102.29 99.7311 102.405 99.313 102.61C98.9108 102.792 98.5949 103.123 98.4317 103.534C98.193 104.261 98.193 105.046 98.4317 105.774C98.6404 106.479 98.9651 107.145 99.3926 107.744L101.639 111.159L105.219 116.625L107.465 120.076C107.716 120.468 107.905 120.768 108.046 120.976C108.187 121.184 108.205 121.288 108.205 121.288Z" fill="#263238"/>
<path d="M127.239 126.557H109.974C108.663 126.557 107.6 127.62 107.6 128.932V129.103C107.6 130.415 108.663 131.478 109.974 131.478H127.239C128.55 131.478 129.613 130.415 129.613 129.103V128.932C129.613 127.62 128.55 126.557 127.239 126.557Z" fill="#EBEBEB"/>
<path d="M127.245 131.478C127.245 131.478 127.416 131.478 127.735 131.392C128.205 131.278 128.631 131.026 128.959 130.67C129.184 130.417 129.353 130.119 129.454 129.795C129.561 129.396 129.584 128.979 129.522 128.571C129.444 128.089 129.213 127.644 128.864 127.303C128.515 126.961 128.065 126.741 127.582 126.674H109.999C109.6 126.677 109.21 126.786 108.867 126.989C108.524 127.192 108.241 127.482 108.047 127.83C107.866 128.176 107.774 128.56 107.777 128.95C107.754 129.52 107.949 130.077 108.322 130.508C108.695 130.938 109.218 131.211 109.785 131.27C110.537 131.27 111.321 131.27 112.055 131.27L119.968 131.306L125.305 131.355L126.755 131.386C126.925 131.379 127.095 131.389 127.263 131.417C127.095 131.444 126.925 131.454 126.755 131.447H125.305L119.968 131.496L112.055 131.533C111.308 131.533 110.562 131.533 109.754 131.533C109.331 131.491 108.926 131.344 108.574 131.106C108.223 130.867 107.936 130.545 107.741 130.168C107.529 129.773 107.422 129.33 107.431 128.881C107.439 128.433 107.563 127.994 107.789 127.608C108.016 127.221 108.338 126.898 108.725 126.672C109.112 126.445 109.55 126.321 109.999 126.312C116.878 126.312 123.077 126.313 127.612 126.392C128.139 126.467 128.628 126.712 129.003 127.09C129.379 127.467 129.621 127.957 129.693 128.485C129.751 128.909 129.72 129.341 129.601 129.752C129.486 130.095 129.296 130.409 129.044 130.67C128.705 131.032 128.259 131.276 127.771 131.368C127.603 131.432 127.425 131.47 127.245 131.478Z" fill="#263238"/>
<path d="M113.125 105.107C112.913 102.735 112.913 100.349 113.125 97.9769C113.338 100.349 113.338 102.735 113.125 105.107Z" fill="#263238"/>
<path d="M119.265 104.623C119.052 103.217 119.052 101.788 119.265 100.382C119.477 101.788 119.477 103.217 119.265 104.623Z" fill="#263238"/>
<path d="M124.883 106.41C124.662 105.003 124.662 103.57 124.883 102.163C125.095 103.571 125.095 105.002 124.883 106.41Z" fill="#263238"/>
<path d="M106.082 87.065C104.919 86.6491 103.792 86.1352 102.716 85.5288C101.59 85.0113 100.511 84.397 99.4907 83.6928C101.779 84.6259 103.984 85.752 106.082 87.0588V87.065Z" fill="#263238"/>
<path d="M109.068 85.382C108.669 83.8489 108.373 82.291 108.181 80.7185C107.882 79.1604 107.688 77.5841 107.6 76C108.006 77.5338 108.304 79.0942 108.493 80.6696C108.789 82.2259 108.981 83.8002 109.068 85.382Z" fill="#263238"/>
<path d="M112.783 85.8104C113.39 84.6757 114.086 83.5911 114.864 82.5668C115.558 81.4842 116.34 80.4607 117.202 79.5068C115.908 81.7296 114.43 83.8402 112.783 85.8165V85.8104Z" fill="#263238"/>
</g>
</svg>