<svg xmlns="http://www.w3.org/2000/svg" width="14" height="14" viewBox="0 0 14 14" fill="none">
<path d="M7.00016 1.99967C7.91683 1.99967 8.66683 2.74967 8.66683 3.66634C8.66683 4.58301 7.91683 5.33301 7.00016 5.33301C6.0835 5.33301 5.3335 4.58301 5.3335 3.66634C5.3335 2.74967 6.0835 1.99967 7.00016 1.99967ZM7.00016 9.49967C9.25016 9.49967 11.8335 10.5747 12.0002 11.1663V11.9997H2.00016V11.1747C2.16683 10.5747 4.75016 9.49967 7.00016 9.49967ZM7.00016 0.333008C5.1585 0.333008 3.66683 1.82467 3.66683 3.66634C3.66683 5.50801 5.1585 6.99967 7.00016 6.99967C8.84183 6.99967 10.3335 5.50801 10.3335 3.66634C10.3335 1.82467 8.84183 0.333008 7.00016 0.333008ZM7.00016 7.83301C4.77516 7.83301 0.333496 8.94967 0.333496 11.1663V13.6663H13.6668V11.1663C13.6668 8.94967 9.22516 7.83301 7.00016 7.83301Z" fill="#192129"/>
</svg>