<svg xmlns="http://www.w3.org/2000/svg" width="35" height="35" viewBox="0 0 35 35" fill="none">
<path d="M22.3376 0.378418C17.7599 0.378418 13.8073 2.97973 11.831 6.76347C9.66883 7.89521 7.87832 9.66883 6.76347 11.831C2.97973 13.8073 0.378418 17.7599 0.378418 22.3376C0.378418 28.8747 5.66551 34.1618 12.2026 34.1618C16.7802 34.1618 20.7329 31.5604 22.7092 27.7767C24.8713 26.645 26.6618 24.8713 27.7767 22.7092C31.5604 20.7329 34.1618 16.7802 34.1618 12.2026C34.1618 5.66551 28.8747 0.378418 22.3376 0.378418ZM12.2026 30.7834C7.54048 30.7834 3.75675 26.9997 3.75675 22.3376C3.75675 20.4457 4.38174 18.689 5.44592 17.2701C5.44592 23.8072 10.733 29.0943 17.2701 29.0943C15.8512 30.1584 14.0945 30.7834 12.2026 30.7834ZM17.2701 25.7159C12.608 25.7159 8.82425 21.9322 8.82425 17.2701C8.82425 15.3782 9.44924 13.6215 10.5134 12.2026C10.5134 18.7228 15.8005 24.0099 22.3376 24.0268C20.9187 25.0909 19.162 25.7159 17.2701 25.7159ZM25.2092 20.1417C24.3139 20.4626 23.3511 20.6484 22.3376 20.6484C17.6755 20.6484 13.8918 16.8647 13.8918 12.2026C13.8918 11.1891 14.0776 10.2263 14.3985 9.331C15.2938 9.01006 16.2566 8.82425 17.2701 8.82425C21.9322 8.82425 25.7159 12.608 25.7159 17.2701C25.7159 18.2836 25.5301 19.2464 25.2092 20.1417ZM29.0943 17.2701C29.0943 10.7499 23.8072 5.46281 17.2701 5.44592C18.689 4.38174 20.4288 3.75675 22.3376 3.75675C26.9997 3.75675 30.7834 7.54048 30.7834 12.2026C30.7834 14.0945 30.1584 15.8512 29.0943 17.2701Z" fill="#FFCB05"/>
</svg>