<svg xmlns="http://www.w3.org/2000/svg" width="35" height="33" viewBox="0 0 35 33" fill="none">
<path d="M20.6484 7.13508V3.75675H13.8918V7.13508H20.6484ZM3.75675 10.5134V29.0943H30.7834V10.5134H3.75675ZM30.7834 7.13508C32.6584 7.13508 34.1618 8.63844 34.1618 10.5134V29.0943C34.1618 30.9692 32.6584 32.4726 30.7834 32.4726H3.75675C1.88178 32.4726 0.378418 30.9692 0.378418 29.0943L0.39531 10.5134C0.39531 8.63844 1.88178 7.13508 3.75675 7.13508H10.5134V3.75675C10.5134 1.88178 12.0168 0.378418 13.8918 0.378418H20.6484C22.5234 0.378418 24.0268 1.88178 24.0268 3.75675V7.13508H30.7834Z" fill="#DA2128"/>
</svg>