<svg xmlns="http://www.w3.org/2000/svg" width="24" height="24" viewBox="0 0 24 24" fill="#ffffff">
<path d="M1.32 16.5067C2.96 16.5067 4.54667 16.24 6.02667 15.76C6.49333 15.6 7.01333 15.72 7.37333 16.08L9.46667 18.7067C13.24 16.9067 16.7733 13.5067 18.6533 9.6L16.0533 7.38667C15.6933 7.01333 15.5867 6.49333 15.7333 6.02667C16.2267 4.54667 16.48 2.96 16.48 1.32C16.48 0.6 17.08 0 17.8 0H22.4133C23.1333 0 24 0.32 24 1.32C24 13.7067 13.6933 24 1.32 24C0.373333 24 0 23.16 0 22.4267V17.8267C0 17.1067 0.599998 16.5067 1.32 16.5067Z" fill="white"/>
</svg>