<svg xmlns="http://www.w3.org/2000/svg" width="31" height="32" viewBox="0 0 31 32" fill="none">
<path d="M30.4217 8.28017C31.0805 7.6214 31.0805 6.55722 30.4217 5.89845L25.6414 1.1181C24.9826 0.45933 23.9184 0.45933 23.2596 1.1181L15.6753 8.70246L9.10443 2.1316C7.78688 0.814055 5.64163 0.814055 4.32408 2.1316L1.11467 5.34102C-0.202884 6.65857 -0.202884 8.80381 1.11467 10.1214L7.68552 16.6922L0.0673828 24.3104V31.4724H7.22945L14.8645 23.8374L21.4353 30.4083C23.04 32.013 25.2022 31.4218 26.2157 30.4083L29.4251 27.1988C30.7426 25.8813 30.7426 23.736 29.4251 22.4185L22.8542 15.8476L30.4217 8.28017ZM3.51328 7.72275L6.70581 4.51333L8.85105 6.65857L6.85783 8.66868L9.23956 11.0504L11.2497 9.0403L13.2767 11.0673L10.0672 14.2767L3.51328 7.72275ZM22.4826 20.2901L20.4725 22.3003L22.8542 24.682L24.8643 22.6719L27.0096 24.8171L23.8002 28.0265L17.2293 21.4557L20.4387 18.2463L22.4826 20.2901ZM5.82744 28.0941H3.44572V25.7124L19.6786 9.47948L21.8745 11.6754L22.0603 11.8612L5.82744 28.0941ZM22.0603 7.08086L24.4421 4.69914L26.8238 7.08086L24.4421 9.46259L22.0603 7.08086Z" fill="#F1554C"/>
</svg>