<svg xmlns="http://www.w3.org/2000/svg" width="106" height="94" viewBox="0 0 106 94" fill="none">
<circle cx="50" cy="47" r="47" fill="#F0F1F3"/>
<path d="M64.1762 23.5915C63.6259 23.2307 63.0149 22.972 62.3726 22.8278C62.0823 22.7572 61.788 22.7039 61.4914 22.6682C61.4574 22.3713 61.4057 22.0768 61.3364 21.786C61.1948 21.1442 60.9363 20.5339 60.5738 19.9854C60.2057 20.5343 59.9422 21.1464 59.7967 21.7909C59.7279 22.0826 59.6754 22.3779 59.6394 22.6755C59.3422 22.7108 59.0472 22.7624 58.7557 22.8302C58.1139 22.9746 57.5031 23.2324 56.9521 23.5915C57.506 23.9533 58.12 24.2136 58.7654 24.3602C59.0574 24.4293 59.3533 24.4809 59.6515 24.5148C59.6875 24.8124 59.74 25.1077 59.8088 25.3995C59.9517 26.0405 60.2092 26.6505 60.569 27.2001C60.9288 26.6505 61.1863 26.0405 61.3292 25.3995C61.3986 25.1088 61.4503 24.8142 61.4841 24.5173C61.7831 24.4835 62.0798 24.4319 62.3726 24.3626C63.0151 24.2152 63.6259 23.9541 64.1762 23.5915Z" fill="#FFCB05"/>
<path d="M106 47.5633C105.45 47.2016 104.839 46.9428 104.196 46.7995C103.905 46.7327 103.61 46.6811 103.313 46.6448C103.279 46.3479 103.227 46.0534 103.158 45.7626C103.014 45.1212 102.755 44.5111 102.393 43.9619C102.033 44.5117 101.774 45.1216 101.63 45.7626C101.561 46.0541 101.509 46.3495 101.475 46.6472C101.178 46.6833 100.883 46.7349 100.592 46.8019C99.9495 46.9454 99.3386 47.2033 98.7881 47.5633C99.3392 47.9215 99.95 48.1786 100.592 48.3222C100.884 48.3913 101.18 48.443 101.478 48.4769C101.512 48.7754 101.563 49.0716 101.633 49.3639C101.777 50.0037 102.034 50.6126 102.393 51.1622C102.753 50.6133 103.011 50.0042 103.155 49.3639C103.223 49.0722 103.275 48.7768 103.31 48.4793C103.609 48.4454 103.904 48.3937 104.196 48.3246C104.839 48.1822 105.45 47.9242 106 47.5633Z" fill="#FFCB05"/>
<path d="M83.3572 34.6949C83.0999 34.5271 82.8146 34.4068 82.5147 34.3396C82.3781 34.3084 82.2399 34.2842 82.1008 34.2671C82.086 34.1279 82.0617 33.9898 82.0281 33.8538C81.9619 33.5541 81.8413 33.269 81.6723 33.0127C81.5032 33.269 81.3826 33.5541 81.3164 33.8538C81.2828 33.9898 81.2585 34.1279 81.2438 34.2671C81.1046 34.2842 80.9665 34.3084 80.8298 34.3396C80.5303 34.4079 80.2451 34.5281 79.9873 34.6949C80.2441 34.8637 80.5296 34.9841 80.8298 35.0502C80.966 35.0838 81.1043 35.108 81.2438 35.1227C81.2607 35.2625 81.2849 35.4013 81.3164 35.5385C81.3837 35.8378 81.5042 36.1227 81.6723 36.3796C81.8403 36.1227 81.9609 35.8378 82.0281 35.5385C82.0594 35.402 82.0836 35.2641 82.1008 35.1252C82.2399 35.1081 82.3781 35.0838 82.5147 35.0527C82.8151 34.9857 83.1006 34.8644 83.3572 34.6949Z" fill="#FFCB05"/>
<path d="M45.1116 15.6754C44.8549 15.5066 44.5693 15.3862 44.2691 15.3201C44.1329 15.2866 43.9946 15.2624 43.8551 15.2476C43.838 15.1087 43.8138 14.9707 43.7825 14.8343C43.7154 14.5345 43.594 14.2494 43.4242 13.9932C43.2562 14.25 43.1356 14.5349 43.0683 14.8343C43.0371 14.9707 43.0129 15.1087 42.9957 15.2476C42.8566 15.2647 42.7184 15.2889 42.5817 15.3201C42.2822 15.3883 41.9971 15.5086 41.7393 15.6754C41.996 15.8442 42.2815 15.9646 42.5817 16.0307C42.7179 16.0642 42.8562 16.0885 42.9957 16.1032C43.0125 16.2424 43.0376 16.3804 43.0708 16.5165C43.1378 16.8133 43.2575 17.0957 43.4242 17.3504C43.5937 17.0934 43.7144 16.8075 43.7801 16.5069C43.8139 16.3718 43.8381 16.2345 43.8527 16.096C43.9927 16.0791 44.1317 16.0549 44.2691 16.0235C44.5684 15.9584 44.8537 15.8405 45.1116 15.6754Z" fill="#FFCB05"/>
<path d="M75.8621 14.6919C75.6048 14.5241 75.3195 14.4038 75.0196 14.3366C74.883 14.3054 74.7448 14.2812 74.6057 14.2641C74.5909 14.1248 74.5666 13.9868 74.533 13.8508C74.468 13.5477 74.3473 13.2593 74.1771 13C74.0081 13.2563 73.8875 13.5414 73.8213 13.8411C73.7877 13.9771 73.7634 14.1152 73.7486 14.2544C73.6093 14.2712 73.4711 14.2962 73.3347 14.3294C73.0343 14.3986 72.7489 14.5214 72.4922 14.6919C72.7489 14.8607 73.0345 14.9811 73.3347 15.0472C73.4709 15.0807 73.6092 15.105 73.7486 15.1197C73.7656 15.2595 73.7898 15.3982 73.8213 15.5354C73.8885 15.8348 74.0091 16.1197 74.1771 16.3766C74.3452 16.1197 74.4657 15.8348 74.533 15.5354C74.5643 15.399 74.5885 15.2611 74.6057 15.1221C74.7448 15.105 74.883 15.0808 75.0196 15.0496C75.3199 14.9826 75.6055 14.8614 75.8621 14.6919Z" fill="#FFCB05"/>
<path d="M91.5647 66.235C91.308 66.0662 91.0224 65.9458 90.7222 65.8797C90.5861 65.8461 90.4477 65.8219 90.3083 65.8072C90.2935 65.6679 90.2692 65.5298 90.2356 65.3939C90.1694 65.0941 90.0488 64.8091 89.8798 64.5527C89.711 64.8095 89.5896 65.0944 89.5215 65.3939C89.4902 65.5303 89.466 65.6682 89.4488 65.8072C89.3105 65.8243 89.1731 65.8485 89.0373 65.8797C88.737 65.9478 88.451 66.0681 88.1924 66.235C88.45 66.4038 88.7363 66.5242 89.0373 66.5903C89.1735 66.6238 89.3118 66.648 89.4513 66.6628C89.4672 66.8019 89.4915 66.9399 89.5239 67.0761C89.5907 67.3764 89.7112 67.6621 89.8798 67.9196C90.0473 67.6616 90.1678 67.376 90.2356 67.0761C90.2669 66.9405 90.2911 66.8033 90.3083 66.6652C90.4474 66.6481 90.5856 66.6239 90.7222 66.5927C91.0222 66.5246 91.3075 66.4035 91.5647 66.235Z" fill="#FFCB05"/>
<path d="M23.4682 17.3021C22.9173 16.9429 22.3065 16.6851 21.6647 16.5407C21.3727 16.4708 21.0768 16.4183 20.7786 16.3836C20.7448 16.0867 20.6931 15.7921 20.6237 15.5014C20.4788 14.8598 20.217 14.2502 19.8514 13.7031C19.4889 14.2517 19.2304 14.862 19.0888 15.5038C19.0234 15.7941 18.9741 16.0878 18.9411 16.3836C18.6438 16.4177 18.3487 16.4694 18.0575 16.5383C17.4161 16.683 16.8055 16.9399 16.2539 17.2972C16.8036 17.6623 17.4145 17.9259 18.0575 18.0755C18.3495 18.1446 18.6454 18.1963 18.9435 18.2302C18.9795 18.5278 19.0321 18.8231 19.1009 19.1148C19.2421 19.751 19.4963 20.3567 19.8514 20.9034C20.2112 20.3537 20.4687 19.7437 20.6116 19.1027C20.6806 18.8119 20.7331 18.5173 20.7689 18.2205C21.0701 18.1902 21.3693 18.1417 21.6647 18.0755C22.3076 17.9283 22.9186 17.6663 23.4682 17.3021Z" fill="#FFCB05"/>
<path d="M7.21192 63.6268C6.66271 63.2655 6.05245 63.0068 5.41076 62.863C5.11875 62.7939 4.82287 62.7422 4.5247 62.7083C4.49092 62.4114 4.43918 62.1168 4.36976 61.8261C4.22604 61.185 3.96771 60.575 3.60717 60.0254C3.2452 60.5736 2.98598 61.1829 2.84216 61.8237C2.77294 62.1152 2.7212 62.4106 2.68722 62.7083C2.39002 62.7434 2.09502 62.795 1.80359 62.863C1.16142 63.0077 0.550522 63.2664 0 63.6268C0.551306 63.9846 1.16203 64.2416 1.80359 64.3857C2.09559 64.4548 2.39147 64.5065 2.68964 64.5404C2.7248 64.8379 2.77653 65.1332 2.84458 65.425C2.9883 66.0661 3.24663 66.6761 3.60717 67.2257C3.96262 66.6748 4.21677 66.065 4.35766 65.425C4.42708 65.1343 4.47882 64.8397 4.5126 64.5428C4.81154 64.5087 5.10821 64.457 5.40107 64.3881C6.04568 64.2452 6.65914 63.9873 7.21192 63.6268Z" fill="#FFCB05"/>
<path d="M9.88699 37.1993C9.62873 37.0312 9.34268 36.9101 9.04209 36.8416C8.9041 36.8102 8.76611 36.786 8.63053 36.7691C8.61339 36.6302 8.58915 36.4922 8.55791 36.3558C8.48974 36.0563 8.36839 35.7714 8.19961 35.5146C8.03055 35.771 7.90993 36.0561 7.84373 36.3558C7.81036 36.4926 7.78609 36.6315 7.77111 36.7715C7.63162 36.7863 7.49331 36.8105 7.35713 36.844C7.05693 36.9101 6.77139 37.0305 6.51465 37.1993C6.77246 37.3661 7.05762 37.4864 7.35713 37.5546C7.49379 37.5858 7.63197 37.61 7.77111 37.6271C7.78825 37.766 7.81249 37.904 7.84373 38.0404C7.91209 38.3395 8.03254 38.6242 8.19961 38.8816C8.36768 38.6247 8.48821 38.3398 8.55549 38.0404C8.58673 37.904 8.61097 37.766 8.62811 37.6271C8.76759 37.6124 8.90591 37.5881 9.04209 37.5546C9.34256 37.487 9.62864 37.3667 9.88699 37.1993Z" fill="#FFCB05"/>
<path d="M30.9881 29.8907C30.7309 29.7222 30.4456 29.6011 30.1456 29.533C30.0089 29.5018 29.8708 29.4776 29.7316 29.4605C29.7168 29.3212 29.6926 29.1831 29.659 29.0472C29.5928 28.7475 29.4722 28.4624 29.3031 28.2061C29.1341 28.4624 29.0134 28.7475 28.9472 29.0472C28.9139 29.184 28.8896 29.3229 28.8746 29.4629C28.7351 29.4777 28.5968 29.5019 28.4606 29.5354C28.1604 29.6015 27.8749 29.7219 27.6182 29.8907C27.876 30.0575 28.1611 30.1778 28.4606 30.246C28.5973 30.2772 28.7355 30.3014 28.8746 30.3185C28.8918 30.4574 28.916 30.5954 28.9472 30.7318C29.0145 31.0312 29.1351 31.3161 29.3031 31.573C29.4712 31.3161 29.5917 31.0312 29.659 30.7318C29.6902 30.5954 29.7145 30.4574 29.7316 30.3185C29.8711 30.3038 30.0094 30.2795 30.1456 30.246C30.4455 30.1789 30.7308 30.0585 30.9881 29.8907Z" fill="#FFCB05"/>
<path d="M83.8747 49.4631C83.0748 49.4865 82.2932 49.7074 81.5998 50.1062C80.9063 50.505 80.3227 51.0691 79.9011 51.7482C79.4794 52.4272 79.233 53.2001 79.1837 53.9975C79.1344 54.7949 79.2839 55.5921 79.6188 56.3178C76.9848 58.5583 73.2808 60.8569 71.3077 60.3735C71.1116 60.3276 70.1263 59.107 70.1191 54.4808C70.1285 52.7748 70.2328 51.0706 70.4314 49.3761C71.4407 49.1816 72.3615 48.6702 73.0594 47.9167C73.7573 47.1631 74.1959 46.2067 74.3112 45.1868C74.4265 44.167 74.2126 43.137 73.7006 42.247C73.1886 41.357 72.4052 40.6536 71.4647 40.2392C70.5242 39.8249 69.4758 39.7213 68.4721 39.9435C67.4685 40.1657 66.5622 40.7021 65.8854 41.4746C65.2085 42.247 64.7964 43.2151 64.7093 44.2378C64.6221 45.2604 64.8643 46.2841 65.4007 47.1597C63.585 49.8643 60.7332 52.992 58.7383 53.0741C58.4962 52.934 56.8742 51.798 54.7075 45.0569C53.8844 42.4876 53.0128 38.9878 53.0128 38.9273C53.8443 38.3339 54.4656 37.4922 54.787 36.5235C55.1085 35.5549 55.1135 34.5093 54.8014 33.5376C54.4893 32.5659 53.8762 31.7182 53.0505 31.1169C52.2248 30.5155 51.2291 30.1914 50.207 30.1914C49.1849 30.1914 48.1892 30.5155 47.3635 31.1169C46.5377 31.7182 45.9246 32.5659 45.6125 33.5376C45.3004 34.5093 45.3055 35.5549 45.6269 36.5235C45.9484 37.4922 46.5696 38.3339 47.4011 38.9273C47.4011 38.9781 46.6361 42.1855 45.7065 45.0569C43.5277 51.798 41.9299 52.934 41.6781 53.0741C39.6833 52.992 36.8362 49.8619 35.0133 47.1597C35.5498 46.2841 35.7922 45.2603 35.705 44.2375C35.6178 43.2148 35.2057 42.2465 34.5287 41.474C33.8518 40.7015 32.9453 40.1651 31.9416 39.9429C30.9378 39.7208 29.8893 39.8246 28.9487 40.2392C28.0082 40.6538 27.2249 41.3574 26.7131 42.2476C26.2012 43.1378 25.9875 44.168 26.1032 45.1879C26.2189 46.2078 26.6579 47.1642 27.3561 47.9176C28.0544 48.671 28.9755 49.182 29.985 49.3761C30.1836 51.0706 30.2879 52.7748 30.2973 54.4808C30.2973 59.107 29.3048 60.3276 29.1087 60.3735C27.1332 60.8569 23.4437 58.5608 20.7976 56.3202C21.2362 55.384 21.3617 54.3319 21.1557 53.3191C20.9497 52.3063 20.423 51.3864 19.6534 50.6952C18.8838 50.004 17.9121 49.5781 16.8816 49.4804C15.8511 49.3826 14.8164 49.6182 13.9302 50.1523C13.044 50.6864 12.3532 51.4908 11.9598 52.4468C11.5664 53.4027 11.4913 54.4596 11.7454 55.4615C11.9995 56.4634 12.5695 57.3571 13.3712 58.0109C14.1729 58.6647 15.1639 59.0439 16.1979 59.0925C18.5145 63.5291 20.3791 68.1867 21.7636 72.9952C21.8076 73.1537 21.9024 73.2935 22.0336 73.393C22.1648 73.4926 22.3251 73.5464 22.4899 73.5463H77.9532C78.118 73.5464 78.2782 73.4926 78.4094 73.393C78.5406 73.2935 78.6355 73.1537 78.6794 72.9952C80.0594 68.1861 81.92 63.5277 84.233 59.0901C85.4987 59.026 86.6884 58.4674 87.5449 57.5349C88.4014 56.6023 88.8561 55.3708 88.8106 54.1063C88.7651 52.8419 88.2232 51.646 87.3019 50.7772C86.3806 49.9084 85.1539 49.4364 83.8868 49.4631H83.8747ZM50.2239 69.9352C48.0621 69.9352 46.6071 67.7599 46.6071 64.5139C46.6071 61.2678 48.0596 59.0949 50.2239 59.0949C52.3882 59.0949 53.8553 61.2702 53.8553 64.5139C53.8553 67.7575 52.4028 69.9352 50.2239 69.9352Z" fill="#002E6E"/>
<path d="M23.1491 79.2266C23.4907 81.3253 23.668 83.4474 23.6792 85.5737C23.6773 85.8898 23.7379 86.2032 23.8575 86.4958C23.9772 86.7885 24.1535 87.0548 24.3763 87.2793C24.5992 87.5038 24.8643 87.6823 25.1563 87.8043C25.4484 87.9264 25.7617 87.9897 26.0784 87.9907H74.3539C74.6706 87.9897 74.9839 87.9264 75.276 87.8043C75.568 87.6823 75.8331 87.5038 76.056 87.2793C76.2788 87.0548 76.4551 86.7885 76.5748 86.4958C76.6944 86.2032 76.755 85.8898 76.7531 85.5737C76.7619 83.4473 76.9392 81.325 77.2832 79.2266C77.3004 79.119 77.294 79.009 77.2644 78.9042C77.2348 78.7994 77.1827 78.7022 77.1118 78.6195C77.0409 78.5367 76.9528 78.4703 76.8537 78.4249C76.7545 78.3795 76.6467 78.3561 76.5376 78.3564H23.8923C23.7834 78.3565 23.6758 78.3801 23.577 78.4257C23.4781 78.4712 23.3903 78.5377 23.3197 78.6204C23.249 78.7031 23.1972 78.8001 23.1677 78.9048C23.1383 79.0094 23.1319 79.1192 23.1491 79.2266Z" fill="#002E6E"/>
</svg>