<svg xmlns="http://www.w3.org/2000/svg" width="122" height="94" viewBox="0 0 122 94" fill="none">
<circle cx="57" cy="47" r="47" fill="#F0F1F3"/>
<g clip-path="url(#clip0)">
<path d="M75.4586 28.7294C74.7372 28.2551 73.9358 27.9152 73.0932 27.7264C72.7113 27.6357 72.3243 27.5678 71.9343 27.5233C71.8881 27.1336 71.8203 26.7468 71.7311 26.3647C71.5428 25.5222 71.2028 24.7209 70.7277 24C70.2549 24.7217 69.9161 25.5228 69.7276 26.3647C69.6368 26.7476 69.5689 27.1355 69.5244 27.5264C69.1335 27.5725 68.7456 27.6404 68.3623 27.7296C67.5213 27.9187 66.7211 28.2573 66 28.7294C66.7211 29.2038 67.521 29.5456 68.3623 29.7388C68.7464 29.8293 69.1355 29.8971 69.5275 29.942C69.5721 30.3329 69.64 30.7208 69.7307 31.1037C69.9194 31.945 70.2571 32.7459 70.7277 33.4684C71.2006 32.7467 71.5394 31.9456 71.7279 31.1037C71.8174 30.7216 71.8852 30.3348 71.9311 29.9451C72.3221 29.9006 72.7102 29.8327 73.0932 29.742C73.936 29.549 74.7373 29.2061 75.4586 28.7294Z" fill="#FFCB05"/>
<path d="M115.459 54.7832C114.737 54.3082 113.936 53.9683 113.093 53.7801C112.711 53.6922 112.324 53.6244 111.934 53.577C111.889 53.1871 111.822 52.8003 111.731 52.4184C111.542 51.5767 111.203 50.7757 110.731 50.0537C110.256 50.7749 109.916 51.5761 109.728 52.4184C109.637 52.8013 109.569 53.1892 109.524 53.5802C109.134 53.6271 108.748 53.696 108.365 53.7865C107.523 53.9723 106.721 54.3101 106 54.7832C106.723 55.2537 107.524 55.5912 108.365 55.7798C108.748 55.8706 109.136 55.9384 109.528 55.983C109.572 56.375 109.64 56.764 109.731 57.1479C109.92 57.9894 110.259 58.7903 110.731 59.5126C111.2 58.7894 111.538 57.9888 111.728 57.1479C111.819 56.765 111.887 56.3771 111.931 55.9861C112.322 55.9416 112.71 55.8738 113.093 55.783C113.936 55.596 114.737 55.2572 115.459 54.7832Z" fill="#FFCB05"/>
<path d="M93.4166 40.2091C93.0791 39.9888 92.7049 39.8307 92.3116 39.7425C92.1324 39.7016 91.9512 39.6698 91.7687 39.6473C91.7462 39.4649 91.7144 39.2837 91.6734 39.1045C91.5854 38.7108 91.4262 38.3364 91.2035 37.9999C90.9853 38.3377 90.8294 38.7118 90.7431 39.1045C90.6991 39.2831 90.6673 39.4644 90.6479 39.6473C90.4654 39.6698 90.2842 39.7016 90.1049 39.7425C89.7121 39.8321 89.3381 39.9901 89 40.2091C89.3377 40.4311 89.7133 40.5893 90.1081 40.6757C90.2867 40.7198 90.4681 40.7516 90.651 40.7709C90.6733 40.9545 90.7051 41.1367 90.7463 41.3169C90.8359 41.7096 90.9939 42.0835 91.213 42.4215C91.4348 42.0849 91.593 41.7105 91.6798 41.3169C91.7238 41.1383 91.7556 40.957 91.775 40.7741C91.956 40.7519 92.137 40.7202 92.3211 40.6789C92.7117 40.5898 93.0828 40.4307 93.4166 40.2091Z" fill="#FFCB05"/>
<path d="M50.6209 13.5138C50.289 13.2939 49.92 13.1358 49.5319 13.0472C49.3532 13.0032 49.1718 12.9714 48.9889 12.952C48.9695 12.7691 48.9377 12.5878 48.8937 12.4092C48.8068 12.0156 48.6486 11.6413 48.4269 11.3046C48.2011 11.6409 48.0376 12.0151 47.9443 12.4092C47.9033 12.5884 47.8715 12.7696 47.849 12.952C47.6676 12.9745 47.4875 13.0063 47.3093 13.0472C46.9154 13.1367 46.5404 13.2947 46.2012 13.5138C46.539 13.7355 46.9146 13.8936 47.3093 13.9804C47.4879 14.0244 47.6693 14.0563 47.8522 14.0756C47.8732 14.2583 47.905 14.4395 47.9475 14.6184C48.0341 15.0086 48.1912 15.3797 48.411 15.7135C48.6308 15.3747 48.7888 14.9996 48.8778 14.6057C48.919 14.4277 48.9508 14.2475 48.973 14.0661C49.1555 14.0436 49.3367 14.0119 49.516 13.9709C49.9085 13.8854 50.2827 13.7306 50.6209 13.5138Z" fill="#FFCB05"/>
<path d="M89.4229 16.2218C89.0883 15.9977 88.7162 15.8354 88.3243 15.7425C88.1451 15.7016 87.9639 15.6698 87.7814 15.6473C87.7589 15.4649 87.7271 15.2837 87.6861 15.1045C87.5962 14.7104 87.4348 14.336 87.2099 13.9999C86.9872 14.3368 86.827 14.711 86.7368 15.1045C86.6943 15.2834 86.6625 15.4647 86.6415 15.6473C86.4598 15.6694 86.2796 15.7023 86.1018 15.7457C85.7089 15.837 85.3357 15.9983 85 16.2218C85.3367 16.4387 85.71 16.5925 86.1018 16.6757C86.2804 16.7198 86.4618 16.7516 86.6447 16.7709C86.6669 16.9545 86.6987 17.1367 86.74 17.3169C86.8296 17.7096 86.9876 18.0835 87.2067 18.4215C87.434 18.086 87.5976 17.7116 87.6893 17.3169C87.7334 17.1383 87.7652 16.957 87.7846 16.7741C87.9655 16.7519 88.1465 16.7202 88.3307 16.6789C88.7193 16.5934 89.0893 16.4385 89.4229 16.2218Z" fill="#FFCB05"/>
<path d="M103.423 79.7163C103.086 79.495 102.711 79.3359 102.318 79.2465C102.139 79.2055 101.958 79.1738 101.775 79.1513C101.753 78.9688 101.721 78.7877 101.68 78.6085C101.592 78.2148 101.433 77.8404 101.21 77.5039C100.989 77.8412 100.831 78.2154 100.743 78.6085C100.701 78.7885 100.669 78.9708 100.648 79.1544C100.465 79.1738 100.284 79.2056 100.105 79.2497C99.7112 79.3365 99.3367 79.4946 99 79.7163C99.3381 79.9353 99.7121 80.0932 100.105 80.1829C100.284 80.2238 100.465 80.2556 100.648 80.2781C100.67 80.4605 100.702 80.6417 100.743 80.8209C100.83 81.2129 100.985 81.5868 101.2 81.9255C101.422 81.5888 101.58 81.2145 101.667 80.8209C101.711 80.6423 101.743 80.461 101.762 80.2781C101.946 80.2584 102.129 80.2266 102.308 80.1829C102.705 80.0957 103.083 79.9377 103.423 79.7163Z" fill="#FFCB05"/>
<path d="M26.4491 19.7294C25.7268 19.2573 24.9256 18.9186 24.0836 18.7296C23.7049 18.6381 23.3211 18.5692 22.9343 18.5233C22.89 18.1333 22.8221 17.7465 22.7311 17.3647C22.5428 16.5222 22.2028 15.7209 21.7277 15C21.2567 15.7232 20.9201 16.5253 20.7339 17.3679C20.6412 17.7485 20.5713 18.1343 20.5244 18.5233C20.1333 18.5678 19.7452 18.6357 19.3623 18.7264C18.5219 18.9157 17.722 19.2532 17 19.7231C17.7195 20.203 18.5198 20.5493 19.3623 20.7452C19.7464 20.8357 20.1355 20.9035 20.5275 20.9483C20.5738 21.334 20.6427 21.7166 20.7339 22.0942C20.9226 22.9355 21.2603 23.7363 21.7309 24.4589C22.2038 23.7372 22.5426 22.9361 22.7311 22.0942C22.8206 21.7121 22.8884 21.3253 22.9343 20.9356C23.324 20.8951 23.711 20.8315 24.0932 20.7452C24.9333 20.5514 25.7315 20.2072 26.4491 19.7294Z" fill="#FFCB05"/>
<path d="M13.4586 70.7294C12.7346 70.2534 11.9298 69.9135 11.0836 69.7264C10.7012 69.6385 10.3143 69.5707 9.92474 69.5233C9.8799 69.1334 9.81204 68.7466 9.72153 68.3647C9.53244 67.523 9.19368 66.722 8.72137 66C8.24879 66.7258 7.91205 67.5313 7.72757 68.3774C7.63678 68.7603 7.56893 69.1482 7.52436 69.5392C7.13448 69.5861 6.74756 69.6549 6.36545 69.7455C5.52296 69.9313 4.72139 70.2691 4 70.7421C4.72276 71.2126 5.52385 71.5502 6.36545 71.7388C6.74843 71.8296 7.13648 71.8974 7.52753 71.942C7.57185 72.334 7.63971 72.723 7.73074 73.1069C7.92042 73.9484 8.25914 74.7493 8.7309 75.4716C9.20028 74.7484 9.53782 73.9478 9.72788 73.1069C9.81866 72.724 9.88652 72.3361 9.93109 71.9451C10.3221 71.9006 10.7102 71.8327 11.0932 71.742C11.9367 71.5511 12.7383 71.2079 13.4586 70.7294Z" fill="#FFCB05"/>
<path d="M4.42291 41.7791C4.08562 41.5578 3.71139 41.3987 3.31798 41.3094C3.13874 41.2684 2.95752 41.2366 2.77504 41.2141C2.75255 41.0317 2.72076 40.8506 2.67978 40.6714C2.59569 40.2785 2.44076 39.9042 2.22257 39.5668C2.00214 39.9041 1.84406 40.2782 1.75583 40.6714C1.71455 40.8555 1.6828 41.0364 1.66058 41.2173C1.47764 41.2367 1.29624 41.2685 1.11763 41.3125C0.7195 41.3979 0.340582 41.556 0 41.7791C0.338123 41.9982 0.712123 42.1561 1.10493 42.2457C1.28417 42.2867 1.46539 42.3185 1.64788 42.341C1.6699 42.5237 1.70277 42.7049 1.7463 42.8837C1.83727 43.2776 1.99861 43.6518 2.22257 43.9883C2.4443 43.6517 2.60249 43.2773 2.68931 42.8837C2.73335 42.7052 2.76517 42.5238 2.78456 42.341C2.96858 42.3218 3.15106 42.29 3.33068 42.2457C3.71953 42.1561 4.08935 41.9981 4.42291 41.7791Z" fill="#FFCB05"/>
<path d="M35.4229 38.2124C35.0856 37.9911 34.7114 37.832 34.318 37.7426C34.1387 37.7016 33.9575 37.6698 33.775 37.6474C33.7526 37.4649 33.7208 37.2838 33.6798 37.1046C33.5904 36.7113 33.4312 36.3372 33.2099 36C32.9894 36.3373 32.8314 36.7114 32.7431 37.1046C32.6993 37.2843 32.6675 37.4667 32.6479 37.6505C32.4649 37.6699 32.2835 37.7017 32.1049 37.7458C31.7112 37.8326 31.3367 37.9907 31 38.2124C31.3381 38.4314 31.7121 38.5893 32.1049 38.679C32.2842 38.7199 32.4654 38.7517 32.6479 38.7742C32.6704 38.9566 32.7021 39.1378 32.7431 39.317C32.8328 39.7096 32.9908 40.0835 33.2099 40.4216C33.4316 40.0849 33.5898 39.7106 33.6766 39.317C33.7206 39.1384 33.7525 38.9571 33.7719 38.7742C33.9558 38.7545 34.1382 38.7227 34.318 38.679C34.7112 38.5908 35.0855 38.4327 35.4229 38.2124Z" fill="#FFCB05"/>
<path d="M88.9502 56.3022L84.0604 85.1629C83.925 85.9567 83.5172 86.6766 82.9088 87.1956C82.3005 87.7147 81.5306 87.9995 80.7351 88H34.2664C33.4709 87.9995 32.7011 87.7147 32.0927 87.1956C31.4844 86.6766 31.0765 85.9567 30.9412 85.1629L26.0485 56.3022C25.9436 55.6825 26.0096 55.0454 26.239 54.4612C26.4685 53.8769 26.8527 53.368 27.3493 52.9905C27.8459 52.613 28.4357 52.3815 29.0539 52.3214C29.672 52.2613 30.2945 52.375 30.853 52.65L43.8782 59.0731L54.551 39.631C55.74 37.4563 59.2644 37.4563 60.4534 39.631L71.1262 59.0731L84.1514 52.65C84.7095 52.3743 85.332 52.2601 85.9502 52.32C86.5683 52.3799 87.1581 52.6115 87.6545 52.9893C88.1509 53.367 88.5345 53.8763 88.7632 54.4609C88.9918 55.0455 89.0565 55.6827 88.9502 56.3022Z" fill="#002E6E"/>
</g>
<defs>
<clipPath id="clip0">
<rect width="122" height="84" fill="white" transform="translate(0 10)"/>
</clipPath>
</defs>
</svg>