<svg xmlns="http://www.w3.org/2000/svg" width="102" height="94" viewBox="0 0 102 94" fill="none">
<circle cx="49" cy="47" r="47" fill="#F0F1F3"/>
<path d="M61.7546 29.1038C61.2251 28.7596 60.6372 28.5128 60.0191 28.3752C59.7398 28.3079 59.4566 28.2571 59.1712 28.223C59.1385 27.9398 59.0887 27.6587 59.0221 27.3814C58.8858 26.7691 58.6371 26.1869 58.2883 25.6636C57.934 26.1873 57.6805 26.7712 57.5405 27.386C57.4742 27.6643 57.4237 27.946 57.389 28.2299C57.1031 28.2636 56.8192 28.3129 56.5387 28.3775C55.9211 28.5152 55.3333 28.7612 54.8032 29.1038C55.3362 29.4489 55.927 29.6972 56.5481 29.837C56.8291 29.903 57.1138 29.9522 57.4007 29.9846C57.4353 30.2685 57.4859 30.5502 57.5521 30.8285C57.6895 31.44 57.9373 32.0219 58.2836 32.5463C58.6298 32.0219 58.8776 31.44 59.0151 30.8285C59.0819 30.5512 59.1317 30.2702 59.1642 29.9869C59.4519 29.9547 59.7374 29.9054 60.0191 29.8393C60.6374 29.6988 61.2252 29.4496 61.7546 29.1038Z" fill="#FFCB05"/>
<path d="M102 51.9727C101.471 51.6277 100.883 51.3808 100.264 51.2441C99.9836 51.1804 99.6998 51.1311 99.414 51.0965C99.3811 50.8133 99.3313 50.5323 99.2649 50.2549C99.1263 49.643 98.8769 49.061 98.5288 48.5371C98.1822 49.0616 97.9337 49.6434 97.795 50.2549C97.7284 50.533 97.6786 50.8148 97.6459 51.0988C97.36 51.1332 97.0762 51.1825 96.7956 51.2464C96.1777 51.3833 95.5898 51.6293 95.0601 51.9727C95.5903 52.3145 96.1781 52.5597 96.7956 52.6967C97.0766 52.7626 97.3613 52.8119 97.6482 52.8443C97.6809 53.129 97.7307 53.4116 97.7973 53.6905C97.9362 54.3008 98.1839 54.8817 98.5288 55.406C98.8753 54.8823 99.1238 54.3012 99.2626 53.6905C99.3281 53.4122 99.3778 53.1304 99.4117 52.8466C99.6986 52.8142 99.9833 52.765 100.264 52.699C100.883 52.5632 101.471 52.317 102 51.9727Z" fill="#FFCB05"/>
<path d="M80.2115 39.6965C79.9639 39.5364 79.6894 39.4216 79.4008 39.3575C79.2693 39.3278 79.1363 39.3047 79.0025 39.2884C78.9882 39.1555 78.9649 39.0238 78.9326 38.8941C78.8689 38.6082 78.7528 38.3362 78.5901 38.0917C78.4274 38.3362 78.3114 38.6082 78.2477 38.8941C78.2154 39.0238 78.192 39.1555 78.1778 39.2884C78.0439 39.3047 77.9109 39.3278 77.7794 39.3575C77.4912 39.4226 77.2168 39.5374 76.9688 39.6965C77.2158 39.8575 77.4906 39.9724 77.7794 40.0354C77.9105 40.0674 78.0436 40.0905 78.1778 40.1046C78.1941 40.2379 78.2174 40.3703 78.2477 40.5012C78.3124 40.7868 78.4284 41.0586 78.5901 41.3036C78.7518 41.0586 78.8678 40.7868 78.9326 40.5012C78.9626 40.371 78.986 40.2394 79.0025 40.1069C79.1363 40.0906 79.2693 40.0675 79.4008 40.0377C79.6898 39.9738 79.9645 39.8582 80.2115 39.6965Z" fill="#FFCB05"/>
<path d="M43.4091 21.5525C43.1621 21.3914 42.8873 21.2766 42.5985 21.2135C42.4674 21.1815 42.3343 21.1584 42.2001 21.1443C42.1836 21.0118 42.1603 20.8802 42.1302 20.75C42.0657 20.464 41.9488 20.1921 41.7854 19.9476C41.6237 20.1927 41.5077 20.4644 41.443 20.75C41.4129 20.8802 41.3896 21.0118 41.3731 21.1443C41.2392 21.1607 41.1063 21.1837 40.9748 21.2135C40.6865 21.2786 40.4121 21.3933 40.1641 21.5525C40.4111 21.7135 40.6859 21.8284 40.9748 21.8914C41.1058 21.9234 41.2389 21.9465 41.3731 21.9606C41.3893 22.0933 41.4134 22.225 41.4453 22.3549C41.5098 22.638 41.625 22.9074 41.7854 23.1504C41.9486 22.9052 42.0647 22.6324 42.1279 22.3456C42.1604 22.2168 42.1837 22.0858 42.1978 21.9537C42.3325 21.9375 42.4662 21.9144 42.5985 21.8845C42.8865 21.8224 43.161 21.71 43.4091 21.5525Z" fill="#FFCB05"/>
<path d="M72.9991 20.614C72.7515 20.454 72.477 20.3392 72.1884 20.2751C72.0569 20.2453 71.924 20.2222 71.7901 20.2059C71.7758 20.0731 71.7525 19.9413 71.7202 19.8116C71.6576 19.5225 71.5415 19.2473 71.3777 19C71.215 19.2445 71.099 19.5165 71.0353 19.8024C71.003 19.9321 70.9796 20.0639 70.9654 20.1967C70.8313 20.2127 70.6983 20.2366 70.567 20.2682C70.278 20.3342 70.0033 20.4514 69.7563 20.614C70.0034 20.7751 70.2782 20.8899 70.567 20.953C70.6981 20.985 70.8312 21.0081 70.9654 21.0222C70.9817 21.1555 71.005 21.2879 71.0353 21.4188C71.1 21.7044 71.216 21.9761 71.3777 22.2212C71.5394 21.9761 71.6554 21.7044 71.7202 21.4188C71.7502 21.2886 71.7736 21.157 71.7901 21.0245C71.924 21.0081 72.0569 20.9851 72.1884 20.9553C72.4774 20.8914 72.7521 20.7757 72.9991 20.614Z" fill="#FFCB05"/>
<path d="M88.1088 69.7846C87.8618 69.6236 87.587 69.5087 87.2982 69.4457C87.1671 69.4137 87.034 69.3906 86.8998 69.3765C86.8856 69.2437 86.8622 69.1119 86.8299 68.9822C86.7662 68.6963 86.6502 68.4243 86.4875 68.1798C86.3251 68.4248 86.2083 68.6965 86.1427 68.9822C86.1126 69.1124 86.0893 69.244 86.0728 69.3765C85.9397 69.3928 85.8075 69.4159 85.6768 69.4457C85.3878 69.5107 85.1127 69.6254 84.8638 69.7846C85.1117 69.9457 85.3872 70.0605 85.6768 70.1236C85.8078 70.1556 85.9409 70.1787 86.0751 70.1928C86.0905 70.3254 86.1138 70.4571 86.145 70.587C86.2093 70.8735 86.3253 71.1461 86.4875 71.3918C86.6487 71.1456 86.7646 70.8732 86.8299 70.587C86.86 70.4577 86.8833 70.3268 86.8998 70.1951C87.0337 70.1787 87.1667 70.1556 87.2982 70.1259C87.5868 70.061 87.8614 69.9454 88.1088 69.7846Z" fill="#FFCB05"/>
<path d="M22.5827 23.1043C22.0526 22.7617 21.4648 22.5157 20.8472 22.378C20.5663 22.3113 20.2815 22.2613 19.9946 22.2281C19.9621 21.9449 19.9123 21.6638 19.8455 21.3865C19.7061 20.7744 19.4542 20.1929 19.1024 19.671C18.7535 20.1943 18.5048 20.7766 18.3685 21.3888C18.3056 21.6658 18.2582 21.946 18.2264 22.2281C17.9403 22.2607 17.6564 22.31 17.3762 22.3757C16.759 22.5137 16.1714 22.7588 15.6406 23.0997C16.1696 23.448 16.7574 23.6995 17.3762 23.8422C17.6571 23.9081 17.9419 23.9574 18.2288 23.9897C18.2634 24.2736 18.3139 24.5553 18.3802 24.8337C18.5161 25.4405 18.7607 26.0184 19.1024 26.5399C19.4486 26.0155 19.6964 25.4336 19.8338 24.8221C19.9003 24.5446 19.9508 24.2636 19.9853 23.9805C20.2751 23.9516 20.563 23.9054 20.8472 23.8422C21.4659 23.7017 22.0539 23.4518 22.5827 23.1043Z" fill="#FFCB05"/>
<path d="M6.93977 67.2966C6.41129 66.952 5.82406 66.7051 5.20658 66.5679C4.92559 66.502 4.64088 66.4527 4.35396 66.4204C4.32145 66.1371 4.27167 65.8561 4.20486 65.5788C4.06657 64.9672 3.81799 64.3852 3.47105 63.861C3.12274 64.384 2.87331 64.9652 2.73491 65.5765C2.6683 65.8546 2.61852 66.1364 2.58582 66.4204C2.29983 66.4539 2.01596 66.5031 1.73553 66.5679C1.11759 66.706 0.529747 66.9528 0 67.2966C0.530502 67.638 1.11818 67.8831 1.73553 68.0206C2.01652 68.0865 2.30123 68.1358 2.58815 68.1682C2.62198 68.452 2.67175 68.7337 2.73724 69.0121C2.87553 69.6237 3.12412 70.2056 3.47105 70.7299C3.81309 70.2043 4.05764 69.6226 4.19322 69.0121C4.26002 68.7348 4.30981 68.4537 4.34231 68.1705C4.62997 68.1379 4.91544 68.0886 5.19726 68.0229C5.81754 67.8866 6.40786 67.6405 6.93977 67.2966Z" fill="#FFCB05"/>
<path d="M9.51364 42.0853C9.26513 41.9249 8.98986 41.8093 8.70062 41.744C8.56784 41.714 8.43505 41.691 8.30459 41.6748C8.2881 41.5423 8.26477 41.4107 8.23471 41.2806C8.16911 40.9949 8.05234 40.7231 7.88993 40.4781C7.72725 40.7227 7.61119 40.9946 7.54749 41.2806C7.51537 41.4111 7.49202 41.5436 7.4776 41.6772C7.34338 41.6912 7.21029 41.7143 7.07924 41.7463C6.79037 41.8094 6.51561 41.9243 6.26855 42.0853C6.51663 42.2444 6.79104 42.3591 7.07924 42.4242C7.21075 42.454 7.34371 42.4771 7.4776 42.4934C7.49409 42.6259 7.51742 42.7575 7.54749 42.8877C7.61326 43.1729 7.72917 43.4446 7.88993 43.6901C8.05166 43.4451 8.16764 43.1733 8.23238 42.8877C8.26244 42.7575 8.28577 42.6259 8.30226 42.4934C8.43648 42.4793 8.56958 42.4562 8.70062 42.4242C8.98976 42.3598 9.26503 42.245 9.51364 42.0853Z" fill="#FFCB05"/>
<path d="M29.8179 35.1129C29.5705 34.9521 29.2959 34.8365 29.0073 34.7716C28.8758 34.7419 28.7428 34.7188 28.6089 34.7024C28.5947 34.5696 28.5713 34.4379 28.539 34.3081C28.4753 34.0222 28.3593 33.7503 28.1966 33.5057C28.0339 33.7503 27.9178 34.0222 27.8541 34.3081C27.822 34.4387 27.7987 34.5712 27.7842 34.7047C27.65 34.7188 27.5169 34.7419 27.3859 34.7739C27.097 34.837 26.8223 34.9518 26.5752 35.1129C26.8233 35.272 27.0977 35.3867 27.3859 35.4518C27.5174 35.4816 27.6503 35.5047 27.7842 35.521C27.8007 35.6535 27.8241 35.7851 27.8541 35.9153C27.9189 36.2009 28.0348 36.4726 28.1966 36.7177C28.3583 36.4726 28.4743 36.2009 28.539 35.9153C28.5691 35.7851 28.5924 35.6535 28.6089 35.521C28.7431 35.5069 28.8762 35.4838 29.0073 35.4518C29.2958 35.3877 29.5704 35.2729 29.8179 35.1129Z" fill="#FFCB05"/>
<path d="M81.865 51.0254C81.5378 50.7959 81.1479 50.6701 80.7469 50.6648C80.3459 50.6594 79.9527 50.7747 79.6193 50.9954L68.3582 58.42C67.9203 58.7087 67.6161 59.1578 67.5126 59.6684C67.4091 60.1791 67.5146 60.7095 67.8061 61.1431C68.4587 62.108 68.8088 63.2422 68.8127 64.4033C68.8166 65.5644 68.4739 66.7008 67.8278 67.6699C67.1817 68.6391 66.2609 69.3978 65.1808 69.851C64.1008 70.3042 62.9095 70.4316 61.7566 70.2173C60.6036 70.003 59.5403 69.4565 58.6999 68.6463C57.8595 67.8362 57.2795 66.7985 57.0327 65.6634C56.7858 64.5282 56.8831 63.3462 57.3123 62.2656C57.7415 61.185 58.4835 60.2539 59.4453 59.589C59.6589 59.4418 59.841 59.2543 59.9812 59.0373C60.1213 58.8202 60.2168 58.5779 60.262 58.3242C60.3073 58.0705 60.3014 57.8104 60.2448 57.559C60.1882 57.3076 60.082 57.0697 59.9322 56.859L50.5836 43.6538C49.8405 42.6024 48.077 42.6024 47.3222 43.6538L37.9737 56.859C37.8245 57.0699 37.7188 57.3078 37.6625 57.5591C37.6062 57.8105 37.6005 58.0703 37.6457 58.3238C37.691 58.5774 37.7862 58.8196 37.926 59.0367C38.0658 59.2537 38.2475 59.4414 38.4606 59.589C39.4199 60.2539 40.1597 61.1842 40.5872 62.2634C41.0147 63.3425 41.1109 64.5226 40.8638 65.6556C40.6166 66.7887 40.0372 67.8244 39.198 68.6329C38.3588 69.4414 37.2971 69.9868 36.1461 70.2008C34.9951 70.4147 33.806 70.2877 32.7276 69.8356C31.6492 69.3835 30.7296 68.6265 30.084 67.6594C29.4384 66.6922 29.0955 65.558 29.0983 64.3989C29.1011 63.2397 29.4495 62.1072 30.0998 61.1431C30.2445 60.9286 30.3451 60.688 30.3958 60.435C30.4465 60.1821 30.4463 59.9217 30.3952 59.6687C30.3442 59.4158 30.2432 59.1754 30.0982 58.9611C29.9532 58.7468 29.7669 58.5629 29.55 58.42L18.2889 50.9954C17.9556 50.775 17.5628 50.6595 17.162 50.6643C16.7613 50.6691 16.3713 50.7939 16.0436 51.0222C15.7158 51.2505 15.4656 51.5717 15.3258 51.9435C15.186 52.3153 15.1632 52.7203 15.2604 53.1052L23.1996 84.5098C23.319 84.9895 23.6175 85.4066 24.0349 85.6774C24.4524 85.9482 24.958 86.0525 25.45 85.9694C41.0067 83.4031 56.8852 83.4031 72.4419 85.9694C72.9337 86.0508 73.4385 85.9458 73.8556 85.6753C74.2726 85.4048 74.5714 84.9887 74.6923 84.5098L82.6338 53.1052C82.7303 52.7215 82.7072 52.3179 82.5675 51.9475C82.4278 51.577 82.178 51.2572 81.8511 51.03L81.865 51.0254Z" fill="#002E6E"/>
</svg>