<svg xmlns="http://www.w3.org/2000/svg" width="110" height="95" viewBox="0 0 110 95" fill="none">
<circle cx="49" cy="48" r="47" fill="#F0F1F3"/>
<g clip-path="url(#clip0)">
<path d="M66.5977 11.1201C66.0266 10.7413 65.3926 10.4696 64.7261 10.3182C64.4248 10.2441 64.1194 10.1882 63.8116 10.1507C63.7763 9.83901 63.7226 9.52972 63.6508 9.22449C63.5039 8.55069 63.2356 7.90989 62.8594 7.33398C62.4774 7.91031 62.204 8.55295 62.053 9.22957C61.9816 9.53586 61.927 9.84592 61.8897 10.1583C61.5813 10.1954 61.2752 10.2496 60.9727 10.3207C60.3066 10.4723 59.6728 10.743 59.1011 11.1201C59.6758 11.4999 60.313 11.7732 60.9828 11.927C61.2858 11.9996 61.5928 12.0538 61.9023 12.0894C61.9396 12.4018 61.9941 12.7119 62.0656 13.0182C62.2138 13.6912 62.481 14.3316 62.8544 14.9087C63.2278 14.3316 63.4951 13.6912 63.6433 13.0182C63.7153 12.713 63.769 12.4037 63.8041 12.092C64.1143 12.0566 64.4222 12.0023 64.7261 11.9296C65.3928 11.7749 66.0267 11.5007 66.5977 11.1201Z" fill="#FFCB05"/>
<path d="M102.3 36.2879C101.729 35.9082 101.095 35.6364 100.428 35.486C100.126 35.4159 99.8196 35.3617 99.5113 35.3236C99.4759 35.0119 99.4222 34.7026 99.3506 34.3973C99.2011 33.7239 98.9322 33.0834 98.5567 32.5068C98.183 33.0841 97.9149 33.7244 97.7653 34.3973C97.6935 34.7034 97.6398 35.0136 97.6045 35.3261C97.2963 35.364 96.9902 35.4182 96.6876 35.4885C96.0212 35.6392 95.3872 35.9099 94.8159 36.2879C95.3878 36.664 96.0217 36.9338 96.6876 37.0847C96.9906 37.1572 97.2976 37.2114 97.6071 37.2471C97.6423 37.5604 97.696 37.8714 97.7678 38.1784C97.9177 38.85 98.1848 39.4893 98.5567 40.0663C98.9304 39.49 99.1984 38.8505 99.3481 38.1784C99.4187 37.872 99.4723 37.562 99.5088 37.2496C99.8183 37.214 100.125 37.1598 100.428 37.0872C101.095 36.9377 101.729 36.6668 102.3 36.2879Z" fill="#FFCB05"/>
<path d="M86.5025 22.7769C86.2355 22.6007 85.9394 22.4744 85.6282 22.4039C85.4864 22.3711 85.343 22.3457 85.1986 22.3278C85.1833 22.1815 85.1581 22.0366 85.1232 21.8938C85.0545 21.5792 84.9294 21.2799 84.7539 21.0107C84.5785 21.2799 84.4533 21.5792 84.3846 21.8938C84.3498 22.0366 84.3246 22.1815 84.3092 22.3278C84.1649 22.3457 84.0215 22.3711 83.8796 22.4039C83.5688 22.4755 83.2729 22.6018 83.0054 22.7769C83.2718 22.9541 83.5681 23.0805 83.8796 23.1499C84.021 23.1851 84.1645 23.2106 84.3092 23.2261C84.3268 23.3728 84.352 23.5185 84.3846 23.6625C84.4544 23.9768 84.5795 24.2759 84.7539 24.5456C84.9283 24.2759 85.0534 23.9768 85.1232 23.6625C85.1556 23.5193 85.1808 23.3744 85.1986 23.2286C85.343 23.2106 85.4864 23.1852 85.6282 23.1525C85.9398 23.0821 86.2361 22.9549 86.5025 22.7769Z" fill="#FFCB05"/>
<path d="M46.8136 2.80914C46.5471 2.63193 46.2508 2.5055 45.9393 2.43611C45.798 2.40091 45.6544 2.37548 45.5097 2.35998C45.4919 2.21414 45.4668 2.0693 45.4343 1.92605C45.3647 1.61127 45.2387 1.31199 45.0625 1.04297C44.8881 1.31265 44.763 1.61175 44.6932 1.92605C44.6608 2.0693 44.6356 2.21414 44.6178 2.35998C44.4734 2.37795 44.3301 2.40336 44.1882 2.43611C43.8774 2.50776 43.5815 2.63402 43.314 2.80914C43.5804 2.98635 43.8767 3.11277 44.1882 3.18216C44.3296 3.21736 44.4731 3.2428 44.6178 3.25829C44.6353 3.40437 44.6613 3.54926 44.6957 3.69222C44.7652 4.00383 44.8895 4.30033 45.0625 4.56769C45.2384 4.29791 45.3636 3.99769 45.4318 3.68207C45.4669 3.54022 45.4921 3.39608 45.5072 3.25068C45.6524 3.23292 45.7967 3.20751 45.9393 3.17455C46.2499 3.10623 46.546 2.98248 46.8136 2.80914Z" fill="#FFCB05"/>
<path d="M78.7246 1.77632C78.4576 1.60015 78.1615 1.47381 77.8504 1.40329C77.7085 1.37054 77.5651 1.34513 77.4208 1.32716C77.4054 1.18096 77.3802 1.03598 77.3454 0.893234C77.2779 0.575037 77.1527 0.272199 76.9761 0C76.8006 0.26912 76.6755 0.568418 76.6068 0.883084C76.5719 1.02583 76.5468 1.17081 76.5314 1.31701C76.3868 1.33461 76.2433 1.36088 76.1018 1.39568C75.7901 1.46838 75.4939 1.59733 75.2275 1.77632C75.494 1.95353 75.7903 2.07996 76.1018 2.14934C76.2431 2.18454 76.3867 2.20998 76.5314 2.22547C76.549 2.37219 76.5741 2.51788 76.6068 2.66194C76.6766 2.97625 76.8017 3.27535 76.9761 3.54502C77.1505 3.27535 77.2756 2.97625 77.3454 2.66194C77.3778 2.51869 77.403 2.37386 77.4208 2.22801C77.5651 2.21004 77.7085 2.18463 77.8504 2.15188C78.162 2.08155 78.4583 1.95427 78.7246 1.77632Z" fill="#FFCB05"/>
<path d="M95.0196 55.8902C94.7532 55.713 94.4569 55.5866 94.1453 55.5172C94.004 55.482 93.8605 55.4565 93.7157 55.441C93.7004 55.2948 93.6752 55.1499 93.6404 55.0071C93.5717 54.6924 93.4465 54.3931 93.2711 54.124C93.0959 54.3936 92.97 54.6927 92.8993 55.0071C92.8668 55.1504 92.8417 55.2952 92.8239 55.441C92.6803 55.459 92.5378 55.4844 92.3968 55.5172C92.0852 55.5887 91.7884 55.715 91.52 55.8902C91.7873 56.0674 92.0845 56.1938 92.3968 56.2632C92.5381 56.2984 92.6817 56.3238 92.8264 56.3393C92.843 56.4854 92.8681 56.6303 92.9018 56.7733C92.9711 57.0885 93.0962 57.3885 93.2711 57.6589C93.4449 57.388 93.57 57.0882 93.6404 56.7733C93.6728 56.6309 93.6979 56.4869 93.7157 56.3419C93.8601 56.3239 94.0035 56.2985 94.1453 56.2658C94.4566 56.1943 94.7527 56.0671 95.0196 55.8902Z" fill="#FFCB05"/>
<path d="M24.3538 4.51676C23.7821 4.13972 23.1482 3.86901 22.4821 3.71742C22.1791 3.64401 21.8721 3.58893 21.5626 3.55248C21.5276 3.24074 21.4739 2.93144 21.4018 2.62625C21.2515 1.95264 20.9799 1.31268 20.6004 0.738281C20.2243 1.31418 19.956 1.95499 19.8091 2.62879C19.7412 2.9336 19.69 3.24197 19.6558 3.55248C19.3473 3.58831 19.0411 3.64254 18.7388 3.71488C18.0733 3.86678 17.4396 4.13655 16.8672 4.51169C17.4376 4.89498 18.0716 5.17173 18.7388 5.32879C19.0419 5.40135 19.3489 5.45558 19.6583 5.4912C19.6957 5.80361 19.7502 6.11367 19.8216 6.41996C19.9682 7.08784 20.2319 7.72382 20.6004 8.29778C20.9738 7.72068 21.2411 7.08025 21.3893 6.40727C21.4609 6.10188 21.5155 5.79265 21.5526 5.48105C21.8652 5.44918 22.1756 5.39834 22.4821 5.32879C23.1493 5.17424 23.7834 4.89915 24.3538 4.51676Z" fill="#FFCB05"/>
<path d="M7.48407 53.1521C6.91414 52.7729 6.28085 52.5012 5.61494 52.3502C5.31191 52.2777 5.00487 52.2234 4.69544 52.1878C4.66039 51.8761 4.6067 51.5668 4.53466 51.2616C4.38551 50.5885 4.11744 49.9481 3.74329 49.3711C3.36766 49.9467 3.09866 50.5864 2.94941 51.2591C2.87758 51.5651 2.82389 51.8753 2.78863 52.1878C2.48021 52.2247 2.17408 52.2789 1.87165 52.3502C1.20525 52.5021 0.571296 52.7737 0 53.1521C0.57211 53.5278 1.20588 53.7976 1.87165 53.9489C2.17467 54.0215 2.48172 54.0757 2.79114 54.1113C2.82763 54.4237 2.8813 54.7338 2.95192 55.0401C3.10107 55.7132 3.36914 56.3536 3.74329 56.9306C4.11215 56.3522 4.37589 55.712 4.5221 55.0401C4.59414 54.7349 4.64783 54.4256 4.68288 54.1139C4.9931 54.078 5.30097 54.0238 5.60489 53.9515C6.27382 53.8015 6.91043 53.5307 7.48407 53.1521Z" fill="#FFCB05"/>
<path d="M10.2599 25.4064C9.99185 25.2299 9.695 25.1027 9.38307 25.0308C9.23987 24.9978 9.09667 24.9725 8.95598 24.9547C8.93819 24.8089 8.91304 24.664 8.88061 24.5208C8.80987 24.2064 8.68395 23.9073 8.5088 23.6377C8.33336 23.9068 8.20819 24.2061 8.13949 24.5208C8.10485 24.6644 8.07968 24.8102 8.06412 24.9572C7.91938 24.9727 7.77585 24.9982 7.63453 25.0334C7.323 25.1028 7.02669 25.2292 6.76025 25.4064C7.02779 25.5815 7.32372 25.7078 7.63453 25.7794C7.77635 25.8122 7.91973 25.8376 8.06412 25.8556C8.08191 26.0014 8.10707 26.1462 8.13949 26.2895C8.21042 26.6034 8.33543 26.9023 8.5088 27.1726C8.68321 26.9029 8.80829 26.6038 8.8781 26.2895C8.91053 26.1462 8.93568 26.0014 8.95347 25.8556C9.09821 25.8401 9.24175 25.8146 9.38307 25.7794C9.69488 25.7085 9.99175 25.5822 10.2599 25.4064Z" fill="#FFCB05"/>
<path d="M32.1572 17.7326C31.8904 17.5557 31.5943 17.4285 31.283 17.357C31.1411 17.3243 30.9978 17.2988 30.8534 17.2809C30.838 17.1347 30.8129 16.9897 30.778 16.847C30.7093 16.5323 30.5841 16.233 30.4087 15.9639C30.2333 16.233 30.1081 16.5323 30.0394 16.847C30.0048 16.9906 29.9796 17.1364 29.964 17.2834C29.8193 17.2989 29.6757 17.3243 29.5344 17.3595C29.2229 17.4289 28.9266 17.5554 28.6602 17.7326C28.9277 17.9077 29.2236 18.034 29.5344 18.1056C29.6762 18.1383 29.8196 18.1638 29.964 18.1817C29.9818 18.3276 30.007 18.4724 30.0394 18.6157C30.1092 18.93 30.2343 19.2291 30.4087 19.4987C30.5831 19.2291 30.7082 18.93 30.778 18.6157C30.8104 18.4724 30.8356 18.3276 30.8534 18.1817C30.9981 18.1662 31.1416 18.1408 31.283 18.1056C31.5941 18.0351 31.8903 17.9087 32.1572 17.7326Z" fill="#FFCB05"/>
<path d="M76.8128 36.7619H72.1902C72.8095 35.7901 73.1958 34.6857 73.3182 33.5366C73.4965 31.8631 73.1671 30.1745 72.3736 28.6944C71.5801 27.2143 70.36 26.0128 68.8751 25.2491C67.3902 24.4854 65.7105 24.1956 64.0588 24.418C62.4071 24.6405 60.8613 25.3648 59.6263 26.4948L53.7903 31.8237C53.2094 31.1783 52.5014 30.6625 51.7116 30.3096C50.9218 29.9567 50.0678 29.7744 49.2042 29.7744C48.3406 29.7744 47.4865 29.9567 46.6967 30.3096C45.9069 30.6625 45.1989 31.1783 44.618 31.8237L38.7745 26.4745C37.5393 25.3451 35.9935 24.6216 34.3419 24.3997C32.6904 24.1778 31.0111 24.468 29.5266 25.2319C28.042 25.9958 26.8224 27.1974 26.0292 28.6773C25.236 30.1572 24.9067 31.8457 25.0851 33.5189C25.2074 34.6668 25.5928 35.7702 26.2106 36.7416H21.6056C21.0616 36.7416 20.5231 36.8499 20.0206 37.0602C19.5181 37.2705 19.0616 37.5788 18.6771 37.9674C18.2926 38.356 17.9877 38.8173 17.7798 39.325C17.5718 39.8326 17.465 40.3767 17.4653 40.9261V47.199C17.4653 47.7536 17.6834 48.2855 18.0717 48.6776C18.4599 49.0697 18.9864 49.29 19.5354 49.29H78.8854C79.4345 49.29 79.961 49.0697 80.3492 48.6776C80.7375 48.2855 80.9556 47.7536 80.9556 47.199V40.9464C80.9559 40.3968 80.849 39.8525 80.6409 39.3447C80.4328 38.8368 80.1277 38.3754 79.7429 37.9868C79.3582 37.5981 78.9013 37.2899 78.3986 37.0798C77.8958 36.8696 77.3569 36.7616 76.8128 36.7619ZM42.9976 36.0666V36.7619H33.2575C32.3282 36.7641 31.4261 36.4453 30.7007 35.8585C29.9754 35.2717 29.4704 34.4521 29.2695 33.5357C29.0686 32.6192 29.1839 31.6609 29.5962 30.8196C30.0086 29.9784 30.6932 29.3048 31.5366 28.9106C32.2612 28.5563 33.075 28.4319 33.871 28.5538C34.6669 28.6756 35.4077 29.038 35.9959 29.5932L42.9976 36.0032V36.0666ZM69.2082 32.9885C69.0549 35.1607 67.1104 36.767 64.9549 36.767H55.4082V36.0057L62.3044 29.6896C63.3646 28.7203 64.8494 28.266 66.2211 28.6746C67.1451 28.918 67.9532 29.4858 68.5006 30.2763C69.0479 31.0668 69.2988 32.0282 69.2082 32.9885Z" fill="#002E6E"/>
<path d="M21.6055 53.4922V84.1641C21.6055 85.2733 22.0417 86.337 22.8181 87.1212C23.5946 87.9055 24.6476 88.3461 25.7457 88.3461H45.0701V53.4922H21.6055Z" fill="#002E6E"/>
<path d="M53.3481 53.4922V88.3461H72.6726C73.7706 88.3461 74.8237 87.9055 75.6001 87.1212C76.3766 86.337 76.8128 85.2733 76.8128 84.1641V53.4922H53.3481Z" fill="#002E6E"/>
</g>
<defs>
<clipPath id="clip0">
<rect width="110" height="88.3465" fill="white"/>
</clipPath>
</defs>
</svg>