<svg xmlns="http://www.w3.org/2000/svg" width="82" height="80" viewBox="0 0 82 80" fill="none">
<g clip-path="url(#clip0)">
<path d="M51.4031 59.7612L11.9174 71.124C11.5085 71.1901 11.0902 71.0903 10.7545 70.8466C10.4188 70.6029 10.1931 70.2353 10.1271 69.8244L1.28936 9.69497C1.22359 9.28409 1.32288 8.86379 1.56542 8.52644C1.80795 8.1891 2.17387 7.96234 2.58274 7.896L42.0684 1.50853C42.271 1.47551 42.4781 1.48294 42.6779 1.53039C42.8776 1.57784 43.0661 1.66439 43.2326 1.78509C43.3991 1.90578 43.5402 2.05825 43.648 2.23379C43.7558 2.40933 43.8281 2.60449 43.8608 2.80812L52.6985 57.9622C52.7637 58.3734 52.6639 58.7937 52.421 59.1309C52.1782 59.4682 51.8121 59.6949 51.4031 59.7612Z" fill="#8097B7"/>
<path d="M30.5969 59.7609L70.0805 71.1237C70.4897 71.1898 70.9082 71.0901 71.2443 70.8465C71.5803 70.6028 71.8064 70.2351 71.8729 69.8241L80.7106 9.69466C80.7432 9.49106 80.7355 9.28302 80.688 9.08241C80.6405 8.8818 80.5542 8.69256 80.4339 8.5255C80.3136 8.35844 80.1617 8.21683 79.9869 8.10876C79.8121 8.0007 79.6179 7.92829 79.4152 7.89568L39.9215 1.50821C39.5125 1.44212 39.0942 1.54189 38.7585 1.78559C38.4228 2.02929 38.1971 2.39697 38.1311 2.80781L29.3015 57.9619C29.269 58.1655 29.2767 58.3736 29.3241 58.5742C29.3716 58.7748 29.458 58.964 29.5783 59.1311C29.6986 59.2982 29.8505 59.4398 30.0253 59.5478C30.2 59.6559 30.3943 59.7283 30.5969 59.7609Z" fill="#8097B7"/>
<path d="M51.4031 59.7612L11.9174 71.124C11.5085 71.1901 11.0902 71.0903 10.7545 70.8466C10.4188 70.6029 10.1931 70.2353 10.1271 69.8244L1.28936 9.69497C1.22359 9.28409 1.32288 8.86379 1.56542 8.52644C1.80795 8.1891 2.17387 7.96234 2.58274 7.896L42.0684 1.50853C42.271 1.47551 42.4781 1.48294 42.6779 1.53039C42.8776 1.57784 43.0661 1.66439 43.2326 1.78509C43.3991 1.90578 43.5402 2.05825 43.648 2.23379C43.7558 2.40933 43.8281 2.60449 43.8608 2.80812L52.6985 57.9622C52.7637 58.3734 52.6639 58.7937 52.421 59.1309C52.1782 59.4682 51.8121 59.6949 51.4031 59.7612Z" fill="#8097B7"/>
<path d="M43.8606 2.80812C43.8279 2.60449 43.7556 2.40933 43.6478 2.23379C43.5401 2.05825 43.3989 1.90578 43.2324 1.78509C43.066 1.66439 42.8775 1.57784 42.6777 1.53039C42.478 1.48294 42.2708 1.47551 42.0682 1.50853L16.1824 5.69589V61.6564C16.1824 62.6531 16.9971 66.7729 17.9809 66.7729H33.2427L51.4029 59.7612C51.8119 59.6949 52.178 59.4682 52.4209 59.1309C52.6637 58.7937 52.7635 58.3734 52.6983 57.9623L43.8606 2.80812Z" fill="#B2C0D3"/>
<path d="M39.9215 1.50821C39.5126 1.44212 39.0943 1.54189 38.7586 1.78559C38.4229 2.02929 38.1972 2.39697 38.1312 2.80781L29.3016 57.9619C29.2358 58.3728 29.3351 58.7931 29.5776 59.1305C29.8202 59.4678 30.1861 59.6946 30.5949 59.7609L48.7572 66.7787H64.019C65.011 66.7787 65.8175 62.6528 65.8175 61.6622V5.69558L39.9215 1.50821Z" fill="#B2C0D3"/>
<path d="M60.9964 59.0038H21.0036C20.7984 59.0041 20.5951 58.9637 20.4055 58.8849C20.2158 58.8061 20.0435 58.6905 19.8984 58.5446C19.7533 58.3988 19.6382 58.2257 19.5598 58.0351C19.4814 57.8445 19.4411 57.6403 19.4414 57.4341V1.56975C19.4411 1.36353 19.4814 1.15929 19.5598 0.968716C19.6382 0.778144 19.7533 0.604988 19.8984 0.45917C20.0435 0.313351 20.2158 0.197735 20.4055 0.118943C20.5951 0.0401509 20.7984 -0.000268053 21.0036 1.33778e-06H60.9964C61.2017 -0.000268053 61.4049 0.0401509 61.5946 0.118943C61.7843 0.197735 61.9566 0.313351 62.1017 0.45917C62.2468 0.604988 62.3619 0.778144 62.4403 0.968716C62.5187 1.15929 62.5589 1.36353 62.5587 1.56975V57.4422C62.5571 57.8573 62.3917 58.2548 62.0988 58.5475C61.806 58.8403 61.4095 59.0044 60.9964 59.0038Z" fill="#EFECF7"/>
<path d="M60.9963 1.33778e-06H57.1162C57.3214 -0.000268053 57.5247 0.0401509 57.7144 0.118943C57.904 0.197735 58.0764 0.313351 58.2215 0.45917C58.3666 0.604988 58.4817 0.778144 58.5601 0.968716C58.6385 1.15929 58.6787 1.36353 58.6784 1.56975V57.4422C58.6787 57.6485 58.6385 57.8527 58.5601 58.0433C58.4817 58.2339 58.3666 58.407 58.2215 58.5528C58.0764 58.6986 57.904 58.8143 57.7144 58.8931C57.5247 58.9718 57.3214 59.0123 57.1162 59.012H60.9963C61.2016 59.0123 61.4048 58.9718 61.5945 58.8931C61.7842 58.8143 61.9565 58.6986 62.1016 58.5528C62.2467 58.407 62.3618 58.2339 62.4402 58.0433C62.5186 57.8527 62.5588 57.6485 62.5586 57.4422V1.56975C62.5588 1.36353 62.5186 1.15929 62.4402 0.968716C62.3618 0.778144 62.2467 0.604988 62.1016 0.45917C61.9565 0.313351 61.7842 0.197735 61.5945 0.118943C61.4048 0.0401509 61.2016 -0.000268053 60.9963 1.33778e-06Z" fill="#D5D8F2"/>
<path d="M52.3949 48.2511L51.1729 51.5544C50.9939 52.0416 50.6703 52.4619 50.246 52.7584C49.8216 53.0548 49.3168 53.2132 48.8 53.2121H33.2C32.6852 53.2126 32.1825 53.0548 31.7594 52.76C31.3364 52.4651 31.0132 52.0473 30.8333 51.5626L29.6112 48.2593C29.4312 47.7746 29.1081 47.3568 28.685 47.0619C28.2619 46.7671 27.7593 46.6093 27.2444 46.6098H1.20987C0.890396 46.6097 0.58389 46.7367 0.357229 46.9629C0.130568 47.1891 0.00215131 47.4963 0 47.8173L0 69.5666C0 72.3349 1.09442 74.9897 3.0425 76.9472C4.99058 78.9046 7.63274 80.0043 10.3877 80.0043H71.6163C74.3713 80.0043 77.0135 78.9046 78.9616 76.9472C80.9097 74.9897 82.0041 72.3349 82.0041 69.5666V47.8173C82.0041 47.4948 81.8766 47.1856 81.6497 46.9576C81.4228 46.7296 81.1151 46.6016 80.7942 46.6016H54.7617C54.2468 46.6011 53.7442 46.7589 53.3211 47.0537C52.8981 47.3486 52.5749 47.7664 52.3949 48.2511Z" fill="#FFCB05"/>
<path d="M24.6292 48.2508L25.8513 51.554C26.0303 52.0412 26.3538 52.4615 26.7782 52.758C27.2026 53.0545 27.7073 53.2128 28.2242 53.2117H33.2001C32.6853 53.2122 32.1826 53.0544 31.7595 52.7596C31.3365 52.4647 31.0133 52.0469 30.8334 51.5622L29.6113 48.2589C29.4313 47.7742 29.1082 47.3564 28.6851 47.0615C28.262 46.7667 27.7594 46.6089 27.2445 46.6094H22.2625C22.7764 46.6083 23.2783 46.7649 23.7013 47.0582C24.1242 47.3515 24.448 47.7676 24.6292 48.2508Z" fill="#BF9A04"/>
<path d="M77.024 46.6016V69.5666C77.024 72.3349 75.9295 74.9897 73.9815 76.9472C72.0334 78.9046 69.3912 80.0043 66.6362 80.0043H71.6122C74.3672 80.0043 77.0093 78.9046 78.9574 76.9472C80.9055 74.9897 81.9999 72.3349 81.9999 69.5666V47.8173C81.9999 47.4948 81.8724 47.1856 81.6455 46.9576C81.4186 46.7296 81.1109 46.6016 80.79 46.6016H77.024Z" fill="#BF9A04"/>
<path d="M55.1141 67.213H26.886C26.7675 67.213 26.6501 67.1896 26.5407 67.144C26.4312 67.0984 26.3317 67.0317 26.2479 66.9475C26.1641 66.8633 26.0977 66.7633 26.0523 66.6533C26.007 66.5433 25.9836 66.4254 25.9836 66.3064V60.2279C25.9836 60.1089 26.007 59.991 26.0523 59.881C26.0977 59.771 26.1641 59.671 26.2479 59.5868C26.3317 59.5026 26.4312 59.4359 26.5407 59.3903C26.6501 59.3447 26.7675 59.3213 26.886 59.3213H55.1141C55.3533 59.3218 55.5825 59.4175 55.7516 59.5874C55.9207 59.7573 56.0159 59.9876 56.0164 60.2279V66.3105C56.0148 66.55 55.9191 66.7793 55.7501 66.9483C55.5811 67.1174 55.3526 67.2125 55.1141 67.213Z" fill="#002E6E"/>
<path d="M55.1141 59.3213H51.3928C51.6321 59.3213 51.8616 59.4168 52.0308 59.5868C52.2001 59.7569 52.2951 59.9875 52.2951 60.2279V66.3105C52.2951 66.5509 52.2001 66.7815 52.0308 66.9516C51.8616 67.1216 51.6321 67.2171 51.3928 67.2171H55.1141C55.3525 67.2155 55.5807 67.1193 55.7489 66.9495C55.9171 66.7797 56.0118 66.55 56.0123 66.3105V60.232C56.0129 59.9917 55.9187 59.761 55.7503 59.5903C55.582 59.4196 55.3532 59.3229 55.1141 59.3213Z" fill="#002354"/>
<path d="M30.9431 10.4808H26.3664C26.0469 10.4678 25.7448 10.3311 25.5234 10.0994C25.3019 9.86762 25.1782 9.55879 25.1782 9.2375C25.1782 8.91622 25.3019 8.60739 25.5234 8.37564C25.7448 8.1439 26.0469 8.00721 26.3664 7.99419H30.9431C31.1098 7.98739 31.2762 8.01451 31.4322 8.07393C31.5882 8.13335 31.7307 8.22384 31.8511 8.33996C31.9714 8.45608 32.0672 8.59545 32.1326 8.74968C32.198 8.90392 32.2317 9.06985 32.2317 9.2375C32.2317 9.40516 32.198 9.57109 32.1326 9.72532C32.0672 9.87956 31.9714 10.0189 31.8511 10.135C31.7307 10.2512 31.5882 10.3417 31.4322 10.4011C31.2762 10.4605 31.1098 10.4876 30.9431 10.4808Z" fill="#33588B"/>
<path d="M55.6314 10.4808H37.8561C37.5367 10.4678 37.2346 10.3311 37.0131 10.0994C36.7916 9.86762 36.668 9.55879 36.668 9.2375C36.668 8.91622 36.7916 8.60739 37.0131 8.37564C37.2346 8.1439 37.5367 8.00721 37.8561 7.99419H55.6314C55.7981 7.98739 55.9645 8.01451 56.1205 8.07393C56.2765 8.13335 56.419 8.22384 56.5393 8.33996C56.6597 8.45608 56.7554 8.59545 56.8209 8.74968C56.8863 8.90392 56.92 9.06985 56.92 9.2375C56.92 9.40516 56.8863 9.57109 56.8209 9.72532C56.7554 9.87956 56.6597 10.0189 56.5393 10.135C56.419 10.2512 56.2765 10.3417 56.1205 10.4011C55.9645 10.4605 55.7981 10.4876 55.6314 10.4808Z" fill="#33588B"/>
<path d="M30.9431 17.6175H26.3664C26.0469 17.6045 25.7448 17.4678 25.5234 17.2361C25.3019 17.0043 25.1782 16.6955 25.1782 16.3742C25.1782 16.0529 25.3019 15.7441 25.5234 15.5124C25.7448 15.2806 26.0469 15.1439 26.3664 15.1309H30.9431C31.1098 15.1241 31.2762 15.1512 31.4322 15.2107C31.5882 15.2701 31.7307 15.3606 31.8511 15.4767C31.9714 15.5928 32.0672 15.7322 32.1326 15.8864C32.198 16.0406 32.2317 16.2066 32.2317 16.3742C32.2317 16.5419 32.198 16.7078 32.1326 16.862C32.0672 17.0163 31.9714 17.1556 31.8511 17.2718C31.7307 17.3879 31.5882 17.4784 31.4322 17.5378C31.2762 17.5972 31.1098 17.6243 30.9431 17.6175Z" fill="#33588B"/>
<path d="M55.6314 17.6175H37.8561C37.5367 17.6045 37.2346 17.4678 37.0131 17.2361C36.7916 17.0043 36.668 16.6955 36.668 16.3742C36.668 16.0529 36.7916 15.7441 37.0131 15.5124C37.2346 15.2806 37.5367 15.1439 37.8561 15.1309H55.6314C55.7981 15.1241 55.9645 15.1512 56.1205 15.2107C56.2765 15.2701 56.419 15.3606 56.5393 15.4767C56.6597 15.5928 56.7554 15.7322 56.8209 15.8864C56.8863 16.0406 56.92 16.2066 56.92 16.3742C56.92 16.5419 56.8863 16.7078 56.8209 16.862C56.7554 17.0163 56.6597 17.1556 56.5393 17.2718C56.419 17.3879 56.2765 17.4784 56.1205 17.5378C55.9645 17.5972 55.7981 17.6243 55.6314 17.6175Z" fill="#33588B"/>
<path d="M30.9431 24.764H26.3664C26.0469 24.751 25.7448 24.6143 25.5234 24.3826C25.3019 24.1508 25.1782 23.842 25.1782 23.5207C25.1782 23.1994 25.3019 22.8906 25.5234 22.6588C25.7448 22.4271 26.0469 22.2904 26.3664 22.2774H30.9431C31.1098 22.2706 31.2762 22.2977 31.4322 22.3571C31.5882 22.4166 31.7307 22.507 31.8511 22.6232C31.9714 22.7393 32.0672 22.8787 32.1326 23.0329C32.198 23.1871 32.2317 23.3531 32.2317 23.5207C32.2317 23.6884 32.198 23.8543 32.1326 24.0085C32.0672 24.1628 31.9714 24.3021 31.8511 24.4182C31.7307 24.5344 31.5882 24.6249 31.4322 24.6843C31.2762 24.7437 31.1098 24.7708 30.9431 24.764Z" fill="#33588B"/>
<path d="M55.6314 24.764H37.8561C37.5367 24.751 37.2346 24.6143 37.0131 24.3826C36.7916 24.1508 36.668 23.842 36.668 23.5207C36.668 23.1994 36.7916 22.8906 37.0131 22.6588C37.2346 22.4271 37.5367 22.2904 37.8561 22.2774H55.6314C55.7981 22.2706 55.9645 22.2977 56.1205 22.3571C56.2765 22.4166 56.419 22.507 56.5393 22.6232C56.6597 22.7393 56.7554 22.8787 56.8209 23.0329C56.8863 23.1871 56.92 23.3531 56.92 23.5207C56.92 23.6884 56.8863 23.8543 56.8209 24.0085C56.7554 24.1628 56.6597 24.3021 56.5393 24.4182C56.419 24.5344 56.2765 24.6249 56.1205 24.6843C55.9645 24.7437 55.7981 24.7708 55.6314 24.764Z" fill="#33588B"/>
<path d="M30.9431 31.892H26.3664C26.0469 31.8789 25.7448 31.7422 25.5234 31.5105C25.3019 31.2788 25.1782 30.9699 25.1782 30.6486C25.1782 30.3274 25.3019 30.0185 25.5234 29.7868C25.7448 29.555 26.0469 29.4183 26.3664 29.4053H30.9431C31.1098 29.3985 31.2762 29.4256 31.4322 29.4851C31.5882 29.5445 31.7307 29.635 31.8511 29.7511C31.9714 29.8672 32.0672 30.0066 32.1326 30.1608C32.198 30.3151 32.2317 30.481 32.2317 30.6486C32.2317 30.8163 32.198 30.9822 32.1326 31.1365C32.0672 31.2907 31.9714 31.4301 31.8511 31.5462C31.7307 31.6623 31.5882 31.7528 31.4322 31.8122C31.2762 31.8716 31.1098 31.8988 30.9431 31.892Z" fill="#33588B"/>
<path d="M55.6314 31.892H37.8561C37.5367 31.8789 37.2346 31.7422 37.0131 31.5105C36.7916 31.2788 36.668 30.9699 36.668 30.6486C36.668 30.3274 36.7916 30.0185 37.0131 29.7868C37.2346 29.555 37.5367 29.4183 37.8561 29.4053H55.6314C55.7981 29.3985 55.9645 29.4256 56.1205 29.4851C56.2765 29.5445 56.419 29.635 56.5393 29.7511C56.6597 29.8672 56.7554 30.0066 56.8209 30.1608C56.8863 30.3151 56.92 30.481 56.92 30.6486C56.92 30.8163 56.8863 30.9822 56.8209 31.1365C56.7554 31.2907 56.6597 31.4301 56.5393 31.5462C56.419 31.6623 56.2765 31.7528 56.1205 31.8122C55.9645 31.8716 55.7981 31.8988 55.6314 31.892Z" fill="#33588B"/>
<path d="M30.9432 39.0285H26.3665C26.0386 39.0285 25.7241 38.8976 25.4922 38.6647C25.2604 38.4317 25.1301 38.1157 25.1301 37.7862C25.1301 37.4568 25.2604 37.1408 25.4922 36.9078C25.7241 36.6748 26.0386 36.5439 26.3665 36.5439H30.9432C31.1055 36.5439 31.2663 36.5761 31.4163 36.6385C31.5663 36.7009 31.7026 36.7924 31.8174 36.9078C31.9322 37.0232 32.0233 37.1601 32.0854 37.3108C32.1476 37.4616 32.1795 37.6231 32.1795 37.7862C32.1795 37.9494 32.1476 38.1109 32.0854 38.2616C32.0233 38.4124 31.9322 38.5493 31.8174 38.6647C31.7026 38.78 31.5663 38.8715 31.4163 38.934C31.2663 38.9964 31.1055 39.0285 30.9432 39.0285Z" fill="#33588B"/>
<path d="M55.6315 39.0285H37.8562C37.5283 39.0285 37.2138 38.8976 36.982 38.6647C36.7501 38.4317 36.6199 38.1157 36.6199 37.7862C36.6199 37.4568 36.7501 37.1408 36.982 36.9078C37.2138 36.6748 37.5283 36.5439 37.8562 36.5439H55.6315C55.7938 36.5439 55.9546 36.5761 56.1046 36.6385C56.2546 36.7009 56.3909 36.7924 56.5057 36.9078C56.6205 37.0232 56.7116 37.1601 56.7737 37.3108C56.8358 37.4616 56.8678 37.6231 56.8678 37.7862C56.8678 37.9494 56.8358 38.1109 56.7737 38.2616C56.7116 38.4124 56.6205 38.5493 56.5057 38.6647C56.3909 38.78 56.2546 38.8715 56.1046 38.934C55.9546 38.9964 55.7938 39.0285 55.6315 39.0285Z" fill="#33588B"/>
<path d="M50.3826 74.9486H31.6175C31.4507 74.9554 31.2844 74.9283 31.1283 74.8688C30.9723 74.8094 30.8299 74.7189 30.7095 74.6028C30.5892 74.4867 30.4934 74.3473 30.428 74.1931C30.3626 74.0389 30.3289 73.8729 30.3289 73.7053C30.3289 73.5376 30.3626 73.3717 30.428 73.2175C30.4934 73.0632 30.5892 72.9239 30.7095 72.8077C30.8299 72.6916 30.9723 72.6011 31.1283 72.5417C31.2844 72.4823 31.4507 72.4552 31.6175 72.462H50.3826C50.5493 72.4552 50.7157 72.4823 50.8717 72.5417C51.0277 72.6011 51.1702 72.6916 51.2905 72.8077C51.4109 72.9239 51.5066 73.0632 51.5721 73.2175C51.6375 73.3717 51.6712 73.5376 51.6712 73.7053C51.6712 73.8729 51.6375 74.0389 51.5721 74.1931C51.5066 74.3473 51.4109 74.4867 51.2905 74.6028C51.1702 74.7189 51.0277 74.8094 50.8717 74.8688C50.7157 74.9283 50.5493 74.9554 50.3826 74.9486Z" fill="#002E6E"/>
</g>
<defs>
<clipPath id="clip0">
<rect width="82" height="80" fill="white"/>
</clipPath>
</defs>
</svg>