<svg xmlns="http://www.w3.org/2000/svg" width="82" height="82" viewBox="0 0 82 82" fill="none">
<g clip-path="url(#clip0)">
<path d="M35.9687 55.7571V27.0011C35.9687 26.4405 35.7451 25.903 35.3471 25.5066C34.9491 25.1102 34.4092 24.8876 33.8463 24.8876H32.2797C32.0498 24.8885 31.8272 24.8071 31.6526 24.6583C31.4779 24.5095 31.3626 24.3032 31.3279 24.077L27.0141 24.0623C26.89 24.0612 26.7701 24.0174 26.6746 23.9385C26.5792 23.8595 26.514 23.7501 26.4902 23.6288C26.0279 21.4492 24.1218 18.9365 21.8887 18.9365C20.8886 19.4134 20.0243 20.1321 19.3748 21.027C18.7252 21.9219 18.3111 22.9646 18.1701 24.0598C18.1391 24.2896 18.0251 24.5003 17.8495 24.6526C17.674 24.805 17.4487 24.8885 17.2159 24.8876H9.72948C9.60267 24.8873 9.47704 24.9118 9.35979 24.9599C9.24253 25.008 9.13596 25.0787 9.04618 25.1679C8.9564 25.2571 8.88516 25.363 8.83656 25.4796C8.78796 25.5963 8.76294 25.7213 8.76294 25.8476V55.7571C8.76294 56.0124 8.86477 56.2572 9.04603 56.4377C9.22729 56.6182 9.47314 56.7196 9.72948 56.7196H35.0047C35.1315 56.7196 35.257 56.6947 35.3742 56.6463C35.4913 56.5979 35.5977 56.527 35.6872 56.4376C35.7768 56.3481 35.8478 56.242 35.8961 56.1253C35.9444 56.0085 35.9691 55.8834 35.9687 55.7571Z" fill="#FFCB05"/>
<path d="M25.5778 24.0595C25.6089 24.2897 25.7232 24.5008 25.8993 24.6531C26.0754 24.8055 26.3012 24.8887 26.5345 24.8872H32.2698C32.0369 24.8881 31.8117 24.8046 31.6361 24.6523C31.4605 24.5 31.3466 24.2893 31.3155 24.0595C31.183 23.0241 30.8058 22.0349 30.2148 21.1728C29.6239 20.3108 28.836 19.6007 27.916 19.1006C26.996 18.6006 25.97 18.325 24.9222 18.2964C23.8745 18.2678 22.8348 18.4871 21.8887 18.9362C22.8841 19.4158 23.7431 20.1358 24.3875 21.0307C25.0319 21.9256 25.441 22.9668 25.5778 24.0595Z" fill="#BF9A04"/>
<path d="M39.7659 24.8867H32.8796C33.4425 24.8867 33.9824 25.1094 34.3804 25.5057C34.7785 25.9021 35.0021 26.4397 35.0021 27.0002V55.7563C35.0021 56.0111 34.9006 56.2555 34.7199 56.436C34.5391 56.6164 34.2939 56.7181 34.038 56.7187H39.7733C40.0297 56.7187 40.2755 56.6173 40.4568 56.4368C40.638 56.2563 40.7399 56.0115 40.7399 55.7563L43.3911 52.7954V28.7659L40.7399 25.8467C40.7399 25.7205 40.7148 25.5954 40.6662 25.4788C40.6176 25.3622 40.5464 25.2562 40.4566 25.167C40.3668 25.0779 40.2603 25.0072 40.143 24.9591C40.0258 24.911 39.9001 24.8864 39.7733 24.8867H39.7659Z" fill="#BF9A04"/>
<path d="M41.6966 24.8867C41.5699 24.8864 41.4444 24.911 41.3273 24.9591C41.2102 25.0073 41.1037 25.078 41.0142 25.1672C40.9246 25.2564 40.8536 25.3623 40.8052 25.479C40.7569 25.5956 40.7322 25.7206 40.7325 25.8467V34.2027H40.6956C39.0036 34.3001 37.4131 35.038 36.2498 36.2653C35.0865 37.4926 34.4385 39.1163 34.4385 40.804C34.4385 42.4916 35.0865 44.1153 36.2498 45.3426C37.4131 46.5699 39.0036 47.3078 40.6956 47.4052H40.7325V55.7587C40.7322 55.885 40.7569 56.0101 40.8052 56.1269C40.8535 56.2436 40.9245 56.3497 41.014 56.4391C41.1036 56.5285 41.21 56.5995 41.3271 56.6479C41.4442 56.6963 41.5698 56.7212 41.6966 56.7212H50.088C50.0891 57.9646 50.4423 59.1826 51.107 60.2352C51.7717 61.2878 52.721 62.1325 53.846 62.6722H53.8583C54.2005 62.8332 54.582 62.8924 54.9571 62.8429C55.3323 62.7934 55.6851 62.6372 55.9734 62.3931C57.0392 61.4857 57.7876 60.2644 58.1106 58.9057C58.2054 58.4777 58.4435 58.0946 58.7858 57.8191C59.1282 57.5436 59.5544 57.3922 59.9945 57.3898H62.7785L63.3466 56.7163H66.0643C66.6067 56.7156 67.1268 56.5008 67.5104 56.1188C67.894 55.7368 68.1098 55.2189 68.1105 54.6787V24.8867H41.6966Z" fill="#002E6E"/>
<path d="M71.7332 24.8867H66.962V54.6812C66.9623 54.9486 66.9097 55.2135 66.8071 55.4607C66.7045 55.7079 66.5541 55.9326 66.3642 56.1218C66.1744 56.311 65.949 56.4612 65.7009 56.5636C65.4528 56.666 65.1868 56.7187 64.9182 56.7187H71.7332C71.9895 56.7187 72.2354 56.6173 72.4166 56.4368C72.5979 56.2563 72.6997 56.0115 72.6997 55.7563V25.8467C72.6997 25.7205 72.6747 25.5954 72.6261 25.4788C72.5775 25.3622 72.5063 25.2562 72.4165 25.167C72.3267 25.0779 72.2201 25.0072 72.1029 24.9591C71.9856 24.911 71.86 24.8864 71.7332 24.8867Z" fill="#002354"/>
<path d="M57.4367 58.2175C57.2103 59.1797 56.7702 60.079 56.1488 60.8495C55.5274 61.62 54.7405 62.242 53.8459 62.6698C54.8569 63.1503 55.9735 63.3683 57.0918 63.3035C58.2101 63.2388 59.2938 62.8933 60.242 62.2994C61.1902 61.7055 61.972 60.8823 62.5149 59.9066C63.0577 58.9308 63.3438 57.8342 63.3466 56.7188H59.3181C58.8805 56.72 58.4563 56.8689 58.1146 57.1411C57.7729 57.4133 57.534 57.7927 57.4367 58.2175Z" fill="#002354"/>
<path d="M20.0327 77.4447V76.0708C20.0328 75.1716 20.2612 74.287 20.6968 73.4993L24.0243 66.8185C25.5295 63.8013 25.2688 60.696 24.8925 57.4609C24.1055 50.758 24.5187 43.8518 24.5187 37.1097C22.1453 38.824 19.9958 43.3841 19.9958 46.9865V53.2143C19.9958 55.3352 17.3889 56.5058 15.6255 55.4894L10.4977 50.3833C9.39298 49.2772 8.77387 47.78 8.77609 46.22V32.8926C6.33145 34.8371 4.00979 36.882 3.06046 37.624C1.99309 38.4542 1.60942 39.6787 1.47661 41.0061L0.0403277 53.1972C-0.127083 54.954 0.252439 56.7197 1.12738 58.2544C2.86863 61.3107 5.60101 66.6519 6.82087 69.8332C7.07432 70.4905 7.20437 71.1887 7.20454 71.8928V77.4447H20.0327Z" fill="#FFE5C1"/>
<path d="M29.6406 60.0197L28.9692 54.2915V39.507C28.9692 37.7927 28.3076 36.4212 26.5983 36.4212C26.1323 36.3818 25.6643 36.4708 25.2456 36.6784C24.6422 36.9668 24.134 37.4208 23.7807 37.9869C23.4274 38.553 23.2436 39.2078 23.2511 39.8743V51.1029C23.2511 53.2308 23.3759 55.3569 23.6249 57.4703L23.9249 60.0295C24.1978 62.3603 23.7923 64.7201 22.7567 66.8279L19.4292 73.499C18.9936 74.2866 18.7652 75.1712 18.7651 76.0704V77.4467H24.4808V76.0704C24.4808 75.1712 24.7092 74.2866 25.1448 73.499C27.3583 68.3561 30.2751 65.4173 29.6406 60.0295V60.0197Z" fill="#FED1A3"/>
<path d="M20.9048 73.9795H5.93698C5.55779 73.9795 5.19408 74.1293 4.92572 74.3961C4.65736 74.6629 4.50627 75.0248 4.50562 75.4024V79.7297C4.50627 80.1073 4.65736 80.4692 4.92572 80.736C5.19408 81.0028 5.55779 81.1526 5.93698 81.1526H21.4607L22.3436 80.2808V75.4024C22.3433 75.2148 22.3058 75.0291 22.2332 74.856C22.1607 74.6829 22.0545 74.5257 21.9209 74.3935C21.7872 74.2613 21.6287 74.1567 21.4543 74.0857C21.28 74.0146 21.0932 73.9785 20.9048 73.9795Z" fill="#FFCB05"/>
<path d="M27.1861 79.7297V75.4024C27.1861 75.025 27.0356 74.6631 26.7676 74.3962C26.4996 74.1294 26.1362 73.9795 25.7572 73.9795H20.0317C20.4107 73.9795 20.7742 74.1294 21.0421 74.3962C21.3101 74.6631 21.4606 75.025 21.4606 75.4024V81.1526H25.7572C26.1362 81.1526 26.4996 81.0027 26.7676 80.7358C27.0356 80.469 27.1861 80.1071 27.1861 79.7297Z" fill="#BF9A04"/>
<path d="M72.6972 37.8717V44.9076L73.8384 43.9892C74.8689 43.1639 75.196 41.7215 75.314 40.4039L76.7577 28.2128C76.9242 26.4557 76.5438 24.6901 75.6682 23.1557C73.9269 20.0993 71.197 14.7556 69.9747 11.5768C69.7248 10.9188 69.5981 10.2207 69.6009 9.51721V3.96289H56.9793V5.33923C56.9789 6.23838 56.7505 7.12288 56.3152 7.91067L52.9877 14.5891C50.6759 19.2985 52.2769 22.9303 52.4958 27.1157V41.9027C52.4958 43.617 53.1549 44.9884 54.8667 44.9884C57.8892 45.3117 61.4677 39.0741 61.4677 34.4235V28.1957C61.4679 27.8524 61.5362 27.5126 61.6688 27.1957C61.8013 26.8788 61.9954 26.5911 62.2399 26.3491L62.2645 26.3247C63.0835 25.5091 64.837 25.3451 65.8405 25.9206L70.9683 31.0267C71.5159 31.574 71.9499 32.2233 72.2453 32.9377C72.5407 33.6521 72.6918 34.4174 72.6899 35.19V37.8839L72.6972 37.8717Z" fill="#F8BD8C"/>
<path d="M80.3336 23.1557C78.5923 20.0993 75.8624 14.7556 74.6401 11.5768C74.3868 10.9194 74.2568 10.2213 74.2564 9.51721V3.96289H68.5063V9.51721C68.5067 10.2213 68.6368 10.9194 68.89 11.5768C70.1197 14.7605 72.8423 20.0993 74.5835 23.1557C75.4592 24.6901 75.8395 26.4557 75.673 28.2128L74.2269 40.4137C74.1039 41.7313 73.735 42.9386 72.6972 43.7664V48.5272C75.1566 46.5827 77.4635 44.5378 78.4128 43.7933C79.4703 42.968 79.8515 41.746 79.9794 40.4137L81.4231 28.2226C81.5917 26.4623 81.2112 24.693 80.3336 23.1557Z" fill="#E8AA80"/>
<path d="M70.6879 7.43045C71.0669 7.43045 71.4303 7.28054 71.6983 7.0137C71.9662 6.74686 72.1168 6.38495 72.1168 6.00758V1.17327L71.2019 0.25H55.7077C55.3285 0.249999 54.9648 0.39983 54.6965 0.666599C54.4281 0.933367 54.277 1.29527 54.2764 1.67287V6.00758C54.277 6.38518 54.4281 6.74708 54.6965 7.01385C54.9648 7.28062 55.3285 7.43045 55.7077 7.43045H70.6879Z" fill="#002E6E"/>
<path d="M75.5255 0.25H71.2019V6.00758C71.2019 6.38495 71.0513 6.74686 70.7833 7.0137C70.5154 7.28054 70.1519 7.43045 69.7729 7.43045H75.5255C75.7131 7.43045 75.8989 7.39365 76.0723 7.32214C76.2456 7.25063 76.4032 7.14583 76.5359 7.0137C76.6685 6.88158 76.7738 6.72472 76.8456 6.55209C76.9174 6.37946 76.9544 6.19444 76.9544 6.00758V1.67287C76.9544 1.48601 76.9174 1.30099 76.8456 1.12836C76.7738 0.955728 76.6685 0.798873 76.5359 0.666748C76.4032 0.534622 76.2456 0.429815 76.0723 0.358309C75.8989 0.286803 75.7131 0.25 75.5255 0.25V0.25Z" fill="#002354"/>
</g>
<defs>
<clipPath id="clip0">
<rect width="81.46" height="80.9025" fill="white" transform="translate(0 0.25)"/>
</clipPath>
</defs>
</svg>