<svg xmlns="http://www.w3.org/2000/svg" width="71" height="82" viewBox="0 0 71 82" fill="none">
<g clip-path="url(#clip0)">
<path d="M48.1269 78.7429V10.0038C48.1254 9.20637 47.8071 8.44212 47.2418 7.87877C46.6765 7.31542 45.9103 6.99902 45.1115 6.99902H3.01532C2.21654 6.99902 1.45039 7.31542 0.885065 7.87877C0.319737 8.44212 0.00142385 9.20637 0 10.0038L0 78.7429C-1.57503e-07 79.1381 0.0780128 79.5293 0.22958 79.8944C0.381147 80.2595 0.603296 80.5911 0.883329 80.8704C1.16336 81.1497 1.49579 81.3712 1.86161 81.5222C2.22743 81.6731 2.61947 81.7507 3.01532 81.7503H45.1115C45.9108 81.7503 46.6773 81.4335 47.2427 80.8696C47.8081 80.3057 48.1261 79.5408 48.1269 78.7429Z" fill="#002E6E"/>
<path d="M54.9932 6.99902H44.9072C45.7058 6.99902 46.4716 7.31551 47.0365 7.87893C47.6014 8.44236 47.9191 9.20662 47.9199 10.0038V78.7429C47.9199 79.5405 47.6025 80.3055 47.0375 80.8695C46.4725 81.4335 45.7062 81.7503 44.9072 81.7503H54.9932C55.3891 81.7507 55.7811 81.6731 56.1469 81.5222C56.5127 81.3712 56.8452 81.1497 57.1252 80.8704C57.4052 80.5911 57.6274 80.2595 57.779 79.8944C57.9305 79.5293 58.0085 79.1381 58.0085 78.7429V10.0038C58.0071 9.20637 57.6888 8.44212 57.1235 7.87877C56.5581 7.31542 55.792 6.99902 54.9932 6.99902Z" fill="#002354"/>
<path d="M4.92603 75.7563V12.9784C4.92603 12.6938 5.03928 12.4208 5.24088 12.2196C5.44248 12.0183 5.7159 11.9053 6.00101 11.9053H52.0048C52.2899 11.9053 52.5633 12.0183 52.7649 12.2196C52.9665 12.4208 53.0798 12.6938 53.0798 12.9784V75.7563C53.0798 76.0409 52.9665 76.3138 52.7649 76.5151C52.5633 76.7163 52.2899 76.8294 52.0048 76.8294H6.00369C5.8623 76.8298 5.72222 76.8023 5.59149 76.7485C5.46076 76.6947 5.34194 76.6157 5.24183 76.516C5.14172 76.4164 5.0623 76.2979 5.00811 76.1676C4.95392 76.0372 4.92602 75.8974 4.92603 75.7563Z" fill="#EFECF7"/>
<path d="M52.0049 11.9112H41.9243C42.2094 11.9112 42.4828 12.0242 42.6844 12.2255C42.886 12.4267 42.9993 12.6997 42.9993 12.9843V75.7622C42.9993 76.0468 42.886 76.3197 42.6844 76.521C42.4828 76.7222 42.2094 76.8353 41.9243 76.8353H52.013C52.2981 76.8353 52.5715 76.7222 52.7731 76.521C52.9747 76.3197 53.088 76.0468 53.088 75.7622V12.9843C53.088 12.8427 53.0599 12.7025 53.0054 12.5718C52.9509 12.441 52.871 12.3224 52.7703 12.2226C52.6696 12.1229 52.5502 12.044 52.4188 11.9905C52.2874 11.9371 52.1468 11.9101 52.0049 11.9112Z" fill="#D5D8F2"/>
<path d="M35.4072 4.04819V2.45192C35.4037 1.88378 35.1761 1.33991 34.7736 0.938174C34.3712 0.536434 33.8264 0.309182 33.2573 0.305664H24.7649C24.1935 0.305653 23.6453 0.531346 23.2399 0.933466C22.8346 1.33559 22.6051 1.88147 22.6016 2.45192V4.04819C22.6016 4.16433 22.5786 4.27932 22.534 4.38659C22.4894 4.49385 22.424 4.59127 22.3416 4.67327C22.2592 4.75526 22.1615 4.82022 22.0539 4.86442C21.9463 4.90862 21.831 4.93119 21.7147 4.93084H18.1861C17.6227 4.93155 17.0827 5.15544 16.6847 5.55334C16.2866 5.95123 16.063 6.49059 16.063 7.05295V11.9115H41.9458V7.04222C41.9458 6.47986 41.7222 5.9405 41.3241 5.54261C40.9261 5.14471 40.3861 4.92082 39.8227 4.92011H36.2941C36.1778 4.92046 36.0625 4.89789 35.9549 4.85369C35.8473 4.80949 35.7496 4.74453 35.6672 4.66254C35.5848 4.58054 35.5194 4.48312 35.4748 4.37586C35.4302 4.26859 35.4072 4.1536 35.4072 4.03746V4.04819Z" fill="#B2C0D3"/>
<path d="M11.1934 29.3732V19.9002C11.193 19.6503 11.242 19.4028 11.3377 19.1718C11.4333 18.9409 11.5736 18.7311 11.7507 18.5544C11.9277 18.3777 12.1378 18.2376 12.3692 18.1421C12.6005 18.0467 12.8484 17.9977 13.0988 17.998H22.5747C23.0796 17.998 23.5638 18.1981 23.9211 18.5542C24.2783 18.9104 24.4794 19.3935 24.4801 19.8975V29.3732C24.4794 29.8772 24.2783 30.3603 23.9211 30.7165C23.5638 31.0726 23.0796 31.2726 22.5747 31.2726H13.0988C12.8487 31.273 12.601 31.2241 12.3698 31.1288C12.1386 31.0335 11.9286 30.8937 11.7516 30.7172C11.5746 30.5408 11.4342 30.3313 11.3385 30.1007C11.2427 29.8701 11.1934 29.6229 11.1934 29.3732Z" fill="#FFCB05"/>
<path d="M11.1934 49.1185V39.6348C11.1934 39.3851 11.2427 39.1379 11.3385 38.9073C11.4342 38.6767 11.5746 38.4671 11.7516 38.2907C11.9286 38.1143 12.1386 37.9745 12.3698 37.8792C12.601 37.7839 12.8487 37.735 13.0988 37.7354H22.5747C23.0796 37.7354 23.5638 37.9354 23.9211 38.2915C24.2783 38.6477 24.4794 39.1308 24.4801 39.6348V49.1185C24.4737 49.6188 24.2702 50.0965 23.9136 50.448C23.5569 50.7995 23.0759 50.9966 22.5747 50.9965H13.0988C12.5974 50.9973 12.1159 50.8004 11.7592 50.4487C11.4024 50.0971 11.199 49.619 11.1934 49.1185Z" fill="#FFCB05"/>
<path d="M11.1934 68.8432V59.3701C11.1934 59.1205 11.2427 58.8733 11.3385 58.6426C11.4342 58.412 11.5746 58.2025 11.7516 58.0261C11.9286 57.8497 12.1386 57.7098 12.3698 57.6145C12.601 57.5192 12.8487 57.4704 13.0988 57.4707H22.5747C23.0796 57.4707 23.5638 57.6707 23.9211 58.0269C24.2783 58.383 24.4794 58.8661 24.4801 59.3701V68.8432C24.4794 69.3472 24.2783 69.8303 23.9211 70.1864C23.5638 70.5426 23.0796 70.7426 22.5747 70.7426H13.0988C12.8487 70.7429 12.601 70.6941 12.3698 70.5988C12.1386 70.5035 11.9286 70.3636 11.7516 70.1872C11.5746 70.0108 11.4342 69.8013 11.3385 69.5707C11.2427 69.34 11.1934 69.0928 11.1934 68.8432Z" fill="#FFCB05"/>
<path d="M17.0385 28.0297C16.7691 28.0293 16.5036 27.9654 16.2636 27.8433C16.0235 27.7211 15.8158 27.5442 15.6572 27.3268L14.2167 25.3549C14.0235 25.0913 13.9432 24.7619 13.9933 24.4391C14.0435 24.1164 14.22 23.8267 14.4841 23.6339C14.7482 23.4411 15.0782 23.3609 15.4015 23.4109C15.7248 23.461 16.0149 23.6372 16.2081 23.9008L17.0412 25.0437L19.4787 21.7546C19.5745 21.6246 19.6951 21.5147 19.8334 21.4312C19.9718 21.3477 20.1253 21.2922 20.2851 21.2679C20.4449 21.2436 20.608 21.251 20.765 21.2896C20.922 21.3282 21.0698 21.3973 21.2 21.493C21.3303 21.5886 21.4403 21.709 21.524 21.8471C21.6076 21.9852 21.6632 22.1384 21.6875 22.298C21.7119 22.4576 21.7045 22.6203 21.6658 22.7771C21.6271 22.9338 21.5579 23.0813 21.4621 23.2113L18.4172 27.3348C18.2575 27.5499 18.0497 27.7248 17.8104 27.8454C17.571 27.9661 17.3067 28.0292 17.0385 28.0297Z" fill="#F6F9F9"/>
<path d="M17.0383 48.193C16.7693 48.1924 16.5043 48.1284 16.2647 48.0063C16.0252 47.8842 15.8179 47.7073 15.6597 47.4901L14.2219 45.5182C14.0298 45.2546 13.9505 44.9256 14.0014 44.6036C14.0523 44.2816 14.2292 43.993 14.4933 43.8012C14.6241 43.7063 14.7723 43.638 14.9295 43.6002C15.0867 43.5624 15.2498 43.556 15.4095 43.5811C15.7321 43.6319 16.0212 43.8086 16.2133 44.0722L17.0464 45.2151L19.4839 41.9099C19.6774 41.6473 19.9675 41.4722 20.2903 41.4232C20.6131 41.3741 20.9422 41.4551 21.2052 41.6483C21.4682 41.8415 21.6436 42.131 21.6927 42.4533C21.7419 42.7755 21.6608 43.1041 21.4672 43.3666L18.417 47.5089C18.2574 47.724 18.0496 47.8988 17.8102 48.0195C17.5708 48.1401 17.3065 48.2032 17.0383 48.2037V48.193Z" fill="#F6F9F9"/>
<path d="M17.0383 67.4987C16.7693 67.4981 16.5043 67.4341 16.2647 67.312C16.0252 67.1898 15.8179 67.013 15.6597 66.7958L14.2219 64.8239C14.0298 64.5603 13.9505 64.2313 14.0014 63.9093C14.0523 63.5873 14.2292 63.2986 14.4933 63.1069C14.7574 62.9151 15.087 62.836 15.4095 62.8868C15.7321 62.9376 16.0212 63.1142 16.2133 63.3779L17.0464 64.5207L19.4839 61.2155C19.5797 61.0855 19.7003 60.9756 19.8386 60.8921C19.977 60.8086 20.1305 60.7531 20.2903 60.7288C20.4501 60.7046 20.6132 60.7119 20.7702 60.7505C20.9272 60.7892 21.075 60.8583 21.2052 60.9539C21.3355 61.0496 21.4455 61.1699 21.5292 61.308C21.6128 61.4462 21.6684 61.5994 21.6927 61.7589C21.7171 61.9185 21.7097 62.0813 21.671 62.238C21.6323 62.3947 21.5631 62.5423 21.4672 62.6723L18.4224 66.8038C18.2627 67.0189 18.0549 67.1938 17.8156 67.3144C17.5762 67.435 17.3119 67.4981 17.0437 67.4987H17.0383Z" fill="#F6F9F9"/>
<path d="M45.8452 23.3H30.6208C30.304 23.2852 30.005 23.1492 29.786 22.9201C29.567 22.691 29.4448 22.3866 29.4448 22.0699C29.4448 21.7533 29.567 21.4488 29.786 21.2197C30.005 20.9907 30.304 20.8546 30.6208 20.8398H45.8452C46.162 20.8546 46.461 20.9907 46.68 21.2197C46.899 21.4488 47.0212 21.7533 47.0212 22.0699C47.0212 22.3866 46.899 22.691 46.68 22.9201C46.461 23.1492 46.162 23.2852 45.8452 23.3Z" fill="#8097B7"/>
<path d="M38.2316 28.434H30.6207C30.2943 28.434 29.9812 28.3046 29.7504 28.0741C29.5196 27.8437 29.3899 27.5312 29.3899 27.2053C29.3899 26.8794 29.5196 26.5669 29.7504 26.3364C29.9812 26.106 30.2943 25.9766 30.6207 25.9766H38.2316C38.558 25.9766 38.8711 26.106 39.1019 26.3364C39.3328 26.5669 39.4625 26.8794 39.4625 27.2053C39.4625 27.5312 39.3328 27.8437 39.1019 28.0741C38.8711 28.3046 38.558 28.434 38.2316 28.434Z" fill="#8097B7"/>
<path d="M40.8492 43.0344H30.6369C30.3201 43.0196 30.0211 42.8835 29.8021 42.6545C29.5831 42.4254 29.4609 42.1209 29.4609 41.8043C29.4609 41.4877 29.5831 41.1832 29.8021 40.9541C30.0211 40.725 30.3201 40.589 30.6369 40.5742H40.8492C41.1661 40.589 41.465 40.725 41.684 40.9541C41.903 41.1832 42.0252 41.4877 42.0252 41.8043C42.0252 42.1209 41.903 42.4254 41.684 42.6545C41.465 42.8835 41.1661 43.0196 40.8492 43.0344Z" fill="#8097B7"/>
<path d="M38.2316 48.1694H30.6207C30.2943 48.1694 29.9812 48.0399 29.7504 47.8095C29.5196 47.5791 29.3899 47.2665 29.3899 46.9406C29.3899 46.6148 29.5196 46.3022 29.7504 46.0718C29.9812 45.8414 30.2943 45.7119 30.6207 45.7119H38.2316C38.558 45.7119 38.8711 45.8414 39.1019 46.0718C39.3328 46.3022 39.4625 46.6148 39.4625 46.9406C39.4625 47.2665 39.3328 47.5791 39.1019 47.8095C38.8711 48.0399 38.558 48.1694 38.2316 48.1694Z" fill="#8097B7"/>
<path d="M65.641 32.3861L64.4316 30.7951L59.9086 27.9245L58.1699 27.6562L35.004 64.1962C34.4457 65.0777 34.0363 66.0448 33.792 67.0588C35.1735 67.0763 36.5231 67.4763 37.6904 68.2143C38.8576 68.9523 39.7967 69.9993 40.4031 71.2386C41.2171 70.5845 41.918 69.8014 42.4778 68.9206L65.641 32.3861Z" fill="#FFCB05"/>
<path d="M68.9116 21.1314L66.9578 19.8973C66.5956 19.668 66.1916 19.5122 65.7691 19.4389C65.3465 19.3655 64.9136 19.3759 64.4951 19.4696C64.0765 19.5633 63.6806 19.7383 63.3299 19.9848C62.9791 20.2313 62.6805 20.5443 62.451 20.906L60.6584 23.7337L61.2309 24.8846L66.6703 28.324L68.1296 28.4582L69.9248 25.6278C70.3868 24.8972 70.5396 24.0134 70.3496 23.1704C70.1597 22.3275 69.6425 21.5941 68.9116 21.1314Z" fill="#FFCB05"/>
<path d="M58.1726 27.6564L60.6612 23.7314L68.135 28.4613L65.6464 32.3889L58.1726 27.6564Z" fill="#B2C0D3"/>
<path d="M40.4032 71.2443L33.8082 76.5509C33.6045 76.7142 33.3548 76.8099 33.094 76.8245C32.8331 76.8391 32.5743 76.7719 32.3536 76.6323C32.1329 76.4928 31.9615 76.2878 31.8633 76.0461C31.7651 75.8045 31.7451 75.5382 31.806 75.2846L33.7921 67.0645C35.1736 67.082 36.5232 67.482 37.6904 68.22C38.8577 68.958 39.7968 70.0049 40.4032 71.2443Z" fill="#B2C0D3"/>
<path d="M38.6751 68.9714L62.9562 30.6876L60.8761 29.373L36.595 67.6515C37.3569 67.9732 38.0599 68.4193 38.6751 68.9714Z" fill="#BF9A04"/>
</g>
<defs>
<clipPath id="clip0">
<rect width="70.43" height="81.4583" fill="white" transform="translate(0 0.291992)"/>
</clipPath>
</defs>
</svg>