<svg xmlns="http://www.w3.org/2000/svg" width="66" height="82" viewBox="0 0 66 82" fill="none">
<g clip-path="url(#clip0)">
<path d="M7.0616 0.291992H55.3967C55.8292 0.291992 56.244 0.46364 56.55 0.769235C56.856 1.07483 57.0282 1.48939 57.0288 1.92185V69.2576C57.0288 69.6905 56.8568 70.1056 56.5508 70.4116C56.2447 70.7177 55.8295 70.8897 55.3967 70.8897H7.0616C6.84737 70.8897 6.63524 70.8474 6.43734 70.7654C6.23944 70.6833 6.05966 70.5631 5.90828 70.4115C5.75689 70.2599 5.63688 70.08 5.55509 69.882C5.47331 69.684 5.43136 69.4718 5.43164 69.2576V1.92185C5.43164 1.70782 5.4738 1.49588 5.55571 1.29813C5.63763 1.10039 5.75769 0.920714 5.90904 0.769367C6.0604 0.618021 6.24008 0.497966 6.43784 0.416058C6.6356 0.33415 6.84755 0.291992 7.0616 0.291992V0.291992Z" fill="#8097B7"/>
<path d="M42.7733 5.72363H1.62779C1.19607 5.72363 0.782037 5.89512 0.476768 6.20037C0.171499 6.50562 0 6.91963 0 7.35133L0 74.6914C0 75.1231 0.171499 75.5371 0.476768 75.8424C0.782037 76.1477 1.19607 76.3191 1.62779 76.3191H49.9629C50.3946 76.3191 50.8086 76.1477 51.1139 75.8424C51.4192 75.5371 51.5907 75.1231 51.5907 74.6914V14.5427C51.5906 14.111 51.4191 13.697 51.1138 13.3918L43.9242 6.20045C43.619 5.89519 43.205 5.72368 42.7733 5.72363Z" fill="#B2C0D3"/>
<path d="M42.7625 5.72367H1.6538C1.21518 5.72367 0.794534 5.8979 0.484387 6.20803C0.17424 6.51816 1.4205e-06 6.93879 1.4205e-06 7.37737V70.593C-0.000283458 70.8103 0.042283 71.0256 0.125267 71.2265C0.20825 71.4274 0.330023 71.6099 0.48362 71.7637C0.637218 71.9175 0.819627 72.0395 1.02042 72.1228C1.22121 72.206 1.43644 72.2488 1.6538 72.2488H36.3619C38.6019 72.2488 40.7504 71.3598 42.3354 69.7769C43.9203 68.1941 44.8122 66.0469 44.8151 63.8069V7.76533C44.8149 7.32668 44.6411 6.90591 44.3317 6.59496L43.9416 6.207C43.7868 6.05237 43.6029 5.93001 43.4005 5.84704C43.1981 5.76407 42.9812 5.72214 42.7625 5.72367Z" fill="#D5D8F2"/>
<path d="M31.227 17.9404H10.8634C7.86351 17.9404 5.43164 20.3722 5.43164 23.3719V60.0264C5.43164 63.0261 7.86351 65.4578 10.8634 65.4578H31.227C34.2268 65.4578 36.6587 63.0261 36.6587 60.0264V23.3719C36.6587 20.3722 34.2268 17.9404 31.227 17.9404Z" fill="#EFECF7"/>
<path d="M4.07275 39.6641H47.5201V42.3776H4.07275V39.6641Z" fill="#33588B"/>
<path d="M4.07275 45.0938H47.5201V47.8095H4.07275V45.0938Z" fill="#33588B"/>
<path d="M4.07275 50.5254H47.5201V53.2411H4.07275V50.5254Z" fill="#33588B"/>
<path d="M4.07275 55.9541H47.5201V58.6698H4.07275V55.9541Z" fill="#33588B"/>
<path d="M4.07275 61.3857H47.5201V64.1015H4.07275V61.3857Z" fill="#33588B"/>
<path d="M4.7252 66.8174H46.8677C47.0402 66.8174 47.2056 66.8859 47.3275 67.0078C47.4495 67.1298 47.518 67.2951 47.518 67.4676V68.8807C47.518 69.0532 47.4495 69.2185 47.3275 69.3405C47.2056 69.4624 47.0402 69.5309 46.8677 69.5309H4.7252C4.55274 69.5309 4.38735 69.4624 4.2654 69.3405C4.14346 69.2185 4.07495 69.0532 4.07495 68.8807V67.4676C4.07495 67.2951 4.14346 67.1298 4.2654 67.0078C4.38735 66.8859 4.55274 66.8174 4.7252 66.8174Z" fill="#33588B"/>
<path d="M4.7252 61.3555H46.8677C47.0402 61.3555 47.2056 61.424 47.3275 61.5459C47.4495 61.6679 47.518 61.8332 47.518 62.0057V63.4188C47.518 63.5912 47.4495 63.7566 47.3275 63.8786C47.2056 64.0005 47.0402 64.069 46.8677 64.069H4.7252C4.55274 64.069 4.38735 64.0005 4.2654 63.8786C4.14346 63.7566 4.07495 63.5912 4.07495 63.4188V62.0057C4.07495 61.8332 4.14346 61.6679 4.2654 61.5459C4.38735 61.424 4.55274 61.3555 4.7252 61.3555Z" fill="#33588B"/>
<path d="M4.7252 55.9453H46.8677C47.0402 55.9453 47.2056 56.0138 47.3275 56.1358C47.4495 56.2577 47.518 56.4231 47.518 56.5955V58.0086C47.518 58.1811 47.4495 58.3465 47.3275 58.4684C47.2056 58.5904 47.0402 58.6589 46.8677 58.6589H4.7252C4.55274 58.6589 4.38735 58.5904 4.2654 58.4684C4.14346 58.3465 4.07495 58.1811 4.07495 58.0086V56.5955C4.07495 56.4231 4.14346 56.2577 4.2654 56.1358C4.38735 56.0138 4.55274 55.9453 4.7252 55.9453Z" fill="#33588B"/>
<path d="M4.7252 50.5098H46.8677C47.0402 50.5098 47.2056 50.5783 47.3275 50.7002C47.4495 50.8221 47.518 50.9875 47.518 51.16V52.5731C47.518 52.7455 47.4495 52.9109 47.3275 53.0329C47.2056 53.1548 47.0402 53.2233 46.8677 53.2233H4.7252C4.55274 53.2233 4.38735 53.1548 4.2654 53.0329C4.14346 52.9109 4.07495 52.7455 4.07495 52.5731V51.16C4.07495 50.9875 4.14346 50.8221 4.2654 50.7002C4.38735 50.5783 4.55274 50.5098 4.7252 50.5098Z" fill="#33588B"/>
<path d="M4.7252 45.0479H46.8677C47.0402 45.0479 47.2056 45.1164 47.3275 45.2383C47.4495 45.3602 47.518 45.5256 47.518 45.6981V47.1069C47.518 47.2793 47.4495 47.4447 47.3275 47.5666C47.2056 47.6886 47.0402 47.7571 46.8677 47.7571H4.7252C4.55274 47.7571 4.38735 47.6886 4.2654 47.5666C4.14346 47.4447 4.07495 47.2793 4.07495 47.1069V45.6981C4.07495 45.5256 4.14346 45.3602 4.2654 45.2383C4.38735 45.1164 4.55274 45.0479 4.7252 45.0479Z" fill="#33588B"/>
<path d="M4.7252 39.6377H46.8677C47.0402 39.6377 47.2056 39.7062 47.3275 39.8281C47.4495 39.9501 47.518 40.1155 47.518 40.2879V41.701C47.518 41.8735 47.4495 42.0389 47.3275 42.1608C47.2056 42.2827 47.0402 42.3512 46.8677 42.3512H4.7252C4.55274 42.3512 4.38735 42.2827 4.2654 42.1608C4.14346 42.0389 4.07495 41.8735 4.07495 41.701V40.2879C4.07495 40.1155 4.14346 39.9501 4.2654 39.8281C4.38735 39.7062 4.55274 39.6377 4.7252 39.6377Z" fill="#33588B"/>
<path d="M25.7975 22.0152C28.7973 22.0152 31.2292 19.5835 31.2292 16.5838C31.2292 13.5841 28.7973 11.1523 25.7975 11.1523C22.7976 11.1523 20.3657 13.5841 20.3657 16.5838C20.3657 19.5835 22.7976 22.0152 25.7975 22.0152Z" fill="#E8AA80"/>
<path d="M25.7931 22.0127C28.3135 22.0133 30.7304 23.0148 32.5124 24.7971C34.2943 26.5794 35.2954 28.9964 35.2954 31.5166V35.5891H16.293V31.5166C16.293 28.9968 17.2937 26.5801 19.0752 24.7979C20.8567 23.0157 23.2731 22.0138 25.7931 22.0127Z" fill="#002354"/>
<path d="M25.7933 22.0127C23.2725 22.0127 20.855 23.014 19.0726 24.7963C17.2902 26.5787 16.2888 28.996 16.2888 31.5166V32.8755H28.507C29.5877 32.8755 30.6242 32.4462 31.3884 31.6821C32.1525 30.918 32.5819 29.8816 32.5819 28.8009V24.8736C31.6985 23.9678 30.6428 23.248 29.4769 22.7567C28.311 22.2653 27.0585 22.0124 25.7933 22.0127Z" fill="#002E6E"/>
<path d="M25.7932 11.1523C24.3549 11.1558 22.9767 11.7295 21.9608 12.7478C20.945 13.766 20.3745 15.1455 20.3745 16.5838C20.3764 17.5393 20.6339 18.4769 21.1201 19.2995H24.4386C25.5189 19.2989 26.5548 18.8694 27.3185 18.1053C28.0823 17.3412 28.5113 16.3051 28.5113 15.2248V11.9066C27.6888 11.4172 26.7503 11.1568 25.7932 11.1523Z" fill="#F8BD8C"/>
<path d="M51.4453 13.8677H43.8439C43.7917 13.8677 43.7399 13.8574 43.6916 13.8373C43.6434 13.8172 43.5995 13.7878 43.5627 13.7508C43.5258 13.7137 43.4966 13.6697 43.4768 13.6214C43.457 13.573 43.447 13.5212 43.4473 13.4689V5.87012C43.625 5.94985 43.7867 6.06151 43.9241 6.19956L51.1159 13.3909C51.2539 13.5283 51.3656 13.69 51.4453 13.8677Z" fill="#EFECF7"/>
<path d="M63.8131 49.1592L62.9981 46.7144C62.8229 46.178 62.4617 45.7219 61.9798 45.4282C61.4979 45.1346 60.9269 45.0228 60.3698 45.113C59.8127 45.2033 59.3062 45.4896 58.9416 45.9203C58.577 46.351 58.3783 46.8979 58.3814 47.4622V43.7365C58.3814 43.0162 58.0952 42.3254 57.5859 41.8162C57.0766 41.3069 56.3858 41.0207 55.6655 41.0207H52.9518C52.9518 40.3005 52.6657 39.6097 52.1563 39.1004C51.647 38.5911 50.9562 38.305 50.2359 38.305H47.5201V32.8866C47.5201 32.1664 47.2339 31.4756 46.7246 30.9663C46.2153 30.457 45.5245 30.1709 44.8042 30.1709C44.0839 30.1709 43.3931 30.457 42.8838 30.9663C42.3745 31.4756 42.0883 32.1664 42.0883 32.8866V51.8749L39.4006 48.5155C38.6235 47.5455 37.5371 46.8715 36.3229 46.606C35.1087 46.3406 33.8401 46.4997 32.7291 47.0569L31.2249 47.8089L36.6566 57.3128L37.1009 60.4208C37.3845 62.4113 38.1189 64.3107 39.248 65.9742C40.3772 67.6378 41.8713 69.0216 43.6164 70.0201L47.5179 72.246H61.0951C63.7607 67.8032 65.1685 62.7193 65.1678 57.5382C65.1694 54.6904 64.7112 51.861 63.8109 49.1592H63.8131Z" fill="#F8BD8C"/>
<path d="M44.4336 72.248H62.8378C63.0982 72.248 63.3479 72.3515 63.532 72.5356C63.7162 72.7197 63.8196 72.9695 63.8196 73.2299V80.7723C63.8191 81.0323 63.7154 81.2815 63.5313 81.4652C63.3472 81.6488 63.0978 81.752 62.8378 81.752H44.4336C44.1737 81.752 43.9245 81.6488 43.7408 81.465C43.5571 81.2813 43.4539 81.0321 43.4539 80.7723V73.2299C43.4536 73.101 43.4787 72.9734 43.5278 72.8543C43.5769 72.7352 43.649 72.6269 43.74 72.5357C43.831 72.4445 43.9391 72.3722 44.0581 72.3228C44.1772 72.2735 44.3047 72.248 44.4336 72.248Z" fill="#BF9A04"/>
<path d="M43.4473 73.1953V79.0342H57.0244C57.5593 79.0342 58.0889 78.9288 58.583 78.7242C59.0771 78.5195 59.5261 78.2195 59.9043 77.8414C60.2825 77.4632 60.5825 77.0142 60.7871 76.5201C60.9918 76.026 61.0972 75.4965 61.0972 74.9617V72.2481H44.4075C44.2821 72.2467 44.1576 72.2701 44.0413 72.317C43.925 72.364 43.8192 72.4335 43.7299 72.5215C43.6406 72.6096 43.5697 72.7145 43.5212 72.8301C43.4727 72.9458 43.4475 73.0699 43.4473 73.1953Z" fill="#FFCB05"/>
<path d="M58.3813 46.457H61.0972V51.8755H58.3813V46.457Z" fill="#E8AA80"/>
<path d="M52.9519 41.0215H55.6656V51.8757H52.9519V41.0215Z" fill="#E8AA80"/>
<path d="M47.52 38.3057H50.2359V51.8755H47.52V38.3057Z" fill="#E8AA80"/>
</g>
<defs>
<clipPath id="clip0">
<rect width="65.17" height="81.4583" fill="white" transform="translate(0 0.291992)"/>
</clipPath>
</defs>
</svg>