<svg xmlns="http://www.w3.org/2000/svg" width="38" height="35" viewBox="0 0 38 35" fill="none">
<path d="M20.7396 22.4558L16.4491 18.216L16.4998 18.1653C19.439 14.8884 21.5335 11.1215 22.7666 7.13508H27.7159V3.75675H15.8917V0.378418H12.5134V3.75675H0.689209V7.11819H19.5572C18.4255 10.3783 16.6349 13.4695 14.2025 16.1721C12.6316 14.4323 11.331 12.5235 10.3006 10.5134H6.92223C8.15533 13.2668 9.84449 15.8681 11.956 18.216L3.35809 26.6956L5.75671 29.0943L14.2025 20.6484L19.4559 25.9017L20.7396 22.4558ZM30.2496 13.8918H26.8713L19.27 34.1618H22.6484L24.5402 29.0943H32.5638L34.4725 34.1618H37.8509L30.2496 13.8918ZM25.824 25.7159L28.5605 18.4018L31.2969 25.7159H25.824Z" fill="#FDB05E"/>
</svg>